G04 #@! TF.GenerationSoftware,KiCad,Pcbnew,(5.0.0-rc2-72-ge4a6f2e52)*
G04 #@! TF.CreationDate,2018-06-10T02:57:01+02:00*
G04 #@! TF.ProjectId,main,6D61696E2E6B696361645F7063620000,rev?*
G04 #@! TF.SameCoordinates,Original*
G04 #@! TF.FileFunction,Soldermask,Top*
G04 #@! TF.FilePolarity,Negative*
%FSLAX46Y46*%
G04 Gerber Fmt 4.6, Leading zero omitted, Abs format (unit mm)*
G04 Created by KiCad (PCBNEW (5.0.0-rc2-72-ge4a6f2e52)) date Sun Jun 10 02:57:01 2018*
%MOMM*%
%LPD*%
G01*
G04 APERTURE LIST*
%ADD10R,0.650000X0.950000*%
%ADD11R,0.950000X1.300000*%
%ADD12R,0.700000X1.650000*%
%ADD13O,1.700000X2.100000*%
%ADD14C,1.000000*%
%ADD15O,1.500000X2.000000*%
%ADD16R,1.500000X2.000000*%
%ADD17R,2.800000X7.400000*%
%ADD18C,2.400000*%
%ADD19C,2.050000*%
%ADD20R,2.000000X2.000000*%
%ADD21O,2.000000X2.000000*%
%ADD22C,1.800000*%
%ADD23R,1.850000X0.900000*%
%ADD24R,1.270000X1.800000*%
%ADD25R,0.970000X1.300000*%
%ADD26R,1.800000X1.270000*%
%ADD27R,1.300000X0.970000*%
%ADD28R,1.100000X1.200000*%
%ADD29R,1.800000X2.800000*%
%ADD30O,1.800000X2.800000*%
%ADD31O,2.500000X3.800000*%
%ADD32R,1.360000X0.950000*%
%ADD33R,1.000000X0.550000*%
%ADD34R,0.940000X2.700000*%
%ADD35R,2.780000X1.850000*%
%ADD36R,0.600000X0.950000*%
G04 APERTURE END LIST*
D10*
G04 #@! TO.C,Q2*
X94650000Y-81150000D03*
X95300000Y-81150000D03*
X95950000Y-81150000D03*
X95950000Y-79050000D03*
X95300000Y-79050000D03*
X94650000Y-79050000D03*
D11*
X95700000Y-80100000D03*
X94900000Y-80100000D03*
G04 #@! TD*
D12*
G04 #@! TO.C,J1*
X96600000Y-74800000D03*
X95950000Y-74800000D03*
X95300000Y-74800000D03*
X94650000Y-74800000D03*
X94000000Y-74800000D03*
D13*
X98925000Y-72225000D03*
X91675000Y-72225000D03*
D14*
X97725000Y-74875000D03*
X92875000Y-74875000D03*
G04 #@! TD*
D15*
G04 #@! TO.C,J6*
X110200000Y-97600000D03*
D16*
X108200000Y-97600000D03*
G04 #@! TD*
G04 #@! TO.C,J2*
X93350000Y-97650000D03*
D15*
X95350000Y-97650000D03*
G04 #@! TD*
G04 #@! TO.C,J3*
X102800000Y-97600000D03*
D16*
X100800000Y-97600000D03*
G04 #@! TD*
D17*
G04 #@! TO.C,L1*
X99100000Y-90600000D03*
X103700000Y-90600000D03*
G04 #@! TD*
D18*
G04 #@! TO.C,SW1*
X101650000Y-75290000D03*
D19*
X102900000Y-72800000D03*
X107400000Y-72800000D03*
D18*
X108660000Y-75290000D03*
G04 #@! TD*
D20*
G04 #@! TO.C,J7*
X115000000Y-99100000D03*
D21*
X115000000Y-96560000D03*
X117540000Y-99100000D03*
X117540000Y-96560000D03*
X120080000Y-99100000D03*
X120080000Y-96560000D03*
G04 #@! TD*
D22*
G04 #@! TO.C,TP1*
X108100000Y-85800000D03*
G04 #@! TD*
D23*
G04 #@! TO.C,U4*
X112575952Y-88202500D03*
X112575952Y-89472500D03*
X112575952Y-90742500D03*
X112575952Y-92012500D03*
X117975952Y-92012500D03*
X117975952Y-90742500D03*
X117975952Y-89472500D03*
X117975952Y-88202500D03*
G04 #@! TD*
D24*
G04 #@! TO.C,D3*
X116955000Y-86200000D03*
X115045000Y-86200000D03*
G04 #@! TD*
D25*
G04 #@! TO.C,R19*
X111625000Y-86300000D03*
X113375000Y-86300000D03*
G04 #@! TD*
D26*
G04 #@! TO.C,C1*
X109400000Y-78645000D03*
X109400000Y-80555000D03*
G04 #@! TD*
G04 #@! TO.C,C2*
X116800000Y-80655000D03*
X116800000Y-78745000D03*
G04 #@! TD*
D27*
G04 #@! TO.C,C3*
X94650000Y-87025000D03*
X94650000Y-85275000D03*
G04 #@! TD*
D26*
G04 #@! TO.C,C4*
X104100000Y-80455000D03*
X104100000Y-78545000D03*
G04 #@! TD*
D27*
G04 #@! TO.C,C5*
X91300000Y-88525000D03*
X91300000Y-90275000D03*
G04 #@! TD*
D25*
G04 #@! TO.C,C6*
X100525000Y-80600000D03*
X102275000Y-80600000D03*
G04 #@! TD*
D27*
G04 #@! TO.C,C7*
X100300000Y-85475000D03*
X100300000Y-83725000D03*
G04 #@! TD*
D26*
G04 #@! TO.C,C8*
X106200000Y-78545000D03*
X106200000Y-80455000D03*
G04 #@! TD*
D27*
G04 #@! TO.C,C10*
X120700000Y-86525000D03*
X120700000Y-88275000D03*
G04 #@! TD*
G04 #@! TO.C,C11*
X110200000Y-89475000D03*
X110200000Y-87725000D03*
G04 #@! TD*
D26*
G04 #@! TO.C,D1*
X120100000Y-82145000D03*
X120100000Y-84055000D03*
G04 #@! TD*
D24*
G04 #@! TO.C,D2*
X114045000Y-83700000D03*
X115955000Y-83700000D03*
G04 #@! TD*
D28*
G04 #@! TO.C,Q1*
X107500000Y-92900000D03*
X106550000Y-90900000D03*
X108450000Y-90900000D03*
G04 #@! TD*
D27*
G04 #@! TO.C,R1*
X108600000Y-89475000D03*
X108600000Y-87725000D03*
G04 #@! TD*
G04 #@! TO.C,R2*
X118200000Y-82225000D03*
X118200000Y-83975000D03*
G04 #@! TD*
D25*
G04 #@! TO.C,R3*
X110325000Y-84400000D03*
X112075000Y-84400000D03*
G04 #@! TD*
G04 #@! TO.C,R4*
X112075000Y-82700000D03*
X110325000Y-82700000D03*
G04 #@! TD*
D27*
G04 #@! TO.C,R5*
X93200000Y-78725000D03*
X93200000Y-80475000D03*
G04 #@! TD*
G04 #@! TO.C,R6*
X92500000Y-85325000D03*
X92500000Y-87075000D03*
G04 #@! TD*
G04 #@! TO.C,R8*
X101900000Y-83625000D03*
X101900000Y-85375000D03*
G04 #@! TD*
D25*
G04 #@! TO.C,R9*
X100525000Y-82200000D03*
X102275000Y-82200000D03*
G04 #@! TD*
G04 #@! TO.C,R10*
X97525000Y-82100000D03*
X99275000Y-82100000D03*
G04 #@! TD*
G04 #@! TO.C,R11*
X98875000Y-85300000D03*
X97125000Y-85300000D03*
G04 #@! TD*
G04 #@! TO.C,R12*
X97125000Y-83700000D03*
X98875000Y-83700000D03*
G04 #@! TD*
D27*
G04 #@! TO.C,R13*
X110200000Y-92475000D03*
X110200000Y-90725000D03*
G04 #@! TD*
D25*
G04 #@! TO.C,R14*
X119125000Y-79300000D03*
X120875000Y-79300000D03*
G04 #@! TD*
D27*
G04 #@! TO.C,R17*
X91800000Y-94075000D03*
X91800000Y-92325000D03*
G04 #@! TD*
G04 #@! TO.C,R18*
X120300000Y-92375000D03*
X120300000Y-90625000D03*
G04 #@! TD*
D29*
G04 #@! TO.C,SW2*
X117900000Y-74200000D03*
D30*
X115900000Y-74200000D03*
X113900000Y-74200000D03*
D31*
X120000000Y-74200000D03*
X111800000Y-74200000D03*
G04 #@! TD*
D32*
G04 #@! TO.C,U1*
X114500000Y-80550000D03*
X114500000Y-79600000D03*
X114500000Y-78650000D03*
X112300000Y-78650000D03*
X112300000Y-80550000D03*
G04 #@! TD*
D33*
G04 #@! TO.C,U2*
X95125000Y-90900000D03*
X95125000Y-90400000D03*
X95125000Y-89900000D03*
X95125000Y-89400000D03*
X95125000Y-88900000D03*
X93275000Y-88900000D03*
X93275000Y-89400000D03*
X93275000Y-89900000D03*
X93275000Y-90400000D03*
X93275000Y-90900000D03*
D34*
X94200000Y-89900000D03*
G04 #@! TD*
D35*
G04 #@! TO.C,U3*
X104800000Y-83900000D03*
D36*
X103800000Y-82350000D03*
X104300000Y-82350000D03*
X104800000Y-82350000D03*
X105300000Y-82350000D03*
X105800000Y-82350000D03*
X105800000Y-85450000D03*
X105300000Y-85450000D03*
X104800000Y-85450000D03*
X104300000Y-85450000D03*
X103800000Y-85450000D03*
G04 #@! TD*
M02*
