M48
;DRILL file {KiCad (5.0.0-rc2-72-ge4a6f2e52)} date Sun Jun 10 02:57:05 2018
;FORMAT={-:-/ absolute / metric / decimal}
FMAT,2
METRIC,TZ
T1C0.300
T2C0.700
T3C0.750
T4C0.900
T5C0.990
T6C1.000
T7C1.300
T8C1.500
%
G90
G05
M71
T1
X91.1Y-81.8
X91.1Y-83.4
X91.3Y-88.
X91.6Y-74.5
X91.6Y-75.4
X91.6Y-76.3
X91.6Y-77.2
X91.7Y-94.8
X92.2Y-91.
X92.6Y-73.7
X92.6Y-76.3
X92.6Y-77.2
X93.2Y-79.7
X93.3Y-88.3
X93.3Y-91.4
X93.7Y-73.7
X93.7Y-76.3
X94.3Y-92.7
X95.3Y-77.1
X95.3Y-78.4
X95.3Y-85.4
X98.2Y-82.1
X98.8Y-100.4
X98.9Y-78.
X98.9Y-80.
X99.6Y-86.3
X101.9Y-84.4
X103.1Y-78.5
X104.18Y-83.513
X104.18Y-84.287
X105.42Y-83.513
X105.42Y-84.287
X106.2Y-79.4
X106.5Y-86.3
X107.3Y-80.5
X109.4Y-81.5
X110.2Y-93.8
X110.9Y-80.4
X110.9Y-81.3
X111.Y-82.7
X111.Y-84.4
X111.Y-88.
X111.4Y-79.6
X112.5Y-92.8
X113.4Y-81.7
X113.5Y-79.6
X114.2Y-89.3
X116.1Y-86.2
X116.1Y-89.3
X116.8Y-79.9
X120.7Y-87.2
T2
X92.875Y-74.875
X97.725Y-74.875
T3
X93.35Y-97.65
X95.35Y-97.65
X108.2Y-97.6
X110.2Y-97.6
X100.8Y-97.6
X102.8Y-97.6
T4
X113.9Y-74.2
X115.9Y-74.2
X117.9Y-74.2
T5
X102.9Y-72.8
X107.4Y-72.8
T6
X115.Y-96.56
X115.Y-99.1
X117.54Y-96.56
X117.54Y-99.1
X120.08Y-96.56
X120.08Y-99.1
T7
X101.65Y-75.29
X108.66Y-75.29
T8
X111.8Y-74.2
X120.Y-74.2
T2
X91.675Y-72.425G85X91.675Y-72.025
G05
X98.925Y-72.425G85X98.925Y-72.025
G05
T0
M30
