G04 #@! TF.GenerationSoftware,KiCad,Pcbnew,(5.0-dev-4069-g322ce84fb)*
G04 #@! TF.CreationDate,2018-05-24T17:52:26+02:00*
G04 #@! TF.ProjectId,main,6D61696E2E6B696361645F7063620000,rev?*
G04 #@! TF.SameCoordinates,Original*
G04 #@! TF.FileFunction,Legend,Top*
G04 #@! TF.FilePolarity,Positive*
%FSLAX46Y46*%
G04 Gerber Fmt 4.6, Leading zero omitted, Abs format (unit mm)*
G04 Created by KiCad (PCBNEW (5.0-dev-4069-g322ce84fb)) date Thu May 24 17:52:26 2018*
%MOMM*%
%LPD*%
G01*
G04 APERTURE LIST*
%ADD10C,0.150000*%
%ADD11C,0.125000*%
%ADD12C,0.120000*%
%ADD13C,0.050000*%
G04 APERTURE END LIST*
D10*
X106447619Y-87261904D02*
X106066666Y-87261904D01*
X106028571Y-87642857D01*
X106066666Y-87604761D01*
X106142857Y-87566666D01*
X106333333Y-87566666D01*
X106409523Y-87604761D01*
X106447619Y-87642857D01*
X106485714Y-87719047D01*
X106485714Y-87909523D01*
X106447619Y-87985714D01*
X106409523Y-88023809D01*
X106333333Y-88061904D01*
X106142857Y-88061904D01*
X106066666Y-88023809D01*
X106028571Y-87985714D01*
X106714285Y-87261904D02*
X106980952Y-88061904D01*
X107247619Y-87261904D01*
X92542857Y-101242857D02*
X92657142Y-101280952D01*
X92695238Y-101319047D01*
X92733333Y-101395238D01*
X92733333Y-101509523D01*
X92695238Y-101585714D01*
X92657142Y-101623809D01*
X92580952Y-101661904D01*
X92276190Y-101661904D01*
X92276190Y-100861904D01*
X92542857Y-100861904D01*
X92619047Y-100900000D01*
X92657142Y-100938095D01*
X92695238Y-101014285D01*
X92695238Y-101090476D01*
X92657142Y-101166666D01*
X92619047Y-101204761D01*
X92542857Y-101242857D01*
X92276190Y-101242857D01*
X93419047Y-101661904D02*
X93419047Y-101242857D01*
X93380952Y-101166666D01*
X93304761Y-101128571D01*
X93152380Y-101128571D01*
X93076190Y-101166666D01*
X93419047Y-101623809D02*
X93342857Y-101661904D01*
X93152380Y-101661904D01*
X93076190Y-101623809D01*
X93038095Y-101547619D01*
X93038095Y-101471428D01*
X93076190Y-101395238D01*
X93152380Y-101357142D01*
X93342857Y-101357142D01*
X93419047Y-101319047D01*
X93685714Y-101128571D02*
X93990476Y-101128571D01*
X93800000Y-100861904D02*
X93800000Y-101547619D01*
X93838095Y-101623809D01*
X93914285Y-101661904D01*
X93990476Y-101661904D01*
X94142857Y-101128571D02*
X94447619Y-101128571D01*
X94257142Y-100861904D02*
X94257142Y-101547619D01*
X94295238Y-101623809D01*
X94371428Y-101661904D01*
X94447619Y-101661904D01*
X95019047Y-101623809D02*
X94942857Y-101661904D01*
X94790476Y-101661904D01*
X94714285Y-101623809D01*
X94676190Y-101547619D01*
X94676190Y-101242857D01*
X94714285Y-101166666D01*
X94790476Y-101128571D01*
X94942857Y-101128571D01*
X95019047Y-101166666D01*
X95057142Y-101242857D01*
X95057142Y-101319047D01*
X94676190Y-101395238D01*
X95400000Y-101661904D02*
X95400000Y-101128571D01*
X95400000Y-101280952D02*
X95438095Y-101204761D01*
X95476190Y-101166666D01*
X95552380Y-101128571D01*
X95628571Y-101128571D01*
X95819047Y-101128571D02*
X96009523Y-101661904D01*
X96200000Y-101128571D02*
X96009523Y-101661904D01*
X95933333Y-101852380D01*
X95895238Y-101890476D01*
X95819047Y-101928571D01*
X100047619Y-101661904D02*
X100047619Y-100861904D01*
X100047619Y-101242857D02*
X100504761Y-101242857D01*
X100504761Y-101661904D02*
X100504761Y-100861904D01*
X101190476Y-101623809D02*
X101114285Y-101661904D01*
X100961904Y-101661904D01*
X100885714Y-101623809D01*
X100847619Y-101547619D01*
X100847619Y-101242857D01*
X100885714Y-101166666D01*
X100961904Y-101128571D01*
X101114285Y-101128571D01*
X101190476Y-101166666D01*
X101228571Y-101242857D01*
X101228571Y-101319047D01*
X100847619Y-101395238D01*
X101914285Y-101661904D02*
X101914285Y-101242857D01*
X101876190Y-101166666D01*
X101800000Y-101128571D01*
X101647619Y-101128571D01*
X101571428Y-101166666D01*
X101914285Y-101623809D02*
X101838095Y-101661904D01*
X101647619Y-101661904D01*
X101571428Y-101623809D01*
X101533333Y-101547619D01*
X101533333Y-101471428D01*
X101571428Y-101395238D01*
X101647619Y-101357142D01*
X101838095Y-101357142D01*
X101914285Y-101319047D01*
X102180952Y-101128571D02*
X102485714Y-101128571D01*
X102295238Y-100861904D02*
X102295238Y-101547619D01*
X102333333Y-101623809D01*
X102409523Y-101661904D01*
X102485714Y-101661904D01*
X103057142Y-101623809D02*
X102980952Y-101661904D01*
X102828571Y-101661904D01*
X102752380Y-101623809D01*
X102714285Y-101547619D01*
X102714285Y-101242857D01*
X102752380Y-101166666D01*
X102828571Y-101128571D01*
X102980952Y-101128571D01*
X103057142Y-101166666D01*
X103095238Y-101242857D01*
X103095238Y-101319047D01*
X102714285Y-101395238D01*
X103438095Y-101661904D02*
X103438095Y-101128571D01*
X103438095Y-101280952D02*
X103476190Y-101204761D01*
X103514285Y-101166666D01*
X103590476Y-101128571D01*
X103666666Y-101128571D01*
X108685714Y-101661904D02*
X108304761Y-101661904D01*
X108304761Y-100861904D01*
X108952380Y-101242857D02*
X109219047Y-101242857D01*
X109333333Y-101661904D02*
X108952380Y-101661904D01*
X108952380Y-100861904D01*
X109333333Y-100861904D01*
X109676190Y-101661904D02*
X109676190Y-100861904D01*
X109866666Y-100861904D01*
X109980952Y-100900000D01*
X110057142Y-100976190D01*
X110095238Y-101052380D01*
X110133333Y-101204761D01*
X110133333Y-101319047D01*
X110095238Y-101471428D01*
X110057142Y-101547619D01*
X109980952Y-101623809D01*
X109866666Y-101661904D01*
X109676190Y-101661904D01*
D11*
X116275000Y-101100000D02*
X116275000Y-100400000D01*
X118675000Y-101100000D02*
X116275000Y-101100000D01*
X118675000Y-100450000D02*
X118675000Y-101100000D01*
D12*
X104950000Y-80050000D02*
X104950000Y-79050000D01*
X103250000Y-79050000D02*
X103250000Y-80050000D01*
X97700000Y-84620000D02*
X98700000Y-84620000D01*
X98700000Y-85980000D02*
X97700000Y-85980000D01*
D10*
X96400000Y-80825000D02*
X96400000Y-79375000D01*
X94200000Y-81550000D02*
X94200000Y-79375000D01*
D12*
X94050000Y-86500000D02*
X94050000Y-85800000D01*
X95250000Y-85800000D02*
X95250000Y-86500000D01*
X108550000Y-79100000D02*
X108550000Y-80100000D01*
X110250000Y-80100000D02*
X110250000Y-79100000D01*
X90700000Y-89750000D02*
X90700000Y-89050000D01*
X91900000Y-89050000D02*
X91900000Y-89750000D01*
X101050000Y-80200000D02*
X101750000Y-80200000D01*
X101750000Y-81400000D02*
X101050000Y-81400000D01*
X100900000Y-84250000D02*
X100900000Y-84950000D01*
X99700000Y-84950000D02*
X99700000Y-84250000D01*
X109600000Y-89050000D02*
X109600000Y-88350000D01*
X110800000Y-88350000D02*
X110800000Y-89050000D01*
X121300000Y-87050000D02*
X121300000Y-87750000D01*
X120100000Y-87750000D02*
X120100000Y-87050000D01*
X119400000Y-84900000D02*
X120800000Y-84900000D01*
X120800000Y-84900000D02*
X120800000Y-82100000D01*
X119400000Y-84900000D02*
X119400000Y-82100000D01*
X113200000Y-83500000D02*
X116000000Y-83500000D01*
X113200000Y-84900000D02*
X116000000Y-84900000D01*
X113200000Y-83500000D02*
X113200000Y-84900000D01*
X93300860Y-70125000D02*
X91500000Y-70125000D01*
X96301520Y-70125000D02*
X94300000Y-70125000D01*
X99099840Y-70125000D02*
X97298980Y-70125000D01*
X99099840Y-74576100D02*
X99100000Y-73275000D01*
X91500160Y-74576100D02*
X91500000Y-73275000D01*
X98749320Y-74926620D02*
G75*
G03X99099840Y-74576100I0J350520D01*
G01*
X91502700Y-74576100D02*
G75*
G03X91850680Y-74924080I347980J0D01*
G01*
X98750000Y-74925000D02*
X98200000Y-74925000D01*
X91850680Y-74924080D02*
X92400000Y-74925000D01*
X98750000Y-73275000D02*
X98750000Y-74925000D01*
X91850000Y-73275000D02*
X91850680Y-74924080D01*
X98749320Y-70674660D02*
X91850680Y-70674660D01*
X96249960Y-73074960D02*
X94350040Y-73074960D01*
X94350040Y-73074960D02*
X94350040Y-71175040D01*
X94350040Y-71175040D02*
X96249960Y-71175040D01*
X96249960Y-71175040D02*
X96249960Y-73074960D01*
X91850000Y-71175000D02*
X91850000Y-70675000D01*
X91500000Y-71175000D02*
X91500000Y-70125000D01*
X98750000Y-70675000D02*
X98750000Y-71175000D01*
X99100000Y-71175000D02*
X99100000Y-70125000D01*
X105920000Y-92660000D02*
X105920000Y-91200000D01*
X109080000Y-92660000D02*
X109080000Y-90500000D01*
X109080000Y-92660000D02*
X108150000Y-92660000D01*
X105920000Y-92660000D02*
X106850000Y-92660000D01*
X109280000Y-88200000D02*
X109280000Y-89200000D01*
X107920000Y-89200000D02*
X107920000Y-88200000D01*
X91820000Y-86700000D02*
X91820000Y-85700000D01*
X93180000Y-85700000D02*
X93180000Y-86700000D01*
X101220000Y-85000000D02*
X101220000Y-84000000D01*
X102580000Y-84000000D02*
X102580000Y-85000000D01*
X98100000Y-81620000D02*
X99100000Y-81620000D01*
X99100000Y-82980000D02*
X98100000Y-82980000D01*
X97700000Y-83120000D02*
X98700000Y-83120000D01*
X98700000Y-84480000D02*
X97700000Y-84480000D01*
X117620000Y-84700000D02*
X117620000Y-83700000D01*
X118980000Y-83700000D02*
X118980000Y-84700000D01*
X111700000Y-85080000D02*
X110700000Y-85080000D01*
X110700000Y-83720000D02*
X111700000Y-83720000D01*
X110700000Y-82020000D02*
X111700000Y-82020000D01*
X111700000Y-83380000D02*
X110700000Y-83380000D01*
X93880000Y-79100000D02*
X93880000Y-80100000D01*
X92520000Y-80100000D02*
X92520000Y-79100000D01*
X110880000Y-91000000D02*
X110880000Y-92000000D01*
X109520000Y-92000000D02*
X109520000Y-91000000D01*
X112800000Y-87280000D02*
X111800000Y-87280000D01*
X111800000Y-85920000D02*
X112800000Y-85920000D01*
D10*
X94775000Y-88275000D02*
X93625000Y-88275000D01*
X95550000Y-91525000D02*
X93625000Y-91525000D01*
D12*
X112500000Y-81210000D02*
X114950000Y-81210000D01*
X114300000Y-77990000D02*
X112500000Y-77990000D01*
X105850000Y-95500000D02*
X105850000Y-96750000D01*
X107100000Y-95500000D02*
X105850000Y-95500000D01*
X109200000Y-99900000D02*
X109200000Y-99400000D01*
X109300000Y-99400000D02*
X109300000Y-99900000D01*
X109100000Y-99400000D02*
X109300000Y-99400000D01*
X109100000Y-99900000D02*
X109100000Y-99400000D01*
X107900000Y-95700000D02*
X107600000Y-95700000D01*
X107600000Y-95600000D02*
X107600000Y-95800000D01*
X107900000Y-95600000D02*
X107600000Y-95600000D01*
X107900000Y-95800000D02*
X107900000Y-95600000D01*
X112250000Y-98400000D02*
X111650000Y-98400000D01*
X112250000Y-97100000D02*
X111650000Y-97100000D01*
X106150000Y-98400000D02*
X106750000Y-98400000D01*
X106150000Y-97100000D02*
X106750000Y-97100000D01*
X109700000Y-96400000D02*
X109700000Y-95800000D01*
X111650000Y-96400000D02*
X109700000Y-96400000D01*
X111650000Y-99900000D02*
X111650000Y-96400000D01*
X106750000Y-99900000D02*
X111650000Y-99900000D01*
X106750000Y-96400000D02*
X106750000Y-99900000D01*
X108700000Y-96400000D02*
X106750000Y-96400000D01*
X108700000Y-95800000D02*
X108700000Y-96400000D01*
X112250000Y-95800000D02*
X106150000Y-95800000D01*
X112250000Y-100500000D02*
X112250000Y-95800000D01*
X106150000Y-100500000D02*
X112250000Y-100500000D01*
X106150000Y-95800000D02*
X106150000Y-100500000D01*
X91300000Y-95850000D02*
X91300000Y-100550000D01*
X91300000Y-100550000D02*
X97400000Y-100550000D01*
X97400000Y-100550000D02*
X97400000Y-95850000D01*
X97400000Y-95850000D02*
X91300000Y-95850000D01*
X93850000Y-95850000D02*
X93850000Y-96450000D01*
X93850000Y-96450000D02*
X91900000Y-96450000D01*
X91900000Y-96450000D02*
X91900000Y-99950000D01*
X91900000Y-99950000D02*
X96800000Y-99950000D01*
X96800000Y-99950000D02*
X96800000Y-96450000D01*
X96800000Y-96450000D02*
X94850000Y-96450000D01*
X94850000Y-96450000D02*
X94850000Y-95850000D01*
X91300000Y-97150000D02*
X91900000Y-97150000D01*
X91300000Y-98450000D02*
X91900000Y-98450000D01*
X97400000Y-97150000D02*
X96800000Y-97150000D01*
X97400000Y-98450000D02*
X96800000Y-98450000D01*
X93050000Y-95850000D02*
X93050000Y-95650000D01*
X93050000Y-95650000D02*
X92750000Y-95650000D01*
X92750000Y-95650000D02*
X92750000Y-95850000D01*
X93050000Y-95750000D02*
X92750000Y-95750000D01*
X94250000Y-99950000D02*
X94250000Y-99450000D01*
X94250000Y-99450000D02*
X94450000Y-99450000D01*
X94450000Y-99450000D02*
X94450000Y-99950000D01*
X94350000Y-99950000D02*
X94350000Y-99450000D01*
X92250000Y-95550000D02*
X91000000Y-95550000D01*
X91000000Y-95550000D02*
X91000000Y-96800000D01*
X98450000Y-95500000D02*
X98450000Y-96750000D01*
X99700000Y-95500000D02*
X98450000Y-95500000D01*
X101800000Y-99900000D02*
X101800000Y-99400000D01*
X101900000Y-99400000D02*
X101900000Y-99900000D01*
X101700000Y-99400000D02*
X101900000Y-99400000D01*
X101700000Y-99900000D02*
X101700000Y-99400000D01*
X100500000Y-95700000D02*
X100200000Y-95700000D01*
X100200000Y-95600000D02*
X100200000Y-95800000D01*
X100500000Y-95600000D02*
X100200000Y-95600000D01*
X100500000Y-95800000D02*
X100500000Y-95600000D01*
X104850000Y-98400000D02*
X104250000Y-98400000D01*
X104850000Y-97100000D02*
X104250000Y-97100000D01*
X98750000Y-98400000D02*
X99350000Y-98400000D01*
X98750000Y-97100000D02*
X99350000Y-97100000D01*
X102300000Y-96400000D02*
X102300000Y-95800000D01*
X104250000Y-96400000D02*
X102300000Y-96400000D01*
X104250000Y-99900000D02*
X104250000Y-96400000D01*
X99350000Y-99900000D02*
X104250000Y-99900000D01*
X99350000Y-96400000D02*
X99350000Y-99900000D01*
X101300000Y-96400000D02*
X99350000Y-96400000D01*
X101300000Y-95800000D02*
X101300000Y-96400000D01*
X104850000Y-95800000D02*
X98750000Y-95800000D01*
X104850000Y-100500000D02*
X104850000Y-95800000D01*
X98750000Y-100500000D02*
X104850000Y-100500000D01*
X98750000Y-95800000D02*
X98750000Y-100500000D01*
D13*
X97600000Y-94400000D02*
X97600000Y-86800000D01*
X105200000Y-86800000D02*
X105200000Y-94400000D01*
X100400000Y-94400000D02*
X97600000Y-94400000D01*
X100400000Y-94400000D02*
X100400000Y-92600000D01*
X102400000Y-94400000D02*
X102400000Y-92600000D01*
X105200000Y-94400000D02*
X102400000Y-94400000D01*
X105200000Y-86800000D02*
X102400000Y-86800000D01*
X100400000Y-86800000D02*
X97600000Y-86800000D01*
X102400000Y-92599999D02*
G75*
G02X100400001Y-92599999I-1000000J1999999D01*
G01*
X100400000Y-88600001D02*
G75*
G02X102399999Y-88600001I1000000J-1999999D01*
G01*
X100400000Y-88600000D02*
X100400000Y-86800000D01*
X102400000Y-88600000D02*
X102400000Y-86800000D01*
D10*
X113900000Y-71900000D02*
X111600000Y-71900000D01*
X120200000Y-71900000D02*
X118000000Y-71900000D01*
X120200000Y-76500000D02*
X111600000Y-76500000D01*
D12*
X115950000Y-79200000D02*
X115950000Y-80200000D01*
X117650000Y-80200000D02*
X117650000Y-79200000D01*
X119500000Y-78620000D02*
X120500000Y-78620000D01*
X120500000Y-79980000D02*
X119500000Y-79980000D01*
X100900000Y-81620000D02*
X101900000Y-81620000D01*
X101900000Y-82980000D02*
X100900000Y-82980000D01*
X103450000Y-73770000D02*
X106850000Y-73770000D01*
X101810000Y-73770000D02*
X102350000Y-73770000D01*
X109010000Y-76600000D02*
X109010000Y-77110000D01*
X108490000Y-77110000D02*
X109010000Y-77110000D01*
X108490000Y-76600000D02*
X108490000Y-77110000D01*
X107950000Y-73770000D02*
X108490000Y-73770000D01*
X101290000Y-76600000D02*
X101290000Y-77110000D01*
X101810000Y-76600000D02*
X101810000Y-77110000D01*
X108490000Y-73770000D02*
X108490000Y-74000000D01*
X101290000Y-70100000D02*
X101290000Y-74000000D01*
X101290000Y-77110000D02*
X101810000Y-77110000D01*
X109010000Y-70100000D02*
X109010000Y-74000000D01*
X101290000Y-70100000D02*
X109010000Y-70100000D01*
X101810000Y-73770000D02*
X101810000Y-74000000D01*
D10*
X103050000Y-85850000D02*
X103050000Y-82675000D01*
X106350000Y-85125000D02*
X106350000Y-82675000D01*
D12*
X106950000Y-80050000D02*
X106950000Y-79050000D01*
X105250000Y-79050000D02*
X105250000Y-80050000D01*
X92480000Y-92700000D02*
X92480000Y-93700000D01*
X91120000Y-93700000D02*
X91120000Y-92700000D01*
X120980000Y-91000000D02*
X120980000Y-92000000D01*
X119620000Y-92000000D02*
X119620000Y-91000000D01*
X121410000Y-100430000D02*
X121410000Y-95230000D01*
X116270000Y-100430000D02*
X121410000Y-100430000D01*
X113670000Y-95230000D02*
X121410000Y-95230000D01*
X116270000Y-100430000D02*
X116270000Y-97830000D01*
X116270000Y-97830000D02*
X113670000Y-97830000D01*
X113670000Y-97830000D02*
X113670000Y-95230000D01*
X115000000Y-100430000D02*
X113670000Y-100430000D01*
X113670000Y-100430000D02*
X113670000Y-99100000D01*
X109050000Y-86000000D02*
G75*
G03X109050000Y-86000000I-950000J0D01*
G01*
D10*
X113200952Y-87532500D02*
X113200952Y-87582500D01*
X117350952Y-87532500D02*
X117350952Y-87677500D01*
X117350952Y-92682500D02*
X117350952Y-92537500D01*
X113200952Y-92682500D02*
X113200952Y-92537500D01*
X113200952Y-87532500D02*
X117350952Y-87532500D01*
X113200952Y-92682500D02*
X117350952Y-92682500D01*
X113200952Y-87582500D02*
X111800952Y-87582500D01*
X101766666Y-78485714D02*
X101728571Y-78523809D01*
X101614285Y-78561904D01*
X101538095Y-78561904D01*
X101423809Y-78523809D01*
X101347619Y-78447619D01*
X101309523Y-78371428D01*
X101271428Y-78219047D01*
X101271428Y-78104761D01*
X101309523Y-77952380D01*
X101347619Y-77876190D01*
X101423809Y-77800000D01*
X101538095Y-77761904D01*
X101614285Y-77761904D01*
X101728571Y-77800000D01*
X101766666Y-77838095D01*
X102452380Y-78028571D02*
X102452380Y-78561904D01*
X102261904Y-77723809D02*
X102071428Y-78295238D01*
X102566666Y-78295238D01*
X96661904Y-86514285D02*
X96280952Y-86780952D01*
X96661904Y-86971428D02*
X95861904Y-86971428D01*
X95861904Y-86666666D01*
X95900000Y-86590476D01*
X95938095Y-86552380D01*
X96014285Y-86514285D01*
X96128571Y-86514285D01*
X96204761Y-86552380D01*
X96242857Y-86590476D01*
X96280952Y-86666666D01*
X96280952Y-86971428D01*
X96661904Y-85752380D02*
X96661904Y-86209523D01*
X96661904Y-85980952D02*
X95861904Y-85980952D01*
X95976190Y-86057142D01*
X96052380Y-86133333D01*
X96090476Y-86209523D01*
X96661904Y-84990476D02*
X96661904Y-85447619D01*
X96661904Y-85219047D02*
X95861904Y-85219047D01*
X95976190Y-85295238D01*
X96052380Y-85371428D01*
X96090476Y-85447619D01*
X94823809Y-82938095D02*
X94747619Y-82900000D01*
X94671428Y-82823809D01*
X94557142Y-82709523D01*
X94480952Y-82671428D01*
X94404761Y-82671428D01*
X94442857Y-82861904D02*
X94366666Y-82823809D01*
X94290476Y-82747619D01*
X94252380Y-82595238D01*
X94252380Y-82328571D01*
X94290476Y-82176190D01*
X94366666Y-82100000D01*
X94442857Y-82061904D01*
X94595238Y-82061904D01*
X94671428Y-82100000D01*
X94747619Y-82176190D01*
X94785714Y-82328571D01*
X94785714Y-82595238D01*
X94747619Y-82747619D01*
X94671428Y-82823809D01*
X94595238Y-82861904D01*
X94442857Y-82861904D01*
X95090476Y-82138095D02*
X95128571Y-82100000D01*
X95204761Y-82061904D01*
X95395238Y-82061904D01*
X95471428Y-82100000D01*
X95509523Y-82138095D01*
X95547619Y-82214285D01*
X95547619Y-82290476D01*
X95509523Y-82404761D01*
X95052380Y-82861904D01*
X95547619Y-82861904D01*
X94466666Y-84385714D02*
X94428571Y-84423809D01*
X94314285Y-84461904D01*
X94238095Y-84461904D01*
X94123809Y-84423809D01*
X94047619Y-84347619D01*
X94009523Y-84271428D01*
X93971428Y-84119047D01*
X93971428Y-84004761D01*
X94009523Y-83852380D01*
X94047619Y-83776190D01*
X94123809Y-83700000D01*
X94238095Y-83661904D01*
X94314285Y-83661904D01*
X94428571Y-83700000D01*
X94466666Y-83738095D01*
X94733333Y-83661904D02*
X95228571Y-83661904D01*
X94961904Y-83966666D01*
X95076190Y-83966666D01*
X95152380Y-84004761D01*
X95190476Y-84042857D01*
X95228571Y-84119047D01*
X95228571Y-84309523D01*
X95190476Y-84385714D01*
X95152380Y-84423809D01*
X95076190Y-84461904D01*
X94847619Y-84461904D01*
X94771428Y-84423809D01*
X94733333Y-84385714D01*
X110766666Y-77585714D02*
X110728571Y-77623809D01*
X110614285Y-77661904D01*
X110538095Y-77661904D01*
X110423809Y-77623809D01*
X110347619Y-77547619D01*
X110309523Y-77471428D01*
X110271428Y-77319047D01*
X110271428Y-77204761D01*
X110309523Y-77052380D01*
X110347619Y-76976190D01*
X110423809Y-76900000D01*
X110538095Y-76861904D01*
X110614285Y-76861904D01*
X110728571Y-76900000D01*
X110766666Y-76938095D01*
X111528571Y-77661904D02*
X111071428Y-77661904D01*
X111300000Y-77661904D02*
X111300000Y-76861904D01*
X111223809Y-76976190D01*
X111147619Y-77052380D01*
X111071428Y-77090476D01*
X91166666Y-91785714D02*
X91128571Y-91823809D01*
X91014285Y-91861904D01*
X90938095Y-91861904D01*
X90823809Y-91823809D01*
X90747619Y-91747619D01*
X90709523Y-91671428D01*
X90671428Y-91519047D01*
X90671428Y-91404761D01*
X90709523Y-91252380D01*
X90747619Y-91176190D01*
X90823809Y-91100000D01*
X90938095Y-91061904D01*
X91014285Y-91061904D01*
X91128571Y-91100000D01*
X91166666Y-91138095D01*
X91890476Y-91061904D02*
X91509523Y-91061904D01*
X91471428Y-91442857D01*
X91509523Y-91404761D01*
X91585714Y-91366666D01*
X91776190Y-91366666D01*
X91852380Y-91404761D01*
X91890476Y-91442857D01*
X91928571Y-91519047D01*
X91928571Y-91709523D01*
X91890476Y-91785714D01*
X91852380Y-91823809D01*
X91776190Y-91861904D01*
X91585714Y-91861904D01*
X91509523Y-91823809D01*
X91471428Y-91785714D01*
X101266666Y-79785714D02*
X101228571Y-79823809D01*
X101114285Y-79861904D01*
X101038095Y-79861904D01*
X100923809Y-79823809D01*
X100847619Y-79747619D01*
X100809523Y-79671428D01*
X100771428Y-79519047D01*
X100771428Y-79404761D01*
X100809523Y-79252380D01*
X100847619Y-79176190D01*
X100923809Y-79100000D01*
X101038095Y-79061904D01*
X101114285Y-79061904D01*
X101228571Y-79100000D01*
X101266666Y-79138095D01*
X101952380Y-79061904D02*
X101800000Y-79061904D01*
X101723809Y-79100000D01*
X101685714Y-79138095D01*
X101609523Y-79252380D01*
X101571428Y-79404761D01*
X101571428Y-79709523D01*
X101609523Y-79785714D01*
X101647619Y-79823809D01*
X101723809Y-79861904D01*
X101876190Y-79861904D01*
X101952380Y-79823809D01*
X101990476Y-79785714D01*
X102028571Y-79709523D01*
X102028571Y-79519047D01*
X101990476Y-79442857D01*
X101952380Y-79404761D01*
X101876190Y-79366666D01*
X101723809Y-79366666D01*
X101647619Y-79404761D01*
X101609523Y-79442857D01*
X101571428Y-79519047D01*
X110485714Y-86714285D02*
X110523809Y-86752380D01*
X110561904Y-86866666D01*
X110561904Y-86942857D01*
X110523809Y-87057142D01*
X110447619Y-87133333D01*
X110371428Y-87171428D01*
X110219047Y-87209523D01*
X110104761Y-87209523D01*
X109952380Y-87171428D01*
X109876190Y-87133333D01*
X109800000Y-87057142D01*
X109761904Y-86942857D01*
X109761904Y-86866666D01*
X109800000Y-86752380D01*
X109838095Y-86714285D01*
X110561904Y-85952380D02*
X110561904Y-86409523D01*
X110561904Y-86180952D02*
X109761904Y-86180952D01*
X109876190Y-86257142D01*
X109952380Y-86333333D01*
X109990476Y-86409523D01*
X110561904Y-85190476D02*
X110561904Y-85647619D01*
X110561904Y-85419047D02*
X109761904Y-85419047D01*
X109876190Y-85495238D01*
X109952380Y-85571428D01*
X109990476Y-85647619D01*
X118085714Y-86985714D02*
X118047619Y-87023809D01*
X117933333Y-87061904D01*
X117857142Y-87061904D01*
X117742857Y-87023809D01*
X117666666Y-86947619D01*
X117628571Y-86871428D01*
X117590476Y-86719047D01*
X117590476Y-86604761D01*
X117628571Y-86452380D01*
X117666666Y-86376190D01*
X117742857Y-86300000D01*
X117857142Y-86261904D01*
X117933333Y-86261904D01*
X118047619Y-86300000D01*
X118085714Y-86338095D01*
X118847619Y-87061904D02*
X118390476Y-87061904D01*
X118619047Y-87061904D02*
X118619047Y-86261904D01*
X118542857Y-86376190D01*
X118466666Y-86452380D01*
X118390476Y-86490476D01*
X119342857Y-86261904D02*
X119419047Y-86261904D01*
X119495238Y-86300000D01*
X119533333Y-86338095D01*
X119571428Y-86414285D01*
X119609523Y-86566666D01*
X119609523Y-86757142D01*
X119571428Y-86909523D01*
X119533333Y-86985714D01*
X119495238Y-87023809D01*
X119419047Y-87061904D01*
X119342857Y-87061904D01*
X119266666Y-87023809D01*
X119228571Y-86985714D01*
X119190476Y-86909523D01*
X119152380Y-86757142D01*
X119152380Y-86566666D01*
X119190476Y-86414285D01*
X119228571Y-86338095D01*
X119266666Y-86300000D01*
X119342857Y-86261904D01*
X119509523Y-80961904D02*
X119509523Y-80161904D01*
X119700000Y-80161904D01*
X119814285Y-80200000D01*
X119890476Y-80276190D01*
X119928571Y-80352380D01*
X119966666Y-80504761D01*
X119966666Y-80619047D01*
X119928571Y-80771428D01*
X119890476Y-80847619D01*
X119814285Y-80923809D01*
X119700000Y-80961904D01*
X119509523Y-80961904D01*
X120728571Y-80961904D02*
X120271428Y-80961904D01*
X120500000Y-80961904D02*
X120500000Y-80161904D01*
X120423809Y-80276190D01*
X120347619Y-80352380D01*
X120271428Y-80390476D01*
X115709523Y-86161904D02*
X115709523Y-85361904D01*
X115900000Y-85361904D01*
X116014285Y-85400000D01*
X116090476Y-85476190D01*
X116128571Y-85552380D01*
X116166666Y-85704761D01*
X116166666Y-85819047D01*
X116128571Y-85971428D01*
X116090476Y-86047619D01*
X116014285Y-86123809D01*
X115900000Y-86161904D01*
X115709523Y-86161904D01*
X116471428Y-85438095D02*
X116509523Y-85400000D01*
X116585714Y-85361904D01*
X116776190Y-85361904D01*
X116852380Y-85400000D01*
X116890476Y-85438095D01*
X116928571Y-85514285D01*
X116928571Y-85590476D01*
X116890476Y-85704761D01*
X116433333Y-86161904D01*
X116928571Y-86161904D01*
X95033333Y-76361904D02*
X95033333Y-76933333D01*
X94995238Y-77047619D01*
X94919047Y-77123809D01*
X94804761Y-77161904D01*
X94728571Y-77161904D01*
X95833333Y-77161904D02*
X95376190Y-77161904D01*
X95604761Y-77161904D02*
X95604761Y-76361904D01*
X95528571Y-76476190D01*
X95452380Y-76552380D01*
X95376190Y-76590476D01*
X107423809Y-94838095D02*
X107347619Y-94800000D01*
X107271428Y-94723809D01*
X107157142Y-94609523D01*
X107080952Y-94571428D01*
X107004761Y-94571428D01*
X107042857Y-94761904D02*
X106966666Y-94723809D01*
X106890476Y-94647619D01*
X106852380Y-94495238D01*
X106852380Y-94228571D01*
X106890476Y-94076190D01*
X106966666Y-94000000D01*
X107042857Y-93961904D01*
X107195238Y-93961904D01*
X107271428Y-94000000D01*
X107347619Y-94076190D01*
X107385714Y-94228571D01*
X107385714Y-94495238D01*
X107347619Y-94647619D01*
X107271428Y-94723809D01*
X107195238Y-94761904D01*
X107042857Y-94761904D01*
X108147619Y-94761904D02*
X107690476Y-94761904D01*
X107919047Y-94761904D02*
X107919047Y-93961904D01*
X107842857Y-94076190D01*
X107766666Y-94152380D01*
X107690476Y-94190476D01*
X106866666Y-89461904D02*
X106600000Y-89080952D01*
X106409523Y-89461904D02*
X106409523Y-88661904D01*
X106714285Y-88661904D01*
X106790476Y-88700000D01*
X106828571Y-88738095D01*
X106866666Y-88814285D01*
X106866666Y-88928571D01*
X106828571Y-89004761D01*
X106790476Y-89042857D01*
X106714285Y-89080952D01*
X106409523Y-89080952D01*
X107628571Y-89461904D02*
X107171428Y-89461904D01*
X107400000Y-89461904D02*
X107400000Y-88661904D01*
X107323809Y-88776190D01*
X107247619Y-88852380D01*
X107171428Y-88890476D01*
X92366666Y-84561904D02*
X92100000Y-84180952D01*
X91909523Y-84561904D02*
X91909523Y-83761904D01*
X92214285Y-83761904D01*
X92290476Y-83800000D01*
X92328571Y-83838095D01*
X92366666Y-83914285D01*
X92366666Y-84028571D01*
X92328571Y-84104761D01*
X92290476Y-84142857D01*
X92214285Y-84180952D01*
X91909523Y-84180952D01*
X93052380Y-83761904D02*
X92900000Y-83761904D01*
X92823809Y-83800000D01*
X92785714Y-83838095D01*
X92709523Y-83952380D01*
X92671428Y-84104761D01*
X92671428Y-84409523D01*
X92709523Y-84485714D01*
X92747619Y-84523809D01*
X92823809Y-84561904D01*
X92976190Y-84561904D01*
X93052380Y-84523809D01*
X93090476Y-84485714D01*
X93128571Y-84409523D01*
X93128571Y-84219047D01*
X93090476Y-84142857D01*
X93052380Y-84104761D01*
X92976190Y-84066666D01*
X92823809Y-84066666D01*
X92747619Y-84104761D01*
X92709523Y-84142857D01*
X92671428Y-84219047D01*
X97861904Y-80914285D02*
X97480952Y-81180952D01*
X97861904Y-81371428D02*
X97061904Y-81371428D01*
X97061904Y-81066666D01*
X97100000Y-80990476D01*
X97138095Y-80952380D01*
X97214285Y-80914285D01*
X97328571Y-80914285D01*
X97404761Y-80952380D01*
X97442857Y-80990476D01*
X97480952Y-81066666D01*
X97480952Y-81371428D01*
X97861904Y-80152380D02*
X97861904Y-80609523D01*
X97861904Y-80380952D02*
X97061904Y-80380952D01*
X97176190Y-80457142D01*
X97252380Y-80533333D01*
X97290476Y-80609523D01*
X97061904Y-79657142D02*
X97061904Y-79580952D01*
X97100000Y-79504761D01*
X97138095Y-79466666D01*
X97214285Y-79428571D01*
X97366666Y-79390476D01*
X97557142Y-79390476D01*
X97709523Y-79428571D01*
X97785714Y-79466666D01*
X97823809Y-79504761D01*
X97861904Y-79580952D01*
X97861904Y-79657142D01*
X97823809Y-79733333D01*
X97785714Y-79771428D01*
X97709523Y-79809523D01*
X97557142Y-79847619D01*
X97366666Y-79847619D01*
X97214285Y-79809523D01*
X97138095Y-79771428D01*
X97100000Y-79733333D01*
X97061904Y-79657142D01*
X96661904Y-84114285D02*
X96280952Y-84380952D01*
X96661904Y-84571428D02*
X95861904Y-84571428D01*
X95861904Y-84266666D01*
X95900000Y-84190476D01*
X95938095Y-84152380D01*
X96014285Y-84114285D01*
X96128571Y-84114285D01*
X96204761Y-84152380D01*
X96242857Y-84190476D01*
X96280952Y-84266666D01*
X96280952Y-84571428D01*
X96661904Y-83352380D02*
X96661904Y-83809523D01*
X96661904Y-83580952D02*
X95861904Y-83580952D01*
X95976190Y-83657142D01*
X96052380Y-83733333D01*
X96090476Y-83809523D01*
X95938095Y-83047619D02*
X95900000Y-83009523D01*
X95861904Y-82933333D01*
X95861904Y-82742857D01*
X95900000Y-82666666D01*
X95938095Y-82628571D01*
X96014285Y-82590476D01*
X96090476Y-82590476D01*
X96204761Y-82628571D01*
X96661904Y-83085714D01*
X96661904Y-82590476D01*
X118166666Y-82561904D02*
X117900000Y-82180952D01*
X117709523Y-82561904D02*
X117709523Y-81761904D01*
X118014285Y-81761904D01*
X118090476Y-81800000D01*
X118128571Y-81838095D01*
X118166666Y-81914285D01*
X118166666Y-82028571D01*
X118128571Y-82104761D01*
X118090476Y-82142857D01*
X118014285Y-82180952D01*
X117709523Y-82180952D01*
X118471428Y-81838095D02*
X118509523Y-81800000D01*
X118585714Y-81761904D01*
X118776190Y-81761904D01*
X118852380Y-81800000D01*
X118890476Y-81838095D01*
X118928571Y-81914285D01*
X118928571Y-81990476D01*
X118890476Y-82104761D01*
X118433333Y-82561904D01*
X118928571Y-82561904D01*
X108966666Y-84761904D02*
X108700000Y-84380952D01*
X108509523Y-84761904D02*
X108509523Y-83961904D01*
X108814285Y-83961904D01*
X108890476Y-84000000D01*
X108928571Y-84038095D01*
X108966666Y-84114285D01*
X108966666Y-84228571D01*
X108928571Y-84304761D01*
X108890476Y-84342857D01*
X108814285Y-84380952D01*
X108509523Y-84380952D01*
X109233333Y-83961904D02*
X109728571Y-83961904D01*
X109461904Y-84266666D01*
X109576190Y-84266666D01*
X109652380Y-84304761D01*
X109690476Y-84342857D01*
X109728571Y-84419047D01*
X109728571Y-84609523D01*
X109690476Y-84685714D01*
X109652380Y-84723809D01*
X109576190Y-84761904D01*
X109347619Y-84761904D01*
X109271428Y-84723809D01*
X109233333Y-84685714D01*
X108966666Y-83061904D02*
X108700000Y-82680952D01*
X108509523Y-83061904D02*
X108509523Y-82261904D01*
X108814285Y-82261904D01*
X108890476Y-82300000D01*
X108928571Y-82338095D01*
X108966666Y-82414285D01*
X108966666Y-82528571D01*
X108928571Y-82604761D01*
X108890476Y-82642857D01*
X108814285Y-82680952D01*
X108509523Y-82680952D01*
X109652380Y-82528571D02*
X109652380Y-83061904D01*
X109461904Y-82223809D02*
X109271428Y-82795238D01*
X109766666Y-82795238D01*
X92366666Y-81961904D02*
X92100000Y-81580952D01*
X91909523Y-81961904D02*
X91909523Y-81161904D01*
X92214285Y-81161904D01*
X92290476Y-81200000D01*
X92328571Y-81238095D01*
X92366666Y-81314285D01*
X92366666Y-81428571D01*
X92328571Y-81504761D01*
X92290476Y-81542857D01*
X92214285Y-81580952D01*
X91909523Y-81580952D01*
X93090476Y-81161904D02*
X92709523Y-81161904D01*
X92671428Y-81542857D01*
X92709523Y-81504761D01*
X92785714Y-81466666D01*
X92976190Y-81466666D01*
X93052380Y-81504761D01*
X93090476Y-81542857D01*
X93128571Y-81619047D01*
X93128571Y-81809523D01*
X93090476Y-81885714D01*
X93052380Y-81923809D01*
X92976190Y-81961904D01*
X92785714Y-81961904D01*
X92709523Y-81923809D01*
X92671428Y-81885714D01*
X109685714Y-93761904D02*
X109419047Y-93380952D01*
X109228571Y-93761904D02*
X109228571Y-92961904D01*
X109533333Y-92961904D01*
X109609523Y-93000000D01*
X109647619Y-93038095D01*
X109685714Y-93114285D01*
X109685714Y-93228571D01*
X109647619Y-93304761D01*
X109609523Y-93342857D01*
X109533333Y-93380952D01*
X109228571Y-93380952D01*
X110447619Y-93761904D02*
X109990476Y-93761904D01*
X110219047Y-93761904D02*
X110219047Y-92961904D01*
X110142857Y-93076190D01*
X110066666Y-93152380D01*
X109990476Y-93190476D01*
X110714285Y-92961904D02*
X111209523Y-92961904D01*
X110942857Y-93266666D01*
X111057142Y-93266666D01*
X111133333Y-93304761D01*
X111171428Y-93342857D01*
X111209523Y-93419047D01*
X111209523Y-93609523D01*
X111171428Y-93685714D01*
X111133333Y-93723809D01*
X111057142Y-93761904D01*
X110828571Y-93761904D01*
X110752380Y-93723809D01*
X110714285Y-93685714D01*
X114685714Y-87161904D02*
X114419047Y-86780952D01*
X114228571Y-87161904D02*
X114228571Y-86361904D01*
X114533333Y-86361904D01*
X114609523Y-86400000D01*
X114647619Y-86438095D01*
X114685714Y-86514285D01*
X114685714Y-86628571D01*
X114647619Y-86704761D01*
X114609523Y-86742857D01*
X114533333Y-86780952D01*
X114228571Y-86780952D01*
X115447619Y-87161904D02*
X114990476Y-87161904D01*
X115219047Y-87161904D02*
X115219047Y-86361904D01*
X115142857Y-86476190D01*
X115066666Y-86552380D01*
X114990476Y-86590476D01*
X116133333Y-86361904D02*
X115980952Y-86361904D01*
X115904761Y-86400000D01*
X115866666Y-86438095D01*
X115790476Y-86552380D01*
X115752380Y-86704761D01*
X115752380Y-87009523D01*
X115790476Y-87085714D01*
X115828571Y-87123809D01*
X115904761Y-87161904D01*
X116057142Y-87161904D01*
X116133333Y-87123809D01*
X116171428Y-87085714D01*
X116209523Y-87009523D01*
X116209523Y-86819047D01*
X116171428Y-86742857D01*
X116133333Y-86704761D01*
X116057142Y-86666666D01*
X115904761Y-86666666D01*
X115828571Y-86704761D01*
X115790476Y-86742857D01*
X115752380Y-86819047D01*
X95390476Y-92061904D02*
X95390476Y-92709523D01*
X95428571Y-92785714D01*
X95466666Y-92823809D01*
X95542857Y-92861904D01*
X95695238Y-92861904D01*
X95771428Y-92823809D01*
X95809523Y-92785714D01*
X95847619Y-92709523D01*
X95847619Y-92061904D01*
X96190476Y-92138095D02*
X96228571Y-92100000D01*
X96304761Y-92061904D01*
X96495238Y-92061904D01*
X96571428Y-92100000D01*
X96609523Y-92138095D01*
X96647619Y-92214285D01*
X96647619Y-92290476D01*
X96609523Y-92404761D01*
X96152380Y-92861904D01*
X96647619Y-92861904D01*
X113890476Y-81861904D02*
X113890476Y-82509523D01*
X113928571Y-82585714D01*
X113966666Y-82623809D01*
X114042857Y-82661904D01*
X114195238Y-82661904D01*
X114271428Y-82623809D01*
X114309523Y-82585714D01*
X114347619Y-82509523D01*
X114347619Y-81861904D01*
X115147619Y-82661904D02*
X114690476Y-82661904D01*
X114919047Y-82661904D02*
X114919047Y-81861904D01*
X114842857Y-81976190D01*
X114766666Y-82052380D01*
X114690476Y-82090476D01*
X111233333Y-94361904D02*
X111233333Y-94933333D01*
X111195238Y-95047619D01*
X111119047Y-95123809D01*
X111004761Y-95161904D01*
X110928571Y-95161904D01*
X111957142Y-94361904D02*
X111804761Y-94361904D01*
X111728571Y-94400000D01*
X111690476Y-94438095D01*
X111614285Y-94552380D01*
X111576190Y-94704761D01*
X111576190Y-95009523D01*
X111614285Y-95085714D01*
X111652380Y-95123809D01*
X111728571Y-95161904D01*
X111880952Y-95161904D01*
X111957142Y-95123809D01*
X111995238Y-95085714D01*
X112033333Y-95009523D01*
X112033333Y-94819047D01*
X111995238Y-94742857D01*
X111957142Y-94704761D01*
X111880952Y-94666666D01*
X111728571Y-94666666D01*
X111652380Y-94704761D01*
X111614285Y-94742857D01*
X111576190Y-94819047D01*
X93433333Y-94361904D02*
X93433333Y-94933333D01*
X93395238Y-95047619D01*
X93319047Y-95123809D01*
X93204761Y-95161904D01*
X93128571Y-95161904D01*
X93776190Y-94438095D02*
X93814285Y-94400000D01*
X93890476Y-94361904D01*
X94080952Y-94361904D01*
X94157142Y-94400000D01*
X94195238Y-94438095D01*
X94233333Y-94514285D01*
X94233333Y-94590476D01*
X94195238Y-94704761D01*
X93738095Y-95161904D01*
X94233333Y-95161904D01*
X101233333Y-94661904D02*
X101233333Y-95233333D01*
X101195238Y-95347619D01*
X101119047Y-95423809D01*
X101004761Y-95461904D01*
X100928571Y-95461904D01*
X101538095Y-94661904D02*
X102033333Y-94661904D01*
X101766666Y-94966666D01*
X101880952Y-94966666D01*
X101957142Y-95004761D01*
X101995238Y-95042857D01*
X102033333Y-95119047D01*
X102033333Y-95309523D01*
X101995238Y-95385714D01*
X101957142Y-95423809D01*
X101880952Y-95461904D01*
X101652380Y-95461904D01*
X101576190Y-95423809D01*
X101538095Y-95385714D01*
X95966666Y-94461904D02*
X95585714Y-94461904D01*
X95585714Y-93661904D01*
X96652380Y-94461904D02*
X96195238Y-94461904D01*
X96423809Y-94461904D02*
X96423809Y-93661904D01*
X96347619Y-93776190D01*
X96271428Y-93852380D01*
X96195238Y-93890476D01*
X114733333Y-77523809D02*
X114847619Y-77561904D01*
X115038095Y-77561904D01*
X115114285Y-77523809D01*
X115152380Y-77485714D01*
X115190476Y-77409523D01*
X115190476Y-77333333D01*
X115152380Y-77257142D01*
X115114285Y-77219047D01*
X115038095Y-77180952D01*
X114885714Y-77142857D01*
X114809523Y-77104761D01*
X114771428Y-77066666D01*
X114733333Y-76990476D01*
X114733333Y-76914285D01*
X114771428Y-76838095D01*
X114809523Y-76800000D01*
X114885714Y-76761904D01*
X115076190Y-76761904D01*
X115190476Y-76800000D01*
X115457142Y-76761904D02*
X115647619Y-77561904D01*
X115800000Y-76990476D01*
X115952380Y-77561904D01*
X116142857Y-76761904D01*
X116409523Y-76838095D02*
X116447619Y-76800000D01*
X116523809Y-76761904D01*
X116714285Y-76761904D01*
X116790476Y-76800000D01*
X116828571Y-76838095D01*
X116866666Y-76914285D01*
X116866666Y-76990476D01*
X116828571Y-77104761D01*
X116371428Y-77561904D01*
X116866666Y-77561904D01*
X116266666Y-82485714D02*
X116228571Y-82523809D01*
X116114285Y-82561904D01*
X116038095Y-82561904D01*
X115923809Y-82523809D01*
X115847619Y-82447619D01*
X115809523Y-82371428D01*
X115771428Y-82219047D01*
X115771428Y-82104761D01*
X115809523Y-81952380D01*
X115847619Y-81876190D01*
X115923809Y-81800000D01*
X116038095Y-81761904D01*
X116114285Y-81761904D01*
X116228571Y-81800000D01*
X116266666Y-81838095D01*
X116571428Y-81838095D02*
X116609523Y-81800000D01*
X116685714Y-81761904D01*
X116876190Y-81761904D01*
X116952380Y-81800000D01*
X116990476Y-81838095D01*
X117028571Y-81914285D01*
X117028571Y-81990476D01*
X116990476Y-82104761D01*
X116533333Y-82561904D01*
X117028571Y-82561904D01*
X119485714Y-78211904D02*
X119219047Y-77830952D01*
X119028571Y-78211904D02*
X119028571Y-77411904D01*
X119333333Y-77411904D01*
X119409523Y-77450000D01*
X119447619Y-77488095D01*
X119485714Y-77564285D01*
X119485714Y-77678571D01*
X119447619Y-77754761D01*
X119409523Y-77792857D01*
X119333333Y-77830952D01*
X119028571Y-77830952D01*
X120247619Y-78211904D02*
X119790476Y-78211904D01*
X120019047Y-78211904D02*
X120019047Y-77411904D01*
X119942857Y-77526190D01*
X119866666Y-77602380D01*
X119790476Y-77640476D01*
X120933333Y-77678571D02*
X120933333Y-78211904D01*
X120742857Y-77373809D02*
X120552380Y-77945238D01*
X121047619Y-77945238D01*
X98966666Y-81261904D02*
X98700000Y-80880952D01*
X98509523Y-81261904D02*
X98509523Y-80461904D01*
X98814285Y-80461904D01*
X98890476Y-80500000D01*
X98928571Y-80538095D01*
X98966666Y-80614285D01*
X98966666Y-80728571D01*
X98928571Y-80804761D01*
X98890476Y-80842857D01*
X98814285Y-80880952D01*
X98509523Y-80880952D01*
X99347619Y-81261904D02*
X99500000Y-81261904D01*
X99576190Y-81223809D01*
X99614285Y-81185714D01*
X99690476Y-81071428D01*
X99728571Y-80919047D01*
X99728571Y-80614285D01*
X99690476Y-80538095D01*
X99652380Y-80500000D01*
X99576190Y-80461904D01*
X99423809Y-80461904D01*
X99347619Y-80500000D01*
X99309523Y-80538095D01*
X99271428Y-80614285D01*
X99271428Y-80804761D01*
X99309523Y-80880952D01*
X99347619Y-80919047D01*
X99423809Y-80957142D01*
X99576190Y-80957142D01*
X99652380Y-80919047D01*
X99690476Y-80880952D01*
X99728571Y-80804761D01*
X104033333Y-76123809D02*
X104147619Y-76161904D01*
X104338095Y-76161904D01*
X104414285Y-76123809D01*
X104452380Y-76085714D01*
X104490476Y-76009523D01*
X104490476Y-75933333D01*
X104452380Y-75857142D01*
X104414285Y-75819047D01*
X104338095Y-75780952D01*
X104185714Y-75742857D01*
X104109523Y-75704761D01*
X104071428Y-75666666D01*
X104033333Y-75590476D01*
X104033333Y-75514285D01*
X104071428Y-75438095D01*
X104109523Y-75400000D01*
X104185714Y-75361904D01*
X104376190Y-75361904D01*
X104490476Y-75400000D01*
X104757142Y-75361904D02*
X104947619Y-76161904D01*
X105100000Y-75590476D01*
X105252380Y-76161904D01*
X105442857Y-75361904D01*
X106166666Y-76161904D02*
X105709523Y-76161904D01*
X105938095Y-76161904D02*
X105938095Y-75361904D01*
X105861904Y-75476190D01*
X105785714Y-75552380D01*
X105709523Y-75590476D01*
X106790476Y-81661904D02*
X106790476Y-82309523D01*
X106828571Y-82385714D01*
X106866666Y-82423809D01*
X106942857Y-82461904D01*
X107095238Y-82461904D01*
X107171428Y-82423809D01*
X107209523Y-82385714D01*
X107247619Y-82309523D01*
X107247619Y-81661904D01*
X107552380Y-81661904D02*
X108047619Y-81661904D01*
X107780952Y-81966666D01*
X107895238Y-81966666D01*
X107971428Y-82004761D01*
X108009523Y-82042857D01*
X108047619Y-82119047D01*
X108047619Y-82309523D01*
X108009523Y-82385714D01*
X107971428Y-82423809D01*
X107895238Y-82461904D01*
X107666666Y-82461904D01*
X107590476Y-82423809D01*
X107552380Y-82385714D01*
X105866666Y-77485714D02*
X105828571Y-77523809D01*
X105714285Y-77561904D01*
X105638095Y-77561904D01*
X105523809Y-77523809D01*
X105447619Y-77447619D01*
X105409523Y-77371428D01*
X105371428Y-77219047D01*
X105371428Y-77104761D01*
X105409523Y-76952380D01*
X105447619Y-76876190D01*
X105523809Y-76800000D01*
X105638095Y-76761904D01*
X105714285Y-76761904D01*
X105828571Y-76800000D01*
X105866666Y-76838095D01*
X106323809Y-77104761D02*
X106247619Y-77066666D01*
X106209523Y-77028571D01*
X106171428Y-76952380D01*
X106171428Y-76914285D01*
X106209523Y-76838095D01*
X106247619Y-76800000D01*
X106323809Y-76761904D01*
X106476190Y-76761904D01*
X106552380Y-76800000D01*
X106590476Y-76838095D01*
X106628571Y-76914285D01*
X106628571Y-76952380D01*
X106590476Y-77028571D01*
X106552380Y-77066666D01*
X106476190Y-77104761D01*
X106323809Y-77104761D01*
X106247619Y-77142857D01*
X106209523Y-77180952D01*
X106171428Y-77257142D01*
X106171428Y-77409523D01*
X106209523Y-77485714D01*
X106247619Y-77523809D01*
X106323809Y-77561904D01*
X106476190Y-77561904D01*
X106552380Y-77523809D01*
X106590476Y-77485714D01*
X106628571Y-77409523D01*
X106628571Y-77257142D01*
X106590476Y-77180952D01*
X106552380Y-77142857D01*
X106476190Y-77104761D01*
X93485714Y-93761904D02*
X93219047Y-93380952D01*
X93028571Y-93761904D02*
X93028571Y-92961904D01*
X93333333Y-92961904D01*
X93409523Y-93000000D01*
X93447619Y-93038095D01*
X93485714Y-93114285D01*
X93485714Y-93228571D01*
X93447619Y-93304761D01*
X93409523Y-93342857D01*
X93333333Y-93380952D01*
X93028571Y-93380952D01*
X94247619Y-93761904D02*
X93790476Y-93761904D01*
X94019047Y-93761904D02*
X94019047Y-92961904D01*
X93942857Y-93076190D01*
X93866666Y-93152380D01*
X93790476Y-93190476D01*
X94514285Y-92961904D02*
X95047619Y-92961904D01*
X94704761Y-93761904D01*
X119885714Y-89961904D02*
X119619047Y-89580952D01*
X119428571Y-89961904D02*
X119428571Y-89161904D01*
X119733333Y-89161904D01*
X119809523Y-89200000D01*
X119847619Y-89238095D01*
X119885714Y-89314285D01*
X119885714Y-89428571D01*
X119847619Y-89504761D01*
X119809523Y-89542857D01*
X119733333Y-89580952D01*
X119428571Y-89580952D01*
X120647619Y-89961904D02*
X120190476Y-89961904D01*
X120419047Y-89961904D02*
X120419047Y-89161904D01*
X120342857Y-89276190D01*
X120266666Y-89352380D01*
X120190476Y-89390476D01*
X121104761Y-89504761D02*
X121028571Y-89466666D01*
X120990476Y-89428571D01*
X120952380Y-89352380D01*
X120952380Y-89314285D01*
X120990476Y-89238095D01*
X121028571Y-89200000D01*
X121104761Y-89161904D01*
X121257142Y-89161904D01*
X121333333Y-89200000D01*
X121371428Y-89238095D01*
X121409523Y-89314285D01*
X121409523Y-89352380D01*
X121371428Y-89428571D01*
X121333333Y-89466666D01*
X121257142Y-89504761D01*
X121104761Y-89504761D01*
X121028571Y-89542857D01*
X120990476Y-89580952D01*
X120952380Y-89657142D01*
X120952380Y-89809523D01*
X120990476Y-89885714D01*
X121028571Y-89923809D01*
X121104761Y-89961904D01*
X121257142Y-89961904D01*
X121333333Y-89923809D01*
X121371428Y-89885714D01*
X121409523Y-89809523D01*
X121409523Y-89657142D01*
X121371428Y-89580952D01*
X121333333Y-89542857D01*
X121257142Y-89504761D01*
X117233333Y-93861904D02*
X117233333Y-94433333D01*
X117195238Y-94547619D01*
X117119047Y-94623809D01*
X117004761Y-94661904D01*
X116928571Y-94661904D01*
X117538095Y-93861904D02*
X118071428Y-93861904D01*
X117728571Y-94661904D01*
X107061904Y-84709523D02*
X107061904Y-84252380D01*
X107861904Y-84480952D02*
X107061904Y-84480952D01*
X107861904Y-83985714D02*
X107061904Y-83985714D01*
X107061904Y-83680952D01*
X107100000Y-83604761D01*
X107138095Y-83566666D01*
X107214285Y-83528571D01*
X107328571Y-83528571D01*
X107404761Y-83566666D01*
X107442857Y-83604761D01*
X107480952Y-83680952D01*
X107480952Y-83985714D01*
X107861904Y-82766666D02*
X107861904Y-83223809D01*
X107861904Y-82995238D02*
X107061904Y-82995238D01*
X107176190Y-83071428D01*
X107252380Y-83147619D01*
X107290476Y-83223809D01*
X114690476Y-93161904D02*
X114690476Y-93809523D01*
X114728571Y-93885714D01*
X114766666Y-93923809D01*
X114842857Y-93961904D01*
X114995238Y-93961904D01*
X115071428Y-93923809D01*
X115109523Y-93885714D01*
X115147619Y-93809523D01*
X115147619Y-93161904D01*
X115871428Y-93428571D02*
X115871428Y-93961904D01*
X115680952Y-93123809D02*
X115490476Y-93695238D01*
X115985714Y-93695238D01*
M02*
