G04 #@! TF.GenerationSoftware,KiCad,Pcbnew,(2017-06-16 revision 2018d4894)-master*
G04 #@! TF.CreationDate,2017-12-30T03:33:19+01:00*
G04 #@! TF.ProjectId,main,6D61696E2E6B696361645F7063620000,rev?*
G04 #@! TF.SameCoordinates,Original
G04 #@! TF.FileFunction,Legend,Bot*
G04 #@! TF.FilePolarity,Positive*
%FSLAX46Y46*%
G04 Gerber Fmt 4.6, Leading zero omitted, Abs format (unit mm)*
G04 Created by KiCad (PCBNEW (2017-06-16 revision 2018d4894)-master) date Sat Dec 30 03:33:19 2017*
%MOMM*%
%LPD*%
G01*
G04 APERTURE LIST*
%ADD10C,0.100000*%
%ADD11C,0.150000*%
%ADD12C,0.010000*%
%ADD13C,0.120000*%
G04 APERTURE END LIST*
D10*
D11*
X109714285Y-100761904D02*
X110095238Y-100761904D01*
X110095238Y-99961904D01*
X109447619Y-100342857D02*
X109180952Y-100342857D01*
X109066666Y-100761904D02*
X109447619Y-100761904D01*
X109447619Y-99961904D01*
X109066666Y-99961904D01*
X108723809Y-100761904D02*
X108723809Y-99961904D01*
X108533333Y-99961904D01*
X108419047Y-100000000D01*
X108342857Y-100076190D01*
X108304761Y-100152380D01*
X108266666Y-100304761D01*
X108266666Y-100419047D01*
X108304761Y-100571428D01*
X108342857Y-100647619D01*
X108419047Y-100723809D01*
X108533333Y-100761904D01*
X108723809Y-100761904D01*
X103552380Y-100761904D02*
X103552380Y-99961904D01*
X103552380Y-100342857D02*
X103095238Y-100342857D01*
X103095238Y-100761904D02*
X103095238Y-99961904D01*
X102409523Y-100723809D02*
X102485714Y-100761904D01*
X102638095Y-100761904D01*
X102714285Y-100723809D01*
X102752380Y-100647619D01*
X102752380Y-100342857D01*
X102714285Y-100266666D01*
X102638095Y-100228571D01*
X102485714Y-100228571D01*
X102409523Y-100266666D01*
X102371428Y-100342857D01*
X102371428Y-100419047D01*
X102752380Y-100495238D01*
X101685714Y-100761904D02*
X101685714Y-100342857D01*
X101723809Y-100266666D01*
X101800000Y-100228571D01*
X101952380Y-100228571D01*
X102028571Y-100266666D01*
X101685714Y-100723809D02*
X101761904Y-100761904D01*
X101952380Y-100761904D01*
X102028571Y-100723809D01*
X102066666Y-100647619D01*
X102066666Y-100571428D01*
X102028571Y-100495238D01*
X101952380Y-100457142D01*
X101761904Y-100457142D01*
X101685714Y-100419047D01*
X101419047Y-100228571D02*
X101114285Y-100228571D01*
X101304761Y-99961904D02*
X101304761Y-100647619D01*
X101266666Y-100723809D01*
X101190476Y-100761904D01*
X101114285Y-100761904D01*
X100542857Y-100723809D02*
X100619047Y-100761904D01*
X100771428Y-100761904D01*
X100847619Y-100723809D01*
X100885714Y-100647619D01*
X100885714Y-100342857D01*
X100847619Y-100266666D01*
X100771428Y-100228571D01*
X100619047Y-100228571D01*
X100542857Y-100266666D01*
X100504761Y-100342857D01*
X100504761Y-100419047D01*
X100885714Y-100495238D01*
X100161904Y-100761904D02*
X100161904Y-100228571D01*
X100161904Y-100380952D02*
X100123809Y-100304761D01*
X100085714Y-100266666D01*
X100009523Y-100228571D01*
X99933333Y-100228571D01*
X95857142Y-100342857D02*
X95742857Y-100380952D01*
X95704761Y-100419047D01*
X95666666Y-100495238D01*
X95666666Y-100609523D01*
X95704761Y-100685714D01*
X95742857Y-100723809D01*
X95819047Y-100761904D01*
X96123809Y-100761904D01*
X96123809Y-99961904D01*
X95857142Y-99961904D01*
X95780952Y-100000000D01*
X95742857Y-100038095D01*
X95704761Y-100114285D01*
X95704761Y-100190476D01*
X95742857Y-100266666D01*
X95780952Y-100304761D01*
X95857142Y-100342857D01*
X96123809Y-100342857D01*
X94980952Y-100761904D02*
X94980952Y-100342857D01*
X95019047Y-100266666D01*
X95095238Y-100228571D01*
X95247619Y-100228571D01*
X95323809Y-100266666D01*
X94980952Y-100723809D02*
X95057142Y-100761904D01*
X95247619Y-100761904D01*
X95323809Y-100723809D01*
X95361904Y-100647619D01*
X95361904Y-100571428D01*
X95323809Y-100495238D01*
X95247619Y-100457142D01*
X95057142Y-100457142D01*
X94980952Y-100419047D01*
X94714285Y-100228571D02*
X94409523Y-100228571D01*
X94600000Y-99961904D02*
X94600000Y-100647619D01*
X94561904Y-100723809D01*
X94485714Y-100761904D01*
X94409523Y-100761904D01*
X94257142Y-100228571D02*
X93952380Y-100228571D01*
X94142857Y-99961904D02*
X94142857Y-100647619D01*
X94104761Y-100723809D01*
X94028571Y-100761904D01*
X93952380Y-100761904D01*
X93380952Y-100723809D02*
X93457142Y-100761904D01*
X93609523Y-100761904D01*
X93685714Y-100723809D01*
X93723809Y-100647619D01*
X93723809Y-100342857D01*
X93685714Y-100266666D01*
X93609523Y-100228571D01*
X93457142Y-100228571D01*
X93380952Y-100266666D01*
X93342857Y-100342857D01*
X93342857Y-100419047D01*
X93723809Y-100495238D01*
X93000000Y-100761904D02*
X93000000Y-100228571D01*
X93000000Y-100380952D02*
X92961904Y-100304761D01*
X92923809Y-100266666D01*
X92847619Y-100228571D01*
X92771428Y-100228571D01*
X92580952Y-100228571D02*
X92390476Y-100761904D01*
X92200000Y-100228571D02*
X92390476Y-100761904D01*
X92466666Y-100952380D01*
X92504761Y-100990476D01*
X92580952Y-101028571D01*
X121012023Y-88936904D02*
X121012023Y-88136904D01*
X120707261Y-88136904D01*
X120631071Y-88175000D01*
X120592976Y-88213095D01*
X120554880Y-88289285D01*
X120554880Y-88403571D01*
X120592976Y-88479761D01*
X120631071Y-88517857D01*
X120707261Y-88555952D01*
X121012023Y-88555952D01*
X120212023Y-88936904D02*
X120212023Y-88403571D01*
X120212023Y-88555952D02*
X120173928Y-88479761D01*
X120135833Y-88441666D01*
X120059642Y-88403571D01*
X119983452Y-88403571D01*
X119602500Y-88936904D02*
X119678690Y-88898809D01*
X119716785Y-88860714D01*
X119754880Y-88784523D01*
X119754880Y-88555952D01*
X119716785Y-88479761D01*
X119678690Y-88441666D01*
X119602500Y-88403571D01*
X119488214Y-88403571D01*
X119412023Y-88441666D01*
X119373928Y-88479761D01*
X119335833Y-88555952D01*
X119335833Y-88784523D01*
X119373928Y-88860714D01*
X119412023Y-88898809D01*
X119488214Y-88936904D01*
X119602500Y-88936904D01*
X118650119Y-88403571D02*
X118650119Y-89051190D01*
X118688214Y-89127380D01*
X118726309Y-89165476D01*
X118802500Y-89203571D01*
X118916785Y-89203571D01*
X118992976Y-89165476D01*
X118650119Y-88898809D02*
X118726309Y-88936904D01*
X118878690Y-88936904D01*
X118954880Y-88898809D01*
X118992976Y-88860714D01*
X119031071Y-88784523D01*
X119031071Y-88555952D01*
X118992976Y-88479761D01*
X118954880Y-88441666D01*
X118878690Y-88403571D01*
X118726309Y-88403571D01*
X118650119Y-88441666D01*
X118269166Y-88936904D02*
X118269166Y-88403571D01*
X118269166Y-88555952D02*
X118231071Y-88479761D01*
X118192976Y-88441666D01*
X118116785Y-88403571D01*
X118040595Y-88403571D01*
X117431071Y-88936904D02*
X117431071Y-88517857D01*
X117469166Y-88441666D01*
X117545357Y-88403571D01*
X117697738Y-88403571D01*
X117773928Y-88441666D01*
X117431071Y-88898809D02*
X117507261Y-88936904D01*
X117697738Y-88936904D01*
X117773928Y-88898809D01*
X117812023Y-88822619D01*
X117812023Y-88746428D01*
X117773928Y-88670238D01*
X117697738Y-88632142D01*
X117507261Y-88632142D01*
X117431071Y-88594047D01*
X117050119Y-88936904D02*
X117050119Y-88403571D01*
X117050119Y-88479761D02*
X117012023Y-88441666D01*
X116935833Y-88403571D01*
X116821547Y-88403571D01*
X116745357Y-88441666D01*
X116707261Y-88517857D01*
X116707261Y-88936904D01*
X116707261Y-88517857D02*
X116669166Y-88441666D01*
X116592976Y-88403571D01*
X116478690Y-88403571D01*
X116402500Y-88441666D01*
X116364404Y-88517857D01*
X116364404Y-88936904D01*
X115983452Y-88936904D02*
X115983452Y-88403571D01*
X115983452Y-88479761D02*
X115945357Y-88441666D01*
X115869166Y-88403571D01*
X115754880Y-88403571D01*
X115678690Y-88441666D01*
X115640595Y-88517857D01*
X115640595Y-88936904D01*
X115640595Y-88517857D02*
X115602500Y-88441666D01*
X115526309Y-88403571D01*
X115412023Y-88403571D01*
X115335833Y-88441666D01*
X115297738Y-88517857D01*
X115297738Y-88936904D01*
X114573928Y-88936904D02*
X114573928Y-88517857D01*
X114612023Y-88441666D01*
X114688214Y-88403571D01*
X114840595Y-88403571D01*
X114916785Y-88441666D01*
X114573928Y-88898809D02*
X114650119Y-88936904D01*
X114840595Y-88936904D01*
X114916785Y-88898809D01*
X114954880Y-88822619D01*
X114954880Y-88746428D01*
X114916785Y-88670238D01*
X114840595Y-88632142D01*
X114650119Y-88632142D01*
X114573928Y-88594047D01*
X114192976Y-88936904D02*
X114192976Y-88136904D01*
X114192976Y-88441666D02*
X114116785Y-88403571D01*
X113964404Y-88403571D01*
X113888214Y-88441666D01*
X113850119Y-88479761D01*
X113812023Y-88555952D01*
X113812023Y-88784523D01*
X113850119Y-88860714D01*
X113888214Y-88898809D01*
X113964404Y-88936904D01*
X114116785Y-88936904D01*
X114192976Y-88898809D01*
X113354880Y-88936904D02*
X113431071Y-88898809D01*
X113469166Y-88822619D01*
X113469166Y-88136904D01*
X112745357Y-88898809D02*
X112821547Y-88936904D01*
X112973928Y-88936904D01*
X113050119Y-88898809D01*
X113088214Y-88822619D01*
X113088214Y-88517857D01*
X113050119Y-88441666D01*
X112973928Y-88403571D01*
X112821547Y-88403571D01*
X112745357Y-88441666D01*
X112707261Y-88517857D01*
X112707261Y-88594047D01*
X113088214Y-88670238D01*
X111754880Y-88936904D02*
X111754880Y-88136904D01*
X111754880Y-88517857D02*
X111297738Y-88517857D01*
X111297738Y-88936904D02*
X111297738Y-88136904D01*
X110612023Y-88898809D02*
X110688214Y-88936904D01*
X110840595Y-88936904D01*
X110916785Y-88898809D01*
X110954880Y-88822619D01*
X110954880Y-88517857D01*
X110916785Y-88441666D01*
X110840595Y-88403571D01*
X110688214Y-88403571D01*
X110612023Y-88441666D01*
X110573928Y-88517857D01*
X110573928Y-88594047D01*
X110954880Y-88670238D01*
X109888214Y-88936904D02*
X109888214Y-88517857D01*
X109926309Y-88441666D01*
X110002500Y-88403571D01*
X110154880Y-88403571D01*
X110231071Y-88441666D01*
X109888214Y-88898809D02*
X109964404Y-88936904D01*
X110154880Y-88936904D01*
X110231071Y-88898809D01*
X110269166Y-88822619D01*
X110269166Y-88746428D01*
X110231071Y-88670238D01*
X110154880Y-88632142D01*
X109964404Y-88632142D01*
X109888214Y-88594047D01*
X109621547Y-88403571D02*
X109316785Y-88403571D01*
X109507261Y-88136904D02*
X109507261Y-88822619D01*
X109469166Y-88898809D01*
X109392976Y-88936904D01*
X109316785Y-88936904D01*
X108745357Y-88898809D02*
X108821547Y-88936904D01*
X108973928Y-88936904D01*
X109050119Y-88898809D01*
X109088214Y-88822619D01*
X109088214Y-88517857D01*
X109050119Y-88441666D01*
X108973928Y-88403571D01*
X108821547Y-88403571D01*
X108745357Y-88441666D01*
X108707261Y-88517857D01*
X108707261Y-88594047D01*
X109088214Y-88670238D01*
X108364404Y-88936904D02*
X108364404Y-88403571D01*
X108364404Y-88555952D02*
X108326309Y-88479761D01*
X108288214Y-88441666D01*
X108212023Y-88403571D01*
X108135833Y-88403571D01*
X107335833Y-88403571D02*
X107145357Y-88936904D01*
X106954880Y-88403571D01*
X106231071Y-88936904D02*
X106688214Y-88936904D01*
X106459642Y-88936904D02*
X106459642Y-88136904D01*
X106535833Y-88251190D01*
X106612023Y-88327380D01*
X106688214Y-88365476D01*
X105888214Y-88860714D02*
X105850119Y-88898809D01*
X105888214Y-88936904D01*
X105926309Y-88898809D01*
X105888214Y-88860714D01*
X105888214Y-88936904D01*
X105088214Y-88936904D02*
X105545357Y-88936904D01*
X105316785Y-88936904D02*
X105316785Y-88136904D01*
X105392976Y-88251190D01*
X105469166Y-88327380D01*
X105545357Y-88365476D01*
X121012023Y-90286904D02*
X121012023Y-89486904D01*
X120821547Y-89486904D01*
X120707261Y-89525000D01*
X120631071Y-89601190D01*
X120592976Y-89677380D01*
X120554880Y-89829761D01*
X120554880Y-89944047D01*
X120592976Y-90096428D01*
X120631071Y-90172619D01*
X120707261Y-90248809D01*
X120821547Y-90286904D01*
X121012023Y-90286904D01*
X119907261Y-90248809D02*
X119983452Y-90286904D01*
X120135833Y-90286904D01*
X120212023Y-90248809D01*
X120250119Y-90172619D01*
X120250119Y-89867857D01*
X120212023Y-89791666D01*
X120135833Y-89753571D01*
X119983452Y-89753571D01*
X119907261Y-89791666D01*
X119869166Y-89867857D01*
X119869166Y-89944047D01*
X120250119Y-90020238D01*
X119564404Y-90248809D02*
X119488214Y-90286904D01*
X119335833Y-90286904D01*
X119259642Y-90248809D01*
X119221547Y-90172619D01*
X119221547Y-90134523D01*
X119259642Y-90058333D01*
X119335833Y-90020238D01*
X119450119Y-90020238D01*
X119526309Y-89982142D01*
X119564404Y-89905952D01*
X119564404Y-89867857D01*
X119526309Y-89791666D01*
X119450119Y-89753571D01*
X119335833Y-89753571D01*
X119259642Y-89791666D01*
X118878690Y-90286904D02*
X118878690Y-89753571D01*
X118878690Y-89486904D02*
X118916785Y-89525000D01*
X118878690Y-89563095D01*
X118840595Y-89525000D01*
X118878690Y-89486904D01*
X118878690Y-89563095D01*
X118154880Y-89753571D02*
X118154880Y-90401190D01*
X118192976Y-90477380D01*
X118231071Y-90515476D01*
X118307261Y-90553571D01*
X118421547Y-90553571D01*
X118497738Y-90515476D01*
X118154880Y-90248809D02*
X118231071Y-90286904D01*
X118383452Y-90286904D01*
X118459642Y-90248809D01*
X118497738Y-90210714D01*
X118535833Y-90134523D01*
X118535833Y-89905952D01*
X118497738Y-89829761D01*
X118459642Y-89791666D01*
X118383452Y-89753571D01*
X118231071Y-89753571D01*
X118154880Y-89791666D01*
X117773928Y-89753571D02*
X117773928Y-90286904D01*
X117773928Y-89829761D02*
X117735833Y-89791666D01*
X117659642Y-89753571D01*
X117545357Y-89753571D01*
X117469166Y-89791666D01*
X117431071Y-89867857D01*
X117431071Y-90286904D01*
X117050119Y-90210714D02*
X117012023Y-90248809D01*
X117050119Y-90286904D01*
X117088214Y-90248809D01*
X117050119Y-90210714D01*
X117050119Y-90286904D01*
X117050119Y-89791666D02*
X117012023Y-89829761D01*
X117050119Y-89867857D01*
X117088214Y-89829761D01*
X117050119Y-89791666D01*
X117050119Y-89867857D01*
X116059642Y-90286904D02*
X116059642Y-89486904D01*
X115754880Y-89486904D01*
X115678690Y-89525000D01*
X115640595Y-89563095D01*
X115602500Y-89639285D01*
X115602500Y-89753571D01*
X115640595Y-89829761D01*
X115678690Y-89867857D01*
X115754880Y-89905952D01*
X116059642Y-89905952D01*
X114916785Y-90286904D02*
X114916785Y-89867857D01*
X114954880Y-89791666D01*
X115031071Y-89753571D01*
X115183452Y-89753571D01*
X115259642Y-89791666D01*
X114916785Y-90248809D02*
X114992976Y-90286904D01*
X115183452Y-90286904D01*
X115259642Y-90248809D01*
X115297738Y-90172619D01*
X115297738Y-90096428D01*
X115259642Y-90020238D01*
X115183452Y-89982142D01*
X114992976Y-89982142D01*
X114916785Y-89944047D01*
X114650119Y-89753571D02*
X114345357Y-89753571D01*
X114535833Y-89486904D02*
X114535833Y-90172619D01*
X114497738Y-90248809D01*
X114421547Y-90286904D01*
X114345357Y-90286904D01*
X114078690Y-90286904D02*
X114078690Y-89753571D01*
X114078690Y-89905952D02*
X114040595Y-89829761D01*
X114002500Y-89791666D01*
X113926309Y-89753571D01*
X113850119Y-89753571D01*
X113583452Y-90286904D02*
X113583452Y-89753571D01*
X113583452Y-89486904D02*
X113621547Y-89525000D01*
X113583452Y-89563095D01*
X113545357Y-89525000D01*
X113583452Y-89486904D01*
X113583452Y-89563095D01*
X112859642Y-90248809D02*
X112935833Y-90286904D01*
X113088214Y-90286904D01*
X113164404Y-90248809D01*
X113202500Y-90210714D01*
X113240595Y-90134523D01*
X113240595Y-89905952D01*
X113202500Y-89829761D01*
X113164404Y-89791666D01*
X113088214Y-89753571D01*
X112935833Y-89753571D01*
X112859642Y-89791666D01*
X112516785Y-90286904D02*
X112516785Y-89486904D01*
X112440595Y-89982142D02*
X112212023Y-90286904D01*
X112212023Y-89753571D02*
X112516785Y-90058333D01*
X110992976Y-89867857D02*
X110878690Y-89905952D01*
X110840595Y-89944047D01*
X110802500Y-90020238D01*
X110802500Y-90134523D01*
X110840595Y-90210714D01*
X110878690Y-90248809D01*
X110954880Y-90286904D01*
X111259642Y-90286904D01*
X111259642Y-89486904D01*
X110992976Y-89486904D01*
X110916785Y-89525000D01*
X110878690Y-89563095D01*
X110840595Y-89639285D01*
X110840595Y-89715476D01*
X110878690Y-89791666D01*
X110916785Y-89829761D01*
X110992976Y-89867857D01*
X111259642Y-89867857D01*
X110116785Y-90286904D02*
X110116785Y-89867857D01*
X110154880Y-89791666D01*
X110231071Y-89753571D01*
X110383452Y-89753571D01*
X110459642Y-89791666D01*
X110116785Y-90248809D02*
X110192976Y-90286904D01*
X110383452Y-90286904D01*
X110459642Y-90248809D01*
X110497738Y-90172619D01*
X110497738Y-90096428D01*
X110459642Y-90020238D01*
X110383452Y-89982142D01*
X110192976Y-89982142D01*
X110116785Y-89944047D01*
X109392976Y-89753571D02*
X109392976Y-90286904D01*
X109735833Y-89753571D02*
X109735833Y-90172619D01*
X109697738Y-90248809D01*
X109621547Y-90286904D01*
X109507261Y-90286904D01*
X109431071Y-90248809D01*
X109392976Y-90210714D01*
X109050119Y-90248809D02*
X108973928Y-90286904D01*
X108821547Y-90286904D01*
X108745357Y-90248809D01*
X108707261Y-90172619D01*
X108707261Y-90134523D01*
X108745357Y-90058333D01*
X108821547Y-90020238D01*
X108935833Y-90020238D01*
X109012023Y-89982142D01*
X109050119Y-89905952D01*
X109050119Y-89867857D01*
X109012023Y-89791666D01*
X108935833Y-89753571D01*
X108821547Y-89753571D01*
X108745357Y-89791666D01*
X121012023Y-91636904D02*
X121012023Y-90836904D01*
X120821547Y-90836904D01*
X120707261Y-90875000D01*
X120631071Y-90951190D01*
X120592976Y-91027380D01*
X120554880Y-91179761D01*
X120554880Y-91294047D01*
X120592976Y-91446428D01*
X120631071Y-91522619D01*
X120707261Y-91598809D01*
X120821547Y-91636904D01*
X121012023Y-91636904D01*
X119869166Y-91636904D02*
X119869166Y-91217857D01*
X119907261Y-91141666D01*
X119983452Y-91103571D01*
X120135833Y-91103571D01*
X120212023Y-91141666D01*
X119869166Y-91598809D02*
X119945357Y-91636904D01*
X120135833Y-91636904D01*
X120212023Y-91598809D01*
X120250119Y-91522619D01*
X120250119Y-91446428D01*
X120212023Y-91370238D01*
X120135833Y-91332142D01*
X119945357Y-91332142D01*
X119869166Y-91294047D01*
X119602500Y-91103571D02*
X119297738Y-91103571D01*
X119488214Y-90836904D02*
X119488214Y-91522619D01*
X119450119Y-91598809D01*
X119373928Y-91636904D01*
X119297738Y-91636904D01*
X118726309Y-91598809D02*
X118802500Y-91636904D01*
X118954880Y-91636904D01*
X119031071Y-91598809D01*
X119069166Y-91522619D01*
X119069166Y-91217857D01*
X119031071Y-91141666D01*
X118954880Y-91103571D01*
X118802500Y-91103571D01*
X118726309Y-91141666D01*
X118688214Y-91217857D01*
X118688214Y-91294047D01*
X119069166Y-91370238D01*
X118345357Y-91560714D02*
X118307261Y-91598809D01*
X118345357Y-91636904D01*
X118383452Y-91598809D01*
X118345357Y-91560714D01*
X118345357Y-91636904D01*
X118345357Y-91141666D02*
X118307261Y-91179761D01*
X118345357Y-91217857D01*
X118383452Y-91179761D01*
X118345357Y-91141666D01*
X118345357Y-91217857D01*
X117392976Y-90913095D02*
X117354880Y-90875000D01*
X117278690Y-90836904D01*
X117088214Y-90836904D01*
X117012023Y-90875000D01*
X116973928Y-90913095D01*
X116935833Y-90989285D01*
X116935833Y-91065476D01*
X116973928Y-91179761D01*
X117431071Y-91636904D01*
X116935833Y-91636904D01*
X116440595Y-90836904D02*
X116364404Y-90836904D01*
X116288214Y-90875000D01*
X116250119Y-90913095D01*
X116212023Y-90989285D01*
X116173928Y-91141666D01*
X116173928Y-91332142D01*
X116212023Y-91484523D01*
X116250119Y-91560714D01*
X116288214Y-91598809D01*
X116364404Y-91636904D01*
X116440595Y-91636904D01*
X116516785Y-91598809D01*
X116554880Y-91560714D01*
X116592976Y-91484523D01*
X116631071Y-91332142D01*
X116631071Y-91141666D01*
X116592976Y-90989285D01*
X116554880Y-90913095D01*
X116516785Y-90875000D01*
X116440595Y-90836904D01*
X115412023Y-91636904D02*
X115869166Y-91636904D01*
X115640595Y-91636904D02*
X115640595Y-90836904D01*
X115716785Y-90951190D01*
X115792976Y-91027380D01*
X115869166Y-91065476D01*
X114954880Y-91179761D02*
X115031071Y-91141666D01*
X115069166Y-91103571D01*
X115107261Y-91027380D01*
X115107261Y-90989285D01*
X115069166Y-90913095D01*
X115031071Y-90875000D01*
X114954880Y-90836904D01*
X114802500Y-90836904D01*
X114726309Y-90875000D01*
X114688214Y-90913095D01*
X114650119Y-90989285D01*
X114650119Y-91027380D01*
X114688214Y-91103571D01*
X114726309Y-91141666D01*
X114802500Y-91179761D01*
X114954880Y-91179761D01*
X115031071Y-91217857D01*
X115069166Y-91255952D01*
X115107261Y-91332142D01*
X115107261Y-91484523D01*
X115069166Y-91560714D01*
X115031071Y-91598809D01*
X114954880Y-91636904D01*
X114802500Y-91636904D01*
X114726309Y-91598809D01*
X114688214Y-91560714D01*
X114650119Y-91484523D01*
X114650119Y-91332142D01*
X114688214Y-91255952D01*
X114726309Y-91217857D01*
X114802500Y-91179761D01*
X114307261Y-91332142D02*
X113697738Y-91332142D01*
X113164404Y-90836904D02*
X113088214Y-90836904D01*
X113012023Y-90875000D01*
X112973928Y-90913095D01*
X112935833Y-90989285D01*
X112897738Y-91141666D01*
X112897738Y-91332142D01*
X112935833Y-91484523D01*
X112973928Y-91560714D01*
X113012023Y-91598809D01*
X113088214Y-91636904D01*
X113164404Y-91636904D01*
X113240595Y-91598809D01*
X113278690Y-91560714D01*
X113316785Y-91484523D01*
X113354880Y-91332142D01*
X113354880Y-91141666D01*
X113316785Y-90989285D01*
X113278690Y-90913095D01*
X113240595Y-90875000D01*
X113164404Y-90836904D01*
X112135833Y-91636904D02*
X112592976Y-91636904D01*
X112364404Y-91636904D02*
X112364404Y-90836904D01*
X112440595Y-90951190D01*
X112516785Y-91027380D01*
X112592976Y-91065476D01*
X121012023Y-92986904D02*
X121012023Y-92186904D01*
X120669166Y-92986904D02*
X120669166Y-92567857D01*
X120707261Y-92491666D01*
X120783452Y-92453571D01*
X120897738Y-92453571D01*
X120973928Y-92491666D01*
X121012023Y-92529761D01*
X120402500Y-92453571D02*
X120097738Y-92453571D01*
X120288214Y-92186904D02*
X120288214Y-92872619D01*
X120250119Y-92948809D01*
X120173928Y-92986904D01*
X120097738Y-92986904D01*
X119945357Y-92453571D02*
X119640595Y-92453571D01*
X119831071Y-92186904D02*
X119831071Y-92872619D01*
X119792976Y-92948809D01*
X119716785Y-92986904D01*
X119640595Y-92986904D01*
X119373928Y-92453571D02*
X119373928Y-93253571D01*
X119373928Y-92491666D02*
X119297738Y-92453571D01*
X119145357Y-92453571D01*
X119069166Y-92491666D01*
X119031071Y-92529761D01*
X118992976Y-92605952D01*
X118992976Y-92834523D01*
X119031071Y-92910714D01*
X119069166Y-92948809D01*
X119145357Y-92986904D01*
X119297738Y-92986904D01*
X119373928Y-92948809D01*
X118688214Y-92948809D02*
X118612023Y-92986904D01*
X118459642Y-92986904D01*
X118383452Y-92948809D01*
X118345357Y-92872619D01*
X118345357Y-92834523D01*
X118383452Y-92758333D01*
X118459642Y-92720238D01*
X118573928Y-92720238D01*
X118650119Y-92682142D01*
X118688214Y-92605952D01*
X118688214Y-92567857D01*
X118650119Y-92491666D01*
X118573928Y-92453571D01*
X118459642Y-92453571D01*
X118383452Y-92491666D01*
X118002500Y-92910714D02*
X117964404Y-92948809D01*
X118002500Y-92986904D01*
X118040595Y-92948809D01*
X118002500Y-92910714D01*
X118002500Y-92986904D01*
X118002500Y-92491666D02*
X117964404Y-92529761D01*
X118002500Y-92567857D01*
X118040595Y-92529761D01*
X118002500Y-92491666D01*
X118002500Y-92567857D01*
X117050119Y-92148809D02*
X117735833Y-93177380D01*
X116212023Y-92148809D02*
X116897738Y-93177380D01*
X115602500Y-92453571D02*
X115602500Y-93101190D01*
X115640595Y-93177380D01*
X115678690Y-93215476D01*
X115754880Y-93253571D01*
X115869166Y-93253571D01*
X115945357Y-93215476D01*
X115602500Y-92948809D02*
X115678690Y-92986904D01*
X115831071Y-92986904D01*
X115907261Y-92948809D01*
X115945357Y-92910714D01*
X115983452Y-92834523D01*
X115983452Y-92605952D01*
X115945357Y-92529761D01*
X115907261Y-92491666D01*
X115831071Y-92453571D01*
X115678690Y-92453571D01*
X115602500Y-92491666D01*
X115221547Y-92986904D02*
X115221547Y-92453571D01*
X115221547Y-92186904D02*
X115259642Y-92225000D01*
X115221547Y-92263095D01*
X115183452Y-92225000D01*
X115221547Y-92186904D01*
X115221547Y-92263095D01*
X114954880Y-92453571D02*
X114650119Y-92453571D01*
X114840595Y-92186904D02*
X114840595Y-92872619D01*
X114802500Y-92948809D01*
X114726309Y-92986904D01*
X114650119Y-92986904D01*
X114383452Y-92986904D02*
X114383452Y-92186904D01*
X114040595Y-92986904D02*
X114040595Y-92567857D01*
X114078690Y-92491666D01*
X114154880Y-92453571D01*
X114269166Y-92453571D01*
X114345357Y-92491666D01*
X114383452Y-92529761D01*
X113316785Y-92453571D02*
X113316785Y-92986904D01*
X113659642Y-92453571D02*
X113659642Y-92872619D01*
X113621547Y-92948809D01*
X113545357Y-92986904D01*
X113431071Y-92986904D01*
X113354880Y-92948809D01*
X113316785Y-92910714D01*
X112935833Y-92986904D02*
X112935833Y-92186904D01*
X112935833Y-92491666D02*
X112859642Y-92453571D01*
X112707261Y-92453571D01*
X112631071Y-92491666D01*
X112592976Y-92529761D01*
X112554880Y-92605952D01*
X112554880Y-92834523D01*
X112592976Y-92910714D01*
X112631071Y-92948809D01*
X112707261Y-92986904D01*
X112859642Y-92986904D01*
X112935833Y-92948809D01*
X112212023Y-92910714D02*
X112173928Y-92948809D01*
X112212023Y-92986904D01*
X112250119Y-92948809D01*
X112212023Y-92910714D01*
X112212023Y-92986904D01*
X111488214Y-92948809D02*
X111564404Y-92986904D01*
X111716785Y-92986904D01*
X111792976Y-92948809D01*
X111831071Y-92910714D01*
X111869166Y-92834523D01*
X111869166Y-92605952D01*
X111831071Y-92529761D01*
X111792976Y-92491666D01*
X111716785Y-92453571D01*
X111564404Y-92453571D01*
X111488214Y-92491666D01*
X111031071Y-92986904D02*
X111107261Y-92948809D01*
X111145357Y-92910714D01*
X111183452Y-92834523D01*
X111183452Y-92605952D01*
X111145357Y-92529761D01*
X111107261Y-92491666D01*
X111031071Y-92453571D01*
X110916785Y-92453571D01*
X110840595Y-92491666D01*
X110802500Y-92529761D01*
X110764404Y-92605952D01*
X110764404Y-92834523D01*
X110802500Y-92910714D01*
X110840595Y-92948809D01*
X110916785Y-92986904D01*
X111031071Y-92986904D01*
X110421547Y-92986904D02*
X110421547Y-92453571D01*
X110421547Y-92529761D02*
X110383452Y-92491666D01*
X110307261Y-92453571D01*
X110192976Y-92453571D01*
X110116785Y-92491666D01*
X110078690Y-92567857D01*
X110078690Y-92986904D01*
X110078690Y-92567857D02*
X110040595Y-92491666D01*
X109964404Y-92453571D01*
X109850119Y-92453571D01*
X109773928Y-92491666D01*
X109735833Y-92567857D01*
X109735833Y-92986904D01*
X108783452Y-92148809D02*
X109469166Y-93177380D01*
X108516785Y-92986904D02*
X108516785Y-92186904D01*
X108212023Y-92186904D01*
X108135833Y-92225000D01*
X108097738Y-92263095D01*
X108059642Y-92339285D01*
X108059642Y-92453571D01*
X108097738Y-92529761D01*
X108135833Y-92567857D01*
X108212023Y-92605952D01*
X108516785Y-92605952D01*
X107373928Y-92986904D02*
X107373928Y-92567857D01*
X107412023Y-92491666D01*
X107488214Y-92453571D01*
X107640595Y-92453571D01*
X107716785Y-92491666D01*
X107373928Y-92948809D02*
X107450119Y-92986904D01*
X107640595Y-92986904D01*
X107716785Y-92948809D01*
X107754880Y-92872619D01*
X107754880Y-92796428D01*
X107716785Y-92720238D01*
X107640595Y-92682142D01*
X107450119Y-92682142D01*
X107373928Y-92644047D01*
X107107261Y-92453571D02*
X106802500Y-92453571D01*
X106992976Y-92186904D02*
X106992976Y-92872619D01*
X106954880Y-92948809D01*
X106878690Y-92986904D01*
X106802500Y-92986904D01*
X106535833Y-92986904D02*
X106535833Y-92453571D01*
X106535833Y-92605952D02*
X106497738Y-92529761D01*
X106459642Y-92491666D01*
X106383452Y-92453571D01*
X106307261Y-92453571D01*
X106040595Y-92986904D02*
X106040595Y-92453571D01*
X106040595Y-92186904D02*
X106078690Y-92225000D01*
X106040595Y-92263095D01*
X106002500Y-92225000D01*
X106040595Y-92186904D01*
X106040595Y-92263095D01*
X105316785Y-92948809D02*
X105392976Y-92986904D01*
X105545357Y-92986904D01*
X105621547Y-92948809D01*
X105659642Y-92910714D01*
X105697738Y-92834523D01*
X105697738Y-92605952D01*
X105659642Y-92529761D01*
X105621547Y-92491666D01*
X105545357Y-92453571D01*
X105392976Y-92453571D01*
X105316785Y-92491666D01*
X104973928Y-92986904D02*
X104973928Y-92186904D01*
X104897738Y-92682142D02*
X104669166Y-92986904D01*
X104669166Y-92453571D02*
X104973928Y-92758333D01*
X104059642Y-92567857D02*
X103945357Y-92605952D01*
X103907261Y-92644047D01*
X103869166Y-92720238D01*
X103869166Y-92834523D01*
X103907261Y-92910714D01*
X103945357Y-92948809D01*
X104021547Y-92986904D01*
X104326309Y-92986904D01*
X104326309Y-92186904D01*
X104059642Y-92186904D01*
X103983452Y-92225000D01*
X103945357Y-92263095D01*
X103907261Y-92339285D01*
X103907261Y-92415476D01*
X103945357Y-92491666D01*
X103983452Y-92529761D01*
X104059642Y-92567857D01*
X104326309Y-92567857D01*
X103183452Y-92986904D02*
X103183452Y-92567857D01*
X103221547Y-92491666D01*
X103297738Y-92453571D01*
X103450119Y-92453571D01*
X103526309Y-92491666D01*
X103183452Y-92948809D02*
X103259642Y-92986904D01*
X103450119Y-92986904D01*
X103526309Y-92948809D01*
X103564404Y-92872619D01*
X103564404Y-92796428D01*
X103526309Y-92720238D01*
X103450119Y-92682142D01*
X103259642Y-92682142D01*
X103183452Y-92644047D01*
X102459642Y-92453571D02*
X102459642Y-92986904D01*
X102802500Y-92453571D02*
X102802500Y-92872619D01*
X102764404Y-92948809D01*
X102688214Y-92986904D01*
X102573928Y-92986904D01*
X102497738Y-92948809D01*
X102459642Y-92910714D01*
X102116785Y-92948809D02*
X102040595Y-92986904D01*
X101888214Y-92986904D01*
X101812023Y-92948809D01*
X101773928Y-92872619D01*
X101773928Y-92834523D01*
X101812023Y-92758333D01*
X101888214Y-92720238D01*
X102002500Y-92720238D01*
X102078690Y-92682142D01*
X102116785Y-92605952D01*
X102116785Y-92567857D01*
X102078690Y-92491666D01*
X102002500Y-92453571D01*
X101888214Y-92453571D01*
X101812023Y-92491666D01*
D12*
G36*
X108536640Y-84552468D02*
X108501408Y-84569874D01*
X108457960Y-84600206D01*
X108426294Y-84633283D01*
X108404606Y-84674817D01*
X108391097Y-84730522D01*
X108383962Y-84806111D01*
X108381400Y-84907296D01*
X108381250Y-84950797D01*
X108381688Y-85046135D01*
X108383504Y-85114271D01*
X108387455Y-85161418D01*
X108394298Y-85193790D01*
X108404789Y-85217600D01*
X108415704Y-85233843D01*
X108485381Y-85302952D01*
X108567434Y-85344521D01*
X108655950Y-85357023D01*
X108745019Y-85338934D01*
X108773237Y-85326142D01*
X108840790Y-85290931D01*
X108840790Y-85842700D01*
X108791488Y-85817205D01*
X108726527Y-85797480D01*
X108646680Y-85792427D01*
X108566948Y-85801756D01*
X108506735Y-85822714D01*
X108456792Y-85862627D01*
X108414119Y-85919741D01*
X108410910Y-85925605D01*
X108397378Y-85953227D01*
X108387495Y-85981068D01*
X108380691Y-86014794D01*
X108376399Y-86060071D01*
X108374049Y-86122562D01*
X108373072Y-86207935D01*
X108372895Y-86304010D01*
X108372895Y-86610526D01*
X108556711Y-86610526D01*
X108556711Y-86045339D01*
X108608125Y-86002077D01*
X108661534Y-85967472D01*
X108712112Y-85961180D01*
X108762970Y-85977372D01*
X108790075Y-85993227D01*
X108810249Y-86015810D01*
X108824597Y-86049940D01*
X108834224Y-86100434D01*
X108840237Y-86172111D01*
X108843740Y-86269788D01*
X108844974Y-86334802D01*
X108849145Y-86602171D01*
X108936875Y-86607222D01*
X109024606Y-86612273D01*
X109024606Y-84953101D01*
X108840790Y-84953101D01*
X108836104Y-85045600D01*
X108820312Y-85109809D01*
X108790817Y-85149759D01*
X108745020Y-85169480D01*
X108698750Y-85173421D01*
X108646372Y-85168892D01*
X108611610Y-85151069D01*
X108589872Y-85127519D01*
X108572760Y-85102189D01*
X108562573Y-85073969D01*
X108558040Y-85034431D01*
X108557891Y-84975142D01*
X108559416Y-84925498D01*
X108562919Y-84850710D01*
X108568133Y-84801611D01*
X108576913Y-84770467D01*
X108591114Y-84749545D01*
X108604516Y-84737452D01*
X108660513Y-84711081D01*
X108726789Y-84706822D01*
X108764844Y-84715906D01*
X108802523Y-84748196D01*
X108827481Y-84811006D01*
X108839578Y-84903894D01*
X108840790Y-84953101D01*
X109024606Y-84953101D01*
X109024606Y-84538421D01*
X108932698Y-84538421D01*
X108877517Y-84540603D01*
X108849048Y-84548351D01*
X108840794Y-84563468D01*
X108840790Y-84563916D01*
X108836960Y-84578720D01*
X108820067Y-84577039D01*
X108786481Y-84560772D01*
X108708222Y-84535887D01*
X108620173Y-84533271D01*
X108536640Y-84552468D01*
X108536640Y-84552468D01*
G37*
X108536640Y-84552468D02*
X108501408Y-84569874D01*
X108457960Y-84600206D01*
X108426294Y-84633283D01*
X108404606Y-84674817D01*
X108391097Y-84730522D01*
X108383962Y-84806111D01*
X108381400Y-84907296D01*
X108381250Y-84950797D01*
X108381688Y-85046135D01*
X108383504Y-85114271D01*
X108387455Y-85161418D01*
X108394298Y-85193790D01*
X108404789Y-85217600D01*
X108415704Y-85233843D01*
X108485381Y-85302952D01*
X108567434Y-85344521D01*
X108655950Y-85357023D01*
X108745019Y-85338934D01*
X108773237Y-85326142D01*
X108840790Y-85290931D01*
X108840790Y-85842700D01*
X108791488Y-85817205D01*
X108726527Y-85797480D01*
X108646680Y-85792427D01*
X108566948Y-85801756D01*
X108506735Y-85822714D01*
X108456792Y-85862627D01*
X108414119Y-85919741D01*
X108410910Y-85925605D01*
X108397378Y-85953227D01*
X108387495Y-85981068D01*
X108380691Y-86014794D01*
X108376399Y-86060071D01*
X108374049Y-86122562D01*
X108373072Y-86207935D01*
X108372895Y-86304010D01*
X108372895Y-86610526D01*
X108556711Y-86610526D01*
X108556711Y-86045339D01*
X108608125Y-86002077D01*
X108661534Y-85967472D01*
X108712112Y-85961180D01*
X108762970Y-85977372D01*
X108790075Y-85993227D01*
X108810249Y-86015810D01*
X108824597Y-86049940D01*
X108834224Y-86100434D01*
X108840237Y-86172111D01*
X108843740Y-86269788D01*
X108844974Y-86334802D01*
X108849145Y-86602171D01*
X108936875Y-86607222D01*
X109024606Y-86612273D01*
X109024606Y-84953101D01*
X108840790Y-84953101D01*
X108836104Y-85045600D01*
X108820312Y-85109809D01*
X108790817Y-85149759D01*
X108745020Y-85169480D01*
X108698750Y-85173421D01*
X108646372Y-85168892D01*
X108611610Y-85151069D01*
X108589872Y-85127519D01*
X108572760Y-85102189D01*
X108562573Y-85073969D01*
X108558040Y-85034431D01*
X108557891Y-84975142D01*
X108559416Y-84925498D01*
X108562919Y-84850710D01*
X108568133Y-84801611D01*
X108576913Y-84770467D01*
X108591114Y-84749545D01*
X108604516Y-84737452D01*
X108660513Y-84711081D01*
X108726789Y-84706822D01*
X108764844Y-84715906D01*
X108802523Y-84748196D01*
X108827481Y-84811006D01*
X108839578Y-84903894D01*
X108840790Y-84953101D01*
X109024606Y-84953101D01*
X109024606Y-84538421D01*
X108932698Y-84538421D01*
X108877517Y-84540603D01*
X108849048Y-84548351D01*
X108840794Y-84563468D01*
X108840790Y-84563916D01*
X108836960Y-84578720D01*
X108820067Y-84577039D01*
X108786481Y-84560772D01*
X108708222Y-84535887D01*
X108620173Y-84533271D01*
X108536640Y-84552468D01*
G36*
X107839543Y-85798184D02*
X107760930Y-85819160D01*
X107701084Y-85857180D01*
X107658853Y-85906978D01*
X107645725Y-85928230D01*
X107636032Y-85950492D01*
X107629256Y-85978970D01*
X107624877Y-86018871D01*
X107622376Y-86075401D01*
X107621232Y-86153767D01*
X107620928Y-86259176D01*
X107620922Y-86287142D01*
X107620922Y-86610526D01*
X107701132Y-86610526D01*
X107752294Y-86606943D01*
X107790123Y-86597866D01*
X107799601Y-86592268D01*
X107825512Y-86582606D01*
X107851976Y-86592268D01*
X107895548Y-86604330D01*
X107958840Y-86609185D01*
X108028990Y-86607078D01*
X108093140Y-86598256D01*
X108130593Y-86586937D01*
X108203067Y-86540412D01*
X108248360Y-86475846D01*
X108268722Y-86390000D01*
X108268912Y-86387796D01*
X108267125Y-86349713D01*
X108105527Y-86349713D01*
X108091399Y-86393030D01*
X108068388Y-86417408D01*
X108022196Y-86435845D01*
X107961225Y-86443205D01*
X107899051Y-86439583D01*
X107849249Y-86425074D01*
X107835297Y-86415765D01*
X107810915Y-86372753D01*
X107804737Y-86323857D01*
X107804737Y-86259605D01*
X107897182Y-86259605D01*
X107985005Y-86266366D01*
X108051582Y-86285520D01*
X108092998Y-86315376D01*
X108105527Y-86349713D01*
X108267125Y-86349713D01*
X108264510Y-86294004D01*
X108233576Y-86219847D01*
X108175419Y-86163767D01*
X108167380Y-86158665D01*
X108132837Y-86142055D01*
X108090082Y-86131996D01*
X108030314Y-86127107D01*
X107959310Y-86125983D01*
X107804737Y-86125921D01*
X107804737Y-86061125D01*
X107811294Y-86010850D01*
X107828025Y-85977169D01*
X107829984Y-85975376D01*
X107867217Y-85960642D01*
X107923420Y-85954931D01*
X107985533Y-85957737D01*
X108040490Y-85968556D01*
X108073101Y-85984782D01*
X108090772Y-85997780D01*
X108109431Y-86000262D01*
X108135181Y-85989613D01*
X108174127Y-85963218D01*
X108232370Y-85918465D01*
X108237716Y-85914273D01*
X108234977Y-85898760D01*
X108212124Y-85872960D01*
X108177391Y-85844289D01*
X108139010Y-85820166D01*
X108126952Y-85814470D01*
X108082966Y-85803103D01*
X108018513Y-85794995D01*
X107946503Y-85791743D01*
X107943136Y-85791736D01*
X107839543Y-85798184D01*
X107839543Y-85798184D01*
G37*
X107839543Y-85798184D02*
X107760930Y-85819160D01*
X107701084Y-85857180D01*
X107658853Y-85906978D01*
X107645725Y-85928230D01*
X107636032Y-85950492D01*
X107629256Y-85978970D01*
X107624877Y-86018871D01*
X107622376Y-86075401D01*
X107621232Y-86153767D01*
X107620928Y-86259176D01*
X107620922Y-86287142D01*
X107620922Y-86610526D01*
X107701132Y-86610526D01*
X107752294Y-86606943D01*
X107790123Y-86597866D01*
X107799601Y-86592268D01*
X107825512Y-86582606D01*
X107851976Y-86592268D01*
X107895548Y-86604330D01*
X107958840Y-86609185D01*
X108028990Y-86607078D01*
X108093140Y-86598256D01*
X108130593Y-86586937D01*
X108203067Y-86540412D01*
X108248360Y-86475846D01*
X108268722Y-86390000D01*
X108268912Y-86387796D01*
X108267125Y-86349713D01*
X108105527Y-86349713D01*
X108091399Y-86393030D01*
X108068388Y-86417408D01*
X108022196Y-86435845D01*
X107961225Y-86443205D01*
X107899051Y-86439583D01*
X107849249Y-86425074D01*
X107835297Y-86415765D01*
X107810915Y-86372753D01*
X107804737Y-86323857D01*
X107804737Y-86259605D01*
X107897182Y-86259605D01*
X107985005Y-86266366D01*
X108051582Y-86285520D01*
X108092998Y-86315376D01*
X108105527Y-86349713D01*
X108267125Y-86349713D01*
X108264510Y-86294004D01*
X108233576Y-86219847D01*
X108175419Y-86163767D01*
X108167380Y-86158665D01*
X108132837Y-86142055D01*
X108090082Y-86131996D01*
X108030314Y-86127107D01*
X107959310Y-86125983D01*
X107804737Y-86125921D01*
X107804737Y-86061125D01*
X107811294Y-86010850D01*
X107828025Y-85977169D01*
X107829984Y-85975376D01*
X107867217Y-85960642D01*
X107923420Y-85954931D01*
X107985533Y-85957737D01*
X108040490Y-85968556D01*
X108073101Y-85984782D01*
X108090772Y-85997780D01*
X108109431Y-86000262D01*
X108135181Y-85989613D01*
X108174127Y-85963218D01*
X108232370Y-85918465D01*
X108237716Y-85914273D01*
X108234977Y-85898760D01*
X108212124Y-85872960D01*
X108177391Y-85844289D01*
X108139010Y-85820166D01*
X108126952Y-85814470D01*
X108082966Y-85803103D01*
X108018513Y-85794995D01*
X107946503Y-85791743D01*
X107943136Y-85791736D01*
X107839543Y-85798184D01*
G36*
X107320119Y-85793486D02*
X107295112Y-85800982D01*
X107287050Y-85817451D01*
X107286711Y-85824886D01*
X107285264Y-85845594D01*
X107275302Y-85848845D01*
X107248388Y-85834648D01*
X107232402Y-85824948D01*
X107181967Y-85804175D01*
X107121728Y-85793904D01*
X107058566Y-85793114D01*
X106999363Y-85800786D01*
X106950998Y-85815898D01*
X106920354Y-85837432D01*
X106914311Y-85864366D01*
X106917361Y-85871660D01*
X106939594Y-85901937D01*
X106974070Y-85939175D01*
X106980306Y-85945195D01*
X107013167Y-85972875D01*
X107041520Y-85981818D01*
X107081173Y-85975576D01*
X107097058Y-85971429D01*
X107146491Y-85961467D01*
X107181248Y-85965947D01*
X107210600Y-85981746D01*
X107237487Y-86002949D01*
X107257290Y-86029614D01*
X107271052Y-86066827D01*
X107279816Y-86119673D01*
X107284626Y-86193237D01*
X107286526Y-86292605D01*
X107286711Y-86352601D01*
X107286711Y-86610526D01*
X107453816Y-86610526D01*
X107453816Y-85791710D01*
X107370264Y-85791710D01*
X107320119Y-85793486D01*
X107320119Y-85793486D01*
G37*
X107320119Y-85793486D02*
X107295112Y-85800982D01*
X107287050Y-85817451D01*
X107286711Y-85824886D01*
X107285264Y-85845594D01*
X107275302Y-85848845D01*
X107248388Y-85834648D01*
X107232402Y-85824948D01*
X107181967Y-85804175D01*
X107121728Y-85793904D01*
X107058566Y-85793114D01*
X106999363Y-85800786D01*
X106950998Y-85815898D01*
X106920354Y-85837432D01*
X106914311Y-85864366D01*
X106917361Y-85871660D01*
X106939594Y-85901937D01*
X106974070Y-85939175D01*
X106980306Y-85945195D01*
X107013167Y-85972875D01*
X107041520Y-85981818D01*
X107081173Y-85975576D01*
X107097058Y-85971429D01*
X107146491Y-85961467D01*
X107181248Y-85965947D01*
X107210600Y-85981746D01*
X107237487Y-86002949D01*
X107257290Y-86029614D01*
X107271052Y-86066827D01*
X107279816Y-86119673D01*
X107284626Y-86193237D01*
X107286526Y-86292605D01*
X107286711Y-86352601D01*
X107286711Y-86610526D01*
X107453816Y-86610526D01*
X107453816Y-85791710D01*
X107370264Y-85791710D01*
X107320119Y-85793486D01*
G36*
X106267369Y-86610526D02*
X106359277Y-86610526D01*
X106412623Y-86608962D01*
X106440407Y-86602485D01*
X106450410Y-86588418D01*
X106451185Y-86578906D01*
X106452872Y-86559832D01*
X106463510Y-86556174D01*
X106491465Y-86567932D01*
X106513205Y-86578906D01*
X106596668Y-86604911D01*
X106687396Y-86606416D01*
X106761158Y-86587021D01*
X106829846Y-86540165D01*
X106882206Y-86471004D01*
X106910878Y-86389427D01*
X106911608Y-86384866D01*
X106915868Y-86335101D01*
X106917986Y-86263659D01*
X106917816Y-86209626D01*
X106735280Y-86209626D01*
X106731051Y-86281441D01*
X106721432Y-86340634D01*
X106708410Y-86374060D01*
X106659144Y-86419740D01*
X106600650Y-86436115D01*
X106540329Y-86422873D01*
X106488783Y-86383373D01*
X106469262Y-86356807D01*
X106457848Y-86325106D01*
X106452502Y-86278832D01*
X106451185Y-86209328D01*
X106453542Y-86140499D01*
X106459767Y-86080026D01*
X106468592Y-86039556D01*
X106470063Y-86035929D01*
X106505653Y-85992802D01*
X106557600Y-85969124D01*
X106615722Y-85965301D01*
X106669840Y-85981738D01*
X106709774Y-86018840D01*
X106713917Y-86026222D01*
X106726884Y-86071239D01*
X106733948Y-86135967D01*
X106735280Y-86209626D01*
X106917816Y-86209626D01*
X106917729Y-86182230D01*
X106916528Y-86138405D01*
X106908355Y-86029988D01*
X106891370Y-85948588D01*
X106863113Y-85888412D01*
X106821128Y-85843666D01*
X106780368Y-85817400D01*
X106723419Y-85798935D01*
X106652589Y-85792602D01*
X106580059Y-85797760D01*
X106518014Y-85813769D01*
X106485232Y-85832920D01*
X106451185Y-85863732D01*
X106451185Y-85474210D01*
X106267369Y-85474210D01*
X106267369Y-86610526D01*
X106267369Y-86610526D01*
G37*
X106267369Y-86610526D02*
X106359277Y-86610526D01*
X106412623Y-86608962D01*
X106440407Y-86602485D01*
X106450410Y-86588418D01*
X106451185Y-86578906D01*
X106452872Y-86559832D01*
X106463510Y-86556174D01*
X106491465Y-86567932D01*
X106513205Y-86578906D01*
X106596668Y-86604911D01*
X106687396Y-86606416D01*
X106761158Y-86587021D01*
X106829846Y-86540165D01*
X106882206Y-86471004D01*
X106910878Y-86389427D01*
X106911608Y-86384866D01*
X106915868Y-86335101D01*
X106917986Y-86263659D01*
X106917816Y-86209626D01*
X106735280Y-86209626D01*
X106731051Y-86281441D01*
X106721432Y-86340634D01*
X106708410Y-86374060D01*
X106659144Y-86419740D01*
X106600650Y-86436115D01*
X106540329Y-86422873D01*
X106488783Y-86383373D01*
X106469262Y-86356807D01*
X106457848Y-86325106D01*
X106452502Y-86278832D01*
X106451185Y-86209328D01*
X106453542Y-86140499D01*
X106459767Y-86080026D01*
X106468592Y-86039556D01*
X106470063Y-86035929D01*
X106505653Y-85992802D01*
X106557600Y-85969124D01*
X106615722Y-85965301D01*
X106669840Y-85981738D01*
X106709774Y-86018840D01*
X106713917Y-86026222D01*
X106726884Y-86071239D01*
X106733948Y-86135967D01*
X106735280Y-86209626D01*
X106917816Y-86209626D01*
X106917729Y-86182230D01*
X106916528Y-86138405D01*
X106908355Y-86029988D01*
X106891370Y-85948588D01*
X106863113Y-85888412D01*
X106821128Y-85843666D01*
X106780368Y-85817400D01*
X106723419Y-85798935D01*
X106652589Y-85792602D01*
X106580059Y-85797760D01*
X106518014Y-85813769D01*
X106485232Y-85832920D01*
X106451185Y-85863732D01*
X106451185Y-85474210D01*
X106267369Y-85474210D01*
X106267369Y-86610526D01*
G36*
X105625870Y-85795104D02*
X105559780Y-85800066D01*
X105473374Y-86059079D01*
X105386969Y-86318092D01*
X105359876Y-86226184D01*
X105343572Y-86169384D01*
X105322125Y-86092625D01*
X105298965Y-86008251D01*
X105286720Y-85962993D01*
X105240656Y-85791710D01*
X105050613Y-85791710D01*
X105107418Y-85971349D01*
X105135393Y-86059704D01*
X105169187Y-86166281D01*
X105204480Y-86277454D01*
X105235987Y-86376579D01*
X105307750Y-86602171D01*
X105462714Y-86612253D01*
X105504730Y-86473528D01*
X105530641Y-86387351D01*
X105558917Y-86292347D01*
X105583631Y-86208441D01*
X105584606Y-86205102D01*
X105603065Y-86148248D01*
X105619351Y-86109456D01*
X105630758Y-86094787D01*
X105633102Y-86096483D01*
X105641329Y-86119225D01*
X105656962Y-86167940D01*
X105678096Y-86236502D01*
X105702830Y-86318785D01*
X105716213Y-86364046D01*
X105788689Y-86610526D01*
X105942505Y-86610526D01*
X106065469Y-86222006D01*
X106100012Y-86113022D01*
X106131479Y-86014048D01*
X106158384Y-85929736D01*
X106179241Y-85864734D01*
X106192562Y-85823692D01*
X106196612Y-85811701D01*
X106193406Y-85799423D01*
X106168235Y-85794046D01*
X106115854Y-85794584D01*
X106107655Y-85794990D01*
X106010518Y-85800066D01*
X105946900Y-86034013D01*
X105923516Y-86119333D01*
X105902619Y-86194335D01*
X105886049Y-86252507D01*
X105875646Y-86287337D01*
X105873724Y-86293016D01*
X105865759Y-86286486D01*
X105849696Y-86252654D01*
X105827379Y-86196127D01*
X105800655Y-86121510D01*
X105778063Y-86054107D01*
X105691959Y-85790143D01*
X105625870Y-85795104D01*
X105625870Y-85795104D01*
G37*
X105625870Y-85795104D02*
X105559780Y-85800066D01*
X105473374Y-86059079D01*
X105386969Y-86318092D01*
X105359876Y-86226184D01*
X105343572Y-86169384D01*
X105322125Y-86092625D01*
X105298965Y-86008251D01*
X105286720Y-85962993D01*
X105240656Y-85791710D01*
X105050613Y-85791710D01*
X105107418Y-85971349D01*
X105135393Y-86059704D01*
X105169187Y-86166281D01*
X105204480Y-86277454D01*
X105235987Y-86376579D01*
X105307750Y-86602171D01*
X105462714Y-86612253D01*
X105504730Y-86473528D01*
X105530641Y-86387351D01*
X105558917Y-86292347D01*
X105583631Y-86208441D01*
X105584606Y-86205102D01*
X105603065Y-86148248D01*
X105619351Y-86109456D01*
X105630758Y-86094787D01*
X105633102Y-86096483D01*
X105641329Y-86119225D01*
X105656962Y-86167940D01*
X105678096Y-86236502D01*
X105702830Y-86318785D01*
X105716213Y-86364046D01*
X105788689Y-86610526D01*
X105942505Y-86610526D01*
X106065469Y-86222006D01*
X106100012Y-86113022D01*
X106131479Y-86014048D01*
X106158384Y-85929736D01*
X106179241Y-85864734D01*
X106192562Y-85823692D01*
X106196612Y-85811701D01*
X106193406Y-85799423D01*
X106168235Y-85794046D01*
X106115854Y-85794584D01*
X106107655Y-85794990D01*
X106010518Y-85800066D01*
X105946900Y-86034013D01*
X105923516Y-86119333D01*
X105902619Y-86194335D01*
X105886049Y-86252507D01*
X105875646Y-86287337D01*
X105873724Y-86293016D01*
X105865759Y-86286486D01*
X105849696Y-86252654D01*
X105827379Y-86196127D01*
X105800655Y-86121510D01*
X105778063Y-86054107D01*
X105691959Y-85790143D01*
X105625870Y-85795104D01*
G36*
X104620008Y-85796673D02*
X104549573Y-85813780D01*
X104529213Y-85822844D01*
X104489747Y-85846583D01*
X104459459Y-85873321D01*
X104437048Y-85907699D01*
X104421214Y-85954360D01*
X104410657Y-86017946D01*
X104404076Y-86103099D01*
X104400172Y-86214462D01*
X104398690Y-86288849D01*
X104393235Y-86610526D01*
X104486420Y-86610526D01*
X104542953Y-86608156D01*
X104572078Y-86600055D01*
X104579606Y-86586451D01*
X104583580Y-86571741D01*
X104601348Y-86574554D01*
X104625560Y-86586348D01*
X104686172Y-86604427D01*
X104764071Y-86609299D01*
X104846005Y-86601330D01*
X104918719Y-86580889D01*
X104925241Y-86578051D01*
X104991698Y-86531365D01*
X105035509Y-86466464D01*
X105055668Y-86390600D01*
X105054128Y-86363344D01*
X104889655Y-86363344D01*
X104875163Y-86400024D01*
X104832195Y-86426309D01*
X104762871Y-86440417D01*
X104725823Y-86442290D01*
X104664081Y-86437494D01*
X104623040Y-86418858D01*
X104613027Y-86410000D01*
X104585900Y-86361806D01*
X104579606Y-86318092D01*
X104579606Y-86259605D01*
X104661070Y-86259605D01*
X104755766Y-86264432D01*
X104822187Y-86279613D01*
X104864154Y-86306200D01*
X104873551Y-86318052D01*
X104889655Y-86363344D01*
X105054128Y-86363344D01*
X105051171Y-86311026D01*
X105021015Y-86234995D01*
X104979869Y-86183612D01*
X104954948Y-86161397D01*
X104930552Y-86146798D01*
X104898809Y-86137897D01*
X104851848Y-86132775D01*
X104781796Y-86129515D01*
X104754010Y-86128577D01*
X104579606Y-86122879D01*
X104579862Y-86070091D01*
X104586616Y-86014603D01*
X104611036Y-85981052D01*
X104660370Y-85959618D01*
X104661694Y-85959236D01*
X104731640Y-85950808D01*
X104800086Y-85961816D01*
X104850953Y-85988585D01*
X104871363Y-86001803D01*
X104893346Y-85999974D01*
X104927174Y-85980824D01*
X104947039Y-85967308D01*
X104985894Y-85938432D01*
X105009962Y-85916786D01*
X105013824Y-85910589D01*
X104997921Y-85878519D01*
X104950935Y-85840219D01*
X104930527Y-85827297D01*
X104871857Y-85805041D01*
X104792788Y-85792432D01*
X104704959Y-85789600D01*
X104620008Y-85796673D01*
X104620008Y-85796673D01*
G37*
X104620008Y-85796673D02*
X104549573Y-85813780D01*
X104529213Y-85822844D01*
X104489747Y-85846583D01*
X104459459Y-85873321D01*
X104437048Y-85907699D01*
X104421214Y-85954360D01*
X104410657Y-86017946D01*
X104404076Y-86103099D01*
X104400172Y-86214462D01*
X104398690Y-86288849D01*
X104393235Y-86610526D01*
X104486420Y-86610526D01*
X104542953Y-86608156D01*
X104572078Y-86600055D01*
X104579606Y-86586451D01*
X104583580Y-86571741D01*
X104601348Y-86574554D01*
X104625560Y-86586348D01*
X104686172Y-86604427D01*
X104764071Y-86609299D01*
X104846005Y-86601330D01*
X104918719Y-86580889D01*
X104925241Y-86578051D01*
X104991698Y-86531365D01*
X105035509Y-86466464D01*
X105055668Y-86390600D01*
X105054128Y-86363344D01*
X104889655Y-86363344D01*
X104875163Y-86400024D01*
X104832195Y-86426309D01*
X104762871Y-86440417D01*
X104725823Y-86442290D01*
X104664081Y-86437494D01*
X104623040Y-86418858D01*
X104613027Y-86410000D01*
X104585900Y-86361806D01*
X104579606Y-86318092D01*
X104579606Y-86259605D01*
X104661070Y-86259605D01*
X104755766Y-86264432D01*
X104822187Y-86279613D01*
X104864154Y-86306200D01*
X104873551Y-86318052D01*
X104889655Y-86363344D01*
X105054128Y-86363344D01*
X105051171Y-86311026D01*
X105021015Y-86234995D01*
X104979869Y-86183612D01*
X104954948Y-86161397D01*
X104930552Y-86146798D01*
X104898809Y-86137897D01*
X104851848Y-86132775D01*
X104781796Y-86129515D01*
X104754010Y-86128577D01*
X104579606Y-86122879D01*
X104579862Y-86070091D01*
X104586616Y-86014603D01*
X104611036Y-85981052D01*
X104660370Y-85959618D01*
X104661694Y-85959236D01*
X104731640Y-85950808D01*
X104800086Y-85961816D01*
X104850953Y-85988585D01*
X104871363Y-86001803D01*
X104893346Y-85999974D01*
X104927174Y-85980824D01*
X104947039Y-85967308D01*
X104985894Y-85938432D01*
X105009962Y-85916786D01*
X105013824Y-85910589D01*
X104997921Y-85878519D01*
X104950935Y-85840219D01*
X104930527Y-85827297D01*
X104871857Y-85805041D01*
X104792788Y-85792432D01*
X104704959Y-85789600D01*
X104620008Y-85796673D01*
G36*
X103826833Y-85791447D02*
X103762592Y-85804112D01*
X103726020Y-85822864D01*
X103687547Y-85854017D01*
X103742283Y-85923127D01*
X103776031Y-85964979D01*
X103798947Y-85985398D01*
X103821721Y-85988517D01*
X103855044Y-85978472D01*
X103870686Y-85972789D01*
X103934458Y-85964404D01*
X103992860Y-85982378D01*
X104035736Y-86022982D01*
X104042701Y-86035929D01*
X104050287Y-86070224D01*
X104056141Y-86133427D01*
X104059989Y-86221060D01*
X104061557Y-86328640D01*
X104061579Y-86343944D01*
X104061579Y-86610526D01*
X104245395Y-86610526D01*
X104245395Y-85791710D01*
X104153487Y-85791710D01*
X104100493Y-85793094D01*
X104072885Y-85799252D01*
X104062676Y-85813194D01*
X104061579Y-85826344D01*
X104061579Y-85860978D01*
X104017550Y-85826344D01*
X103967063Y-85802716D01*
X103899240Y-85791033D01*
X103826833Y-85791447D01*
X103826833Y-85791447D01*
G37*
X103826833Y-85791447D02*
X103762592Y-85804112D01*
X103726020Y-85822864D01*
X103687547Y-85854017D01*
X103742283Y-85923127D01*
X103776031Y-85964979D01*
X103798947Y-85985398D01*
X103821721Y-85988517D01*
X103855044Y-85978472D01*
X103870686Y-85972789D01*
X103934458Y-85964404D01*
X103992860Y-85982378D01*
X104035736Y-86022982D01*
X104042701Y-86035929D01*
X104050287Y-86070224D01*
X104056141Y-86133427D01*
X104059989Y-86221060D01*
X104061557Y-86328640D01*
X104061579Y-86343944D01*
X104061579Y-86610526D01*
X104245395Y-86610526D01*
X104245395Y-85791710D01*
X104153487Y-85791710D01*
X104100493Y-85793094D01*
X104072885Y-85799252D01*
X104062676Y-85813194D01*
X104061579Y-85826344D01*
X104061579Y-85860978D01*
X104017550Y-85826344D01*
X103967063Y-85802716D01*
X103899240Y-85791033D01*
X103826833Y-85791447D01*
G36*
X103298807Y-85796078D02*
X103218932Y-85816845D01*
X103152038Y-85859705D01*
X103119649Y-85891723D01*
X103066555Y-85967413D01*
X103036127Y-86055216D01*
X103025673Y-86163150D01*
X103025620Y-86171875D01*
X103025527Y-86259605D01*
X103530466Y-86259605D01*
X103519702Y-86305559D01*
X103500268Y-86347178D01*
X103466255Y-86390544D01*
X103459140Y-86397467D01*
X103397997Y-86434935D01*
X103328271Y-86441289D01*
X103248013Y-86416638D01*
X103234408Y-86410000D01*
X103192681Y-86389819D01*
X103164732Y-86378321D01*
X103159855Y-86377258D01*
X103142832Y-86387583D01*
X103110367Y-86412845D01*
X103093886Y-86426650D01*
X103059736Y-86458361D01*
X103048522Y-86479299D01*
X103056305Y-86498560D01*
X103060465Y-86503827D01*
X103088643Y-86526878D01*
X103135138Y-86554892D01*
X103167566Y-86571246D01*
X103259615Y-86600059D01*
X103361524Y-86609395D01*
X103458037Y-86598332D01*
X103485066Y-86590412D01*
X103568724Y-86545581D01*
X103630734Y-86476598D01*
X103671455Y-86382794D01*
X103691245Y-86263498D01*
X103693418Y-86201118D01*
X103687074Y-86110298D01*
X103526843Y-86110298D01*
X103511345Y-86117012D01*
X103469688Y-86122280D01*
X103409124Y-86125389D01*
X103368093Y-86125921D01*
X103294289Y-86125408D01*
X103247707Y-86123006D01*
X103222152Y-86117422D01*
X103211431Y-86107361D01*
X103209343Y-86092763D01*
X103223669Y-86047796D01*
X103259738Y-86003353D01*
X103307185Y-85969242D01*
X103354651Y-85955288D01*
X103419121Y-85967666D01*
X103474930Y-86003452D01*
X103513626Y-86055033D01*
X103526843Y-86110298D01*
X103687074Y-86110298D01*
X103684179Y-86068866D01*
X103655664Y-85963498D01*
X103607271Y-85884178D01*
X103538396Y-85830071D01*
X103448435Y-85800343D01*
X103399700Y-85794618D01*
X103298807Y-85796078D01*
X103298807Y-85796078D01*
G37*
X103298807Y-85796078D02*
X103218932Y-85816845D01*
X103152038Y-85859705D01*
X103119649Y-85891723D01*
X103066555Y-85967413D01*
X103036127Y-86055216D01*
X103025673Y-86163150D01*
X103025620Y-86171875D01*
X103025527Y-86259605D01*
X103530466Y-86259605D01*
X103519702Y-86305559D01*
X103500268Y-86347178D01*
X103466255Y-86390544D01*
X103459140Y-86397467D01*
X103397997Y-86434935D01*
X103328271Y-86441289D01*
X103248013Y-86416638D01*
X103234408Y-86410000D01*
X103192681Y-86389819D01*
X103164732Y-86378321D01*
X103159855Y-86377258D01*
X103142832Y-86387583D01*
X103110367Y-86412845D01*
X103093886Y-86426650D01*
X103059736Y-86458361D01*
X103048522Y-86479299D01*
X103056305Y-86498560D01*
X103060465Y-86503827D01*
X103088643Y-86526878D01*
X103135138Y-86554892D01*
X103167566Y-86571246D01*
X103259615Y-86600059D01*
X103361524Y-86609395D01*
X103458037Y-86598332D01*
X103485066Y-86590412D01*
X103568724Y-86545581D01*
X103630734Y-86476598D01*
X103671455Y-86382794D01*
X103691245Y-86263498D01*
X103693418Y-86201118D01*
X103687074Y-86110298D01*
X103526843Y-86110298D01*
X103511345Y-86117012D01*
X103469688Y-86122280D01*
X103409124Y-86125389D01*
X103368093Y-86125921D01*
X103294289Y-86125408D01*
X103247707Y-86123006D01*
X103222152Y-86117422D01*
X103211431Y-86107361D01*
X103209343Y-86092763D01*
X103223669Y-86047796D01*
X103259738Y-86003353D01*
X103307185Y-85969242D01*
X103354651Y-85955288D01*
X103419121Y-85967666D01*
X103474930Y-86003452D01*
X103513626Y-86055033D01*
X103526843Y-86110298D01*
X103687074Y-86110298D01*
X103684179Y-86068866D01*
X103655664Y-85963498D01*
X103607271Y-85884178D01*
X103538396Y-85830071D01*
X103448435Y-85800343D01*
X103399700Y-85794618D01*
X103298807Y-85796078D01*
G36*
X109373216Y-84547104D02*
X109285795Y-84585754D01*
X109219430Y-84650290D01*
X109174024Y-84740812D01*
X109149482Y-84857418D01*
X109147723Y-84875624D01*
X109146344Y-85003984D01*
X109164216Y-85116496D01*
X109200250Y-85207688D01*
X109219545Y-85237022D01*
X109286755Y-85299106D01*
X109372350Y-85339316D01*
X109468110Y-85356003D01*
X109565813Y-85347517D01*
X109640083Y-85321380D01*
X109703953Y-85277335D01*
X109756154Y-85219587D01*
X109757057Y-85218236D01*
X109778256Y-85182593D01*
X109792033Y-85146752D01*
X109800376Y-85101519D01*
X109805273Y-85037701D01*
X109807431Y-84985368D01*
X109808329Y-84937910D01*
X109641257Y-84937910D01*
X109639624Y-84985154D01*
X109633696Y-85048046D01*
X109623239Y-85088407D01*
X109604381Y-85117122D01*
X109586719Y-85133896D01*
X109524106Y-85169016D01*
X109458592Y-85173710D01*
X109397579Y-85148440D01*
X109367072Y-85120124D01*
X109345089Y-85091589D01*
X109332231Y-85064284D01*
X109326588Y-85028750D01*
X109326249Y-84975524D01*
X109327988Y-84926506D01*
X109331729Y-84856482D01*
X109337659Y-84811064D01*
X109348347Y-84781440D01*
X109366361Y-84758797D01*
X109380637Y-84745855D01*
X109440349Y-84711860D01*
X109504766Y-84710165D01*
X109558781Y-84730301D01*
X109604860Y-84772352D01*
X109632311Y-84841428D01*
X109641257Y-84937910D01*
X109808329Y-84937910D01*
X109809401Y-84881299D01*
X109806036Y-84803468D01*
X109795955Y-84744930D01*
X109777774Y-84698737D01*
X109750110Y-84657942D01*
X109739854Y-84645828D01*
X109675722Y-84585474D01*
X109606934Y-84550220D01*
X109522811Y-84535450D01*
X109481791Y-84534243D01*
X109373216Y-84547104D01*
X109373216Y-84547104D01*
G37*
X109373216Y-84547104D02*
X109285795Y-84585754D01*
X109219430Y-84650290D01*
X109174024Y-84740812D01*
X109149482Y-84857418D01*
X109147723Y-84875624D01*
X109146344Y-85003984D01*
X109164216Y-85116496D01*
X109200250Y-85207688D01*
X109219545Y-85237022D01*
X109286755Y-85299106D01*
X109372350Y-85339316D01*
X109468110Y-85356003D01*
X109565813Y-85347517D01*
X109640083Y-85321380D01*
X109703953Y-85277335D01*
X109756154Y-85219587D01*
X109757057Y-85218236D01*
X109778256Y-85182593D01*
X109792033Y-85146752D01*
X109800376Y-85101519D01*
X109805273Y-85037701D01*
X109807431Y-84985368D01*
X109808329Y-84937910D01*
X109641257Y-84937910D01*
X109639624Y-84985154D01*
X109633696Y-85048046D01*
X109623239Y-85088407D01*
X109604381Y-85117122D01*
X109586719Y-85133896D01*
X109524106Y-85169016D01*
X109458592Y-85173710D01*
X109397579Y-85148440D01*
X109367072Y-85120124D01*
X109345089Y-85091589D01*
X109332231Y-85064284D01*
X109326588Y-85028750D01*
X109326249Y-84975524D01*
X109327988Y-84926506D01*
X109331729Y-84856482D01*
X109337659Y-84811064D01*
X109348347Y-84781440D01*
X109366361Y-84758797D01*
X109380637Y-84745855D01*
X109440349Y-84711860D01*
X109504766Y-84710165D01*
X109558781Y-84730301D01*
X109604860Y-84772352D01*
X109632311Y-84841428D01*
X109641257Y-84937910D01*
X109808329Y-84937910D01*
X109809401Y-84881299D01*
X109806036Y-84803468D01*
X109795955Y-84744930D01*
X109777774Y-84698737D01*
X109750110Y-84657942D01*
X109739854Y-84645828D01*
X109675722Y-84585474D01*
X109606934Y-84550220D01*
X109522811Y-84535450D01*
X109481791Y-84534243D01*
X109373216Y-84547104D01*
G36*
X107802982Y-84557027D02*
X107786330Y-84564866D01*
X107728695Y-84607086D01*
X107674195Y-84668700D01*
X107633501Y-84736543D01*
X107621926Y-84767734D01*
X107611366Y-84823449D01*
X107605069Y-84890781D01*
X107604304Y-84918585D01*
X107604211Y-85006316D01*
X108109150Y-85006316D01*
X108098387Y-85052270D01*
X108071967Y-85106620D01*
X108025778Y-85153591D01*
X107970828Y-85183848D01*
X107935811Y-85190131D01*
X107888323Y-85182506D01*
X107831665Y-85163383D01*
X107812418Y-85154584D01*
X107741241Y-85119036D01*
X107680498Y-85165367D01*
X107645448Y-85196703D01*
X107626798Y-85222567D01*
X107625853Y-85230158D01*
X107642515Y-85248556D01*
X107679030Y-85276515D01*
X107712172Y-85298327D01*
X107801607Y-85337537D01*
X107901871Y-85355285D01*
X108001246Y-85350670D01*
X108080461Y-85326551D01*
X108162120Y-85274884D01*
X108220151Y-85206856D01*
X108256454Y-85118843D01*
X108272928Y-85007216D01*
X108274389Y-84956138D01*
X108268543Y-84839091D01*
X108267825Y-84835686D01*
X108100511Y-84835686D01*
X108095903Y-84846662D01*
X108076964Y-84852715D01*
X108037902Y-84855310D01*
X107972923Y-84855910D01*
X107947903Y-84855921D01*
X107871779Y-84855014D01*
X107823504Y-84851720D01*
X107797540Y-84845181D01*
X107788352Y-84834537D01*
X107788027Y-84831119D01*
X107798513Y-84803956D01*
X107824758Y-84765903D01*
X107836041Y-84752579D01*
X107877928Y-84714896D01*
X107921591Y-84700080D01*
X107945115Y-84698842D01*
X108008757Y-84714329D01*
X108062127Y-84755930D01*
X108095981Y-84816353D01*
X108096581Y-84818322D01*
X108100511Y-84835686D01*
X108267825Y-84835686D01*
X108249101Y-84746928D01*
X108214078Y-84673190D01*
X108171244Y-84620848D01*
X108092052Y-84564092D01*
X107998960Y-84533762D01*
X107899945Y-84531021D01*
X107802982Y-84557027D01*
X107802982Y-84557027D01*
G37*
X107802982Y-84557027D02*
X107786330Y-84564866D01*
X107728695Y-84607086D01*
X107674195Y-84668700D01*
X107633501Y-84736543D01*
X107621926Y-84767734D01*
X107611366Y-84823449D01*
X107605069Y-84890781D01*
X107604304Y-84918585D01*
X107604211Y-85006316D01*
X108109150Y-85006316D01*
X108098387Y-85052270D01*
X108071967Y-85106620D01*
X108025778Y-85153591D01*
X107970828Y-85183848D01*
X107935811Y-85190131D01*
X107888323Y-85182506D01*
X107831665Y-85163383D01*
X107812418Y-85154584D01*
X107741241Y-85119036D01*
X107680498Y-85165367D01*
X107645448Y-85196703D01*
X107626798Y-85222567D01*
X107625853Y-85230158D01*
X107642515Y-85248556D01*
X107679030Y-85276515D01*
X107712172Y-85298327D01*
X107801607Y-85337537D01*
X107901871Y-85355285D01*
X108001246Y-85350670D01*
X108080461Y-85326551D01*
X108162120Y-85274884D01*
X108220151Y-85206856D01*
X108256454Y-85118843D01*
X108272928Y-85007216D01*
X108274389Y-84956138D01*
X108268543Y-84839091D01*
X108267825Y-84835686D01*
X108100511Y-84835686D01*
X108095903Y-84846662D01*
X108076964Y-84852715D01*
X108037902Y-84855310D01*
X107972923Y-84855910D01*
X107947903Y-84855921D01*
X107871779Y-84855014D01*
X107823504Y-84851720D01*
X107797540Y-84845181D01*
X107788352Y-84834537D01*
X107788027Y-84831119D01*
X107798513Y-84803956D01*
X107824758Y-84765903D01*
X107836041Y-84752579D01*
X107877928Y-84714896D01*
X107921591Y-84700080D01*
X107945115Y-84698842D01*
X108008757Y-84714329D01*
X108062127Y-84755930D01*
X108095981Y-84816353D01*
X108096581Y-84818322D01*
X108100511Y-84835686D01*
X108267825Y-84835686D01*
X108249101Y-84746928D01*
X108214078Y-84673190D01*
X108171244Y-84620848D01*
X108092052Y-84564092D01*
X107998960Y-84533762D01*
X107899945Y-84531021D01*
X107802982Y-84557027D01*
G36*
X105981372Y-84535547D02*
X105918092Y-84547548D01*
X105852443Y-84572648D01*
X105845428Y-84575848D01*
X105795644Y-84602026D01*
X105761166Y-84626353D01*
X105750022Y-84641937D01*
X105760634Y-84667353D01*
X105786412Y-84704853D01*
X105797854Y-84718852D01*
X105845008Y-84773954D01*
X105905799Y-84738086D01*
X105963653Y-84714192D01*
X106030500Y-84701420D01*
X106094606Y-84700613D01*
X106144236Y-84712615D01*
X106156146Y-84720105D01*
X106178828Y-84754450D01*
X106181584Y-84794013D01*
X106164612Y-84824920D01*
X106154573Y-84830913D01*
X106124490Y-84838357D01*
X106071611Y-84847106D01*
X106006425Y-84855467D01*
X105994400Y-84856778D01*
X105889703Y-84874888D01*
X105813768Y-84905651D01*
X105763408Y-84951907D01*
X105735436Y-85016497D01*
X105726722Y-85095387D01*
X105738760Y-85185065D01*
X105777849Y-85255486D01*
X105844145Y-85306777D01*
X105937806Y-85339067D01*
X106041777Y-85351807D01*
X106126562Y-85351654D01*
X106195335Y-85340083D01*
X106242303Y-85324109D01*
X106301650Y-85296275D01*
X106356494Y-85263973D01*
X106375987Y-85249755D01*
X106426119Y-85208835D01*
X106305197Y-85086477D01*
X106236457Y-85131967D01*
X106167512Y-85166133D01*
X106093889Y-85184004D01*
X106023117Y-85185889D01*
X105962726Y-85172101D01*
X105920243Y-85142949D01*
X105906526Y-85118352D01*
X105908583Y-85078904D01*
X105942670Y-85048737D01*
X106008692Y-85027906D01*
X106081026Y-85018279D01*
X106192348Y-84999910D01*
X106275048Y-84965254D01*
X106330235Y-84913297D01*
X106359012Y-84843023D01*
X106362999Y-84759707D01*
X106343307Y-84672681D01*
X106298411Y-84606902D01*
X106227909Y-84562068D01*
X106131399Y-84537879D01*
X106059900Y-84533137D01*
X105981372Y-84535547D01*
X105981372Y-84535547D01*
G37*
X105981372Y-84535547D02*
X105918092Y-84547548D01*
X105852443Y-84572648D01*
X105845428Y-84575848D01*
X105795644Y-84602026D01*
X105761166Y-84626353D01*
X105750022Y-84641937D01*
X105760634Y-84667353D01*
X105786412Y-84704853D01*
X105797854Y-84718852D01*
X105845008Y-84773954D01*
X105905799Y-84738086D01*
X105963653Y-84714192D01*
X106030500Y-84701420D01*
X106094606Y-84700613D01*
X106144236Y-84712615D01*
X106156146Y-84720105D01*
X106178828Y-84754450D01*
X106181584Y-84794013D01*
X106164612Y-84824920D01*
X106154573Y-84830913D01*
X106124490Y-84838357D01*
X106071611Y-84847106D01*
X106006425Y-84855467D01*
X105994400Y-84856778D01*
X105889703Y-84874888D01*
X105813768Y-84905651D01*
X105763408Y-84951907D01*
X105735436Y-85016497D01*
X105726722Y-85095387D01*
X105738760Y-85185065D01*
X105777849Y-85255486D01*
X105844145Y-85306777D01*
X105937806Y-85339067D01*
X106041777Y-85351807D01*
X106126562Y-85351654D01*
X106195335Y-85340083D01*
X106242303Y-85324109D01*
X106301650Y-85296275D01*
X106356494Y-85263973D01*
X106375987Y-85249755D01*
X106426119Y-85208835D01*
X106305197Y-85086477D01*
X106236457Y-85131967D01*
X106167512Y-85166133D01*
X106093889Y-85184004D01*
X106023117Y-85185889D01*
X105962726Y-85172101D01*
X105920243Y-85142949D01*
X105906526Y-85118352D01*
X105908583Y-85078904D01*
X105942670Y-85048737D01*
X106008692Y-85027906D01*
X106081026Y-85018279D01*
X106192348Y-84999910D01*
X106275048Y-84965254D01*
X106330235Y-84913297D01*
X106359012Y-84843023D01*
X106362999Y-84759707D01*
X106343307Y-84672681D01*
X106298411Y-84606902D01*
X106227909Y-84562068D01*
X106131399Y-84537879D01*
X106059900Y-84533137D01*
X105981372Y-84535547D01*
G36*
X105188331Y-84548310D02*
X105103808Y-84594340D01*
X105037679Y-84667006D01*
X105006522Y-84726106D01*
X104993145Y-84778305D01*
X104984478Y-84852719D01*
X104980763Y-84938442D01*
X104982246Y-85024569D01*
X104989169Y-85100193D01*
X104997255Y-85140584D01*
X105024535Y-85195840D01*
X105071780Y-85254530D01*
X105128718Y-85305852D01*
X105185076Y-85339005D01*
X105186450Y-85339531D01*
X105256384Y-85354018D01*
X105339263Y-85354377D01*
X105418023Y-85341188D01*
X105448434Y-85330617D01*
X105526761Y-85286201D01*
X105582857Y-85228007D01*
X105619714Y-85150965D01*
X105640320Y-85050001D01*
X105644982Y-84997116D01*
X105644387Y-84930663D01*
X105465264Y-84930663D01*
X105459230Y-85027630D01*
X105441862Y-85101523D01*
X105414260Y-85148736D01*
X105394596Y-85162237D01*
X105344213Y-85171651D01*
X105284327Y-85168864D01*
X105232551Y-85155316D01*
X105218973Y-85147862D01*
X105183151Y-85104451D01*
X105159507Y-85038014D01*
X105149442Y-84957161D01*
X105154358Y-84870502D01*
X105165345Y-84818349D01*
X105196891Y-84757951D01*
X105246689Y-84720197D01*
X105306663Y-84707143D01*
X105368736Y-84720849D01*
X105416418Y-84754372D01*
X105441475Y-84782031D01*
X105456100Y-84809294D01*
X105463071Y-84846190D01*
X105465167Y-84902750D01*
X105465264Y-84930663D01*
X105644387Y-84930663D01*
X105643718Y-84855994D01*
X105620735Y-84740271D01*
X105576028Y-84649941D01*
X105509595Y-84585000D01*
X105421435Y-84545445D01*
X105402505Y-84540858D01*
X105288734Y-84530090D01*
X105188331Y-84548310D01*
X105188331Y-84548310D01*
G37*
X105188331Y-84548310D02*
X105103808Y-84594340D01*
X105037679Y-84667006D01*
X105006522Y-84726106D01*
X104993145Y-84778305D01*
X104984478Y-84852719D01*
X104980763Y-84938442D01*
X104982246Y-85024569D01*
X104989169Y-85100193D01*
X104997255Y-85140584D01*
X105024535Y-85195840D01*
X105071780Y-85254530D01*
X105128718Y-85305852D01*
X105185076Y-85339005D01*
X105186450Y-85339531D01*
X105256384Y-85354018D01*
X105339263Y-85354377D01*
X105418023Y-85341188D01*
X105448434Y-85330617D01*
X105526761Y-85286201D01*
X105582857Y-85228007D01*
X105619714Y-85150965D01*
X105640320Y-85050001D01*
X105644982Y-84997116D01*
X105644387Y-84930663D01*
X105465264Y-84930663D01*
X105459230Y-85027630D01*
X105441862Y-85101523D01*
X105414260Y-85148736D01*
X105394596Y-85162237D01*
X105344213Y-85171651D01*
X105284327Y-85168864D01*
X105232551Y-85155316D01*
X105218973Y-85147862D01*
X105183151Y-85104451D01*
X105159507Y-85038014D01*
X105149442Y-84957161D01*
X105154358Y-84870502D01*
X105165345Y-84818349D01*
X105196891Y-84757951D01*
X105246689Y-84720197D01*
X105306663Y-84707143D01*
X105368736Y-84720849D01*
X105416418Y-84754372D01*
X105441475Y-84782031D01*
X105456100Y-84809294D01*
X105463071Y-84846190D01*
X105465167Y-84902750D01*
X105465264Y-84930663D01*
X105644387Y-84930663D01*
X105643718Y-84855994D01*
X105620735Y-84740271D01*
X105576028Y-84649941D01*
X105509595Y-84585000D01*
X105421435Y-84545445D01*
X105402505Y-84540858D01*
X105288734Y-84530090D01*
X105188331Y-84548310D01*
G36*
X104679869Y-84798533D02*
X104678290Y-84921089D01*
X104672519Y-85014179D01*
X104661009Y-85081651D01*
X104642210Y-85127355D01*
X104614574Y-85155139D01*
X104576552Y-85168854D01*
X104529474Y-85172358D01*
X104480168Y-85168432D01*
X104442717Y-85154089D01*
X104415572Y-85125478D01*
X104397185Y-85078751D01*
X104386007Y-85010058D01*
X104380489Y-84915550D01*
X104379079Y-84798533D01*
X104379079Y-84538421D01*
X104195264Y-84538421D01*
X104195264Y-85340526D01*
X104287172Y-85340526D01*
X104342578Y-85338281D01*
X104371109Y-85330396D01*
X104379079Y-85315428D01*
X104383880Y-85302097D01*
X104402986Y-85304917D01*
X104441496Y-85323783D01*
X104529761Y-85352887D01*
X104623377Y-85350825D01*
X104713079Y-85319221D01*
X104755796Y-85294257D01*
X104788379Y-85267226D01*
X104812183Y-85233405D01*
X104828561Y-85188068D01*
X104838869Y-85126489D01*
X104844459Y-85043943D01*
X104846688Y-84935705D01*
X104846974Y-84852004D01*
X104846974Y-84538421D01*
X104679869Y-84538421D01*
X104679869Y-84798533D01*
X104679869Y-84798533D01*
G37*
X104679869Y-84798533D02*
X104678290Y-84921089D01*
X104672519Y-85014179D01*
X104661009Y-85081651D01*
X104642210Y-85127355D01*
X104614574Y-85155139D01*
X104576552Y-85168854D01*
X104529474Y-85172358D01*
X104480168Y-85168432D01*
X104442717Y-85154089D01*
X104415572Y-85125478D01*
X104397185Y-85078751D01*
X104386007Y-85010058D01*
X104380489Y-84915550D01*
X104379079Y-84798533D01*
X104379079Y-84538421D01*
X104195264Y-84538421D01*
X104195264Y-85340526D01*
X104287172Y-85340526D01*
X104342578Y-85338281D01*
X104371109Y-85330396D01*
X104379079Y-85315428D01*
X104383880Y-85302097D01*
X104402986Y-85304917D01*
X104441496Y-85323783D01*
X104529761Y-85352887D01*
X104623377Y-85350825D01*
X104713079Y-85319221D01*
X104755796Y-85294257D01*
X104788379Y-85267226D01*
X104812183Y-85233405D01*
X104828561Y-85188068D01*
X104838869Y-85126489D01*
X104844459Y-85043943D01*
X104846688Y-84935705D01*
X104846974Y-84852004D01*
X104846974Y-84538421D01*
X104679869Y-84538421D01*
X104679869Y-84798533D01*
G36*
X103053424Y-84545419D02*
X102956605Y-84586549D01*
X102926110Y-84606571D01*
X102887135Y-84637340D01*
X102862669Y-84661533D01*
X102858422Y-84669413D01*
X102870416Y-84686899D01*
X102901113Y-84716570D01*
X102925688Y-84737279D01*
X102992954Y-84791336D01*
X103046070Y-84746642D01*
X103087116Y-84717789D01*
X103127137Y-84707829D01*
X103172941Y-84710261D01*
X103245676Y-84728345D01*
X103295744Y-84765881D01*
X103326171Y-84826562D01*
X103339983Y-84914081D01*
X103339987Y-84914136D01*
X103338792Y-85011958D01*
X103320228Y-85083730D01*
X103283196Y-85132595D01*
X103257950Y-85149143D01*
X103190903Y-85169749D01*
X103119291Y-85169762D01*
X103056985Y-85149768D01*
X103042237Y-85140000D01*
X103005250Y-85115047D01*
X102976332Y-85110958D01*
X102945144Y-85129530D01*
X102910664Y-85162887D01*
X102856088Y-85219196D01*
X102916682Y-85269142D01*
X103010302Y-85325513D01*
X103115875Y-85353293D01*
X103226202Y-85351282D01*
X103298657Y-85332862D01*
X103383344Y-85287310D01*
X103451073Y-85215650D01*
X103481843Y-85165066D01*
X103506764Y-85092488D01*
X103519234Y-85000569D01*
X103519330Y-84900948D01*
X103507130Y-84805267D01*
X103482710Y-84725169D01*
X103478864Y-84716956D01*
X103421907Y-84636413D01*
X103344791Y-84577771D01*
X103253610Y-84542247D01*
X103154457Y-84531057D01*
X103053424Y-84545419D01*
X103053424Y-84545419D01*
G37*
X103053424Y-84545419D02*
X102956605Y-84586549D01*
X102926110Y-84606571D01*
X102887135Y-84637340D01*
X102862669Y-84661533D01*
X102858422Y-84669413D01*
X102870416Y-84686899D01*
X102901113Y-84716570D01*
X102925688Y-84737279D01*
X102992954Y-84791336D01*
X103046070Y-84746642D01*
X103087116Y-84717789D01*
X103127137Y-84707829D01*
X103172941Y-84710261D01*
X103245676Y-84728345D01*
X103295744Y-84765881D01*
X103326171Y-84826562D01*
X103339983Y-84914081D01*
X103339987Y-84914136D01*
X103338792Y-85011958D01*
X103320228Y-85083730D01*
X103283196Y-85132595D01*
X103257950Y-85149143D01*
X103190903Y-85169749D01*
X103119291Y-85169762D01*
X103056985Y-85149768D01*
X103042237Y-85140000D01*
X103005250Y-85115047D01*
X102976332Y-85110958D01*
X102945144Y-85129530D01*
X102910664Y-85162887D01*
X102856088Y-85219196D01*
X102916682Y-85269142D01*
X103010302Y-85325513D01*
X103115875Y-85353293D01*
X103226202Y-85351282D01*
X103298657Y-85332862D01*
X103383344Y-85287310D01*
X103451073Y-85215650D01*
X103481843Y-85165066D01*
X103506764Y-85092488D01*
X103519234Y-85000569D01*
X103519330Y-84900948D01*
X103507130Y-84805267D01*
X103482710Y-84725169D01*
X103478864Y-84716956D01*
X103421907Y-84636413D01*
X103344791Y-84577771D01*
X103253610Y-84542247D01*
X103154457Y-84531057D01*
X103053424Y-84545419D01*
G36*
X102441216Y-84535554D02*
X102398426Y-84545949D01*
X102316391Y-84584013D01*
X102246243Y-84642149D01*
X102197695Y-84711852D01*
X102191025Y-84727502D01*
X102181876Y-84768496D01*
X102175471Y-84829138D01*
X102173290Y-84890430D01*
X102173290Y-85006316D01*
X102415593Y-85006316D01*
X102515529Y-85006693D01*
X102585931Y-85008987D01*
X102630687Y-85014938D01*
X102653685Y-85026285D01*
X102658811Y-85044771D01*
X102649952Y-85072136D01*
X102634083Y-85104155D01*
X102589816Y-85157592D01*
X102528301Y-85184215D01*
X102453115Y-85183347D01*
X102367947Y-85154371D01*
X102294341Y-85118611D01*
X102233266Y-85166904D01*
X102172190Y-85215197D01*
X102229649Y-85268285D01*
X102306359Y-85318445D01*
X102400698Y-85348688D01*
X102502173Y-85357151D01*
X102600289Y-85341974D01*
X102616119Y-85336824D01*
X102702353Y-85291791D01*
X102766499Y-85224652D01*
X102809909Y-85133405D01*
X102833936Y-85016044D01*
X102834216Y-85013529D01*
X102836367Y-84885627D01*
X102827671Y-84839997D01*
X102657895Y-84839997D01*
X102642303Y-84847013D01*
X102599971Y-84852388D01*
X102537566Y-84855457D01*
X102498019Y-84855921D01*
X102424272Y-84855630D01*
X102378160Y-84853783D01*
X102353900Y-84848912D01*
X102345706Y-84839555D01*
X102347794Y-84824245D01*
X102349545Y-84818322D01*
X102379440Y-84762668D01*
X102426458Y-84717815D01*
X102467951Y-84698105D01*
X102523074Y-84699295D01*
X102578932Y-84723875D01*
X102625788Y-84764570D01*
X102653906Y-84814108D01*
X102657895Y-84839997D01*
X102827671Y-84839997D01*
X102814926Y-84773133D01*
X102772389Y-84678727D01*
X102711253Y-84605088D01*
X102634015Y-84554893D01*
X102543170Y-84530822D01*
X102441216Y-84535554D01*
X102441216Y-84535554D01*
G37*
X102441216Y-84535554D02*
X102398426Y-84545949D01*
X102316391Y-84584013D01*
X102246243Y-84642149D01*
X102197695Y-84711852D01*
X102191025Y-84727502D01*
X102181876Y-84768496D01*
X102175471Y-84829138D01*
X102173290Y-84890430D01*
X102173290Y-85006316D01*
X102415593Y-85006316D01*
X102515529Y-85006693D01*
X102585931Y-85008987D01*
X102630687Y-85014938D01*
X102653685Y-85026285D01*
X102658811Y-85044771D01*
X102649952Y-85072136D01*
X102634083Y-85104155D01*
X102589816Y-85157592D01*
X102528301Y-85184215D01*
X102453115Y-85183347D01*
X102367947Y-85154371D01*
X102294341Y-85118611D01*
X102233266Y-85166904D01*
X102172190Y-85215197D01*
X102229649Y-85268285D01*
X102306359Y-85318445D01*
X102400698Y-85348688D01*
X102502173Y-85357151D01*
X102600289Y-85341974D01*
X102616119Y-85336824D01*
X102702353Y-85291791D01*
X102766499Y-85224652D01*
X102809909Y-85133405D01*
X102833936Y-85016044D01*
X102834216Y-85013529D01*
X102836367Y-84885627D01*
X102827671Y-84839997D01*
X102657895Y-84839997D01*
X102642303Y-84847013D01*
X102599971Y-84852388D01*
X102537566Y-84855457D01*
X102498019Y-84855921D01*
X102424272Y-84855630D01*
X102378160Y-84853783D01*
X102353900Y-84848912D01*
X102345706Y-84839555D01*
X102347794Y-84824245D01*
X102349545Y-84818322D01*
X102379440Y-84762668D01*
X102426458Y-84717815D01*
X102467951Y-84698105D01*
X102523074Y-84699295D01*
X102578932Y-84723875D01*
X102625788Y-84764570D01*
X102653906Y-84814108D01*
X102657895Y-84839997D01*
X102827671Y-84839997D01*
X102814926Y-84773133D01*
X102772389Y-84678727D01*
X102711253Y-84605088D01*
X102634015Y-84554893D01*
X102543170Y-84530822D01*
X102441216Y-84535554D01*
G36*
X107002043Y-84552226D02*
X106960454Y-84572090D01*
X106920175Y-84600784D01*
X106889490Y-84633809D01*
X106867139Y-84675931D01*
X106851864Y-84731915D01*
X106842408Y-84806528D01*
X106837513Y-84904535D01*
X106835919Y-85030702D01*
X106835894Y-85043914D01*
X106835527Y-85340526D01*
X107019343Y-85340526D01*
X107019343Y-85067081D01*
X107019473Y-84965777D01*
X107020379Y-84892353D01*
X107022827Y-84841271D01*
X107027586Y-84806990D01*
X107035426Y-84783971D01*
X107047115Y-84766673D01*
X107063398Y-84749581D01*
X107120366Y-84712857D01*
X107182555Y-84706042D01*
X107241801Y-84729261D01*
X107262405Y-84746543D01*
X107277530Y-84762791D01*
X107288390Y-84780191D01*
X107295690Y-84804212D01*
X107300137Y-84840322D01*
X107302436Y-84893988D01*
X107303296Y-84970680D01*
X107303422Y-85064043D01*
X107303422Y-85340526D01*
X107487237Y-85340526D01*
X107487237Y-84538421D01*
X107395329Y-84538421D01*
X107340149Y-84540603D01*
X107311680Y-84548351D01*
X107303425Y-84563468D01*
X107303422Y-84563916D01*
X107299592Y-84578720D01*
X107282699Y-84577040D01*
X107249112Y-84560773D01*
X107172937Y-84536840D01*
X107085800Y-84534178D01*
X107002043Y-84552226D01*
X107002043Y-84552226D01*
G37*
X107002043Y-84552226D02*
X106960454Y-84572090D01*
X106920175Y-84600784D01*
X106889490Y-84633809D01*
X106867139Y-84675931D01*
X106851864Y-84731915D01*
X106842408Y-84806528D01*
X106837513Y-84904535D01*
X106835919Y-85030702D01*
X106835894Y-85043914D01*
X106835527Y-85340526D01*
X107019343Y-85340526D01*
X107019343Y-85067081D01*
X107019473Y-84965777D01*
X107020379Y-84892353D01*
X107022827Y-84841271D01*
X107027586Y-84806990D01*
X107035426Y-84783971D01*
X107047115Y-84766673D01*
X107063398Y-84749581D01*
X107120366Y-84712857D01*
X107182555Y-84706042D01*
X107241801Y-84729261D01*
X107262405Y-84746543D01*
X107277530Y-84762791D01*
X107288390Y-84780191D01*
X107295690Y-84804212D01*
X107300137Y-84840322D01*
X107302436Y-84893988D01*
X107303296Y-84970680D01*
X107303422Y-85064043D01*
X107303422Y-85340526D01*
X107487237Y-85340526D01*
X107487237Y-84538421D01*
X107395329Y-84538421D01*
X107340149Y-84540603D01*
X107311680Y-84548351D01*
X107303425Y-84563468D01*
X107303422Y-84563916D01*
X107299592Y-84578720D01*
X107282699Y-84577040D01*
X107249112Y-84560773D01*
X107172937Y-84536840D01*
X107085800Y-84534178D01*
X107002043Y-84552226D01*
G36*
X103608612Y-84537645D02*
X103551135Y-84555206D01*
X103514128Y-84577395D01*
X103502073Y-84594942D01*
X103505391Y-84615742D01*
X103526921Y-84648419D01*
X103545126Y-84671562D01*
X103582656Y-84713402D01*
X103610852Y-84731005D01*
X103634889Y-84729856D01*
X103706192Y-84711710D01*
X103758558Y-84712534D01*
X103801082Y-84733098D01*
X103815358Y-84745134D01*
X103861053Y-84787483D01*
X103861053Y-85340526D01*
X104044869Y-85340526D01*
X104044869Y-84538421D01*
X103952961Y-84538421D01*
X103897781Y-84540603D01*
X103869312Y-84548351D01*
X103861057Y-84563468D01*
X103861053Y-84563916D01*
X103857155Y-84579749D01*
X103839526Y-84577684D01*
X103815099Y-84566261D01*
X103764650Y-84545005D01*
X103723684Y-84532216D01*
X103670972Y-84528938D01*
X103608612Y-84537645D01*
X103608612Y-84537645D01*
G37*
X103608612Y-84537645D02*
X103551135Y-84555206D01*
X103514128Y-84577395D01*
X103502073Y-84594942D01*
X103505391Y-84615742D01*
X103526921Y-84648419D01*
X103545126Y-84671562D01*
X103582656Y-84713402D01*
X103610852Y-84731005D01*
X103634889Y-84729856D01*
X103706192Y-84711710D01*
X103758558Y-84712534D01*
X103801082Y-84733098D01*
X103815358Y-84745134D01*
X103861053Y-84787483D01*
X103861053Y-85340526D01*
X104044869Y-85340526D01*
X104044869Y-84538421D01*
X103952961Y-84538421D01*
X103897781Y-84540603D01*
X103869312Y-84548351D01*
X103861057Y-84563468D01*
X103861053Y-84563916D01*
X103857155Y-84579749D01*
X103839526Y-84577684D01*
X103815099Y-84566261D01*
X103764650Y-84545005D01*
X103723684Y-84532216D01*
X103670972Y-84528938D01*
X103608612Y-84537645D01*
G36*
X105499036Y-78998576D02*
X105423487Y-79399322D01*
X104865959Y-79629154D01*
X104531535Y-79401748D01*
X104437878Y-79338431D01*
X104353218Y-79281896D01*
X104281505Y-79234727D01*
X104226689Y-79199502D01*
X104192720Y-79178805D01*
X104183470Y-79174342D01*
X104166805Y-79185820D01*
X104131194Y-79217551D01*
X104080629Y-79265483D01*
X104019100Y-79325562D01*
X103950601Y-79393733D01*
X103879121Y-79465945D01*
X103808653Y-79538142D01*
X103743189Y-79606273D01*
X103686720Y-79666283D01*
X103643237Y-79714119D01*
X103616732Y-79745727D01*
X103610395Y-79756305D01*
X103619514Y-79775806D01*
X103645080Y-79818531D01*
X103684403Y-79880298D01*
X103734797Y-79956931D01*
X103793573Y-80044248D01*
X103827632Y-80094052D01*
X103889711Y-80184993D01*
X103944874Y-80267059D01*
X103990446Y-80336163D01*
X104023750Y-80388222D01*
X104042110Y-80419150D01*
X104044869Y-80425650D01*
X104038615Y-80444121D01*
X104021566Y-80487172D01*
X103996297Y-80548749D01*
X103965378Y-80622799D01*
X103931382Y-80703270D01*
X103896882Y-80784107D01*
X103864449Y-80859258D01*
X103836657Y-80922671D01*
X103816077Y-80968293D01*
X103805281Y-80990069D01*
X103804644Y-80990926D01*
X103787693Y-80995084D01*
X103742549Y-81004361D01*
X103673890Y-81017844D01*
X103586398Y-81034621D01*
X103484750Y-81053781D01*
X103425444Y-81064830D01*
X103316828Y-81085510D01*
X103218723Y-81105189D01*
X103136091Y-81122789D01*
X103073896Y-81137233D01*
X103037101Y-81147446D01*
X103029704Y-81150686D01*
X103022460Y-81172617D01*
X103016615Y-81222147D01*
X103012165Y-81293485D01*
X103009107Y-81380839D01*
X103007435Y-81478417D01*
X103007147Y-81580426D01*
X103008239Y-81681075D01*
X103010706Y-81774572D01*
X103014544Y-81855125D01*
X103019750Y-81916942D01*
X103026319Y-81954230D01*
X103030259Y-81961993D01*
X103053812Y-81971298D01*
X103103718Y-81984600D01*
X103173377Y-82000337D01*
X103256187Y-82016946D01*
X103285095Y-82022319D01*
X103424469Y-82047848D01*
X103534564Y-82068408D01*
X103619018Y-82084815D01*
X103681470Y-82097887D01*
X103725556Y-82108441D01*
X103754915Y-82117294D01*
X103773185Y-82125263D01*
X103784002Y-82133165D01*
X103785515Y-82134727D01*
X103800623Y-82159886D01*
X103823671Y-82208850D01*
X103852356Y-82275621D01*
X103884378Y-82354205D01*
X103917435Y-82438607D01*
X103949227Y-82522830D01*
X103977451Y-82600879D01*
X103999807Y-82666759D01*
X104013993Y-82714473D01*
X104017707Y-82738027D01*
X104017398Y-82738852D01*
X104004811Y-82758104D01*
X103976256Y-82800463D01*
X103934733Y-82861521D01*
X103883244Y-82936868D01*
X103824789Y-83022096D01*
X103808142Y-83046315D01*
X103748785Y-83134123D01*
X103696553Y-83214238D01*
X103654292Y-83282062D01*
X103624847Y-83332993D01*
X103611063Y-83362431D01*
X103610395Y-83366048D01*
X103621976Y-83385057D01*
X103653976Y-83422714D01*
X103702282Y-83474973D01*
X103762780Y-83537786D01*
X103831356Y-83607106D01*
X103903896Y-83678885D01*
X103976288Y-83749077D01*
X104044416Y-83813635D01*
X104104168Y-83868510D01*
X104151429Y-83909656D01*
X104182087Y-83933026D01*
X104190568Y-83936842D01*
X104210309Y-83927855D01*
X104250726Y-83903616D01*
X104305237Y-83868209D01*
X104347177Y-83839711D01*
X104423171Y-83787418D01*
X104513166Y-83725845D01*
X104603436Y-83664370D01*
X104651968Y-83631469D01*
X104816238Y-83520359D01*
X104954131Y-83594916D01*
X105016951Y-83627578D01*
X105070371Y-83652966D01*
X105106516Y-83667446D01*
X105115716Y-83669460D01*
X105126779Y-83654584D01*
X105148606Y-83612547D01*
X105179566Y-83547227D01*
X105218030Y-83462500D01*
X105262368Y-83362245D01*
X105310953Y-83250339D01*
X105362154Y-83130659D01*
X105414341Y-83007084D01*
X105465887Y-82883491D01*
X105515160Y-82763757D01*
X105560533Y-82651759D01*
X105600375Y-82551377D01*
X105633058Y-82466486D01*
X105656951Y-82400965D01*
X105670426Y-82358690D01*
X105672594Y-82344172D01*
X105655417Y-82325653D01*
X105617810Y-82295590D01*
X105567634Y-82260232D01*
X105563422Y-82257434D01*
X105433736Y-82153625D01*
X105329166Y-82032515D01*
X105250619Y-81897976D01*
X105199001Y-81753882D01*
X105175218Y-81604105D01*
X105180177Y-81452517D01*
X105214783Y-81302992D01*
X105279943Y-81159400D01*
X105299114Y-81127984D01*
X105398826Y-81001125D01*
X105516623Y-80899255D01*
X105648429Y-80822904D01*
X105790167Y-80772602D01*
X105937758Y-80748879D01*
X106087127Y-80752265D01*
X106234197Y-80783288D01*
X106374889Y-80842480D01*
X106505127Y-80930369D01*
X106545414Y-80966042D01*
X106647945Y-81077706D01*
X106722659Y-81195257D01*
X106773910Y-81327020D01*
X106802454Y-81457507D01*
X106809500Y-81604216D01*
X106786004Y-81751653D01*
X106734351Y-81894834D01*
X106656929Y-82028777D01*
X106556125Y-82148498D01*
X106434324Y-82249014D01*
X106418316Y-82259609D01*
X106367602Y-82294306D01*
X106329050Y-82324370D01*
X106310619Y-82343565D01*
X106310351Y-82344172D01*
X106314308Y-82364936D01*
X106329993Y-82412062D01*
X106355778Y-82481673D01*
X106390031Y-82569893D01*
X106431123Y-82672844D01*
X106477424Y-82786650D01*
X106527304Y-82907435D01*
X106579133Y-83031321D01*
X106631281Y-83154432D01*
X106682118Y-83272891D01*
X106730013Y-83382823D01*
X106773338Y-83480349D01*
X106810462Y-83561593D01*
X106839756Y-83622679D01*
X106859588Y-83659730D01*
X106867574Y-83669460D01*
X106891979Y-83661883D01*
X106937642Y-83641560D01*
X106996690Y-83612125D01*
X107029160Y-83594916D01*
X107167053Y-83520359D01*
X107331323Y-83631469D01*
X107415179Y-83688390D01*
X107506987Y-83751030D01*
X107593020Y-83810011D01*
X107636113Y-83839711D01*
X107696723Y-83880410D01*
X107748045Y-83912663D01*
X107783385Y-83932384D01*
X107794863Y-83936554D01*
X107811570Y-83925307D01*
X107848546Y-83893911D01*
X107902205Y-83845624D01*
X107968962Y-83783708D01*
X108045234Y-83711421D01*
X108093473Y-83665008D01*
X108177867Y-83582087D01*
X108250803Y-83507920D01*
X108309331Y-83445680D01*
X108350503Y-83398541D01*
X108371372Y-83369673D01*
X108373374Y-83363815D01*
X108364083Y-83341532D01*
X108338409Y-83296477D01*
X108299200Y-83233211D01*
X108249303Y-83156295D01*
X108191567Y-83070292D01*
X108175149Y-83046315D01*
X108115323Y-82959170D01*
X108061650Y-82880710D01*
X108017130Y-82815345D01*
X107984765Y-82767484D01*
X107967555Y-82741535D01*
X107965893Y-82738852D01*
X107968379Y-82718172D01*
X107981577Y-82672704D01*
X108003186Y-82608444D01*
X108030904Y-82531387D01*
X108062430Y-82447529D01*
X108095463Y-82362866D01*
X108127701Y-82283392D01*
X108156843Y-82215104D01*
X108180588Y-82163997D01*
X108196635Y-82136067D01*
X108197775Y-82134727D01*
X108207588Y-82126745D01*
X108224161Y-82118851D01*
X108251132Y-82110229D01*
X108292139Y-82100062D01*
X108350820Y-82087531D01*
X108430813Y-82071821D01*
X108535755Y-82052113D01*
X108669285Y-82027592D01*
X108698196Y-82022319D01*
X108783882Y-82005764D01*
X108858582Y-81989569D01*
X108915694Y-81975296D01*
X108948617Y-81964508D01*
X108953031Y-81961993D01*
X108960306Y-81939696D01*
X108966219Y-81889869D01*
X108970766Y-81818304D01*
X108973945Y-81730793D01*
X108975749Y-81633128D01*
X108976177Y-81531101D01*
X108975223Y-81430503D01*
X108972884Y-81337127D01*
X108969156Y-81256765D01*
X108964034Y-81195209D01*
X108957516Y-81158250D01*
X108953586Y-81150686D01*
X108931708Y-81143056D01*
X108881891Y-81130642D01*
X108809097Y-81114522D01*
X108718289Y-81095773D01*
X108614431Y-81075471D01*
X108557846Y-81064830D01*
X108450486Y-81044760D01*
X108354746Y-81026580D01*
X108275306Y-81011199D01*
X108216846Y-80999531D01*
X108184045Y-80992488D01*
X108178646Y-80990926D01*
X108169522Y-80973322D01*
X108150235Y-80930918D01*
X108123355Y-80869772D01*
X108091454Y-80795943D01*
X108057102Y-80715489D01*
X108022871Y-80634468D01*
X107991331Y-80558937D01*
X107965054Y-80494955D01*
X107946611Y-80448580D01*
X107938571Y-80425869D01*
X107938422Y-80424876D01*
X107947535Y-80406961D01*
X107973086Y-80365733D01*
X108012388Y-80305291D01*
X108062757Y-80229731D01*
X108121506Y-80143152D01*
X108155658Y-80093421D01*
X108217890Y-80002236D01*
X108273164Y-79919449D01*
X108318782Y-79849249D01*
X108352048Y-79795824D01*
X108370264Y-79763361D01*
X108372895Y-79756083D01*
X108361586Y-79739145D01*
X108330319Y-79702978D01*
X108283090Y-79651635D01*
X108223892Y-79589167D01*
X108156719Y-79519626D01*
X108085566Y-79447065D01*
X108014426Y-79375535D01*
X107947293Y-79309087D01*
X107888161Y-79251774D01*
X107841025Y-79207647D01*
X107809877Y-79180759D01*
X107799457Y-79174342D01*
X107782491Y-79183365D01*
X107741911Y-79208715D01*
X107681663Y-79247810D01*
X107605693Y-79298071D01*
X107517946Y-79356917D01*
X107451756Y-79401748D01*
X107117332Y-79629154D01*
X106838567Y-79514238D01*
X106559803Y-79399322D01*
X106484254Y-78998576D01*
X106408706Y-78597829D01*
X105574585Y-78597829D01*
X105499036Y-78998576D01*
X105499036Y-78998576D01*
G37*
X105499036Y-78998576D02*
X105423487Y-79399322D01*
X104865959Y-79629154D01*
X104531535Y-79401748D01*
X104437878Y-79338431D01*
X104353218Y-79281896D01*
X104281505Y-79234727D01*
X104226689Y-79199502D01*
X104192720Y-79178805D01*
X104183470Y-79174342D01*
X104166805Y-79185820D01*
X104131194Y-79217551D01*
X104080629Y-79265483D01*
X104019100Y-79325562D01*
X103950601Y-79393733D01*
X103879121Y-79465945D01*
X103808653Y-79538142D01*
X103743189Y-79606273D01*
X103686720Y-79666283D01*
X103643237Y-79714119D01*
X103616732Y-79745727D01*
X103610395Y-79756305D01*
X103619514Y-79775806D01*
X103645080Y-79818531D01*
X103684403Y-79880298D01*
X103734797Y-79956931D01*
X103793573Y-80044248D01*
X103827632Y-80094052D01*
X103889711Y-80184993D01*
X103944874Y-80267059D01*
X103990446Y-80336163D01*
X104023750Y-80388222D01*
X104042110Y-80419150D01*
X104044869Y-80425650D01*
X104038615Y-80444121D01*
X104021566Y-80487172D01*
X103996297Y-80548749D01*
X103965378Y-80622799D01*
X103931382Y-80703270D01*
X103896882Y-80784107D01*
X103864449Y-80859258D01*
X103836657Y-80922671D01*
X103816077Y-80968293D01*
X103805281Y-80990069D01*
X103804644Y-80990926D01*
X103787693Y-80995084D01*
X103742549Y-81004361D01*
X103673890Y-81017844D01*
X103586398Y-81034621D01*
X103484750Y-81053781D01*
X103425444Y-81064830D01*
X103316828Y-81085510D01*
X103218723Y-81105189D01*
X103136091Y-81122789D01*
X103073896Y-81137233D01*
X103037101Y-81147446D01*
X103029704Y-81150686D01*
X103022460Y-81172617D01*
X103016615Y-81222147D01*
X103012165Y-81293485D01*
X103009107Y-81380839D01*
X103007435Y-81478417D01*
X103007147Y-81580426D01*
X103008239Y-81681075D01*
X103010706Y-81774572D01*
X103014544Y-81855125D01*
X103019750Y-81916942D01*
X103026319Y-81954230D01*
X103030259Y-81961993D01*
X103053812Y-81971298D01*
X103103718Y-81984600D01*
X103173377Y-82000337D01*
X103256187Y-82016946D01*
X103285095Y-82022319D01*
X103424469Y-82047848D01*
X103534564Y-82068408D01*
X103619018Y-82084815D01*
X103681470Y-82097887D01*
X103725556Y-82108441D01*
X103754915Y-82117294D01*
X103773185Y-82125263D01*
X103784002Y-82133165D01*
X103785515Y-82134727D01*
X103800623Y-82159886D01*
X103823671Y-82208850D01*
X103852356Y-82275621D01*
X103884378Y-82354205D01*
X103917435Y-82438607D01*
X103949227Y-82522830D01*
X103977451Y-82600879D01*
X103999807Y-82666759D01*
X104013993Y-82714473D01*
X104017707Y-82738027D01*
X104017398Y-82738852D01*
X104004811Y-82758104D01*
X103976256Y-82800463D01*
X103934733Y-82861521D01*
X103883244Y-82936868D01*
X103824789Y-83022096D01*
X103808142Y-83046315D01*
X103748785Y-83134123D01*
X103696553Y-83214238D01*
X103654292Y-83282062D01*
X103624847Y-83332993D01*
X103611063Y-83362431D01*
X103610395Y-83366048D01*
X103621976Y-83385057D01*
X103653976Y-83422714D01*
X103702282Y-83474973D01*
X103762780Y-83537786D01*
X103831356Y-83607106D01*
X103903896Y-83678885D01*
X103976288Y-83749077D01*
X104044416Y-83813635D01*
X104104168Y-83868510D01*
X104151429Y-83909656D01*
X104182087Y-83933026D01*
X104190568Y-83936842D01*
X104210309Y-83927855D01*
X104250726Y-83903616D01*
X104305237Y-83868209D01*
X104347177Y-83839711D01*
X104423171Y-83787418D01*
X104513166Y-83725845D01*
X104603436Y-83664370D01*
X104651968Y-83631469D01*
X104816238Y-83520359D01*
X104954131Y-83594916D01*
X105016951Y-83627578D01*
X105070371Y-83652966D01*
X105106516Y-83667446D01*
X105115716Y-83669460D01*
X105126779Y-83654584D01*
X105148606Y-83612547D01*
X105179566Y-83547227D01*
X105218030Y-83462500D01*
X105262368Y-83362245D01*
X105310953Y-83250339D01*
X105362154Y-83130659D01*
X105414341Y-83007084D01*
X105465887Y-82883491D01*
X105515160Y-82763757D01*
X105560533Y-82651759D01*
X105600375Y-82551377D01*
X105633058Y-82466486D01*
X105656951Y-82400965D01*
X105670426Y-82358690D01*
X105672594Y-82344172D01*
X105655417Y-82325653D01*
X105617810Y-82295590D01*
X105567634Y-82260232D01*
X105563422Y-82257434D01*
X105433736Y-82153625D01*
X105329166Y-82032515D01*
X105250619Y-81897976D01*
X105199001Y-81753882D01*
X105175218Y-81604105D01*
X105180177Y-81452517D01*
X105214783Y-81302992D01*
X105279943Y-81159400D01*
X105299114Y-81127984D01*
X105398826Y-81001125D01*
X105516623Y-80899255D01*
X105648429Y-80822904D01*
X105790167Y-80772602D01*
X105937758Y-80748879D01*
X106087127Y-80752265D01*
X106234197Y-80783288D01*
X106374889Y-80842480D01*
X106505127Y-80930369D01*
X106545414Y-80966042D01*
X106647945Y-81077706D01*
X106722659Y-81195257D01*
X106773910Y-81327020D01*
X106802454Y-81457507D01*
X106809500Y-81604216D01*
X106786004Y-81751653D01*
X106734351Y-81894834D01*
X106656929Y-82028777D01*
X106556125Y-82148498D01*
X106434324Y-82249014D01*
X106418316Y-82259609D01*
X106367602Y-82294306D01*
X106329050Y-82324370D01*
X106310619Y-82343565D01*
X106310351Y-82344172D01*
X106314308Y-82364936D01*
X106329993Y-82412062D01*
X106355778Y-82481673D01*
X106390031Y-82569893D01*
X106431123Y-82672844D01*
X106477424Y-82786650D01*
X106527304Y-82907435D01*
X106579133Y-83031321D01*
X106631281Y-83154432D01*
X106682118Y-83272891D01*
X106730013Y-83382823D01*
X106773338Y-83480349D01*
X106810462Y-83561593D01*
X106839756Y-83622679D01*
X106859588Y-83659730D01*
X106867574Y-83669460D01*
X106891979Y-83661883D01*
X106937642Y-83641560D01*
X106996690Y-83612125D01*
X107029160Y-83594916D01*
X107167053Y-83520359D01*
X107331323Y-83631469D01*
X107415179Y-83688390D01*
X107506987Y-83751030D01*
X107593020Y-83810011D01*
X107636113Y-83839711D01*
X107696723Y-83880410D01*
X107748045Y-83912663D01*
X107783385Y-83932384D01*
X107794863Y-83936554D01*
X107811570Y-83925307D01*
X107848546Y-83893911D01*
X107902205Y-83845624D01*
X107968962Y-83783708D01*
X108045234Y-83711421D01*
X108093473Y-83665008D01*
X108177867Y-83582087D01*
X108250803Y-83507920D01*
X108309331Y-83445680D01*
X108350503Y-83398541D01*
X108371372Y-83369673D01*
X108373374Y-83363815D01*
X108364083Y-83341532D01*
X108338409Y-83296477D01*
X108299200Y-83233211D01*
X108249303Y-83156295D01*
X108191567Y-83070292D01*
X108175149Y-83046315D01*
X108115323Y-82959170D01*
X108061650Y-82880710D01*
X108017130Y-82815345D01*
X107984765Y-82767484D01*
X107967555Y-82741535D01*
X107965893Y-82738852D01*
X107968379Y-82718172D01*
X107981577Y-82672704D01*
X108003186Y-82608444D01*
X108030904Y-82531387D01*
X108062430Y-82447529D01*
X108095463Y-82362866D01*
X108127701Y-82283392D01*
X108156843Y-82215104D01*
X108180588Y-82163997D01*
X108196635Y-82136067D01*
X108197775Y-82134727D01*
X108207588Y-82126745D01*
X108224161Y-82118851D01*
X108251132Y-82110229D01*
X108292139Y-82100062D01*
X108350820Y-82087531D01*
X108430813Y-82071821D01*
X108535755Y-82052113D01*
X108669285Y-82027592D01*
X108698196Y-82022319D01*
X108783882Y-82005764D01*
X108858582Y-81989569D01*
X108915694Y-81975296D01*
X108948617Y-81964508D01*
X108953031Y-81961993D01*
X108960306Y-81939696D01*
X108966219Y-81889869D01*
X108970766Y-81818304D01*
X108973945Y-81730793D01*
X108975749Y-81633128D01*
X108976177Y-81531101D01*
X108975223Y-81430503D01*
X108972884Y-81337127D01*
X108969156Y-81256765D01*
X108964034Y-81195209D01*
X108957516Y-81158250D01*
X108953586Y-81150686D01*
X108931708Y-81143056D01*
X108881891Y-81130642D01*
X108809097Y-81114522D01*
X108718289Y-81095773D01*
X108614431Y-81075471D01*
X108557846Y-81064830D01*
X108450486Y-81044760D01*
X108354746Y-81026580D01*
X108275306Y-81011199D01*
X108216846Y-80999531D01*
X108184045Y-80992488D01*
X108178646Y-80990926D01*
X108169522Y-80973322D01*
X108150235Y-80930918D01*
X108123355Y-80869772D01*
X108091454Y-80795943D01*
X108057102Y-80715489D01*
X108022871Y-80634468D01*
X107991331Y-80558937D01*
X107965054Y-80494955D01*
X107946611Y-80448580D01*
X107938571Y-80425869D01*
X107938422Y-80424876D01*
X107947535Y-80406961D01*
X107973086Y-80365733D01*
X108012388Y-80305291D01*
X108062757Y-80229731D01*
X108121506Y-80143152D01*
X108155658Y-80093421D01*
X108217890Y-80002236D01*
X108273164Y-79919449D01*
X108318782Y-79849249D01*
X108352048Y-79795824D01*
X108370264Y-79763361D01*
X108372895Y-79756083D01*
X108361586Y-79739145D01*
X108330319Y-79702978D01*
X108283090Y-79651635D01*
X108223892Y-79589167D01*
X108156719Y-79519626D01*
X108085566Y-79447065D01*
X108014426Y-79375535D01*
X107947293Y-79309087D01*
X107888161Y-79251774D01*
X107841025Y-79207647D01*
X107809877Y-79180759D01*
X107799457Y-79174342D01*
X107782491Y-79183365D01*
X107741911Y-79208715D01*
X107681663Y-79247810D01*
X107605693Y-79298071D01*
X107517946Y-79356917D01*
X107451756Y-79401748D01*
X107117332Y-79629154D01*
X106838567Y-79514238D01*
X106559803Y-79399322D01*
X106484254Y-78998576D01*
X106408706Y-78597829D01*
X105574585Y-78597829D01*
X105499036Y-78998576D01*
D13*
X99275000Y-91900000D02*
X99975000Y-91900000D01*
X99975000Y-90700000D02*
X99275000Y-90700000D01*
X97780000Y-86600000D02*
X97780000Y-85600000D01*
X96420000Y-85600000D02*
X96420000Y-86600000D01*
X98320000Y-84100000D02*
X98320000Y-85100000D01*
X99680000Y-85100000D02*
X99680000Y-84100000D01*
X100275000Y-92070000D02*
X99275000Y-92070000D01*
X99275000Y-93430000D02*
X100275000Y-93430000D01*
X97800000Y-95880000D02*
X98800000Y-95880000D01*
X98800000Y-94520000D02*
X97800000Y-94520000D01*
X116500000Y-77600000D02*
X117200000Y-77600000D01*
X117200000Y-76400000D02*
X116500000Y-76400000D01*
D11*
X99758333Y-90085714D02*
X99796428Y-90123809D01*
X99910714Y-90161904D01*
X99986904Y-90161904D01*
X100101190Y-90123809D01*
X100177380Y-90047619D01*
X100215476Y-89971428D01*
X100253571Y-89819047D01*
X100253571Y-89704761D01*
X100215476Y-89552380D01*
X100177380Y-89476190D01*
X100101190Y-89400000D01*
X99986904Y-89361904D01*
X99910714Y-89361904D01*
X99796428Y-89400000D01*
X99758333Y-89438095D01*
X99377380Y-90161904D02*
X99225000Y-90161904D01*
X99148809Y-90123809D01*
X99110714Y-90085714D01*
X99034523Y-89971428D01*
X98996428Y-89819047D01*
X98996428Y-89514285D01*
X99034523Y-89438095D01*
X99072619Y-89400000D01*
X99148809Y-89361904D01*
X99301190Y-89361904D01*
X99377380Y-89400000D01*
X99415476Y-89438095D01*
X99453571Y-89514285D01*
X99453571Y-89704761D01*
X99415476Y-89780952D01*
X99377380Y-89819047D01*
X99301190Y-89857142D01*
X99148809Y-89857142D01*
X99072619Y-89819047D01*
X99034523Y-89780952D01*
X98996428Y-89704761D01*
X97233333Y-84661904D02*
X97500000Y-84280952D01*
X97690476Y-84661904D02*
X97690476Y-83861904D01*
X97385714Y-83861904D01*
X97309523Y-83900000D01*
X97271428Y-83938095D01*
X97233333Y-84014285D01*
X97233333Y-84128571D01*
X97271428Y-84204761D01*
X97309523Y-84242857D01*
X97385714Y-84280952D01*
X97690476Y-84280952D01*
X96966666Y-83861904D02*
X96433333Y-83861904D01*
X96776190Y-84661904D01*
X99033333Y-83161904D02*
X99300000Y-82780952D01*
X99490476Y-83161904D02*
X99490476Y-82361904D01*
X99185714Y-82361904D01*
X99109523Y-82400000D01*
X99071428Y-82438095D01*
X99033333Y-82514285D01*
X99033333Y-82628571D01*
X99071428Y-82704761D01*
X99109523Y-82742857D01*
X99185714Y-82780952D01*
X99490476Y-82780952D01*
X98652380Y-83161904D02*
X98500000Y-83161904D01*
X98423809Y-83123809D01*
X98385714Y-83085714D01*
X98309523Y-82971428D01*
X98271428Y-82819047D01*
X98271428Y-82514285D01*
X98309523Y-82438095D01*
X98347619Y-82400000D01*
X98423809Y-82361904D01*
X98576190Y-82361904D01*
X98652380Y-82400000D01*
X98690476Y-82438095D01*
X98728571Y-82514285D01*
X98728571Y-82704761D01*
X98690476Y-82780952D01*
X98652380Y-82819047D01*
X98576190Y-82857142D01*
X98423809Y-82857142D01*
X98347619Y-82819047D01*
X98309523Y-82780952D01*
X98271428Y-82704761D01*
X97814285Y-93161904D02*
X98080952Y-92780952D01*
X98271428Y-93161904D02*
X98271428Y-92361904D01*
X97966666Y-92361904D01*
X97890476Y-92400000D01*
X97852380Y-92438095D01*
X97814285Y-92514285D01*
X97814285Y-92628571D01*
X97852380Y-92704761D01*
X97890476Y-92742857D01*
X97966666Y-92780952D01*
X98271428Y-92780952D01*
X97052380Y-93161904D02*
X97509523Y-93161904D01*
X97280952Y-93161904D02*
X97280952Y-92361904D01*
X97357142Y-92476190D01*
X97433333Y-92552380D01*
X97509523Y-92590476D01*
X96747619Y-92438095D02*
X96709523Y-92400000D01*
X96633333Y-92361904D01*
X96442857Y-92361904D01*
X96366666Y-92400000D01*
X96328571Y-92438095D01*
X96290476Y-92514285D01*
X96290476Y-92590476D01*
X96328571Y-92704761D01*
X96785714Y-93161904D01*
X96290476Y-93161904D01*
X96214285Y-95561904D02*
X96480952Y-95180952D01*
X96671428Y-95561904D02*
X96671428Y-94761904D01*
X96366666Y-94761904D01*
X96290476Y-94800000D01*
X96252380Y-94838095D01*
X96214285Y-94914285D01*
X96214285Y-95028571D01*
X96252380Y-95104761D01*
X96290476Y-95142857D01*
X96366666Y-95180952D01*
X96671428Y-95180952D01*
X95452380Y-95561904D02*
X95909523Y-95561904D01*
X95680952Y-95561904D02*
X95680952Y-94761904D01*
X95757142Y-94876190D01*
X95833333Y-94952380D01*
X95909523Y-94990476D01*
X95185714Y-94761904D02*
X94690476Y-94761904D01*
X94957142Y-95066666D01*
X94842857Y-95066666D01*
X94766666Y-95104761D01*
X94728571Y-95142857D01*
X94690476Y-95219047D01*
X94690476Y-95409523D01*
X94728571Y-95485714D01*
X94766666Y-95523809D01*
X94842857Y-95561904D01*
X95071428Y-95561904D01*
X95147619Y-95523809D01*
X95185714Y-95485714D01*
X117314285Y-78785714D02*
X117352380Y-78823809D01*
X117466666Y-78861904D01*
X117542857Y-78861904D01*
X117657142Y-78823809D01*
X117733333Y-78747619D01*
X117771428Y-78671428D01*
X117809523Y-78519047D01*
X117809523Y-78404761D01*
X117771428Y-78252380D01*
X117733333Y-78176190D01*
X117657142Y-78100000D01*
X117542857Y-78061904D01*
X117466666Y-78061904D01*
X117352380Y-78100000D01*
X117314285Y-78138095D01*
X116552380Y-78861904D02*
X117009523Y-78861904D01*
X116780952Y-78861904D02*
X116780952Y-78061904D01*
X116857142Y-78176190D01*
X116933333Y-78252380D01*
X117009523Y-78290476D01*
X115866666Y-78328571D02*
X115866666Y-78861904D01*
X116057142Y-78023809D02*
X116247619Y-78595238D01*
X115752380Y-78595238D01*
M02*
