M48
;DRILL file {KiCad (2017-06-16 revision 2018d4894)-master} date Sat Dec 30 03:33:32 2017
;FORMAT={-:-/ absolute / metric / decimal}
FMAT,2
METRIC,TZ
T1C0.300
T2C0.700
T3C0.750
T4C0.900
T5C0.990
T6C1.000
T7C1.300
T8C1.500
%
G90
G05
M71
T1
X91.1Y-81.8
X91.1Y-83.4
X91.1Y-92.3
X91.2Y-88.
X91.6Y-74.5
X91.6Y-75.4
X91.6Y-76.3
X91.6Y-77.2
X92.6Y-73.7
X92.6Y-76.3
X92.6Y-77.2
X92.8Y-88.2
X92.8Y-91.4
X93.2Y-79.7
X93.7Y-73.7
X93.7Y-76.3
X94.1Y-92.3
X95.3Y-77.1
X95.3Y-78.4
X95.6Y-85.5
X96.8Y-90.2
X97.8Y-86.8
X97.9Y-90.3
X98.1Y-86.
X98.462Y-87.875
X98.462Y-88.725
X98.5Y-94.
X98.8Y-100.4
X98.9Y-82.8
X98.9Y-86.
X99.287Y-87.875
X99.287Y-88.725
X99.8Y-86.
X99.8Y-99.9
X100.Y-93.9
X100.112Y-87.875
X100.112Y-88.725
X100.938Y-87.875
X100.938Y-88.725
X101.3Y-90.6
X101.5Y-93.9
X103.Y-92.6
X103.6Y-87.8
X104.6Y-87.8
X109.4Y-79.8
X110.9Y-80.4
X110.9Y-81.3
X111.Y-82.7
X111.Y-84.4
X111.Y-88.
X111.4Y-79.6
X112.5Y-92.8
X113.4Y-81.7
X113.5Y-79.6
X116.8Y-79.9
X120.Y-86.7
T2
X92.875Y-74.875
X97.725Y-74.875
T3
X100.8Y-97.6
X102.8Y-97.6
X93.35Y-97.65
X95.35Y-97.65
X108.2Y-97.6
X110.2Y-97.6
T4
X113.9Y-74.2
X115.9Y-74.2
X117.9Y-74.2
T5
X102.9Y-72.8
X107.4Y-72.8
T6
X115.Y-96.56
X115.Y-99.1
X117.54Y-96.56
X117.54Y-99.1
X120.08Y-96.56
X120.08Y-99.1
T7
X101.65Y-75.29
X108.66Y-75.29
T8
X111.8Y-74.2
X120.Y-74.2
T2
X91.675Y-72.425G85X91.675Y-72.025
G05
X98.925Y-72.425G85X98.925Y-72.025
G05
T0
M30
