G04 #@! TF.GenerationSoftware,KiCad,Pcbnew,(5.0-dev-4069-g322ce84fb)*
G04 #@! TF.CreationDate,2018-05-24T17:52:26+02:00*
G04 #@! TF.ProjectId,main,6D61696E2E6B696361645F7063620000,rev?*
G04 #@! TF.SameCoordinates,Original*
G04 #@! TF.FileFunction,Legend,Bot*
G04 #@! TF.FilePolarity,Positive*
%FSLAX46Y46*%
G04 Gerber Fmt 4.6, Leading zero omitted, Abs format (unit mm)*
G04 Created by KiCad (PCBNEW (5.0-dev-4069-g322ce84fb)) date Thu May 24 17:52:26 2018*
%MOMM*%
%LPD*%
G01*
G04 APERTURE LIST*
%ADD10C,0.150000*%
%ADD11C,0.120000*%
%ADD12C,0.010000*%
G04 APERTURE END LIST*
D10*
X107190476Y-96133333D02*
X106809523Y-96133333D01*
X107266666Y-96361904D02*
X107000000Y-95561904D01*
X106733333Y-96361904D01*
X111152380Y-96285714D02*
X111190476Y-96323809D01*
X111304761Y-96361904D01*
X111380952Y-96361904D01*
X111495238Y-96323809D01*
X111571428Y-96247619D01*
X111609523Y-96171428D01*
X111647619Y-96019047D01*
X111647619Y-95904761D01*
X111609523Y-95752380D01*
X111571428Y-95676190D01*
X111495238Y-95600000D01*
X111380952Y-95561904D01*
X111304761Y-95561904D01*
X111190476Y-95600000D01*
X111152380Y-95638095D01*
X120938095Y-101261904D02*
X121204761Y-100880952D01*
X121395238Y-101261904D02*
X121395238Y-100461904D01*
X121090476Y-100461904D01*
X121014285Y-100500000D01*
X120976190Y-100538095D01*
X120938095Y-100614285D01*
X120938095Y-100728571D01*
X120976190Y-100804761D01*
X121014285Y-100842857D01*
X121090476Y-100880952D01*
X121395238Y-100880952D01*
X120633333Y-101223809D02*
X120519047Y-101261904D01*
X120328571Y-101261904D01*
X120252380Y-101223809D01*
X120214285Y-101185714D01*
X120176190Y-101109523D01*
X120176190Y-101033333D01*
X120214285Y-100957142D01*
X120252380Y-100919047D01*
X120328571Y-100880952D01*
X120480952Y-100842857D01*
X120557142Y-100804761D01*
X120595238Y-100766666D01*
X120633333Y-100690476D01*
X120633333Y-100614285D01*
X120595238Y-100538095D01*
X120557142Y-100500000D01*
X120480952Y-100461904D01*
X120290476Y-100461904D01*
X120176190Y-100500000D01*
X119947619Y-100461904D02*
X119490476Y-100461904D01*
X119719047Y-101261904D02*
X119719047Y-100461904D01*
X118528571Y-101223809D02*
X118414285Y-101261904D01*
X118223809Y-101261904D01*
X118147619Y-101223809D01*
X118109523Y-101185714D01*
X118071428Y-101109523D01*
X118071428Y-101033333D01*
X118109523Y-100957142D01*
X118147619Y-100919047D01*
X118223809Y-100880952D01*
X118376190Y-100842857D01*
X118452380Y-100804761D01*
X118490476Y-100766666D01*
X118528571Y-100690476D01*
X118528571Y-100614285D01*
X118490476Y-100538095D01*
X118452380Y-100500000D01*
X118376190Y-100461904D01*
X118185714Y-100461904D01*
X118071428Y-100500000D01*
X117271428Y-101185714D02*
X117309523Y-101223809D01*
X117423809Y-101261904D01*
X117500000Y-101261904D01*
X117614285Y-101223809D01*
X117690476Y-101147619D01*
X117728571Y-101071428D01*
X117766666Y-100919047D01*
X117766666Y-100804761D01*
X117728571Y-100652380D01*
X117690476Y-100576190D01*
X117614285Y-100500000D01*
X117500000Y-100461904D01*
X117423809Y-100461904D01*
X117309523Y-100500000D01*
X117271428Y-100538095D01*
X116928571Y-101261904D02*
X116928571Y-100461904D01*
X116471428Y-101261904D02*
X116814285Y-100804761D01*
X116471428Y-100461904D02*
X116928571Y-100919047D01*
X115557142Y-101261904D02*
X115557142Y-100461904D01*
X115290476Y-101033333D01*
X115023809Y-100461904D01*
X115023809Y-101261904D01*
X114642857Y-101261904D02*
X114642857Y-100461904D01*
X114300000Y-101223809D02*
X114185714Y-101261904D01*
X113995238Y-101261904D01*
X113919047Y-101223809D01*
X113880952Y-101185714D01*
X113842857Y-101109523D01*
X113842857Y-101033333D01*
X113880952Y-100957142D01*
X113919047Y-100919047D01*
X113995238Y-100880952D01*
X114147619Y-100842857D01*
X114223809Y-100804761D01*
X114261904Y-100766666D01*
X114300000Y-100690476D01*
X114300000Y-100614285D01*
X114261904Y-100538095D01*
X114223809Y-100500000D01*
X114147619Y-100461904D01*
X113957142Y-100461904D01*
X113842857Y-100500000D01*
X113347619Y-100461904D02*
X113195238Y-100461904D01*
X113119047Y-100500000D01*
X113042857Y-100576190D01*
X113004761Y-100728571D01*
X113004761Y-100995238D01*
X113042857Y-101147619D01*
X113119047Y-101223809D01*
X113195238Y-101261904D01*
X113347619Y-101261904D01*
X113423809Y-101223809D01*
X113500000Y-101147619D01*
X113538095Y-100995238D01*
X113538095Y-100728571D01*
X113500000Y-100576190D01*
X113423809Y-100500000D01*
X113347619Y-100461904D01*
X118657142Y-94861904D02*
X118657142Y-94061904D01*
X118390476Y-94633333D01*
X118123809Y-94061904D01*
X118123809Y-94861904D01*
X117590476Y-94061904D02*
X117438095Y-94061904D01*
X117361904Y-94100000D01*
X117285714Y-94176190D01*
X117247619Y-94328571D01*
X117247619Y-94595238D01*
X117285714Y-94747619D01*
X117361904Y-94823809D01*
X117438095Y-94861904D01*
X117590476Y-94861904D01*
X117666666Y-94823809D01*
X117742857Y-94747619D01*
X117780952Y-94595238D01*
X117780952Y-94328571D01*
X117742857Y-94176190D01*
X117666666Y-94100000D01*
X117590476Y-94061904D01*
X116942857Y-94823809D02*
X116828571Y-94861904D01*
X116638095Y-94861904D01*
X116561904Y-94823809D01*
X116523809Y-94785714D01*
X116485714Y-94709523D01*
X116485714Y-94633333D01*
X116523809Y-94557142D01*
X116561904Y-94519047D01*
X116638095Y-94480952D01*
X116790476Y-94442857D01*
X116866666Y-94404761D01*
X116904761Y-94366666D01*
X116942857Y-94290476D01*
X116942857Y-94214285D01*
X116904761Y-94138095D01*
X116866666Y-94100000D01*
X116790476Y-94061904D01*
X116600000Y-94061904D01*
X116485714Y-94100000D01*
X116142857Y-94861904D02*
X116142857Y-94061904D01*
X121109523Y-94100000D02*
X121185714Y-94061904D01*
X121300000Y-94061904D01*
X121414285Y-94100000D01*
X121490476Y-94176190D01*
X121528571Y-94252380D01*
X121566666Y-94404761D01*
X121566666Y-94519047D01*
X121528571Y-94671428D01*
X121490476Y-94747619D01*
X121414285Y-94823809D01*
X121300000Y-94861904D01*
X121223809Y-94861904D01*
X121109523Y-94823809D01*
X121071428Y-94785714D01*
X121071428Y-94519047D01*
X121223809Y-94519047D01*
X120728571Y-94861904D02*
X120728571Y-94061904D01*
X120271428Y-94861904D01*
X120271428Y-94061904D01*
X119890476Y-94861904D02*
X119890476Y-94061904D01*
X119700000Y-94061904D01*
X119585714Y-94100000D01*
X119509523Y-94176190D01*
X119471428Y-94252380D01*
X119433333Y-94404761D01*
X119433333Y-94519047D01*
X119471428Y-94671428D01*
X119509523Y-94747619D01*
X119585714Y-94823809D01*
X119700000Y-94861904D01*
X119890476Y-94861904D01*
X114752380Y-94061904D02*
X115133333Y-94061904D01*
X115171428Y-94442857D01*
X115133333Y-94404761D01*
X115057142Y-94366666D01*
X114866666Y-94366666D01*
X114790476Y-94404761D01*
X114752380Y-94442857D01*
X114714285Y-94519047D01*
X114714285Y-94709523D01*
X114752380Y-94785714D01*
X114790476Y-94823809D01*
X114866666Y-94861904D01*
X115057142Y-94861904D01*
X115133333Y-94823809D01*
X115171428Y-94785714D01*
X114485714Y-94061904D02*
X114219047Y-94861904D01*
X113952380Y-94061904D01*
X103409523Y-95200000D02*
X103485714Y-95161904D01*
X103600000Y-95161904D01*
X103714285Y-95200000D01*
X103790476Y-95276190D01*
X103828571Y-95352380D01*
X103866666Y-95504761D01*
X103866666Y-95619047D01*
X103828571Y-95771428D01*
X103790476Y-95847619D01*
X103714285Y-95923809D01*
X103600000Y-95961904D01*
X103523809Y-95961904D01*
X103409523Y-95923809D01*
X103371428Y-95885714D01*
X103371428Y-95619047D01*
X103523809Y-95619047D01*
X103028571Y-95961904D02*
X103028571Y-95161904D01*
X102571428Y-95961904D01*
X102571428Y-95161904D01*
X102190476Y-95961904D02*
X102190476Y-95161904D01*
X102000000Y-95161904D01*
X101885714Y-95200000D01*
X101809523Y-95276190D01*
X101771428Y-95352380D01*
X101733333Y-95504761D01*
X101733333Y-95619047D01*
X101771428Y-95771428D01*
X101809523Y-95847619D01*
X101885714Y-95923809D01*
X102000000Y-95961904D01*
X102190476Y-95961904D01*
X95909523Y-95300000D02*
X95985714Y-95261904D01*
X96100000Y-95261904D01*
X96214285Y-95300000D01*
X96290476Y-95376190D01*
X96328571Y-95452380D01*
X96366666Y-95604761D01*
X96366666Y-95719047D01*
X96328571Y-95871428D01*
X96290476Y-95947619D01*
X96214285Y-96023809D01*
X96100000Y-96061904D01*
X96023809Y-96061904D01*
X95909523Y-96023809D01*
X95871428Y-95985714D01*
X95871428Y-95719047D01*
X96023809Y-95719047D01*
X95528571Y-96061904D02*
X95528571Y-95261904D01*
X95071428Y-96061904D01*
X95071428Y-95261904D01*
X94690476Y-96061904D02*
X94690476Y-95261904D01*
X94500000Y-95261904D01*
X94385714Y-95300000D01*
X94309523Y-95376190D01*
X94271428Y-95452380D01*
X94233333Y-95604761D01*
X94233333Y-95719047D01*
X94271428Y-95871428D01*
X94309523Y-95947619D01*
X94385714Y-96023809D01*
X94500000Y-96061904D01*
X94690476Y-96061904D01*
X97764166Y-92086904D02*
X97764166Y-92734523D01*
X97726071Y-92810714D01*
X97687976Y-92848809D01*
X97611785Y-92886904D01*
X97459404Y-92886904D01*
X97383214Y-92848809D01*
X97345119Y-92810714D01*
X97307023Y-92734523D01*
X97307023Y-92086904D01*
X97002261Y-92086904D02*
X96507023Y-92086904D01*
X96773690Y-92391666D01*
X96659404Y-92391666D01*
X96583214Y-92429761D01*
X96545119Y-92467857D01*
X96507023Y-92544047D01*
X96507023Y-92734523D01*
X96545119Y-92810714D01*
X96583214Y-92848809D01*
X96659404Y-92886904D01*
X96887976Y-92886904D01*
X96964166Y-92848809D01*
X97002261Y-92810714D01*
X95554642Y-92353571D02*
X95554642Y-92886904D01*
X95554642Y-92429761D02*
X95516547Y-92391666D01*
X95440357Y-92353571D01*
X95326071Y-92353571D01*
X95249880Y-92391666D01*
X95211785Y-92467857D01*
X95211785Y-92886904D01*
X94716547Y-92886904D02*
X94792738Y-92848809D01*
X94830833Y-92810714D01*
X94868928Y-92734523D01*
X94868928Y-92505952D01*
X94830833Y-92429761D01*
X94792738Y-92391666D01*
X94716547Y-92353571D01*
X94602261Y-92353571D01*
X94526071Y-92391666D01*
X94487976Y-92429761D01*
X94449880Y-92505952D01*
X94449880Y-92734523D01*
X94487976Y-92810714D01*
X94526071Y-92848809D01*
X94602261Y-92886904D01*
X94716547Y-92886904D01*
X99707023Y-94198809D02*
X99630833Y-94236904D01*
X99478452Y-94236904D01*
X99402261Y-94198809D01*
X99364166Y-94122619D01*
X99364166Y-94084523D01*
X99402261Y-94008333D01*
X99478452Y-93970238D01*
X99592738Y-93970238D01*
X99668928Y-93932142D01*
X99707023Y-93855952D01*
X99707023Y-93817857D01*
X99668928Y-93741666D01*
X99592738Y-93703571D01*
X99478452Y-93703571D01*
X99402261Y-93741666D01*
X99021309Y-94236904D02*
X99021309Y-93436904D01*
X98678452Y-94236904D02*
X98678452Y-93817857D01*
X98716547Y-93741666D01*
X98792738Y-93703571D01*
X98907023Y-93703571D01*
X98983214Y-93741666D01*
X99021309Y-93779761D01*
X97954642Y-93703571D02*
X97954642Y-94236904D01*
X98297500Y-93703571D02*
X98297500Y-94122619D01*
X98259404Y-94198809D01*
X98183214Y-94236904D01*
X98068928Y-94236904D01*
X97992738Y-94198809D01*
X97954642Y-94160714D01*
X97687976Y-93703571D02*
X97383214Y-93703571D01*
X97573690Y-93436904D02*
X97573690Y-94122619D01*
X97535595Y-94198809D01*
X97459404Y-94236904D01*
X97383214Y-94236904D01*
X96773690Y-94236904D02*
X96773690Y-93436904D01*
X96773690Y-94198809D02*
X96849880Y-94236904D01*
X97002261Y-94236904D01*
X97078452Y-94198809D01*
X97116547Y-94160714D01*
X97154642Y-94084523D01*
X97154642Y-93855952D01*
X97116547Y-93779761D01*
X97078452Y-93741666D01*
X97002261Y-93703571D01*
X96849880Y-93703571D01*
X96773690Y-93741666D01*
X96278452Y-94236904D02*
X96354642Y-94198809D01*
X96392738Y-94160714D01*
X96430833Y-94084523D01*
X96430833Y-93855952D01*
X96392738Y-93779761D01*
X96354642Y-93741666D01*
X96278452Y-93703571D01*
X96164166Y-93703571D01*
X96087976Y-93741666D01*
X96049880Y-93779761D01*
X96011785Y-93855952D01*
X96011785Y-94084523D01*
X96049880Y-94160714D01*
X96087976Y-94198809D01*
X96164166Y-94236904D01*
X96278452Y-94236904D01*
X95745119Y-93703571D02*
X95592738Y-94236904D01*
X95440357Y-93855952D01*
X95287976Y-94236904D01*
X95135595Y-93703571D01*
X94830833Y-93703571D02*
X94830833Y-94236904D01*
X94830833Y-93779761D02*
X94792738Y-93741666D01*
X94716547Y-93703571D01*
X94602261Y-93703571D01*
X94526071Y-93741666D01*
X94487976Y-93817857D01*
X94487976Y-94236904D01*
X96269166Y-78786904D02*
X96269166Y-78367857D01*
X96307261Y-78291666D01*
X96383452Y-78253571D01*
X96535833Y-78253571D01*
X96612023Y-78291666D01*
X96269166Y-78748809D02*
X96345357Y-78786904D01*
X96535833Y-78786904D01*
X96612023Y-78748809D01*
X96650119Y-78672619D01*
X96650119Y-78596428D01*
X96612023Y-78520238D01*
X96535833Y-78482142D01*
X96345357Y-78482142D01*
X96269166Y-78444047D01*
X95773928Y-78786904D02*
X95850119Y-78748809D01*
X95888214Y-78672619D01*
X95888214Y-77986904D01*
X95545357Y-78253571D02*
X95392976Y-78786904D01*
X95240595Y-78405952D01*
X95088214Y-78786904D01*
X94935833Y-78253571D01*
X94288214Y-78786904D02*
X94288214Y-78367857D01*
X94326309Y-78291666D01*
X94402500Y-78253571D01*
X94554880Y-78253571D01*
X94631071Y-78291666D01*
X94288214Y-78748809D02*
X94364404Y-78786904D01*
X94554880Y-78786904D01*
X94631071Y-78748809D01*
X94669166Y-78672619D01*
X94669166Y-78596428D01*
X94631071Y-78520238D01*
X94554880Y-78482142D01*
X94364404Y-78482142D01*
X94288214Y-78444047D01*
X93983452Y-78253571D02*
X93792976Y-78786904D01*
X93602500Y-78253571D02*
X93792976Y-78786904D01*
X93869166Y-78977380D01*
X93907261Y-79015476D01*
X93983452Y-79053571D01*
X93335833Y-78748809D02*
X93259642Y-78786904D01*
X93107261Y-78786904D01*
X93031071Y-78748809D01*
X92992976Y-78672619D01*
X92992976Y-78634523D01*
X93031071Y-78558333D01*
X93107261Y-78520238D01*
X93221547Y-78520238D01*
X93297738Y-78482142D01*
X93335833Y-78405952D01*
X93335833Y-78367857D01*
X93297738Y-78291666D01*
X93221547Y-78253571D01*
X93107261Y-78253571D01*
X93031071Y-78291666D01*
X96307261Y-80098809D02*
X96383452Y-80136904D01*
X96535833Y-80136904D01*
X96612023Y-80098809D01*
X96650119Y-80022619D01*
X96650119Y-79717857D01*
X96612023Y-79641666D01*
X96535833Y-79603571D01*
X96383452Y-79603571D01*
X96307261Y-79641666D01*
X96269166Y-79717857D01*
X96269166Y-79794047D01*
X96650119Y-79870238D01*
X95926309Y-79603571D02*
X95926309Y-80136904D01*
X95926309Y-79679761D02*
X95888214Y-79641666D01*
X95812023Y-79603571D01*
X95697738Y-79603571D01*
X95621547Y-79641666D01*
X95583452Y-79717857D01*
X95583452Y-80136904D01*
X94859642Y-80136904D02*
X94859642Y-79717857D01*
X94897738Y-79641666D01*
X94973928Y-79603571D01*
X95126309Y-79603571D01*
X95202500Y-79641666D01*
X94859642Y-80098809D02*
X94935833Y-80136904D01*
X95126309Y-80136904D01*
X95202500Y-80098809D01*
X95240595Y-80022619D01*
X95240595Y-79946428D01*
X95202500Y-79870238D01*
X95126309Y-79832142D01*
X94935833Y-79832142D01*
X94859642Y-79794047D01*
X94478690Y-80136904D02*
X94478690Y-79336904D01*
X94478690Y-79641666D02*
X94402500Y-79603571D01*
X94250119Y-79603571D01*
X94173928Y-79641666D01*
X94135833Y-79679761D01*
X94097738Y-79755952D01*
X94097738Y-79984523D01*
X94135833Y-80060714D01*
X94173928Y-80098809D01*
X94250119Y-80136904D01*
X94402500Y-80136904D01*
X94478690Y-80098809D01*
X93640595Y-80136904D02*
X93716785Y-80098809D01*
X93754880Y-80022619D01*
X93754880Y-79336904D01*
X93031071Y-80098809D02*
X93107261Y-80136904D01*
X93259642Y-80136904D01*
X93335833Y-80098809D01*
X93373928Y-80022619D01*
X93373928Y-79717857D01*
X93335833Y-79641666D01*
X93259642Y-79603571D01*
X93107261Y-79603571D01*
X93031071Y-79641666D01*
X92992976Y-79717857D01*
X92992976Y-79794047D01*
X93373928Y-79870238D01*
X92040595Y-79336904D02*
X92040595Y-79984523D01*
X92002500Y-80060714D01*
X91964404Y-80098809D01*
X91888214Y-80136904D01*
X91735833Y-80136904D01*
X91659642Y-80098809D01*
X91621547Y-80060714D01*
X91583452Y-79984523D01*
X91583452Y-79336904D01*
X91278690Y-79336904D02*
X90783452Y-79336904D01*
X91050119Y-79641666D01*
X90935833Y-79641666D01*
X90859642Y-79679761D01*
X90821547Y-79717857D01*
X90783452Y-79794047D01*
X90783452Y-79984523D01*
X90821547Y-80060714D01*
X90859642Y-80098809D01*
X90935833Y-80136904D01*
X91164404Y-80136904D01*
X91240595Y-80098809D01*
X91278690Y-80060714D01*
X109714285Y-100761904D02*
X110095238Y-100761904D01*
X110095238Y-99961904D01*
X109447619Y-100342857D02*
X109180952Y-100342857D01*
X109066666Y-100761904D02*
X109447619Y-100761904D01*
X109447619Y-99961904D01*
X109066666Y-99961904D01*
X108723809Y-100761904D02*
X108723809Y-99961904D01*
X108533333Y-99961904D01*
X108419047Y-100000000D01*
X108342857Y-100076190D01*
X108304761Y-100152380D01*
X108266666Y-100304761D01*
X108266666Y-100419047D01*
X108304761Y-100571428D01*
X108342857Y-100647619D01*
X108419047Y-100723809D01*
X108533333Y-100761904D01*
X108723809Y-100761904D01*
X103552380Y-100761904D02*
X103552380Y-99961904D01*
X103552380Y-100342857D02*
X103095238Y-100342857D01*
X103095238Y-100761904D02*
X103095238Y-99961904D01*
X102409523Y-100723809D02*
X102485714Y-100761904D01*
X102638095Y-100761904D01*
X102714285Y-100723809D01*
X102752380Y-100647619D01*
X102752380Y-100342857D01*
X102714285Y-100266666D01*
X102638095Y-100228571D01*
X102485714Y-100228571D01*
X102409523Y-100266666D01*
X102371428Y-100342857D01*
X102371428Y-100419047D01*
X102752380Y-100495238D01*
X101685714Y-100761904D02*
X101685714Y-100342857D01*
X101723809Y-100266666D01*
X101800000Y-100228571D01*
X101952380Y-100228571D01*
X102028571Y-100266666D01*
X101685714Y-100723809D02*
X101761904Y-100761904D01*
X101952380Y-100761904D01*
X102028571Y-100723809D01*
X102066666Y-100647619D01*
X102066666Y-100571428D01*
X102028571Y-100495238D01*
X101952380Y-100457142D01*
X101761904Y-100457142D01*
X101685714Y-100419047D01*
X101419047Y-100228571D02*
X101114285Y-100228571D01*
X101304761Y-99961904D02*
X101304761Y-100647619D01*
X101266666Y-100723809D01*
X101190476Y-100761904D01*
X101114285Y-100761904D01*
X100542857Y-100723809D02*
X100619047Y-100761904D01*
X100771428Y-100761904D01*
X100847619Y-100723809D01*
X100885714Y-100647619D01*
X100885714Y-100342857D01*
X100847619Y-100266666D01*
X100771428Y-100228571D01*
X100619047Y-100228571D01*
X100542857Y-100266666D01*
X100504761Y-100342857D01*
X100504761Y-100419047D01*
X100885714Y-100495238D01*
X100161904Y-100761904D02*
X100161904Y-100228571D01*
X100161904Y-100380952D02*
X100123809Y-100304761D01*
X100085714Y-100266666D01*
X100009523Y-100228571D01*
X99933333Y-100228571D01*
X95857142Y-100342857D02*
X95742857Y-100380952D01*
X95704761Y-100419047D01*
X95666666Y-100495238D01*
X95666666Y-100609523D01*
X95704761Y-100685714D01*
X95742857Y-100723809D01*
X95819047Y-100761904D01*
X96123809Y-100761904D01*
X96123809Y-99961904D01*
X95857142Y-99961904D01*
X95780952Y-100000000D01*
X95742857Y-100038095D01*
X95704761Y-100114285D01*
X95704761Y-100190476D01*
X95742857Y-100266666D01*
X95780952Y-100304761D01*
X95857142Y-100342857D01*
X96123809Y-100342857D01*
X94980952Y-100761904D02*
X94980952Y-100342857D01*
X95019047Y-100266666D01*
X95095238Y-100228571D01*
X95247619Y-100228571D01*
X95323809Y-100266666D01*
X94980952Y-100723809D02*
X95057142Y-100761904D01*
X95247619Y-100761904D01*
X95323809Y-100723809D01*
X95361904Y-100647619D01*
X95361904Y-100571428D01*
X95323809Y-100495238D01*
X95247619Y-100457142D01*
X95057142Y-100457142D01*
X94980952Y-100419047D01*
X94714285Y-100228571D02*
X94409523Y-100228571D01*
X94600000Y-99961904D02*
X94600000Y-100647619D01*
X94561904Y-100723809D01*
X94485714Y-100761904D01*
X94409523Y-100761904D01*
X94257142Y-100228571D02*
X93952380Y-100228571D01*
X94142857Y-99961904D02*
X94142857Y-100647619D01*
X94104761Y-100723809D01*
X94028571Y-100761904D01*
X93952380Y-100761904D01*
X93380952Y-100723809D02*
X93457142Y-100761904D01*
X93609523Y-100761904D01*
X93685714Y-100723809D01*
X93723809Y-100647619D01*
X93723809Y-100342857D01*
X93685714Y-100266666D01*
X93609523Y-100228571D01*
X93457142Y-100228571D01*
X93380952Y-100266666D01*
X93342857Y-100342857D01*
X93342857Y-100419047D01*
X93723809Y-100495238D01*
X93000000Y-100761904D02*
X93000000Y-100228571D01*
X93000000Y-100380952D02*
X92961904Y-100304761D01*
X92923809Y-100266666D01*
X92847619Y-100228571D01*
X92771428Y-100228571D01*
X92580952Y-100228571D02*
X92390476Y-100761904D01*
X92200000Y-100228571D02*
X92390476Y-100761904D01*
X92466666Y-100952380D01*
X92504761Y-100990476D01*
X92580952Y-101028571D01*
X120512023Y-83836904D02*
X120512023Y-83036904D01*
X120207261Y-83036904D01*
X120131071Y-83075000D01*
X120092976Y-83113095D01*
X120054880Y-83189285D01*
X120054880Y-83303571D01*
X120092976Y-83379761D01*
X120131071Y-83417857D01*
X120207261Y-83455952D01*
X120512023Y-83455952D01*
X119712023Y-83836904D02*
X119712023Y-83303571D01*
X119712023Y-83455952D02*
X119673928Y-83379761D01*
X119635833Y-83341666D01*
X119559642Y-83303571D01*
X119483452Y-83303571D01*
X119102500Y-83836904D02*
X119178690Y-83798809D01*
X119216785Y-83760714D01*
X119254880Y-83684523D01*
X119254880Y-83455952D01*
X119216785Y-83379761D01*
X119178690Y-83341666D01*
X119102500Y-83303571D01*
X118988214Y-83303571D01*
X118912023Y-83341666D01*
X118873928Y-83379761D01*
X118835833Y-83455952D01*
X118835833Y-83684523D01*
X118873928Y-83760714D01*
X118912023Y-83798809D01*
X118988214Y-83836904D01*
X119102500Y-83836904D01*
X118150119Y-83303571D02*
X118150119Y-83951190D01*
X118188214Y-84027380D01*
X118226309Y-84065476D01*
X118302500Y-84103571D01*
X118416785Y-84103571D01*
X118492976Y-84065476D01*
X118150119Y-83798809D02*
X118226309Y-83836904D01*
X118378690Y-83836904D01*
X118454880Y-83798809D01*
X118492976Y-83760714D01*
X118531071Y-83684523D01*
X118531071Y-83455952D01*
X118492976Y-83379761D01*
X118454880Y-83341666D01*
X118378690Y-83303571D01*
X118226309Y-83303571D01*
X118150119Y-83341666D01*
X117769166Y-83836904D02*
X117769166Y-83303571D01*
X117769166Y-83455952D02*
X117731071Y-83379761D01*
X117692976Y-83341666D01*
X117616785Y-83303571D01*
X117540595Y-83303571D01*
X116931071Y-83836904D02*
X116931071Y-83417857D01*
X116969166Y-83341666D01*
X117045357Y-83303571D01*
X117197738Y-83303571D01*
X117273928Y-83341666D01*
X116931071Y-83798809D02*
X117007261Y-83836904D01*
X117197738Y-83836904D01*
X117273928Y-83798809D01*
X117312023Y-83722619D01*
X117312023Y-83646428D01*
X117273928Y-83570238D01*
X117197738Y-83532142D01*
X117007261Y-83532142D01*
X116931071Y-83494047D01*
X116550119Y-83836904D02*
X116550119Y-83303571D01*
X116550119Y-83379761D02*
X116512023Y-83341666D01*
X116435833Y-83303571D01*
X116321547Y-83303571D01*
X116245357Y-83341666D01*
X116207261Y-83417857D01*
X116207261Y-83836904D01*
X116207261Y-83417857D02*
X116169166Y-83341666D01*
X116092976Y-83303571D01*
X115978690Y-83303571D01*
X115902500Y-83341666D01*
X115864404Y-83417857D01*
X115864404Y-83836904D01*
X115483452Y-83836904D02*
X115483452Y-83303571D01*
X115483452Y-83379761D02*
X115445357Y-83341666D01*
X115369166Y-83303571D01*
X115254880Y-83303571D01*
X115178690Y-83341666D01*
X115140595Y-83417857D01*
X115140595Y-83836904D01*
X115140595Y-83417857D02*
X115102500Y-83341666D01*
X115026309Y-83303571D01*
X114912023Y-83303571D01*
X114835833Y-83341666D01*
X114797738Y-83417857D01*
X114797738Y-83836904D01*
X114073928Y-83836904D02*
X114073928Y-83417857D01*
X114112023Y-83341666D01*
X114188214Y-83303571D01*
X114340595Y-83303571D01*
X114416785Y-83341666D01*
X114073928Y-83798809D02*
X114150119Y-83836904D01*
X114340595Y-83836904D01*
X114416785Y-83798809D01*
X114454880Y-83722619D01*
X114454880Y-83646428D01*
X114416785Y-83570238D01*
X114340595Y-83532142D01*
X114150119Y-83532142D01*
X114073928Y-83494047D01*
X113692976Y-83836904D02*
X113692976Y-83036904D01*
X113692976Y-83341666D02*
X113616785Y-83303571D01*
X113464404Y-83303571D01*
X113388214Y-83341666D01*
X113350119Y-83379761D01*
X113312023Y-83455952D01*
X113312023Y-83684523D01*
X113350119Y-83760714D01*
X113388214Y-83798809D01*
X113464404Y-83836904D01*
X113616785Y-83836904D01*
X113692976Y-83798809D01*
X112854880Y-83836904D02*
X112931071Y-83798809D01*
X112969166Y-83722619D01*
X112969166Y-83036904D01*
X112245357Y-83798809D02*
X112321547Y-83836904D01*
X112473928Y-83836904D01*
X112550119Y-83798809D01*
X112588214Y-83722619D01*
X112588214Y-83417857D01*
X112550119Y-83341666D01*
X112473928Y-83303571D01*
X112321547Y-83303571D01*
X112245357Y-83341666D01*
X112207261Y-83417857D01*
X112207261Y-83494047D01*
X112588214Y-83570238D01*
X111254880Y-83836904D02*
X111254880Y-83036904D01*
X111254880Y-83417857D02*
X110797738Y-83417857D01*
X110797738Y-83836904D02*
X110797738Y-83036904D01*
X110112023Y-83798809D02*
X110188214Y-83836904D01*
X110340595Y-83836904D01*
X110416785Y-83798809D01*
X110454880Y-83722619D01*
X110454880Y-83417857D01*
X110416785Y-83341666D01*
X110340595Y-83303571D01*
X110188214Y-83303571D01*
X110112023Y-83341666D01*
X110073928Y-83417857D01*
X110073928Y-83494047D01*
X110454880Y-83570238D01*
X109388214Y-83836904D02*
X109388214Y-83417857D01*
X109426309Y-83341666D01*
X109502500Y-83303571D01*
X109654880Y-83303571D01*
X109731071Y-83341666D01*
X109388214Y-83798809D02*
X109464404Y-83836904D01*
X109654880Y-83836904D01*
X109731071Y-83798809D01*
X109769166Y-83722619D01*
X109769166Y-83646428D01*
X109731071Y-83570238D01*
X109654880Y-83532142D01*
X109464404Y-83532142D01*
X109388214Y-83494047D01*
X109121547Y-83303571D02*
X108816785Y-83303571D01*
X109007261Y-83036904D02*
X109007261Y-83722619D01*
X108969166Y-83798809D01*
X108892976Y-83836904D01*
X108816785Y-83836904D01*
X108245357Y-83798809D02*
X108321547Y-83836904D01*
X108473928Y-83836904D01*
X108550119Y-83798809D01*
X108588214Y-83722619D01*
X108588214Y-83417857D01*
X108550119Y-83341666D01*
X108473928Y-83303571D01*
X108321547Y-83303571D01*
X108245357Y-83341666D01*
X108207261Y-83417857D01*
X108207261Y-83494047D01*
X108588214Y-83570238D01*
X107864404Y-83836904D02*
X107864404Y-83303571D01*
X107864404Y-83455952D02*
X107826309Y-83379761D01*
X107788214Y-83341666D01*
X107712023Y-83303571D01*
X107635833Y-83303571D01*
X106835833Y-83303571D02*
X106645357Y-83836904D01*
X106454880Y-83303571D01*
X105731071Y-83836904D02*
X106188214Y-83836904D01*
X105959642Y-83836904D02*
X105959642Y-83036904D01*
X106035833Y-83151190D01*
X106112023Y-83227380D01*
X106188214Y-83265476D01*
X105388214Y-83760714D02*
X105350119Y-83798809D01*
X105388214Y-83836904D01*
X105426309Y-83798809D01*
X105388214Y-83760714D01*
X105388214Y-83836904D01*
X105045357Y-83113095D02*
X105007261Y-83075000D01*
X104931071Y-83036904D01*
X104740595Y-83036904D01*
X104664404Y-83075000D01*
X104626309Y-83113095D01*
X104588214Y-83189285D01*
X104588214Y-83265476D01*
X104626309Y-83379761D01*
X105083452Y-83836904D01*
X104588214Y-83836904D01*
X120512023Y-85186904D02*
X120512023Y-84386904D01*
X120321547Y-84386904D01*
X120207261Y-84425000D01*
X120131071Y-84501190D01*
X120092976Y-84577380D01*
X120054880Y-84729761D01*
X120054880Y-84844047D01*
X120092976Y-84996428D01*
X120131071Y-85072619D01*
X120207261Y-85148809D01*
X120321547Y-85186904D01*
X120512023Y-85186904D01*
X119407261Y-85148809D02*
X119483452Y-85186904D01*
X119635833Y-85186904D01*
X119712023Y-85148809D01*
X119750119Y-85072619D01*
X119750119Y-84767857D01*
X119712023Y-84691666D01*
X119635833Y-84653571D01*
X119483452Y-84653571D01*
X119407261Y-84691666D01*
X119369166Y-84767857D01*
X119369166Y-84844047D01*
X119750119Y-84920238D01*
X119064404Y-85148809D02*
X118988214Y-85186904D01*
X118835833Y-85186904D01*
X118759642Y-85148809D01*
X118721547Y-85072619D01*
X118721547Y-85034523D01*
X118759642Y-84958333D01*
X118835833Y-84920238D01*
X118950119Y-84920238D01*
X119026309Y-84882142D01*
X119064404Y-84805952D01*
X119064404Y-84767857D01*
X119026309Y-84691666D01*
X118950119Y-84653571D01*
X118835833Y-84653571D01*
X118759642Y-84691666D01*
X118378690Y-85186904D02*
X118378690Y-84653571D01*
X118378690Y-84386904D02*
X118416785Y-84425000D01*
X118378690Y-84463095D01*
X118340595Y-84425000D01*
X118378690Y-84386904D01*
X118378690Y-84463095D01*
X117654880Y-84653571D02*
X117654880Y-85301190D01*
X117692976Y-85377380D01*
X117731071Y-85415476D01*
X117807261Y-85453571D01*
X117921547Y-85453571D01*
X117997738Y-85415476D01*
X117654880Y-85148809D02*
X117731071Y-85186904D01*
X117883452Y-85186904D01*
X117959642Y-85148809D01*
X117997738Y-85110714D01*
X118035833Y-85034523D01*
X118035833Y-84805952D01*
X117997738Y-84729761D01*
X117959642Y-84691666D01*
X117883452Y-84653571D01*
X117731071Y-84653571D01*
X117654880Y-84691666D01*
X117273928Y-84653571D02*
X117273928Y-85186904D01*
X117273928Y-84729761D02*
X117235833Y-84691666D01*
X117159642Y-84653571D01*
X117045357Y-84653571D01*
X116969166Y-84691666D01*
X116931071Y-84767857D01*
X116931071Y-85186904D01*
X116550119Y-85110714D02*
X116512023Y-85148809D01*
X116550119Y-85186904D01*
X116588214Y-85148809D01*
X116550119Y-85110714D01*
X116550119Y-85186904D01*
X116550119Y-84691666D02*
X116512023Y-84729761D01*
X116550119Y-84767857D01*
X116588214Y-84729761D01*
X116550119Y-84691666D01*
X116550119Y-84767857D01*
X115559642Y-85186904D02*
X115559642Y-84386904D01*
X115254880Y-84386904D01*
X115178690Y-84425000D01*
X115140595Y-84463095D01*
X115102500Y-84539285D01*
X115102500Y-84653571D01*
X115140595Y-84729761D01*
X115178690Y-84767857D01*
X115254880Y-84805952D01*
X115559642Y-84805952D01*
X114416785Y-85186904D02*
X114416785Y-84767857D01*
X114454880Y-84691666D01*
X114531071Y-84653571D01*
X114683452Y-84653571D01*
X114759642Y-84691666D01*
X114416785Y-85148809D02*
X114492976Y-85186904D01*
X114683452Y-85186904D01*
X114759642Y-85148809D01*
X114797738Y-85072619D01*
X114797738Y-84996428D01*
X114759642Y-84920238D01*
X114683452Y-84882142D01*
X114492976Y-84882142D01*
X114416785Y-84844047D01*
X114150119Y-84653571D02*
X113845357Y-84653571D01*
X114035833Y-84386904D02*
X114035833Y-85072619D01*
X113997738Y-85148809D01*
X113921547Y-85186904D01*
X113845357Y-85186904D01*
X113578690Y-85186904D02*
X113578690Y-84653571D01*
X113578690Y-84805952D02*
X113540595Y-84729761D01*
X113502500Y-84691666D01*
X113426309Y-84653571D01*
X113350119Y-84653571D01*
X113083452Y-85186904D02*
X113083452Y-84653571D01*
X113083452Y-84386904D02*
X113121547Y-84425000D01*
X113083452Y-84463095D01*
X113045357Y-84425000D01*
X113083452Y-84386904D01*
X113083452Y-84463095D01*
X112359642Y-85148809D02*
X112435833Y-85186904D01*
X112588214Y-85186904D01*
X112664404Y-85148809D01*
X112702500Y-85110714D01*
X112740595Y-85034523D01*
X112740595Y-84805952D01*
X112702500Y-84729761D01*
X112664404Y-84691666D01*
X112588214Y-84653571D01*
X112435833Y-84653571D01*
X112359642Y-84691666D01*
X112016785Y-85186904D02*
X112016785Y-84386904D01*
X111940595Y-84882142D02*
X111712023Y-85186904D01*
X111712023Y-84653571D02*
X112016785Y-84958333D01*
X110492976Y-84767857D02*
X110378690Y-84805952D01*
X110340595Y-84844047D01*
X110302500Y-84920238D01*
X110302500Y-85034523D01*
X110340595Y-85110714D01*
X110378690Y-85148809D01*
X110454880Y-85186904D01*
X110759642Y-85186904D01*
X110759642Y-84386904D01*
X110492976Y-84386904D01*
X110416785Y-84425000D01*
X110378690Y-84463095D01*
X110340595Y-84539285D01*
X110340595Y-84615476D01*
X110378690Y-84691666D01*
X110416785Y-84729761D01*
X110492976Y-84767857D01*
X110759642Y-84767857D01*
X109616785Y-85186904D02*
X109616785Y-84767857D01*
X109654880Y-84691666D01*
X109731071Y-84653571D01*
X109883452Y-84653571D01*
X109959642Y-84691666D01*
X109616785Y-85148809D02*
X109692976Y-85186904D01*
X109883452Y-85186904D01*
X109959642Y-85148809D01*
X109997738Y-85072619D01*
X109997738Y-84996428D01*
X109959642Y-84920238D01*
X109883452Y-84882142D01*
X109692976Y-84882142D01*
X109616785Y-84844047D01*
X108892976Y-84653571D02*
X108892976Y-85186904D01*
X109235833Y-84653571D02*
X109235833Y-85072619D01*
X109197738Y-85148809D01*
X109121547Y-85186904D01*
X109007261Y-85186904D01*
X108931071Y-85148809D01*
X108892976Y-85110714D01*
X108550119Y-85148809D02*
X108473928Y-85186904D01*
X108321547Y-85186904D01*
X108245357Y-85148809D01*
X108207261Y-85072619D01*
X108207261Y-85034523D01*
X108245357Y-84958333D01*
X108321547Y-84920238D01*
X108435833Y-84920238D01*
X108512023Y-84882142D01*
X108550119Y-84805952D01*
X108550119Y-84767857D01*
X108512023Y-84691666D01*
X108435833Y-84653571D01*
X108321547Y-84653571D01*
X108245357Y-84691666D01*
X120512023Y-86536904D02*
X120512023Y-85736904D01*
X120321547Y-85736904D01*
X120207261Y-85775000D01*
X120131071Y-85851190D01*
X120092976Y-85927380D01*
X120054880Y-86079761D01*
X120054880Y-86194047D01*
X120092976Y-86346428D01*
X120131071Y-86422619D01*
X120207261Y-86498809D01*
X120321547Y-86536904D01*
X120512023Y-86536904D01*
X119369166Y-86536904D02*
X119369166Y-86117857D01*
X119407261Y-86041666D01*
X119483452Y-86003571D01*
X119635833Y-86003571D01*
X119712023Y-86041666D01*
X119369166Y-86498809D02*
X119445357Y-86536904D01*
X119635833Y-86536904D01*
X119712023Y-86498809D01*
X119750119Y-86422619D01*
X119750119Y-86346428D01*
X119712023Y-86270238D01*
X119635833Y-86232142D01*
X119445357Y-86232142D01*
X119369166Y-86194047D01*
X119102500Y-86003571D02*
X118797738Y-86003571D01*
X118988214Y-85736904D02*
X118988214Y-86422619D01*
X118950119Y-86498809D01*
X118873928Y-86536904D01*
X118797738Y-86536904D01*
X118226309Y-86498809D02*
X118302500Y-86536904D01*
X118454880Y-86536904D01*
X118531071Y-86498809D01*
X118569166Y-86422619D01*
X118569166Y-86117857D01*
X118531071Y-86041666D01*
X118454880Y-86003571D01*
X118302500Y-86003571D01*
X118226309Y-86041666D01*
X118188214Y-86117857D01*
X118188214Y-86194047D01*
X118569166Y-86270238D01*
X117845357Y-86460714D02*
X117807261Y-86498809D01*
X117845357Y-86536904D01*
X117883452Y-86498809D01*
X117845357Y-86460714D01*
X117845357Y-86536904D01*
X117845357Y-86041666D02*
X117807261Y-86079761D01*
X117845357Y-86117857D01*
X117883452Y-86079761D01*
X117845357Y-86041666D01*
X117845357Y-86117857D01*
X116892976Y-85813095D02*
X116854880Y-85775000D01*
X116778690Y-85736904D01*
X116588214Y-85736904D01*
X116512023Y-85775000D01*
X116473928Y-85813095D01*
X116435833Y-85889285D01*
X116435833Y-85965476D01*
X116473928Y-86079761D01*
X116931071Y-86536904D01*
X116435833Y-86536904D01*
X115940595Y-85736904D02*
X115864404Y-85736904D01*
X115788214Y-85775000D01*
X115750119Y-85813095D01*
X115712023Y-85889285D01*
X115673928Y-86041666D01*
X115673928Y-86232142D01*
X115712023Y-86384523D01*
X115750119Y-86460714D01*
X115788214Y-86498809D01*
X115864404Y-86536904D01*
X115940595Y-86536904D01*
X116016785Y-86498809D01*
X116054880Y-86460714D01*
X116092976Y-86384523D01*
X116131071Y-86232142D01*
X116131071Y-86041666D01*
X116092976Y-85889285D01*
X116054880Y-85813095D01*
X116016785Y-85775000D01*
X115940595Y-85736904D01*
X114912023Y-86536904D02*
X115369166Y-86536904D01*
X115140595Y-86536904D02*
X115140595Y-85736904D01*
X115216785Y-85851190D01*
X115292976Y-85927380D01*
X115369166Y-85965476D01*
X114454880Y-86079761D02*
X114531071Y-86041666D01*
X114569166Y-86003571D01*
X114607261Y-85927380D01*
X114607261Y-85889285D01*
X114569166Y-85813095D01*
X114531071Y-85775000D01*
X114454880Y-85736904D01*
X114302500Y-85736904D01*
X114226309Y-85775000D01*
X114188214Y-85813095D01*
X114150119Y-85889285D01*
X114150119Y-85927380D01*
X114188214Y-86003571D01*
X114226309Y-86041666D01*
X114302500Y-86079761D01*
X114454880Y-86079761D01*
X114531071Y-86117857D01*
X114569166Y-86155952D01*
X114607261Y-86232142D01*
X114607261Y-86384523D01*
X114569166Y-86460714D01*
X114531071Y-86498809D01*
X114454880Y-86536904D01*
X114302500Y-86536904D01*
X114226309Y-86498809D01*
X114188214Y-86460714D01*
X114150119Y-86384523D01*
X114150119Y-86232142D01*
X114188214Y-86155952D01*
X114226309Y-86117857D01*
X114302500Y-86079761D01*
X113807261Y-86232142D02*
X113197738Y-86232142D01*
X112664404Y-85736904D02*
X112588214Y-85736904D01*
X112512023Y-85775000D01*
X112473928Y-85813095D01*
X112435833Y-85889285D01*
X112397738Y-86041666D01*
X112397738Y-86232142D01*
X112435833Y-86384523D01*
X112473928Y-86460714D01*
X112512023Y-86498809D01*
X112588214Y-86536904D01*
X112664404Y-86536904D01*
X112740595Y-86498809D01*
X112778690Y-86460714D01*
X112816785Y-86384523D01*
X112854880Y-86232142D01*
X112854880Y-86041666D01*
X112816785Y-85889285D01*
X112778690Y-85813095D01*
X112740595Y-85775000D01*
X112664404Y-85736904D01*
X112131071Y-85736904D02*
X111635833Y-85736904D01*
X111902500Y-86041666D01*
X111788214Y-86041666D01*
X111712023Y-86079761D01*
X111673928Y-86117857D01*
X111635833Y-86194047D01*
X111635833Y-86384523D01*
X111673928Y-86460714D01*
X111712023Y-86498809D01*
X111788214Y-86536904D01*
X112016785Y-86536904D01*
X112092976Y-86498809D01*
X112131071Y-86460714D01*
X120512023Y-87886904D02*
X120512023Y-87086904D01*
X120169166Y-87886904D02*
X120169166Y-87467857D01*
X120207261Y-87391666D01*
X120283452Y-87353571D01*
X120397738Y-87353571D01*
X120473928Y-87391666D01*
X120512023Y-87429761D01*
X119902500Y-87353571D02*
X119597738Y-87353571D01*
X119788214Y-87086904D02*
X119788214Y-87772619D01*
X119750119Y-87848809D01*
X119673928Y-87886904D01*
X119597738Y-87886904D01*
X119445357Y-87353571D02*
X119140595Y-87353571D01*
X119331071Y-87086904D02*
X119331071Y-87772619D01*
X119292976Y-87848809D01*
X119216785Y-87886904D01*
X119140595Y-87886904D01*
X118873928Y-87353571D02*
X118873928Y-88153571D01*
X118873928Y-87391666D02*
X118797738Y-87353571D01*
X118645357Y-87353571D01*
X118569166Y-87391666D01*
X118531071Y-87429761D01*
X118492976Y-87505952D01*
X118492976Y-87734523D01*
X118531071Y-87810714D01*
X118569166Y-87848809D01*
X118645357Y-87886904D01*
X118797738Y-87886904D01*
X118873928Y-87848809D01*
X118188214Y-87848809D02*
X118112023Y-87886904D01*
X117959642Y-87886904D01*
X117883452Y-87848809D01*
X117845357Y-87772619D01*
X117845357Y-87734523D01*
X117883452Y-87658333D01*
X117959642Y-87620238D01*
X118073928Y-87620238D01*
X118150119Y-87582142D01*
X118188214Y-87505952D01*
X118188214Y-87467857D01*
X118150119Y-87391666D01*
X118073928Y-87353571D01*
X117959642Y-87353571D01*
X117883452Y-87391666D01*
X117502500Y-87810714D02*
X117464404Y-87848809D01*
X117502500Y-87886904D01*
X117540595Y-87848809D01*
X117502500Y-87810714D01*
X117502500Y-87886904D01*
X117502500Y-87391666D02*
X117464404Y-87429761D01*
X117502500Y-87467857D01*
X117540595Y-87429761D01*
X117502500Y-87391666D01*
X117502500Y-87467857D01*
X116550119Y-87048809D02*
X117235833Y-88077380D01*
X115712023Y-87048809D02*
X116397738Y-88077380D01*
X115102500Y-87353571D02*
X115102500Y-88001190D01*
X115140595Y-88077380D01*
X115178690Y-88115476D01*
X115254880Y-88153571D01*
X115369166Y-88153571D01*
X115445357Y-88115476D01*
X115102500Y-87848809D02*
X115178690Y-87886904D01*
X115331071Y-87886904D01*
X115407261Y-87848809D01*
X115445357Y-87810714D01*
X115483452Y-87734523D01*
X115483452Y-87505952D01*
X115445357Y-87429761D01*
X115407261Y-87391666D01*
X115331071Y-87353571D01*
X115178690Y-87353571D01*
X115102500Y-87391666D01*
X114721547Y-87886904D02*
X114721547Y-87353571D01*
X114721547Y-87086904D02*
X114759642Y-87125000D01*
X114721547Y-87163095D01*
X114683452Y-87125000D01*
X114721547Y-87086904D01*
X114721547Y-87163095D01*
X114454880Y-87353571D02*
X114150119Y-87353571D01*
X114340595Y-87086904D02*
X114340595Y-87772619D01*
X114302500Y-87848809D01*
X114226309Y-87886904D01*
X114150119Y-87886904D01*
X113883452Y-87886904D02*
X113883452Y-87086904D01*
X113540595Y-87886904D02*
X113540595Y-87467857D01*
X113578690Y-87391666D01*
X113654880Y-87353571D01*
X113769166Y-87353571D01*
X113845357Y-87391666D01*
X113883452Y-87429761D01*
X112816785Y-87353571D02*
X112816785Y-87886904D01*
X113159642Y-87353571D02*
X113159642Y-87772619D01*
X113121547Y-87848809D01*
X113045357Y-87886904D01*
X112931071Y-87886904D01*
X112854880Y-87848809D01*
X112816785Y-87810714D01*
X112435833Y-87886904D02*
X112435833Y-87086904D01*
X112435833Y-87391666D02*
X112359642Y-87353571D01*
X112207261Y-87353571D01*
X112131071Y-87391666D01*
X112092976Y-87429761D01*
X112054880Y-87505952D01*
X112054880Y-87734523D01*
X112092976Y-87810714D01*
X112131071Y-87848809D01*
X112207261Y-87886904D01*
X112359642Y-87886904D01*
X112435833Y-87848809D01*
X111712023Y-87810714D02*
X111673928Y-87848809D01*
X111712023Y-87886904D01*
X111750119Y-87848809D01*
X111712023Y-87810714D01*
X111712023Y-87886904D01*
X110988214Y-87848809D02*
X111064404Y-87886904D01*
X111216785Y-87886904D01*
X111292976Y-87848809D01*
X111331071Y-87810714D01*
X111369166Y-87734523D01*
X111369166Y-87505952D01*
X111331071Y-87429761D01*
X111292976Y-87391666D01*
X111216785Y-87353571D01*
X111064404Y-87353571D01*
X110988214Y-87391666D01*
X110531071Y-87886904D02*
X110607261Y-87848809D01*
X110645357Y-87810714D01*
X110683452Y-87734523D01*
X110683452Y-87505952D01*
X110645357Y-87429761D01*
X110607261Y-87391666D01*
X110531071Y-87353571D01*
X110416785Y-87353571D01*
X110340595Y-87391666D01*
X110302500Y-87429761D01*
X110264404Y-87505952D01*
X110264404Y-87734523D01*
X110302500Y-87810714D01*
X110340595Y-87848809D01*
X110416785Y-87886904D01*
X110531071Y-87886904D01*
X109921547Y-87886904D02*
X109921547Y-87353571D01*
X109921547Y-87429761D02*
X109883452Y-87391666D01*
X109807261Y-87353571D01*
X109692976Y-87353571D01*
X109616785Y-87391666D01*
X109578690Y-87467857D01*
X109578690Y-87886904D01*
X109578690Y-87467857D02*
X109540595Y-87391666D01*
X109464404Y-87353571D01*
X109350119Y-87353571D01*
X109273928Y-87391666D01*
X109235833Y-87467857D01*
X109235833Y-87886904D01*
X108283452Y-87048809D02*
X108969166Y-88077380D01*
X108016785Y-87886904D02*
X108016785Y-87086904D01*
X107712023Y-87086904D01*
X107635833Y-87125000D01*
X107597738Y-87163095D01*
X107559642Y-87239285D01*
X107559642Y-87353571D01*
X107597738Y-87429761D01*
X107635833Y-87467857D01*
X107712023Y-87505952D01*
X108016785Y-87505952D01*
X106873928Y-87886904D02*
X106873928Y-87467857D01*
X106912023Y-87391666D01*
X106988214Y-87353571D01*
X107140595Y-87353571D01*
X107216785Y-87391666D01*
X106873928Y-87848809D02*
X106950119Y-87886904D01*
X107140595Y-87886904D01*
X107216785Y-87848809D01*
X107254880Y-87772619D01*
X107254880Y-87696428D01*
X107216785Y-87620238D01*
X107140595Y-87582142D01*
X106950119Y-87582142D01*
X106873928Y-87544047D01*
X106607261Y-87353571D02*
X106302500Y-87353571D01*
X106492976Y-87086904D02*
X106492976Y-87772619D01*
X106454880Y-87848809D01*
X106378690Y-87886904D01*
X106302500Y-87886904D01*
X106035833Y-87886904D02*
X106035833Y-87353571D01*
X106035833Y-87505952D02*
X105997738Y-87429761D01*
X105959642Y-87391666D01*
X105883452Y-87353571D01*
X105807261Y-87353571D01*
X105540595Y-87886904D02*
X105540595Y-87353571D01*
X105540595Y-87086904D02*
X105578690Y-87125000D01*
X105540595Y-87163095D01*
X105502500Y-87125000D01*
X105540595Y-87086904D01*
X105540595Y-87163095D01*
X104816785Y-87848809D02*
X104892976Y-87886904D01*
X105045357Y-87886904D01*
X105121547Y-87848809D01*
X105159642Y-87810714D01*
X105197738Y-87734523D01*
X105197738Y-87505952D01*
X105159642Y-87429761D01*
X105121547Y-87391666D01*
X105045357Y-87353571D01*
X104892976Y-87353571D01*
X104816785Y-87391666D01*
X104473928Y-87886904D02*
X104473928Y-87086904D01*
X104397738Y-87582142D02*
X104169166Y-87886904D01*
X104169166Y-87353571D02*
X104473928Y-87658333D01*
X103559642Y-87467857D02*
X103445357Y-87505952D01*
X103407261Y-87544047D01*
X103369166Y-87620238D01*
X103369166Y-87734523D01*
X103407261Y-87810714D01*
X103445357Y-87848809D01*
X103521547Y-87886904D01*
X103826309Y-87886904D01*
X103826309Y-87086904D01*
X103559642Y-87086904D01*
X103483452Y-87125000D01*
X103445357Y-87163095D01*
X103407261Y-87239285D01*
X103407261Y-87315476D01*
X103445357Y-87391666D01*
X103483452Y-87429761D01*
X103559642Y-87467857D01*
X103826309Y-87467857D01*
X102683452Y-87886904D02*
X102683452Y-87467857D01*
X102721547Y-87391666D01*
X102797738Y-87353571D01*
X102950119Y-87353571D01*
X103026309Y-87391666D01*
X102683452Y-87848809D02*
X102759642Y-87886904D01*
X102950119Y-87886904D01*
X103026309Y-87848809D01*
X103064404Y-87772619D01*
X103064404Y-87696428D01*
X103026309Y-87620238D01*
X102950119Y-87582142D01*
X102759642Y-87582142D01*
X102683452Y-87544047D01*
X101959642Y-87353571D02*
X101959642Y-87886904D01*
X102302500Y-87353571D02*
X102302500Y-87772619D01*
X102264404Y-87848809D01*
X102188214Y-87886904D01*
X102073928Y-87886904D01*
X101997738Y-87848809D01*
X101959642Y-87810714D01*
X101616785Y-87848809D02*
X101540595Y-87886904D01*
X101388214Y-87886904D01*
X101312023Y-87848809D01*
X101273928Y-87772619D01*
X101273928Y-87734523D01*
X101312023Y-87658333D01*
X101388214Y-87620238D01*
X101502500Y-87620238D01*
X101578690Y-87582142D01*
X101616785Y-87505952D01*
X101616785Y-87467857D01*
X101578690Y-87391666D01*
X101502500Y-87353571D01*
X101388214Y-87353571D01*
X101312023Y-87391666D01*
D11*
X101880000Y-79300000D02*
X101880000Y-78300000D01*
X100520000Y-78300000D02*
X100520000Y-79300000D01*
X112100000Y-99120000D02*
X111100000Y-99120000D01*
X111100000Y-100480000D02*
X112100000Y-100480000D01*
X116500000Y-77600000D02*
X117200000Y-77600000D01*
X117200000Y-76400000D02*
X116500000Y-76400000D01*
X106950000Y-79050000D02*
X106950000Y-80050000D01*
X105250000Y-80050000D02*
X105250000Y-79050000D01*
X111780000Y-94560000D02*
X111780000Y-93100000D01*
X108620000Y-94560000D02*
X108620000Y-92400000D01*
X108620000Y-94560000D02*
X109550000Y-94560000D01*
X111780000Y-94560000D02*
X110850000Y-94560000D01*
X97900000Y-78300000D02*
X97900000Y-79700000D01*
X98600000Y-80400000D02*
X99200000Y-80400000D01*
X99900000Y-79700000D02*
X99900000Y-78300000D01*
X99200000Y-77600000D02*
X98600000Y-77600000D01*
X98600000Y-77600000D02*
G75*
G03X97900000Y-78300000I0J-700000D01*
G01*
X99900000Y-78300000D02*
G75*
G03X99200000Y-77600000I-700000J0D01*
G01*
X99200000Y-80400000D02*
G75*
G03X99900000Y-79700000I0J700000D01*
G01*
X97900000Y-79700000D02*
G75*
G03X98600000Y-80400000I700000J0D01*
G01*
X91600000Y-91700000D02*
G75*
G03X90900000Y-92400000I0J-700000D01*
G01*
X90900000Y-93000000D02*
G75*
G03X91600000Y-93700000I700000J0D01*
G01*
X93000000Y-93700000D02*
G75*
G03X93700000Y-93000000I0J700000D01*
G01*
X93700000Y-92400000D02*
G75*
G03X93000000Y-91700000I-700000J0D01*
G01*
X93700000Y-93000000D02*
X93700000Y-92400000D01*
X91600000Y-93700000D02*
X93000000Y-93700000D01*
X90900000Y-92400000D02*
X90900000Y-93000000D01*
X93000000Y-91700000D02*
X91600000Y-91700000D01*
D12*
G36*
X97036640Y-88252468D02*
X97001408Y-88269874D01*
X96957960Y-88300206D01*
X96926294Y-88333283D01*
X96904606Y-88374817D01*
X96891097Y-88430522D01*
X96883962Y-88506111D01*
X96881400Y-88607296D01*
X96881250Y-88650797D01*
X96881688Y-88746135D01*
X96883504Y-88814271D01*
X96887455Y-88861418D01*
X96894298Y-88893790D01*
X96904789Y-88917600D01*
X96915704Y-88933843D01*
X96985381Y-89002952D01*
X97067434Y-89044521D01*
X97155950Y-89057023D01*
X97245019Y-89038934D01*
X97273237Y-89026142D01*
X97340790Y-88990931D01*
X97340790Y-89542700D01*
X97291488Y-89517205D01*
X97226527Y-89497480D01*
X97146680Y-89492427D01*
X97066948Y-89501756D01*
X97006735Y-89522714D01*
X96956792Y-89562627D01*
X96914119Y-89619741D01*
X96910910Y-89625605D01*
X96897378Y-89653227D01*
X96887495Y-89681068D01*
X96880691Y-89714794D01*
X96876399Y-89760071D01*
X96874049Y-89822562D01*
X96873072Y-89907935D01*
X96872895Y-90004010D01*
X96872895Y-90310526D01*
X97056711Y-90310526D01*
X97056711Y-89745339D01*
X97108125Y-89702077D01*
X97161534Y-89667472D01*
X97212112Y-89661180D01*
X97262970Y-89677372D01*
X97290075Y-89693227D01*
X97310249Y-89715810D01*
X97324597Y-89749940D01*
X97334224Y-89800434D01*
X97340237Y-89872111D01*
X97343740Y-89969788D01*
X97344974Y-90034802D01*
X97349145Y-90302171D01*
X97436875Y-90307222D01*
X97524606Y-90312273D01*
X97524606Y-88653101D01*
X97340790Y-88653101D01*
X97336104Y-88745600D01*
X97320312Y-88809809D01*
X97290817Y-88849759D01*
X97245020Y-88869480D01*
X97198750Y-88873421D01*
X97146372Y-88868892D01*
X97111610Y-88851069D01*
X97089872Y-88827519D01*
X97072760Y-88802189D01*
X97062573Y-88773969D01*
X97058040Y-88734431D01*
X97057891Y-88675142D01*
X97059416Y-88625498D01*
X97062919Y-88550710D01*
X97068133Y-88501611D01*
X97076913Y-88470467D01*
X97091114Y-88449545D01*
X97104516Y-88437452D01*
X97160513Y-88411081D01*
X97226789Y-88406822D01*
X97264844Y-88415906D01*
X97302523Y-88448196D01*
X97327481Y-88511006D01*
X97339578Y-88603894D01*
X97340790Y-88653101D01*
X97524606Y-88653101D01*
X97524606Y-88238421D01*
X97432698Y-88238421D01*
X97377517Y-88240603D01*
X97349048Y-88248351D01*
X97340794Y-88263468D01*
X97340790Y-88263916D01*
X97336960Y-88278720D01*
X97320067Y-88277039D01*
X97286481Y-88260772D01*
X97208222Y-88235887D01*
X97120173Y-88233271D01*
X97036640Y-88252468D01*
X97036640Y-88252468D01*
G37*
X97036640Y-88252468D02*
X97001408Y-88269874D01*
X96957960Y-88300206D01*
X96926294Y-88333283D01*
X96904606Y-88374817D01*
X96891097Y-88430522D01*
X96883962Y-88506111D01*
X96881400Y-88607296D01*
X96881250Y-88650797D01*
X96881688Y-88746135D01*
X96883504Y-88814271D01*
X96887455Y-88861418D01*
X96894298Y-88893790D01*
X96904789Y-88917600D01*
X96915704Y-88933843D01*
X96985381Y-89002952D01*
X97067434Y-89044521D01*
X97155950Y-89057023D01*
X97245019Y-89038934D01*
X97273237Y-89026142D01*
X97340790Y-88990931D01*
X97340790Y-89542700D01*
X97291488Y-89517205D01*
X97226527Y-89497480D01*
X97146680Y-89492427D01*
X97066948Y-89501756D01*
X97006735Y-89522714D01*
X96956792Y-89562627D01*
X96914119Y-89619741D01*
X96910910Y-89625605D01*
X96897378Y-89653227D01*
X96887495Y-89681068D01*
X96880691Y-89714794D01*
X96876399Y-89760071D01*
X96874049Y-89822562D01*
X96873072Y-89907935D01*
X96872895Y-90004010D01*
X96872895Y-90310526D01*
X97056711Y-90310526D01*
X97056711Y-89745339D01*
X97108125Y-89702077D01*
X97161534Y-89667472D01*
X97212112Y-89661180D01*
X97262970Y-89677372D01*
X97290075Y-89693227D01*
X97310249Y-89715810D01*
X97324597Y-89749940D01*
X97334224Y-89800434D01*
X97340237Y-89872111D01*
X97343740Y-89969788D01*
X97344974Y-90034802D01*
X97349145Y-90302171D01*
X97436875Y-90307222D01*
X97524606Y-90312273D01*
X97524606Y-88653101D01*
X97340790Y-88653101D01*
X97336104Y-88745600D01*
X97320312Y-88809809D01*
X97290817Y-88849759D01*
X97245020Y-88869480D01*
X97198750Y-88873421D01*
X97146372Y-88868892D01*
X97111610Y-88851069D01*
X97089872Y-88827519D01*
X97072760Y-88802189D01*
X97062573Y-88773969D01*
X97058040Y-88734431D01*
X97057891Y-88675142D01*
X97059416Y-88625498D01*
X97062919Y-88550710D01*
X97068133Y-88501611D01*
X97076913Y-88470467D01*
X97091114Y-88449545D01*
X97104516Y-88437452D01*
X97160513Y-88411081D01*
X97226789Y-88406822D01*
X97264844Y-88415906D01*
X97302523Y-88448196D01*
X97327481Y-88511006D01*
X97339578Y-88603894D01*
X97340790Y-88653101D01*
X97524606Y-88653101D01*
X97524606Y-88238421D01*
X97432698Y-88238421D01*
X97377517Y-88240603D01*
X97349048Y-88248351D01*
X97340794Y-88263468D01*
X97340790Y-88263916D01*
X97336960Y-88278720D01*
X97320067Y-88277039D01*
X97286481Y-88260772D01*
X97208222Y-88235887D01*
X97120173Y-88233271D01*
X97036640Y-88252468D01*
G36*
X96339543Y-89498184D02*
X96260930Y-89519160D01*
X96201084Y-89557180D01*
X96158853Y-89606978D01*
X96145725Y-89628230D01*
X96136032Y-89650492D01*
X96129256Y-89678970D01*
X96124877Y-89718871D01*
X96122376Y-89775401D01*
X96121232Y-89853767D01*
X96120928Y-89959176D01*
X96120922Y-89987142D01*
X96120922Y-90310526D01*
X96201132Y-90310526D01*
X96252294Y-90306943D01*
X96290123Y-90297866D01*
X96299601Y-90292268D01*
X96325512Y-90282606D01*
X96351976Y-90292268D01*
X96395548Y-90304330D01*
X96458840Y-90309185D01*
X96528990Y-90307078D01*
X96593140Y-90298256D01*
X96630593Y-90286937D01*
X96703067Y-90240412D01*
X96748360Y-90175846D01*
X96768722Y-90090000D01*
X96768912Y-90087796D01*
X96767125Y-90049713D01*
X96605527Y-90049713D01*
X96591399Y-90093030D01*
X96568388Y-90117408D01*
X96522196Y-90135845D01*
X96461225Y-90143205D01*
X96399051Y-90139583D01*
X96349249Y-90125074D01*
X96335297Y-90115765D01*
X96310915Y-90072753D01*
X96304737Y-90023857D01*
X96304737Y-89959605D01*
X96397182Y-89959605D01*
X96485005Y-89966366D01*
X96551582Y-89985520D01*
X96592998Y-90015376D01*
X96605527Y-90049713D01*
X96767125Y-90049713D01*
X96764510Y-89994004D01*
X96733576Y-89919847D01*
X96675419Y-89863767D01*
X96667380Y-89858665D01*
X96632837Y-89842055D01*
X96590082Y-89831996D01*
X96530314Y-89827107D01*
X96459310Y-89825983D01*
X96304737Y-89825921D01*
X96304737Y-89761125D01*
X96311294Y-89710850D01*
X96328025Y-89677169D01*
X96329984Y-89675376D01*
X96367217Y-89660642D01*
X96423420Y-89654931D01*
X96485533Y-89657737D01*
X96540490Y-89668556D01*
X96573101Y-89684782D01*
X96590772Y-89697780D01*
X96609431Y-89700262D01*
X96635181Y-89689613D01*
X96674127Y-89663218D01*
X96732370Y-89618465D01*
X96737716Y-89614273D01*
X96734977Y-89598760D01*
X96712124Y-89572960D01*
X96677391Y-89544289D01*
X96639010Y-89520166D01*
X96626952Y-89514470D01*
X96582966Y-89503103D01*
X96518513Y-89494995D01*
X96446503Y-89491743D01*
X96443136Y-89491736D01*
X96339543Y-89498184D01*
X96339543Y-89498184D01*
G37*
X96339543Y-89498184D02*
X96260930Y-89519160D01*
X96201084Y-89557180D01*
X96158853Y-89606978D01*
X96145725Y-89628230D01*
X96136032Y-89650492D01*
X96129256Y-89678970D01*
X96124877Y-89718871D01*
X96122376Y-89775401D01*
X96121232Y-89853767D01*
X96120928Y-89959176D01*
X96120922Y-89987142D01*
X96120922Y-90310526D01*
X96201132Y-90310526D01*
X96252294Y-90306943D01*
X96290123Y-90297866D01*
X96299601Y-90292268D01*
X96325512Y-90282606D01*
X96351976Y-90292268D01*
X96395548Y-90304330D01*
X96458840Y-90309185D01*
X96528990Y-90307078D01*
X96593140Y-90298256D01*
X96630593Y-90286937D01*
X96703067Y-90240412D01*
X96748360Y-90175846D01*
X96768722Y-90090000D01*
X96768912Y-90087796D01*
X96767125Y-90049713D01*
X96605527Y-90049713D01*
X96591399Y-90093030D01*
X96568388Y-90117408D01*
X96522196Y-90135845D01*
X96461225Y-90143205D01*
X96399051Y-90139583D01*
X96349249Y-90125074D01*
X96335297Y-90115765D01*
X96310915Y-90072753D01*
X96304737Y-90023857D01*
X96304737Y-89959605D01*
X96397182Y-89959605D01*
X96485005Y-89966366D01*
X96551582Y-89985520D01*
X96592998Y-90015376D01*
X96605527Y-90049713D01*
X96767125Y-90049713D01*
X96764510Y-89994004D01*
X96733576Y-89919847D01*
X96675419Y-89863767D01*
X96667380Y-89858665D01*
X96632837Y-89842055D01*
X96590082Y-89831996D01*
X96530314Y-89827107D01*
X96459310Y-89825983D01*
X96304737Y-89825921D01*
X96304737Y-89761125D01*
X96311294Y-89710850D01*
X96328025Y-89677169D01*
X96329984Y-89675376D01*
X96367217Y-89660642D01*
X96423420Y-89654931D01*
X96485533Y-89657737D01*
X96540490Y-89668556D01*
X96573101Y-89684782D01*
X96590772Y-89697780D01*
X96609431Y-89700262D01*
X96635181Y-89689613D01*
X96674127Y-89663218D01*
X96732370Y-89618465D01*
X96737716Y-89614273D01*
X96734977Y-89598760D01*
X96712124Y-89572960D01*
X96677391Y-89544289D01*
X96639010Y-89520166D01*
X96626952Y-89514470D01*
X96582966Y-89503103D01*
X96518513Y-89494995D01*
X96446503Y-89491743D01*
X96443136Y-89491736D01*
X96339543Y-89498184D01*
G36*
X95820119Y-89493486D02*
X95795112Y-89500982D01*
X95787050Y-89517451D01*
X95786711Y-89524886D01*
X95785264Y-89545594D01*
X95775302Y-89548845D01*
X95748388Y-89534648D01*
X95732402Y-89524948D01*
X95681967Y-89504175D01*
X95621728Y-89493904D01*
X95558566Y-89493114D01*
X95499363Y-89500786D01*
X95450998Y-89515898D01*
X95420354Y-89537432D01*
X95414311Y-89564366D01*
X95417361Y-89571660D01*
X95439594Y-89601937D01*
X95474070Y-89639175D01*
X95480306Y-89645195D01*
X95513167Y-89672875D01*
X95541520Y-89681818D01*
X95581173Y-89675576D01*
X95597058Y-89671429D01*
X95646491Y-89661467D01*
X95681248Y-89665947D01*
X95710600Y-89681746D01*
X95737487Y-89702949D01*
X95757290Y-89729614D01*
X95771052Y-89766827D01*
X95779816Y-89819673D01*
X95784626Y-89893237D01*
X95786526Y-89992605D01*
X95786711Y-90052601D01*
X95786711Y-90310526D01*
X95953816Y-90310526D01*
X95953816Y-89491710D01*
X95870264Y-89491710D01*
X95820119Y-89493486D01*
X95820119Y-89493486D01*
G37*
X95820119Y-89493486D02*
X95795112Y-89500982D01*
X95787050Y-89517451D01*
X95786711Y-89524886D01*
X95785264Y-89545594D01*
X95775302Y-89548845D01*
X95748388Y-89534648D01*
X95732402Y-89524948D01*
X95681967Y-89504175D01*
X95621728Y-89493904D01*
X95558566Y-89493114D01*
X95499363Y-89500786D01*
X95450998Y-89515898D01*
X95420354Y-89537432D01*
X95414311Y-89564366D01*
X95417361Y-89571660D01*
X95439594Y-89601937D01*
X95474070Y-89639175D01*
X95480306Y-89645195D01*
X95513167Y-89672875D01*
X95541520Y-89681818D01*
X95581173Y-89675576D01*
X95597058Y-89671429D01*
X95646491Y-89661467D01*
X95681248Y-89665947D01*
X95710600Y-89681746D01*
X95737487Y-89702949D01*
X95757290Y-89729614D01*
X95771052Y-89766827D01*
X95779816Y-89819673D01*
X95784626Y-89893237D01*
X95786526Y-89992605D01*
X95786711Y-90052601D01*
X95786711Y-90310526D01*
X95953816Y-90310526D01*
X95953816Y-89491710D01*
X95870264Y-89491710D01*
X95820119Y-89493486D01*
G36*
X94767369Y-90310526D02*
X94859277Y-90310526D01*
X94912623Y-90308962D01*
X94940407Y-90302485D01*
X94950410Y-90288418D01*
X94951185Y-90278906D01*
X94952872Y-90259832D01*
X94963510Y-90256174D01*
X94991465Y-90267932D01*
X95013205Y-90278906D01*
X95096668Y-90304911D01*
X95187396Y-90306416D01*
X95261158Y-90287021D01*
X95329846Y-90240165D01*
X95382206Y-90171004D01*
X95410878Y-90089427D01*
X95411608Y-90084866D01*
X95415868Y-90035101D01*
X95417986Y-89963659D01*
X95417816Y-89909626D01*
X95235280Y-89909626D01*
X95231051Y-89981441D01*
X95221432Y-90040634D01*
X95208410Y-90074060D01*
X95159144Y-90119740D01*
X95100650Y-90136115D01*
X95040329Y-90122873D01*
X94988783Y-90083373D01*
X94969262Y-90056807D01*
X94957848Y-90025106D01*
X94952502Y-89978832D01*
X94951185Y-89909328D01*
X94953542Y-89840499D01*
X94959767Y-89780026D01*
X94968592Y-89739556D01*
X94970063Y-89735929D01*
X95005653Y-89692802D01*
X95057600Y-89669124D01*
X95115722Y-89665301D01*
X95169840Y-89681738D01*
X95209774Y-89718840D01*
X95213917Y-89726222D01*
X95226884Y-89771239D01*
X95233948Y-89835967D01*
X95235280Y-89909626D01*
X95417816Y-89909626D01*
X95417729Y-89882230D01*
X95416528Y-89838405D01*
X95408355Y-89729988D01*
X95391370Y-89648588D01*
X95363113Y-89588412D01*
X95321128Y-89543666D01*
X95280368Y-89517400D01*
X95223419Y-89498935D01*
X95152589Y-89492602D01*
X95080059Y-89497760D01*
X95018014Y-89513769D01*
X94985232Y-89532920D01*
X94951185Y-89563732D01*
X94951185Y-89174210D01*
X94767369Y-89174210D01*
X94767369Y-90310526D01*
X94767369Y-90310526D01*
G37*
X94767369Y-90310526D02*
X94859277Y-90310526D01*
X94912623Y-90308962D01*
X94940407Y-90302485D01*
X94950410Y-90288418D01*
X94951185Y-90278906D01*
X94952872Y-90259832D01*
X94963510Y-90256174D01*
X94991465Y-90267932D01*
X95013205Y-90278906D01*
X95096668Y-90304911D01*
X95187396Y-90306416D01*
X95261158Y-90287021D01*
X95329846Y-90240165D01*
X95382206Y-90171004D01*
X95410878Y-90089427D01*
X95411608Y-90084866D01*
X95415868Y-90035101D01*
X95417986Y-89963659D01*
X95417816Y-89909626D01*
X95235280Y-89909626D01*
X95231051Y-89981441D01*
X95221432Y-90040634D01*
X95208410Y-90074060D01*
X95159144Y-90119740D01*
X95100650Y-90136115D01*
X95040329Y-90122873D01*
X94988783Y-90083373D01*
X94969262Y-90056807D01*
X94957848Y-90025106D01*
X94952502Y-89978832D01*
X94951185Y-89909328D01*
X94953542Y-89840499D01*
X94959767Y-89780026D01*
X94968592Y-89739556D01*
X94970063Y-89735929D01*
X95005653Y-89692802D01*
X95057600Y-89669124D01*
X95115722Y-89665301D01*
X95169840Y-89681738D01*
X95209774Y-89718840D01*
X95213917Y-89726222D01*
X95226884Y-89771239D01*
X95233948Y-89835967D01*
X95235280Y-89909626D01*
X95417816Y-89909626D01*
X95417729Y-89882230D01*
X95416528Y-89838405D01*
X95408355Y-89729988D01*
X95391370Y-89648588D01*
X95363113Y-89588412D01*
X95321128Y-89543666D01*
X95280368Y-89517400D01*
X95223419Y-89498935D01*
X95152589Y-89492602D01*
X95080059Y-89497760D01*
X95018014Y-89513769D01*
X94985232Y-89532920D01*
X94951185Y-89563732D01*
X94951185Y-89174210D01*
X94767369Y-89174210D01*
X94767369Y-90310526D01*
G36*
X94125870Y-89495104D02*
X94059780Y-89500066D01*
X93973374Y-89759079D01*
X93886969Y-90018092D01*
X93859876Y-89926184D01*
X93843572Y-89869384D01*
X93822125Y-89792625D01*
X93798965Y-89708251D01*
X93786720Y-89662993D01*
X93740656Y-89491710D01*
X93550613Y-89491710D01*
X93607418Y-89671349D01*
X93635393Y-89759704D01*
X93669187Y-89866281D01*
X93704480Y-89977454D01*
X93735987Y-90076579D01*
X93807750Y-90302171D01*
X93962714Y-90312253D01*
X94004730Y-90173528D01*
X94030641Y-90087351D01*
X94058917Y-89992347D01*
X94083631Y-89908441D01*
X94084606Y-89905102D01*
X94103065Y-89848248D01*
X94119351Y-89809456D01*
X94130758Y-89794787D01*
X94133102Y-89796483D01*
X94141329Y-89819225D01*
X94156962Y-89867940D01*
X94178096Y-89936502D01*
X94202830Y-90018785D01*
X94216213Y-90064046D01*
X94288689Y-90310526D01*
X94442505Y-90310526D01*
X94565469Y-89922006D01*
X94600012Y-89813022D01*
X94631479Y-89714048D01*
X94658384Y-89629736D01*
X94679241Y-89564734D01*
X94692562Y-89523692D01*
X94696612Y-89511701D01*
X94693406Y-89499423D01*
X94668235Y-89494046D01*
X94615854Y-89494584D01*
X94607655Y-89494990D01*
X94510518Y-89500066D01*
X94446900Y-89734013D01*
X94423516Y-89819333D01*
X94402619Y-89894335D01*
X94386049Y-89952507D01*
X94375646Y-89987337D01*
X94373724Y-89993016D01*
X94365759Y-89986486D01*
X94349696Y-89952654D01*
X94327379Y-89896127D01*
X94300655Y-89821510D01*
X94278063Y-89754107D01*
X94191959Y-89490143D01*
X94125870Y-89495104D01*
X94125870Y-89495104D01*
G37*
X94125870Y-89495104D02*
X94059780Y-89500066D01*
X93973374Y-89759079D01*
X93886969Y-90018092D01*
X93859876Y-89926184D01*
X93843572Y-89869384D01*
X93822125Y-89792625D01*
X93798965Y-89708251D01*
X93786720Y-89662993D01*
X93740656Y-89491710D01*
X93550613Y-89491710D01*
X93607418Y-89671349D01*
X93635393Y-89759704D01*
X93669187Y-89866281D01*
X93704480Y-89977454D01*
X93735987Y-90076579D01*
X93807750Y-90302171D01*
X93962714Y-90312253D01*
X94004730Y-90173528D01*
X94030641Y-90087351D01*
X94058917Y-89992347D01*
X94083631Y-89908441D01*
X94084606Y-89905102D01*
X94103065Y-89848248D01*
X94119351Y-89809456D01*
X94130758Y-89794787D01*
X94133102Y-89796483D01*
X94141329Y-89819225D01*
X94156962Y-89867940D01*
X94178096Y-89936502D01*
X94202830Y-90018785D01*
X94216213Y-90064046D01*
X94288689Y-90310526D01*
X94442505Y-90310526D01*
X94565469Y-89922006D01*
X94600012Y-89813022D01*
X94631479Y-89714048D01*
X94658384Y-89629736D01*
X94679241Y-89564734D01*
X94692562Y-89523692D01*
X94696612Y-89511701D01*
X94693406Y-89499423D01*
X94668235Y-89494046D01*
X94615854Y-89494584D01*
X94607655Y-89494990D01*
X94510518Y-89500066D01*
X94446900Y-89734013D01*
X94423516Y-89819333D01*
X94402619Y-89894335D01*
X94386049Y-89952507D01*
X94375646Y-89987337D01*
X94373724Y-89993016D01*
X94365759Y-89986486D01*
X94349696Y-89952654D01*
X94327379Y-89896127D01*
X94300655Y-89821510D01*
X94278063Y-89754107D01*
X94191959Y-89490143D01*
X94125870Y-89495104D01*
G36*
X93120008Y-89496673D02*
X93049573Y-89513780D01*
X93029213Y-89522844D01*
X92989747Y-89546583D01*
X92959459Y-89573321D01*
X92937048Y-89607699D01*
X92921214Y-89654360D01*
X92910657Y-89717946D01*
X92904076Y-89803099D01*
X92900172Y-89914462D01*
X92898690Y-89988849D01*
X92893235Y-90310526D01*
X92986420Y-90310526D01*
X93042953Y-90308156D01*
X93072078Y-90300055D01*
X93079606Y-90286451D01*
X93083580Y-90271741D01*
X93101348Y-90274554D01*
X93125560Y-90286348D01*
X93186172Y-90304427D01*
X93264071Y-90309299D01*
X93346005Y-90301330D01*
X93418719Y-90280889D01*
X93425241Y-90278051D01*
X93491698Y-90231365D01*
X93535509Y-90166464D01*
X93555668Y-90090600D01*
X93554128Y-90063344D01*
X93389655Y-90063344D01*
X93375163Y-90100024D01*
X93332195Y-90126309D01*
X93262871Y-90140417D01*
X93225823Y-90142290D01*
X93164081Y-90137494D01*
X93123040Y-90118858D01*
X93113027Y-90110000D01*
X93085900Y-90061806D01*
X93079606Y-90018092D01*
X93079606Y-89959605D01*
X93161070Y-89959605D01*
X93255766Y-89964432D01*
X93322187Y-89979613D01*
X93364154Y-90006200D01*
X93373551Y-90018052D01*
X93389655Y-90063344D01*
X93554128Y-90063344D01*
X93551171Y-90011026D01*
X93521015Y-89934995D01*
X93479869Y-89883612D01*
X93454948Y-89861397D01*
X93430552Y-89846798D01*
X93398809Y-89837897D01*
X93351848Y-89832775D01*
X93281796Y-89829515D01*
X93254010Y-89828577D01*
X93079606Y-89822879D01*
X93079862Y-89770091D01*
X93086616Y-89714603D01*
X93111036Y-89681052D01*
X93160370Y-89659618D01*
X93161694Y-89659236D01*
X93231640Y-89650808D01*
X93300086Y-89661816D01*
X93350953Y-89688585D01*
X93371363Y-89701803D01*
X93393346Y-89699974D01*
X93427174Y-89680824D01*
X93447039Y-89667308D01*
X93485894Y-89638432D01*
X93509962Y-89616786D01*
X93513824Y-89610589D01*
X93497921Y-89578519D01*
X93450935Y-89540219D01*
X93430527Y-89527297D01*
X93371857Y-89505041D01*
X93292788Y-89492432D01*
X93204959Y-89489600D01*
X93120008Y-89496673D01*
X93120008Y-89496673D01*
G37*
X93120008Y-89496673D02*
X93049573Y-89513780D01*
X93029213Y-89522844D01*
X92989747Y-89546583D01*
X92959459Y-89573321D01*
X92937048Y-89607699D01*
X92921214Y-89654360D01*
X92910657Y-89717946D01*
X92904076Y-89803099D01*
X92900172Y-89914462D01*
X92898690Y-89988849D01*
X92893235Y-90310526D01*
X92986420Y-90310526D01*
X93042953Y-90308156D01*
X93072078Y-90300055D01*
X93079606Y-90286451D01*
X93083580Y-90271741D01*
X93101348Y-90274554D01*
X93125560Y-90286348D01*
X93186172Y-90304427D01*
X93264071Y-90309299D01*
X93346005Y-90301330D01*
X93418719Y-90280889D01*
X93425241Y-90278051D01*
X93491698Y-90231365D01*
X93535509Y-90166464D01*
X93555668Y-90090600D01*
X93554128Y-90063344D01*
X93389655Y-90063344D01*
X93375163Y-90100024D01*
X93332195Y-90126309D01*
X93262871Y-90140417D01*
X93225823Y-90142290D01*
X93164081Y-90137494D01*
X93123040Y-90118858D01*
X93113027Y-90110000D01*
X93085900Y-90061806D01*
X93079606Y-90018092D01*
X93079606Y-89959605D01*
X93161070Y-89959605D01*
X93255766Y-89964432D01*
X93322187Y-89979613D01*
X93364154Y-90006200D01*
X93373551Y-90018052D01*
X93389655Y-90063344D01*
X93554128Y-90063344D01*
X93551171Y-90011026D01*
X93521015Y-89934995D01*
X93479869Y-89883612D01*
X93454948Y-89861397D01*
X93430552Y-89846798D01*
X93398809Y-89837897D01*
X93351848Y-89832775D01*
X93281796Y-89829515D01*
X93254010Y-89828577D01*
X93079606Y-89822879D01*
X93079862Y-89770091D01*
X93086616Y-89714603D01*
X93111036Y-89681052D01*
X93160370Y-89659618D01*
X93161694Y-89659236D01*
X93231640Y-89650808D01*
X93300086Y-89661816D01*
X93350953Y-89688585D01*
X93371363Y-89701803D01*
X93393346Y-89699974D01*
X93427174Y-89680824D01*
X93447039Y-89667308D01*
X93485894Y-89638432D01*
X93509962Y-89616786D01*
X93513824Y-89610589D01*
X93497921Y-89578519D01*
X93450935Y-89540219D01*
X93430527Y-89527297D01*
X93371857Y-89505041D01*
X93292788Y-89492432D01*
X93204959Y-89489600D01*
X93120008Y-89496673D01*
G36*
X92326833Y-89491447D02*
X92262592Y-89504112D01*
X92226020Y-89522864D01*
X92187547Y-89554017D01*
X92242283Y-89623127D01*
X92276031Y-89664979D01*
X92298947Y-89685398D01*
X92321721Y-89688517D01*
X92355044Y-89678472D01*
X92370686Y-89672789D01*
X92434458Y-89664404D01*
X92492860Y-89682378D01*
X92535736Y-89722982D01*
X92542701Y-89735929D01*
X92550287Y-89770224D01*
X92556141Y-89833427D01*
X92559989Y-89921060D01*
X92561557Y-90028640D01*
X92561579Y-90043944D01*
X92561579Y-90310526D01*
X92745395Y-90310526D01*
X92745395Y-89491710D01*
X92653487Y-89491710D01*
X92600493Y-89493094D01*
X92572885Y-89499252D01*
X92562676Y-89513194D01*
X92561579Y-89526344D01*
X92561579Y-89560978D01*
X92517550Y-89526344D01*
X92467063Y-89502716D01*
X92399240Y-89491033D01*
X92326833Y-89491447D01*
X92326833Y-89491447D01*
G37*
X92326833Y-89491447D02*
X92262592Y-89504112D01*
X92226020Y-89522864D01*
X92187547Y-89554017D01*
X92242283Y-89623127D01*
X92276031Y-89664979D01*
X92298947Y-89685398D01*
X92321721Y-89688517D01*
X92355044Y-89678472D01*
X92370686Y-89672789D01*
X92434458Y-89664404D01*
X92492860Y-89682378D01*
X92535736Y-89722982D01*
X92542701Y-89735929D01*
X92550287Y-89770224D01*
X92556141Y-89833427D01*
X92559989Y-89921060D01*
X92561557Y-90028640D01*
X92561579Y-90043944D01*
X92561579Y-90310526D01*
X92745395Y-90310526D01*
X92745395Y-89491710D01*
X92653487Y-89491710D01*
X92600493Y-89493094D01*
X92572885Y-89499252D01*
X92562676Y-89513194D01*
X92561579Y-89526344D01*
X92561579Y-89560978D01*
X92517550Y-89526344D01*
X92467063Y-89502716D01*
X92399240Y-89491033D01*
X92326833Y-89491447D01*
G36*
X91798807Y-89496078D02*
X91718932Y-89516845D01*
X91652038Y-89559705D01*
X91619649Y-89591723D01*
X91566555Y-89667413D01*
X91536127Y-89755216D01*
X91525673Y-89863150D01*
X91525620Y-89871875D01*
X91525527Y-89959605D01*
X92030466Y-89959605D01*
X92019702Y-90005559D01*
X92000268Y-90047178D01*
X91966255Y-90090544D01*
X91959140Y-90097467D01*
X91897997Y-90134935D01*
X91828271Y-90141289D01*
X91748013Y-90116638D01*
X91734408Y-90110000D01*
X91692681Y-90089819D01*
X91664732Y-90078321D01*
X91659855Y-90077258D01*
X91642832Y-90087583D01*
X91610367Y-90112845D01*
X91593886Y-90126650D01*
X91559736Y-90158361D01*
X91548522Y-90179299D01*
X91556305Y-90198560D01*
X91560465Y-90203827D01*
X91588643Y-90226878D01*
X91635138Y-90254892D01*
X91667566Y-90271246D01*
X91759615Y-90300059D01*
X91861524Y-90309395D01*
X91958037Y-90298332D01*
X91985066Y-90290412D01*
X92068724Y-90245581D01*
X92130734Y-90176598D01*
X92171455Y-90082794D01*
X92191245Y-89963498D01*
X92193418Y-89901118D01*
X92187074Y-89810298D01*
X92026843Y-89810298D01*
X92011345Y-89817012D01*
X91969688Y-89822280D01*
X91909124Y-89825389D01*
X91868093Y-89825921D01*
X91794289Y-89825408D01*
X91747707Y-89823006D01*
X91722152Y-89817422D01*
X91711431Y-89807361D01*
X91709343Y-89792763D01*
X91723669Y-89747796D01*
X91759738Y-89703353D01*
X91807185Y-89669242D01*
X91854651Y-89655288D01*
X91919121Y-89667666D01*
X91974930Y-89703452D01*
X92013626Y-89755033D01*
X92026843Y-89810298D01*
X92187074Y-89810298D01*
X92184179Y-89768866D01*
X92155664Y-89663498D01*
X92107271Y-89584178D01*
X92038396Y-89530071D01*
X91948435Y-89500343D01*
X91899700Y-89494618D01*
X91798807Y-89496078D01*
X91798807Y-89496078D01*
G37*
X91798807Y-89496078D02*
X91718932Y-89516845D01*
X91652038Y-89559705D01*
X91619649Y-89591723D01*
X91566555Y-89667413D01*
X91536127Y-89755216D01*
X91525673Y-89863150D01*
X91525620Y-89871875D01*
X91525527Y-89959605D01*
X92030466Y-89959605D01*
X92019702Y-90005559D01*
X92000268Y-90047178D01*
X91966255Y-90090544D01*
X91959140Y-90097467D01*
X91897997Y-90134935D01*
X91828271Y-90141289D01*
X91748013Y-90116638D01*
X91734408Y-90110000D01*
X91692681Y-90089819D01*
X91664732Y-90078321D01*
X91659855Y-90077258D01*
X91642832Y-90087583D01*
X91610367Y-90112845D01*
X91593886Y-90126650D01*
X91559736Y-90158361D01*
X91548522Y-90179299D01*
X91556305Y-90198560D01*
X91560465Y-90203827D01*
X91588643Y-90226878D01*
X91635138Y-90254892D01*
X91667566Y-90271246D01*
X91759615Y-90300059D01*
X91861524Y-90309395D01*
X91958037Y-90298332D01*
X91985066Y-90290412D01*
X92068724Y-90245581D01*
X92130734Y-90176598D01*
X92171455Y-90082794D01*
X92191245Y-89963498D01*
X92193418Y-89901118D01*
X92187074Y-89810298D01*
X92026843Y-89810298D01*
X92011345Y-89817012D01*
X91969688Y-89822280D01*
X91909124Y-89825389D01*
X91868093Y-89825921D01*
X91794289Y-89825408D01*
X91747707Y-89823006D01*
X91722152Y-89817422D01*
X91711431Y-89807361D01*
X91709343Y-89792763D01*
X91723669Y-89747796D01*
X91759738Y-89703353D01*
X91807185Y-89669242D01*
X91854651Y-89655288D01*
X91919121Y-89667666D01*
X91974930Y-89703452D01*
X92013626Y-89755033D01*
X92026843Y-89810298D01*
X92187074Y-89810298D01*
X92184179Y-89768866D01*
X92155664Y-89663498D01*
X92107271Y-89584178D01*
X92038396Y-89530071D01*
X91948435Y-89500343D01*
X91899700Y-89494618D01*
X91798807Y-89496078D01*
G36*
X97873216Y-88247104D02*
X97785795Y-88285754D01*
X97719430Y-88350290D01*
X97674024Y-88440812D01*
X97649482Y-88557418D01*
X97647723Y-88575624D01*
X97646344Y-88703984D01*
X97664216Y-88816496D01*
X97700250Y-88907688D01*
X97719545Y-88937022D01*
X97786755Y-88999106D01*
X97872350Y-89039316D01*
X97968110Y-89056003D01*
X98065813Y-89047517D01*
X98140083Y-89021380D01*
X98203953Y-88977335D01*
X98256154Y-88919587D01*
X98257057Y-88918236D01*
X98278256Y-88882593D01*
X98292033Y-88846752D01*
X98300376Y-88801519D01*
X98305273Y-88737701D01*
X98307431Y-88685368D01*
X98308329Y-88637910D01*
X98141257Y-88637910D01*
X98139624Y-88685154D01*
X98133696Y-88748046D01*
X98123239Y-88788407D01*
X98104381Y-88817122D01*
X98086719Y-88833896D01*
X98024106Y-88869016D01*
X97958592Y-88873710D01*
X97897579Y-88848440D01*
X97867072Y-88820124D01*
X97845089Y-88791589D01*
X97832231Y-88764284D01*
X97826588Y-88728750D01*
X97826249Y-88675524D01*
X97827988Y-88626506D01*
X97831729Y-88556482D01*
X97837659Y-88511064D01*
X97848347Y-88481440D01*
X97866361Y-88458797D01*
X97880637Y-88445855D01*
X97940349Y-88411860D01*
X98004766Y-88410165D01*
X98058781Y-88430301D01*
X98104860Y-88472352D01*
X98132311Y-88541428D01*
X98141257Y-88637910D01*
X98308329Y-88637910D01*
X98309401Y-88581299D01*
X98306036Y-88503468D01*
X98295955Y-88444930D01*
X98277774Y-88398737D01*
X98250110Y-88357942D01*
X98239854Y-88345828D01*
X98175722Y-88285474D01*
X98106934Y-88250220D01*
X98022811Y-88235450D01*
X97981791Y-88234243D01*
X97873216Y-88247104D01*
X97873216Y-88247104D01*
G37*
X97873216Y-88247104D02*
X97785795Y-88285754D01*
X97719430Y-88350290D01*
X97674024Y-88440812D01*
X97649482Y-88557418D01*
X97647723Y-88575624D01*
X97646344Y-88703984D01*
X97664216Y-88816496D01*
X97700250Y-88907688D01*
X97719545Y-88937022D01*
X97786755Y-88999106D01*
X97872350Y-89039316D01*
X97968110Y-89056003D01*
X98065813Y-89047517D01*
X98140083Y-89021380D01*
X98203953Y-88977335D01*
X98256154Y-88919587D01*
X98257057Y-88918236D01*
X98278256Y-88882593D01*
X98292033Y-88846752D01*
X98300376Y-88801519D01*
X98305273Y-88737701D01*
X98307431Y-88685368D01*
X98308329Y-88637910D01*
X98141257Y-88637910D01*
X98139624Y-88685154D01*
X98133696Y-88748046D01*
X98123239Y-88788407D01*
X98104381Y-88817122D01*
X98086719Y-88833896D01*
X98024106Y-88869016D01*
X97958592Y-88873710D01*
X97897579Y-88848440D01*
X97867072Y-88820124D01*
X97845089Y-88791589D01*
X97832231Y-88764284D01*
X97826588Y-88728750D01*
X97826249Y-88675524D01*
X97827988Y-88626506D01*
X97831729Y-88556482D01*
X97837659Y-88511064D01*
X97848347Y-88481440D01*
X97866361Y-88458797D01*
X97880637Y-88445855D01*
X97940349Y-88411860D01*
X98004766Y-88410165D01*
X98058781Y-88430301D01*
X98104860Y-88472352D01*
X98132311Y-88541428D01*
X98141257Y-88637910D01*
X98308329Y-88637910D01*
X98309401Y-88581299D01*
X98306036Y-88503468D01*
X98295955Y-88444930D01*
X98277774Y-88398737D01*
X98250110Y-88357942D01*
X98239854Y-88345828D01*
X98175722Y-88285474D01*
X98106934Y-88250220D01*
X98022811Y-88235450D01*
X97981791Y-88234243D01*
X97873216Y-88247104D01*
G36*
X96302982Y-88257027D02*
X96286330Y-88264866D01*
X96228695Y-88307086D01*
X96174195Y-88368700D01*
X96133501Y-88436543D01*
X96121926Y-88467734D01*
X96111366Y-88523449D01*
X96105069Y-88590781D01*
X96104304Y-88618585D01*
X96104211Y-88706316D01*
X96609150Y-88706316D01*
X96598387Y-88752270D01*
X96571967Y-88806620D01*
X96525778Y-88853591D01*
X96470828Y-88883848D01*
X96435811Y-88890131D01*
X96388323Y-88882506D01*
X96331665Y-88863383D01*
X96312418Y-88854584D01*
X96241241Y-88819036D01*
X96180498Y-88865367D01*
X96145448Y-88896703D01*
X96126798Y-88922567D01*
X96125853Y-88930158D01*
X96142515Y-88948556D01*
X96179030Y-88976515D01*
X96212172Y-88998327D01*
X96301607Y-89037537D01*
X96401871Y-89055285D01*
X96501246Y-89050670D01*
X96580461Y-89026551D01*
X96662120Y-88974884D01*
X96720151Y-88906856D01*
X96756454Y-88818843D01*
X96772928Y-88707216D01*
X96774389Y-88656138D01*
X96768543Y-88539091D01*
X96767825Y-88535686D01*
X96600511Y-88535686D01*
X96595903Y-88546662D01*
X96576964Y-88552715D01*
X96537902Y-88555310D01*
X96472923Y-88555910D01*
X96447903Y-88555921D01*
X96371779Y-88555014D01*
X96323504Y-88551720D01*
X96297540Y-88545181D01*
X96288352Y-88534537D01*
X96288027Y-88531119D01*
X96298513Y-88503956D01*
X96324758Y-88465903D01*
X96336041Y-88452579D01*
X96377928Y-88414896D01*
X96421591Y-88400080D01*
X96445115Y-88398842D01*
X96508757Y-88414329D01*
X96562127Y-88455930D01*
X96595981Y-88516353D01*
X96596581Y-88518322D01*
X96600511Y-88535686D01*
X96767825Y-88535686D01*
X96749101Y-88446928D01*
X96714078Y-88373190D01*
X96671244Y-88320848D01*
X96592052Y-88264092D01*
X96498960Y-88233762D01*
X96399945Y-88231021D01*
X96302982Y-88257027D01*
X96302982Y-88257027D01*
G37*
X96302982Y-88257027D02*
X96286330Y-88264866D01*
X96228695Y-88307086D01*
X96174195Y-88368700D01*
X96133501Y-88436543D01*
X96121926Y-88467734D01*
X96111366Y-88523449D01*
X96105069Y-88590781D01*
X96104304Y-88618585D01*
X96104211Y-88706316D01*
X96609150Y-88706316D01*
X96598387Y-88752270D01*
X96571967Y-88806620D01*
X96525778Y-88853591D01*
X96470828Y-88883848D01*
X96435811Y-88890131D01*
X96388323Y-88882506D01*
X96331665Y-88863383D01*
X96312418Y-88854584D01*
X96241241Y-88819036D01*
X96180498Y-88865367D01*
X96145448Y-88896703D01*
X96126798Y-88922567D01*
X96125853Y-88930158D01*
X96142515Y-88948556D01*
X96179030Y-88976515D01*
X96212172Y-88998327D01*
X96301607Y-89037537D01*
X96401871Y-89055285D01*
X96501246Y-89050670D01*
X96580461Y-89026551D01*
X96662120Y-88974884D01*
X96720151Y-88906856D01*
X96756454Y-88818843D01*
X96772928Y-88707216D01*
X96774389Y-88656138D01*
X96768543Y-88539091D01*
X96767825Y-88535686D01*
X96600511Y-88535686D01*
X96595903Y-88546662D01*
X96576964Y-88552715D01*
X96537902Y-88555310D01*
X96472923Y-88555910D01*
X96447903Y-88555921D01*
X96371779Y-88555014D01*
X96323504Y-88551720D01*
X96297540Y-88545181D01*
X96288352Y-88534537D01*
X96288027Y-88531119D01*
X96298513Y-88503956D01*
X96324758Y-88465903D01*
X96336041Y-88452579D01*
X96377928Y-88414896D01*
X96421591Y-88400080D01*
X96445115Y-88398842D01*
X96508757Y-88414329D01*
X96562127Y-88455930D01*
X96595981Y-88516353D01*
X96596581Y-88518322D01*
X96600511Y-88535686D01*
X96767825Y-88535686D01*
X96749101Y-88446928D01*
X96714078Y-88373190D01*
X96671244Y-88320848D01*
X96592052Y-88264092D01*
X96498960Y-88233762D01*
X96399945Y-88231021D01*
X96302982Y-88257027D01*
G36*
X94481372Y-88235547D02*
X94418092Y-88247548D01*
X94352443Y-88272648D01*
X94345428Y-88275848D01*
X94295644Y-88302026D01*
X94261166Y-88326353D01*
X94250022Y-88341937D01*
X94260634Y-88367353D01*
X94286412Y-88404853D01*
X94297854Y-88418852D01*
X94345008Y-88473954D01*
X94405799Y-88438086D01*
X94463653Y-88414192D01*
X94530500Y-88401420D01*
X94594606Y-88400613D01*
X94644236Y-88412615D01*
X94656146Y-88420105D01*
X94678828Y-88454450D01*
X94681584Y-88494013D01*
X94664612Y-88524920D01*
X94654573Y-88530913D01*
X94624490Y-88538357D01*
X94571611Y-88547106D01*
X94506425Y-88555467D01*
X94494400Y-88556778D01*
X94389703Y-88574888D01*
X94313768Y-88605651D01*
X94263408Y-88651907D01*
X94235436Y-88716497D01*
X94226722Y-88795387D01*
X94238760Y-88885065D01*
X94277849Y-88955486D01*
X94344145Y-89006777D01*
X94437806Y-89039067D01*
X94541777Y-89051807D01*
X94626562Y-89051654D01*
X94695335Y-89040083D01*
X94742303Y-89024109D01*
X94801650Y-88996275D01*
X94856494Y-88963973D01*
X94875987Y-88949755D01*
X94926119Y-88908835D01*
X94805197Y-88786477D01*
X94736457Y-88831967D01*
X94667512Y-88866133D01*
X94593889Y-88884004D01*
X94523117Y-88885889D01*
X94462726Y-88872101D01*
X94420243Y-88842949D01*
X94406526Y-88818352D01*
X94408583Y-88778904D01*
X94442670Y-88748737D01*
X94508692Y-88727906D01*
X94581026Y-88718279D01*
X94692348Y-88699910D01*
X94775048Y-88665254D01*
X94830235Y-88613297D01*
X94859012Y-88543023D01*
X94862999Y-88459707D01*
X94843307Y-88372681D01*
X94798411Y-88306902D01*
X94727909Y-88262068D01*
X94631399Y-88237879D01*
X94559900Y-88233137D01*
X94481372Y-88235547D01*
X94481372Y-88235547D01*
G37*
X94481372Y-88235547D02*
X94418092Y-88247548D01*
X94352443Y-88272648D01*
X94345428Y-88275848D01*
X94295644Y-88302026D01*
X94261166Y-88326353D01*
X94250022Y-88341937D01*
X94260634Y-88367353D01*
X94286412Y-88404853D01*
X94297854Y-88418852D01*
X94345008Y-88473954D01*
X94405799Y-88438086D01*
X94463653Y-88414192D01*
X94530500Y-88401420D01*
X94594606Y-88400613D01*
X94644236Y-88412615D01*
X94656146Y-88420105D01*
X94678828Y-88454450D01*
X94681584Y-88494013D01*
X94664612Y-88524920D01*
X94654573Y-88530913D01*
X94624490Y-88538357D01*
X94571611Y-88547106D01*
X94506425Y-88555467D01*
X94494400Y-88556778D01*
X94389703Y-88574888D01*
X94313768Y-88605651D01*
X94263408Y-88651907D01*
X94235436Y-88716497D01*
X94226722Y-88795387D01*
X94238760Y-88885065D01*
X94277849Y-88955486D01*
X94344145Y-89006777D01*
X94437806Y-89039067D01*
X94541777Y-89051807D01*
X94626562Y-89051654D01*
X94695335Y-89040083D01*
X94742303Y-89024109D01*
X94801650Y-88996275D01*
X94856494Y-88963973D01*
X94875987Y-88949755D01*
X94926119Y-88908835D01*
X94805197Y-88786477D01*
X94736457Y-88831967D01*
X94667512Y-88866133D01*
X94593889Y-88884004D01*
X94523117Y-88885889D01*
X94462726Y-88872101D01*
X94420243Y-88842949D01*
X94406526Y-88818352D01*
X94408583Y-88778904D01*
X94442670Y-88748737D01*
X94508692Y-88727906D01*
X94581026Y-88718279D01*
X94692348Y-88699910D01*
X94775048Y-88665254D01*
X94830235Y-88613297D01*
X94859012Y-88543023D01*
X94862999Y-88459707D01*
X94843307Y-88372681D01*
X94798411Y-88306902D01*
X94727909Y-88262068D01*
X94631399Y-88237879D01*
X94559900Y-88233137D01*
X94481372Y-88235547D01*
G36*
X93688331Y-88248310D02*
X93603808Y-88294340D01*
X93537679Y-88367006D01*
X93506522Y-88426106D01*
X93493145Y-88478305D01*
X93484478Y-88552719D01*
X93480763Y-88638442D01*
X93482246Y-88724569D01*
X93489169Y-88800193D01*
X93497255Y-88840584D01*
X93524535Y-88895840D01*
X93571780Y-88954530D01*
X93628718Y-89005852D01*
X93685076Y-89039005D01*
X93686450Y-89039531D01*
X93756384Y-89054018D01*
X93839263Y-89054377D01*
X93918023Y-89041188D01*
X93948434Y-89030617D01*
X94026761Y-88986201D01*
X94082857Y-88928007D01*
X94119714Y-88850965D01*
X94140320Y-88750001D01*
X94144982Y-88697116D01*
X94144387Y-88630663D01*
X93965264Y-88630663D01*
X93959230Y-88727630D01*
X93941862Y-88801523D01*
X93914260Y-88848736D01*
X93894596Y-88862237D01*
X93844213Y-88871651D01*
X93784327Y-88868864D01*
X93732551Y-88855316D01*
X93718973Y-88847862D01*
X93683151Y-88804451D01*
X93659507Y-88738014D01*
X93649442Y-88657161D01*
X93654358Y-88570502D01*
X93665345Y-88518349D01*
X93696891Y-88457951D01*
X93746689Y-88420197D01*
X93806663Y-88407143D01*
X93868736Y-88420849D01*
X93916418Y-88454372D01*
X93941475Y-88482031D01*
X93956100Y-88509294D01*
X93963071Y-88546190D01*
X93965167Y-88602750D01*
X93965264Y-88630663D01*
X94144387Y-88630663D01*
X94143718Y-88555994D01*
X94120735Y-88440271D01*
X94076028Y-88349941D01*
X94009595Y-88285000D01*
X93921435Y-88245445D01*
X93902505Y-88240858D01*
X93788734Y-88230090D01*
X93688331Y-88248310D01*
X93688331Y-88248310D01*
G37*
X93688331Y-88248310D02*
X93603808Y-88294340D01*
X93537679Y-88367006D01*
X93506522Y-88426106D01*
X93493145Y-88478305D01*
X93484478Y-88552719D01*
X93480763Y-88638442D01*
X93482246Y-88724569D01*
X93489169Y-88800193D01*
X93497255Y-88840584D01*
X93524535Y-88895840D01*
X93571780Y-88954530D01*
X93628718Y-89005852D01*
X93685076Y-89039005D01*
X93686450Y-89039531D01*
X93756384Y-89054018D01*
X93839263Y-89054377D01*
X93918023Y-89041188D01*
X93948434Y-89030617D01*
X94026761Y-88986201D01*
X94082857Y-88928007D01*
X94119714Y-88850965D01*
X94140320Y-88750001D01*
X94144982Y-88697116D01*
X94144387Y-88630663D01*
X93965264Y-88630663D01*
X93959230Y-88727630D01*
X93941862Y-88801523D01*
X93914260Y-88848736D01*
X93894596Y-88862237D01*
X93844213Y-88871651D01*
X93784327Y-88868864D01*
X93732551Y-88855316D01*
X93718973Y-88847862D01*
X93683151Y-88804451D01*
X93659507Y-88738014D01*
X93649442Y-88657161D01*
X93654358Y-88570502D01*
X93665345Y-88518349D01*
X93696891Y-88457951D01*
X93746689Y-88420197D01*
X93806663Y-88407143D01*
X93868736Y-88420849D01*
X93916418Y-88454372D01*
X93941475Y-88482031D01*
X93956100Y-88509294D01*
X93963071Y-88546190D01*
X93965167Y-88602750D01*
X93965264Y-88630663D01*
X94144387Y-88630663D01*
X94143718Y-88555994D01*
X94120735Y-88440271D01*
X94076028Y-88349941D01*
X94009595Y-88285000D01*
X93921435Y-88245445D01*
X93902505Y-88240858D01*
X93788734Y-88230090D01*
X93688331Y-88248310D01*
G36*
X93179869Y-88498533D02*
X93178290Y-88621089D01*
X93172519Y-88714179D01*
X93161009Y-88781651D01*
X93142210Y-88827355D01*
X93114574Y-88855139D01*
X93076552Y-88868854D01*
X93029474Y-88872358D01*
X92980168Y-88868432D01*
X92942717Y-88854089D01*
X92915572Y-88825478D01*
X92897185Y-88778751D01*
X92886007Y-88710058D01*
X92880489Y-88615550D01*
X92879079Y-88498533D01*
X92879079Y-88238421D01*
X92695264Y-88238421D01*
X92695264Y-89040526D01*
X92787172Y-89040526D01*
X92842578Y-89038281D01*
X92871109Y-89030396D01*
X92879079Y-89015428D01*
X92883880Y-89002097D01*
X92902986Y-89004917D01*
X92941496Y-89023783D01*
X93029761Y-89052887D01*
X93123377Y-89050825D01*
X93213079Y-89019221D01*
X93255796Y-88994257D01*
X93288379Y-88967226D01*
X93312183Y-88933405D01*
X93328561Y-88888068D01*
X93338869Y-88826489D01*
X93344459Y-88743943D01*
X93346688Y-88635705D01*
X93346974Y-88552004D01*
X93346974Y-88238421D01*
X93179869Y-88238421D01*
X93179869Y-88498533D01*
X93179869Y-88498533D01*
G37*
X93179869Y-88498533D02*
X93178290Y-88621089D01*
X93172519Y-88714179D01*
X93161009Y-88781651D01*
X93142210Y-88827355D01*
X93114574Y-88855139D01*
X93076552Y-88868854D01*
X93029474Y-88872358D01*
X92980168Y-88868432D01*
X92942717Y-88854089D01*
X92915572Y-88825478D01*
X92897185Y-88778751D01*
X92886007Y-88710058D01*
X92880489Y-88615550D01*
X92879079Y-88498533D01*
X92879079Y-88238421D01*
X92695264Y-88238421D01*
X92695264Y-89040526D01*
X92787172Y-89040526D01*
X92842578Y-89038281D01*
X92871109Y-89030396D01*
X92879079Y-89015428D01*
X92883880Y-89002097D01*
X92902986Y-89004917D01*
X92941496Y-89023783D01*
X93029761Y-89052887D01*
X93123377Y-89050825D01*
X93213079Y-89019221D01*
X93255796Y-88994257D01*
X93288379Y-88967226D01*
X93312183Y-88933405D01*
X93328561Y-88888068D01*
X93338869Y-88826489D01*
X93344459Y-88743943D01*
X93346688Y-88635705D01*
X93346974Y-88552004D01*
X93346974Y-88238421D01*
X93179869Y-88238421D01*
X93179869Y-88498533D01*
G36*
X91553424Y-88245419D02*
X91456605Y-88286549D01*
X91426110Y-88306571D01*
X91387135Y-88337340D01*
X91362669Y-88361533D01*
X91358422Y-88369413D01*
X91370416Y-88386899D01*
X91401113Y-88416570D01*
X91425688Y-88437279D01*
X91492954Y-88491336D01*
X91546070Y-88446642D01*
X91587116Y-88417789D01*
X91627137Y-88407829D01*
X91672941Y-88410261D01*
X91745676Y-88428345D01*
X91795744Y-88465881D01*
X91826171Y-88526562D01*
X91839983Y-88614081D01*
X91839987Y-88614136D01*
X91838792Y-88711958D01*
X91820228Y-88783730D01*
X91783196Y-88832595D01*
X91757950Y-88849143D01*
X91690903Y-88869749D01*
X91619291Y-88869762D01*
X91556985Y-88849768D01*
X91542237Y-88840000D01*
X91505250Y-88815047D01*
X91476332Y-88810958D01*
X91445144Y-88829530D01*
X91410664Y-88862887D01*
X91356088Y-88919196D01*
X91416682Y-88969142D01*
X91510302Y-89025513D01*
X91615875Y-89053293D01*
X91726202Y-89051282D01*
X91798657Y-89032862D01*
X91883344Y-88987310D01*
X91951073Y-88915650D01*
X91981843Y-88865066D01*
X92006764Y-88792488D01*
X92019234Y-88700569D01*
X92019330Y-88600948D01*
X92007130Y-88505267D01*
X91982710Y-88425169D01*
X91978864Y-88416956D01*
X91921907Y-88336413D01*
X91844791Y-88277771D01*
X91753610Y-88242247D01*
X91654457Y-88231057D01*
X91553424Y-88245419D01*
X91553424Y-88245419D01*
G37*
X91553424Y-88245419D02*
X91456605Y-88286549D01*
X91426110Y-88306571D01*
X91387135Y-88337340D01*
X91362669Y-88361533D01*
X91358422Y-88369413D01*
X91370416Y-88386899D01*
X91401113Y-88416570D01*
X91425688Y-88437279D01*
X91492954Y-88491336D01*
X91546070Y-88446642D01*
X91587116Y-88417789D01*
X91627137Y-88407829D01*
X91672941Y-88410261D01*
X91745676Y-88428345D01*
X91795744Y-88465881D01*
X91826171Y-88526562D01*
X91839983Y-88614081D01*
X91839987Y-88614136D01*
X91838792Y-88711958D01*
X91820228Y-88783730D01*
X91783196Y-88832595D01*
X91757950Y-88849143D01*
X91690903Y-88869749D01*
X91619291Y-88869762D01*
X91556985Y-88849768D01*
X91542237Y-88840000D01*
X91505250Y-88815047D01*
X91476332Y-88810958D01*
X91445144Y-88829530D01*
X91410664Y-88862887D01*
X91356088Y-88919196D01*
X91416682Y-88969142D01*
X91510302Y-89025513D01*
X91615875Y-89053293D01*
X91726202Y-89051282D01*
X91798657Y-89032862D01*
X91883344Y-88987310D01*
X91951073Y-88915650D01*
X91981843Y-88865066D01*
X92006764Y-88792488D01*
X92019234Y-88700569D01*
X92019330Y-88600948D01*
X92007130Y-88505267D01*
X91982710Y-88425169D01*
X91978864Y-88416956D01*
X91921907Y-88336413D01*
X91844791Y-88277771D01*
X91753610Y-88242247D01*
X91654457Y-88231057D01*
X91553424Y-88245419D01*
G36*
X90941216Y-88235554D02*
X90898426Y-88245949D01*
X90816391Y-88284013D01*
X90746243Y-88342149D01*
X90697695Y-88411852D01*
X90691025Y-88427502D01*
X90681876Y-88468496D01*
X90675471Y-88529138D01*
X90673290Y-88590430D01*
X90673290Y-88706316D01*
X90915593Y-88706316D01*
X91015529Y-88706693D01*
X91085931Y-88708987D01*
X91130687Y-88714938D01*
X91153685Y-88726285D01*
X91158811Y-88744771D01*
X91149952Y-88772136D01*
X91134083Y-88804155D01*
X91089816Y-88857592D01*
X91028301Y-88884215D01*
X90953115Y-88883347D01*
X90867947Y-88854371D01*
X90794341Y-88818611D01*
X90733266Y-88866904D01*
X90672190Y-88915197D01*
X90729649Y-88968285D01*
X90806359Y-89018445D01*
X90900698Y-89048688D01*
X91002173Y-89057151D01*
X91100289Y-89041974D01*
X91116119Y-89036824D01*
X91202353Y-88991791D01*
X91266499Y-88924652D01*
X91309909Y-88833405D01*
X91333936Y-88716044D01*
X91334216Y-88713529D01*
X91336367Y-88585627D01*
X91327671Y-88539997D01*
X91157895Y-88539997D01*
X91142303Y-88547013D01*
X91099971Y-88552388D01*
X91037566Y-88555457D01*
X90998019Y-88555921D01*
X90924272Y-88555630D01*
X90878160Y-88553783D01*
X90853900Y-88548912D01*
X90845706Y-88539555D01*
X90847794Y-88524245D01*
X90849545Y-88518322D01*
X90879440Y-88462668D01*
X90926458Y-88417815D01*
X90967951Y-88398105D01*
X91023074Y-88399295D01*
X91078932Y-88423875D01*
X91125788Y-88464570D01*
X91153906Y-88514108D01*
X91157895Y-88539997D01*
X91327671Y-88539997D01*
X91314926Y-88473133D01*
X91272389Y-88378727D01*
X91211253Y-88305088D01*
X91134015Y-88254893D01*
X91043170Y-88230822D01*
X90941216Y-88235554D01*
X90941216Y-88235554D01*
G37*
X90941216Y-88235554D02*
X90898426Y-88245949D01*
X90816391Y-88284013D01*
X90746243Y-88342149D01*
X90697695Y-88411852D01*
X90691025Y-88427502D01*
X90681876Y-88468496D01*
X90675471Y-88529138D01*
X90673290Y-88590430D01*
X90673290Y-88706316D01*
X90915593Y-88706316D01*
X91015529Y-88706693D01*
X91085931Y-88708987D01*
X91130687Y-88714938D01*
X91153685Y-88726285D01*
X91158811Y-88744771D01*
X91149952Y-88772136D01*
X91134083Y-88804155D01*
X91089816Y-88857592D01*
X91028301Y-88884215D01*
X90953115Y-88883347D01*
X90867947Y-88854371D01*
X90794341Y-88818611D01*
X90733266Y-88866904D01*
X90672190Y-88915197D01*
X90729649Y-88968285D01*
X90806359Y-89018445D01*
X90900698Y-89048688D01*
X91002173Y-89057151D01*
X91100289Y-89041974D01*
X91116119Y-89036824D01*
X91202353Y-88991791D01*
X91266499Y-88924652D01*
X91309909Y-88833405D01*
X91333936Y-88716044D01*
X91334216Y-88713529D01*
X91336367Y-88585627D01*
X91327671Y-88539997D01*
X91157895Y-88539997D01*
X91142303Y-88547013D01*
X91099971Y-88552388D01*
X91037566Y-88555457D01*
X90998019Y-88555921D01*
X90924272Y-88555630D01*
X90878160Y-88553783D01*
X90853900Y-88548912D01*
X90845706Y-88539555D01*
X90847794Y-88524245D01*
X90849545Y-88518322D01*
X90879440Y-88462668D01*
X90926458Y-88417815D01*
X90967951Y-88398105D01*
X91023074Y-88399295D01*
X91078932Y-88423875D01*
X91125788Y-88464570D01*
X91153906Y-88514108D01*
X91157895Y-88539997D01*
X91327671Y-88539997D01*
X91314926Y-88473133D01*
X91272389Y-88378727D01*
X91211253Y-88305088D01*
X91134015Y-88254893D01*
X91043170Y-88230822D01*
X90941216Y-88235554D01*
G36*
X95502043Y-88252226D02*
X95460454Y-88272090D01*
X95420175Y-88300784D01*
X95389490Y-88333809D01*
X95367139Y-88375931D01*
X95351864Y-88431915D01*
X95342408Y-88506528D01*
X95337513Y-88604535D01*
X95335919Y-88730702D01*
X95335894Y-88743914D01*
X95335527Y-89040526D01*
X95519343Y-89040526D01*
X95519343Y-88767081D01*
X95519473Y-88665777D01*
X95520379Y-88592353D01*
X95522827Y-88541271D01*
X95527586Y-88506990D01*
X95535426Y-88483971D01*
X95547115Y-88466673D01*
X95563398Y-88449581D01*
X95620366Y-88412857D01*
X95682555Y-88406042D01*
X95741801Y-88429261D01*
X95762405Y-88446543D01*
X95777530Y-88462791D01*
X95788390Y-88480191D01*
X95795690Y-88504212D01*
X95800137Y-88540322D01*
X95802436Y-88593988D01*
X95803296Y-88670680D01*
X95803422Y-88764043D01*
X95803422Y-89040526D01*
X95987237Y-89040526D01*
X95987237Y-88238421D01*
X95895329Y-88238421D01*
X95840149Y-88240603D01*
X95811680Y-88248351D01*
X95803425Y-88263468D01*
X95803422Y-88263916D01*
X95799592Y-88278720D01*
X95782699Y-88277040D01*
X95749112Y-88260773D01*
X95672937Y-88236840D01*
X95585800Y-88234178D01*
X95502043Y-88252226D01*
X95502043Y-88252226D01*
G37*
X95502043Y-88252226D02*
X95460454Y-88272090D01*
X95420175Y-88300784D01*
X95389490Y-88333809D01*
X95367139Y-88375931D01*
X95351864Y-88431915D01*
X95342408Y-88506528D01*
X95337513Y-88604535D01*
X95335919Y-88730702D01*
X95335894Y-88743914D01*
X95335527Y-89040526D01*
X95519343Y-89040526D01*
X95519343Y-88767081D01*
X95519473Y-88665777D01*
X95520379Y-88592353D01*
X95522827Y-88541271D01*
X95527586Y-88506990D01*
X95535426Y-88483971D01*
X95547115Y-88466673D01*
X95563398Y-88449581D01*
X95620366Y-88412857D01*
X95682555Y-88406042D01*
X95741801Y-88429261D01*
X95762405Y-88446543D01*
X95777530Y-88462791D01*
X95788390Y-88480191D01*
X95795690Y-88504212D01*
X95800137Y-88540322D01*
X95802436Y-88593988D01*
X95803296Y-88670680D01*
X95803422Y-88764043D01*
X95803422Y-89040526D01*
X95987237Y-89040526D01*
X95987237Y-88238421D01*
X95895329Y-88238421D01*
X95840149Y-88240603D01*
X95811680Y-88248351D01*
X95803425Y-88263468D01*
X95803422Y-88263916D01*
X95799592Y-88278720D01*
X95782699Y-88277040D01*
X95749112Y-88260773D01*
X95672937Y-88236840D01*
X95585800Y-88234178D01*
X95502043Y-88252226D01*
G36*
X92108612Y-88237645D02*
X92051135Y-88255206D01*
X92014128Y-88277395D01*
X92002073Y-88294942D01*
X92005391Y-88315742D01*
X92026921Y-88348419D01*
X92045126Y-88371562D01*
X92082656Y-88413402D01*
X92110852Y-88431005D01*
X92134889Y-88429856D01*
X92206192Y-88411710D01*
X92258558Y-88412534D01*
X92301082Y-88433098D01*
X92315358Y-88445134D01*
X92361053Y-88487483D01*
X92361053Y-89040526D01*
X92544869Y-89040526D01*
X92544869Y-88238421D01*
X92452961Y-88238421D01*
X92397781Y-88240603D01*
X92369312Y-88248351D01*
X92361057Y-88263468D01*
X92361053Y-88263916D01*
X92357155Y-88279749D01*
X92339526Y-88277684D01*
X92315099Y-88266261D01*
X92264650Y-88245005D01*
X92223684Y-88232216D01*
X92170972Y-88228938D01*
X92108612Y-88237645D01*
X92108612Y-88237645D01*
G37*
X92108612Y-88237645D02*
X92051135Y-88255206D01*
X92014128Y-88277395D01*
X92002073Y-88294942D01*
X92005391Y-88315742D01*
X92026921Y-88348419D01*
X92045126Y-88371562D01*
X92082656Y-88413402D01*
X92110852Y-88431005D01*
X92134889Y-88429856D01*
X92206192Y-88411710D01*
X92258558Y-88412534D01*
X92301082Y-88433098D01*
X92315358Y-88445134D01*
X92361053Y-88487483D01*
X92361053Y-89040526D01*
X92544869Y-89040526D01*
X92544869Y-88238421D01*
X92452961Y-88238421D01*
X92397781Y-88240603D01*
X92369312Y-88248351D01*
X92361057Y-88263468D01*
X92361053Y-88263916D01*
X92357155Y-88279749D01*
X92339526Y-88277684D01*
X92315099Y-88266261D01*
X92264650Y-88245005D01*
X92223684Y-88232216D01*
X92170972Y-88228938D01*
X92108612Y-88237645D01*
G36*
X93999036Y-82698576D02*
X93923487Y-83099322D01*
X93365959Y-83329154D01*
X93031535Y-83101748D01*
X92937878Y-83038431D01*
X92853218Y-82981896D01*
X92781505Y-82934727D01*
X92726689Y-82899502D01*
X92692720Y-82878805D01*
X92683470Y-82874342D01*
X92666805Y-82885820D01*
X92631194Y-82917551D01*
X92580629Y-82965483D01*
X92519100Y-83025562D01*
X92450601Y-83093733D01*
X92379121Y-83165945D01*
X92308653Y-83238142D01*
X92243189Y-83306273D01*
X92186720Y-83366283D01*
X92143237Y-83414119D01*
X92116732Y-83445727D01*
X92110395Y-83456305D01*
X92119514Y-83475806D01*
X92145080Y-83518531D01*
X92184403Y-83580298D01*
X92234797Y-83656931D01*
X92293573Y-83744248D01*
X92327632Y-83794052D01*
X92389711Y-83884993D01*
X92444874Y-83967059D01*
X92490446Y-84036163D01*
X92523750Y-84088222D01*
X92542110Y-84119150D01*
X92544869Y-84125650D01*
X92538615Y-84144121D01*
X92521566Y-84187172D01*
X92496297Y-84248749D01*
X92465378Y-84322799D01*
X92431382Y-84403270D01*
X92396882Y-84484107D01*
X92364449Y-84559258D01*
X92336657Y-84622671D01*
X92316077Y-84668293D01*
X92305281Y-84690069D01*
X92304644Y-84690926D01*
X92287693Y-84695084D01*
X92242549Y-84704361D01*
X92173890Y-84717844D01*
X92086398Y-84734621D01*
X91984750Y-84753781D01*
X91925444Y-84764830D01*
X91816828Y-84785510D01*
X91718723Y-84805189D01*
X91636091Y-84822789D01*
X91573896Y-84837233D01*
X91537101Y-84847446D01*
X91529704Y-84850686D01*
X91522460Y-84872617D01*
X91516615Y-84922147D01*
X91512165Y-84993485D01*
X91509107Y-85080839D01*
X91507435Y-85178417D01*
X91507147Y-85280426D01*
X91508239Y-85381075D01*
X91510706Y-85474572D01*
X91514544Y-85555125D01*
X91519750Y-85616942D01*
X91526319Y-85654230D01*
X91530259Y-85661993D01*
X91553812Y-85671298D01*
X91603718Y-85684600D01*
X91673377Y-85700337D01*
X91756187Y-85716946D01*
X91785095Y-85722319D01*
X91924469Y-85747848D01*
X92034564Y-85768408D01*
X92119018Y-85784815D01*
X92181470Y-85797887D01*
X92225556Y-85808441D01*
X92254915Y-85817294D01*
X92273185Y-85825263D01*
X92284002Y-85833165D01*
X92285515Y-85834727D01*
X92300623Y-85859886D01*
X92323671Y-85908850D01*
X92352356Y-85975621D01*
X92384378Y-86054205D01*
X92417435Y-86138607D01*
X92449227Y-86222830D01*
X92477451Y-86300879D01*
X92499807Y-86366759D01*
X92513993Y-86414473D01*
X92517707Y-86438027D01*
X92517398Y-86438852D01*
X92504811Y-86458104D01*
X92476256Y-86500463D01*
X92434733Y-86561521D01*
X92383244Y-86636868D01*
X92324789Y-86722096D01*
X92308142Y-86746315D01*
X92248785Y-86834123D01*
X92196553Y-86914238D01*
X92154292Y-86982062D01*
X92124847Y-87032993D01*
X92111063Y-87062431D01*
X92110395Y-87066048D01*
X92121976Y-87085057D01*
X92153976Y-87122714D01*
X92202282Y-87174973D01*
X92262780Y-87237786D01*
X92331356Y-87307106D01*
X92403896Y-87378885D01*
X92476288Y-87449077D01*
X92544416Y-87513635D01*
X92604168Y-87568510D01*
X92651429Y-87609656D01*
X92682087Y-87633026D01*
X92690568Y-87636842D01*
X92710309Y-87627855D01*
X92750726Y-87603616D01*
X92805237Y-87568209D01*
X92847177Y-87539711D01*
X92923171Y-87487418D01*
X93013166Y-87425845D01*
X93103436Y-87364370D01*
X93151968Y-87331469D01*
X93316238Y-87220359D01*
X93454131Y-87294916D01*
X93516951Y-87327578D01*
X93570371Y-87352966D01*
X93606516Y-87367446D01*
X93615716Y-87369460D01*
X93626779Y-87354584D01*
X93648606Y-87312547D01*
X93679566Y-87247227D01*
X93718030Y-87162500D01*
X93762368Y-87062245D01*
X93810953Y-86950339D01*
X93862154Y-86830659D01*
X93914341Y-86707084D01*
X93965887Y-86583491D01*
X94015160Y-86463757D01*
X94060533Y-86351759D01*
X94100375Y-86251377D01*
X94133058Y-86166486D01*
X94156951Y-86100965D01*
X94170426Y-86058690D01*
X94172594Y-86044172D01*
X94155417Y-86025653D01*
X94117810Y-85995590D01*
X94067634Y-85960232D01*
X94063422Y-85957434D01*
X93933736Y-85853625D01*
X93829166Y-85732515D01*
X93750619Y-85597976D01*
X93699001Y-85453882D01*
X93675218Y-85304105D01*
X93680177Y-85152517D01*
X93714783Y-85002992D01*
X93779943Y-84859400D01*
X93799114Y-84827984D01*
X93898826Y-84701125D01*
X94016623Y-84599255D01*
X94148429Y-84522904D01*
X94290167Y-84472602D01*
X94437758Y-84448879D01*
X94587127Y-84452265D01*
X94734197Y-84483288D01*
X94874889Y-84542480D01*
X95005127Y-84630369D01*
X95045414Y-84666042D01*
X95147945Y-84777706D01*
X95222659Y-84895257D01*
X95273910Y-85027020D01*
X95302454Y-85157507D01*
X95309500Y-85304216D01*
X95286004Y-85451653D01*
X95234351Y-85594834D01*
X95156929Y-85728777D01*
X95056125Y-85848498D01*
X94934324Y-85949014D01*
X94918316Y-85959609D01*
X94867602Y-85994306D01*
X94829050Y-86024370D01*
X94810619Y-86043565D01*
X94810351Y-86044172D01*
X94814308Y-86064936D01*
X94829993Y-86112062D01*
X94855778Y-86181673D01*
X94890031Y-86269893D01*
X94931123Y-86372844D01*
X94977424Y-86486650D01*
X95027304Y-86607435D01*
X95079133Y-86731321D01*
X95131281Y-86854432D01*
X95182118Y-86972891D01*
X95230013Y-87082823D01*
X95273338Y-87180349D01*
X95310462Y-87261593D01*
X95339756Y-87322679D01*
X95359588Y-87359730D01*
X95367574Y-87369460D01*
X95391979Y-87361883D01*
X95437642Y-87341560D01*
X95496690Y-87312125D01*
X95529160Y-87294916D01*
X95667053Y-87220359D01*
X95831323Y-87331469D01*
X95915179Y-87388390D01*
X96006987Y-87451030D01*
X96093020Y-87510011D01*
X96136113Y-87539711D01*
X96196723Y-87580410D01*
X96248045Y-87612663D01*
X96283385Y-87632384D01*
X96294863Y-87636554D01*
X96311570Y-87625307D01*
X96348546Y-87593911D01*
X96402205Y-87545624D01*
X96468962Y-87483708D01*
X96545234Y-87411421D01*
X96593473Y-87365008D01*
X96677867Y-87282087D01*
X96750803Y-87207920D01*
X96809331Y-87145680D01*
X96850503Y-87098541D01*
X96871372Y-87069673D01*
X96873374Y-87063815D01*
X96864083Y-87041532D01*
X96838409Y-86996477D01*
X96799200Y-86933211D01*
X96749303Y-86856295D01*
X96691567Y-86770292D01*
X96675149Y-86746315D01*
X96615323Y-86659170D01*
X96561650Y-86580710D01*
X96517130Y-86515345D01*
X96484765Y-86467484D01*
X96467555Y-86441535D01*
X96465893Y-86438852D01*
X96468379Y-86418172D01*
X96481577Y-86372704D01*
X96503186Y-86308444D01*
X96530904Y-86231387D01*
X96562430Y-86147529D01*
X96595463Y-86062866D01*
X96627701Y-85983392D01*
X96656843Y-85915104D01*
X96680588Y-85863997D01*
X96696635Y-85836067D01*
X96697775Y-85834727D01*
X96707588Y-85826745D01*
X96724161Y-85818851D01*
X96751132Y-85810229D01*
X96792139Y-85800062D01*
X96850820Y-85787531D01*
X96930813Y-85771821D01*
X97035755Y-85752113D01*
X97169285Y-85727592D01*
X97198196Y-85722319D01*
X97283882Y-85705764D01*
X97358582Y-85689569D01*
X97415694Y-85675296D01*
X97448617Y-85664508D01*
X97453031Y-85661993D01*
X97460306Y-85639696D01*
X97466219Y-85589869D01*
X97470766Y-85518304D01*
X97473945Y-85430793D01*
X97475749Y-85333128D01*
X97476177Y-85231101D01*
X97475223Y-85130503D01*
X97472884Y-85037127D01*
X97469156Y-84956765D01*
X97464034Y-84895209D01*
X97457516Y-84858250D01*
X97453586Y-84850686D01*
X97431708Y-84843056D01*
X97381891Y-84830642D01*
X97309097Y-84814522D01*
X97218289Y-84795773D01*
X97114431Y-84775471D01*
X97057846Y-84764830D01*
X96950486Y-84744760D01*
X96854746Y-84726580D01*
X96775306Y-84711199D01*
X96716846Y-84699531D01*
X96684045Y-84692488D01*
X96678646Y-84690926D01*
X96669522Y-84673322D01*
X96650235Y-84630918D01*
X96623355Y-84569772D01*
X96591454Y-84495943D01*
X96557102Y-84415489D01*
X96522871Y-84334468D01*
X96491331Y-84258937D01*
X96465054Y-84194955D01*
X96446611Y-84148580D01*
X96438571Y-84125869D01*
X96438422Y-84124876D01*
X96447535Y-84106961D01*
X96473086Y-84065733D01*
X96512388Y-84005291D01*
X96562757Y-83929731D01*
X96621506Y-83843152D01*
X96655658Y-83793421D01*
X96717890Y-83702236D01*
X96773164Y-83619449D01*
X96818782Y-83549249D01*
X96852048Y-83495824D01*
X96870264Y-83463361D01*
X96872895Y-83456083D01*
X96861586Y-83439145D01*
X96830319Y-83402978D01*
X96783090Y-83351635D01*
X96723892Y-83289167D01*
X96656719Y-83219626D01*
X96585566Y-83147065D01*
X96514426Y-83075535D01*
X96447293Y-83009087D01*
X96388161Y-82951774D01*
X96341025Y-82907647D01*
X96309877Y-82880759D01*
X96299457Y-82874342D01*
X96282491Y-82883365D01*
X96241911Y-82908715D01*
X96181663Y-82947810D01*
X96105693Y-82998071D01*
X96017946Y-83056917D01*
X95951756Y-83101748D01*
X95617332Y-83329154D01*
X95338567Y-83214238D01*
X95059803Y-83099322D01*
X94984254Y-82698576D01*
X94908706Y-82297829D01*
X94074585Y-82297829D01*
X93999036Y-82698576D01*
X93999036Y-82698576D01*
G37*
X93999036Y-82698576D02*
X93923487Y-83099322D01*
X93365959Y-83329154D01*
X93031535Y-83101748D01*
X92937878Y-83038431D01*
X92853218Y-82981896D01*
X92781505Y-82934727D01*
X92726689Y-82899502D01*
X92692720Y-82878805D01*
X92683470Y-82874342D01*
X92666805Y-82885820D01*
X92631194Y-82917551D01*
X92580629Y-82965483D01*
X92519100Y-83025562D01*
X92450601Y-83093733D01*
X92379121Y-83165945D01*
X92308653Y-83238142D01*
X92243189Y-83306273D01*
X92186720Y-83366283D01*
X92143237Y-83414119D01*
X92116732Y-83445727D01*
X92110395Y-83456305D01*
X92119514Y-83475806D01*
X92145080Y-83518531D01*
X92184403Y-83580298D01*
X92234797Y-83656931D01*
X92293573Y-83744248D01*
X92327632Y-83794052D01*
X92389711Y-83884993D01*
X92444874Y-83967059D01*
X92490446Y-84036163D01*
X92523750Y-84088222D01*
X92542110Y-84119150D01*
X92544869Y-84125650D01*
X92538615Y-84144121D01*
X92521566Y-84187172D01*
X92496297Y-84248749D01*
X92465378Y-84322799D01*
X92431382Y-84403270D01*
X92396882Y-84484107D01*
X92364449Y-84559258D01*
X92336657Y-84622671D01*
X92316077Y-84668293D01*
X92305281Y-84690069D01*
X92304644Y-84690926D01*
X92287693Y-84695084D01*
X92242549Y-84704361D01*
X92173890Y-84717844D01*
X92086398Y-84734621D01*
X91984750Y-84753781D01*
X91925444Y-84764830D01*
X91816828Y-84785510D01*
X91718723Y-84805189D01*
X91636091Y-84822789D01*
X91573896Y-84837233D01*
X91537101Y-84847446D01*
X91529704Y-84850686D01*
X91522460Y-84872617D01*
X91516615Y-84922147D01*
X91512165Y-84993485D01*
X91509107Y-85080839D01*
X91507435Y-85178417D01*
X91507147Y-85280426D01*
X91508239Y-85381075D01*
X91510706Y-85474572D01*
X91514544Y-85555125D01*
X91519750Y-85616942D01*
X91526319Y-85654230D01*
X91530259Y-85661993D01*
X91553812Y-85671298D01*
X91603718Y-85684600D01*
X91673377Y-85700337D01*
X91756187Y-85716946D01*
X91785095Y-85722319D01*
X91924469Y-85747848D01*
X92034564Y-85768408D01*
X92119018Y-85784815D01*
X92181470Y-85797887D01*
X92225556Y-85808441D01*
X92254915Y-85817294D01*
X92273185Y-85825263D01*
X92284002Y-85833165D01*
X92285515Y-85834727D01*
X92300623Y-85859886D01*
X92323671Y-85908850D01*
X92352356Y-85975621D01*
X92384378Y-86054205D01*
X92417435Y-86138607D01*
X92449227Y-86222830D01*
X92477451Y-86300879D01*
X92499807Y-86366759D01*
X92513993Y-86414473D01*
X92517707Y-86438027D01*
X92517398Y-86438852D01*
X92504811Y-86458104D01*
X92476256Y-86500463D01*
X92434733Y-86561521D01*
X92383244Y-86636868D01*
X92324789Y-86722096D01*
X92308142Y-86746315D01*
X92248785Y-86834123D01*
X92196553Y-86914238D01*
X92154292Y-86982062D01*
X92124847Y-87032993D01*
X92111063Y-87062431D01*
X92110395Y-87066048D01*
X92121976Y-87085057D01*
X92153976Y-87122714D01*
X92202282Y-87174973D01*
X92262780Y-87237786D01*
X92331356Y-87307106D01*
X92403896Y-87378885D01*
X92476288Y-87449077D01*
X92544416Y-87513635D01*
X92604168Y-87568510D01*
X92651429Y-87609656D01*
X92682087Y-87633026D01*
X92690568Y-87636842D01*
X92710309Y-87627855D01*
X92750726Y-87603616D01*
X92805237Y-87568209D01*
X92847177Y-87539711D01*
X92923171Y-87487418D01*
X93013166Y-87425845D01*
X93103436Y-87364370D01*
X93151968Y-87331469D01*
X93316238Y-87220359D01*
X93454131Y-87294916D01*
X93516951Y-87327578D01*
X93570371Y-87352966D01*
X93606516Y-87367446D01*
X93615716Y-87369460D01*
X93626779Y-87354584D01*
X93648606Y-87312547D01*
X93679566Y-87247227D01*
X93718030Y-87162500D01*
X93762368Y-87062245D01*
X93810953Y-86950339D01*
X93862154Y-86830659D01*
X93914341Y-86707084D01*
X93965887Y-86583491D01*
X94015160Y-86463757D01*
X94060533Y-86351759D01*
X94100375Y-86251377D01*
X94133058Y-86166486D01*
X94156951Y-86100965D01*
X94170426Y-86058690D01*
X94172594Y-86044172D01*
X94155417Y-86025653D01*
X94117810Y-85995590D01*
X94067634Y-85960232D01*
X94063422Y-85957434D01*
X93933736Y-85853625D01*
X93829166Y-85732515D01*
X93750619Y-85597976D01*
X93699001Y-85453882D01*
X93675218Y-85304105D01*
X93680177Y-85152517D01*
X93714783Y-85002992D01*
X93779943Y-84859400D01*
X93799114Y-84827984D01*
X93898826Y-84701125D01*
X94016623Y-84599255D01*
X94148429Y-84522904D01*
X94290167Y-84472602D01*
X94437758Y-84448879D01*
X94587127Y-84452265D01*
X94734197Y-84483288D01*
X94874889Y-84542480D01*
X95005127Y-84630369D01*
X95045414Y-84666042D01*
X95147945Y-84777706D01*
X95222659Y-84895257D01*
X95273910Y-85027020D01*
X95302454Y-85157507D01*
X95309500Y-85304216D01*
X95286004Y-85451653D01*
X95234351Y-85594834D01*
X95156929Y-85728777D01*
X95056125Y-85848498D01*
X94934324Y-85949014D01*
X94918316Y-85959609D01*
X94867602Y-85994306D01*
X94829050Y-86024370D01*
X94810619Y-86043565D01*
X94810351Y-86044172D01*
X94814308Y-86064936D01*
X94829993Y-86112062D01*
X94855778Y-86181673D01*
X94890031Y-86269893D01*
X94931123Y-86372844D01*
X94977424Y-86486650D01*
X95027304Y-86607435D01*
X95079133Y-86731321D01*
X95131281Y-86854432D01*
X95182118Y-86972891D01*
X95230013Y-87082823D01*
X95273338Y-87180349D01*
X95310462Y-87261593D01*
X95339756Y-87322679D01*
X95359588Y-87359730D01*
X95367574Y-87369460D01*
X95391979Y-87361883D01*
X95437642Y-87341560D01*
X95496690Y-87312125D01*
X95529160Y-87294916D01*
X95667053Y-87220359D01*
X95831323Y-87331469D01*
X95915179Y-87388390D01*
X96006987Y-87451030D01*
X96093020Y-87510011D01*
X96136113Y-87539711D01*
X96196723Y-87580410D01*
X96248045Y-87612663D01*
X96283385Y-87632384D01*
X96294863Y-87636554D01*
X96311570Y-87625307D01*
X96348546Y-87593911D01*
X96402205Y-87545624D01*
X96468962Y-87483708D01*
X96545234Y-87411421D01*
X96593473Y-87365008D01*
X96677867Y-87282087D01*
X96750803Y-87207920D01*
X96809331Y-87145680D01*
X96850503Y-87098541D01*
X96871372Y-87069673D01*
X96873374Y-87063815D01*
X96864083Y-87041532D01*
X96838409Y-86996477D01*
X96799200Y-86933211D01*
X96749303Y-86856295D01*
X96691567Y-86770292D01*
X96675149Y-86746315D01*
X96615323Y-86659170D01*
X96561650Y-86580710D01*
X96517130Y-86515345D01*
X96484765Y-86467484D01*
X96467555Y-86441535D01*
X96465893Y-86438852D01*
X96468379Y-86418172D01*
X96481577Y-86372704D01*
X96503186Y-86308444D01*
X96530904Y-86231387D01*
X96562430Y-86147529D01*
X96595463Y-86062866D01*
X96627701Y-85983392D01*
X96656843Y-85915104D01*
X96680588Y-85863997D01*
X96696635Y-85836067D01*
X96697775Y-85834727D01*
X96707588Y-85826745D01*
X96724161Y-85818851D01*
X96751132Y-85810229D01*
X96792139Y-85800062D01*
X96850820Y-85787531D01*
X96930813Y-85771821D01*
X97035755Y-85752113D01*
X97169285Y-85727592D01*
X97198196Y-85722319D01*
X97283882Y-85705764D01*
X97358582Y-85689569D01*
X97415694Y-85675296D01*
X97448617Y-85664508D01*
X97453031Y-85661993D01*
X97460306Y-85639696D01*
X97466219Y-85589869D01*
X97470766Y-85518304D01*
X97473945Y-85430793D01*
X97475749Y-85333128D01*
X97476177Y-85231101D01*
X97475223Y-85130503D01*
X97472884Y-85037127D01*
X97469156Y-84956765D01*
X97464034Y-84895209D01*
X97457516Y-84858250D01*
X97453586Y-84850686D01*
X97431708Y-84843056D01*
X97381891Y-84830642D01*
X97309097Y-84814522D01*
X97218289Y-84795773D01*
X97114431Y-84775471D01*
X97057846Y-84764830D01*
X96950486Y-84744760D01*
X96854746Y-84726580D01*
X96775306Y-84711199D01*
X96716846Y-84699531D01*
X96684045Y-84692488D01*
X96678646Y-84690926D01*
X96669522Y-84673322D01*
X96650235Y-84630918D01*
X96623355Y-84569772D01*
X96591454Y-84495943D01*
X96557102Y-84415489D01*
X96522871Y-84334468D01*
X96491331Y-84258937D01*
X96465054Y-84194955D01*
X96446611Y-84148580D01*
X96438571Y-84125869D01*
X96438422Y-84124876D01*
X96447535Y-84106961D01*
X96473086Y-84065733D01*
X96512388Y-84005291D01*
X96562757Y-83929731D01*
X96621506Y-83843152D01*
X96655658Y-83793421D01*
X96717890Y-83702236D01*
X96773164Y-83619449D01*
X96818782Y-83549249D01*
X96852048Y-83495824D01*
X96870264Y-83463361D01*
X96872895Y-83456083D01*
X96861586Y-83439145D01*
X96830319Y-83402978D01*
X96783090Y-83351635D01*
X96723892Y-83289167D01*
X96656719Y-83219626D01*
X96585566Y-83147065D01*
X96514426Y-83075535D01*
X96447293Y-83009087D01*
X96388161Y-82951774D01*
X96341025Y-82907647D01*
X96309877Y-82880759D01*
X96299457Y-82874342D01*
X96282491Y-82883365D01*
X96241911Y-82908715D01*
X96181663Y-82947810D01*
X96105693Y-82998071D01*
X96017946Y-83056917D01*
X95951756Y-83101748D01*
X95617332Y-83329154D01*
X95338567Y-83214238D01*
X95059803Y-83099322D01*
X94984254Y-82698576D01*
X94908706Y-82297829D01*
X94074585Y-82297829D01*
X93999036Y-82698576D01*
D10*
X103033333Y-79161904D02*
X103300000Y-78780952D01*
X103490476Y-79161904D02*
X103490476Y-78361904D01*
X103185714Y-78361904D01*
X103109523Y-78400000D01*
X103071428Y-78438095D01*
X103033333Y-78514285D01*
X103033333Y-78628571D01*
X103071428Y-78704761D01*
X103109523Y-78742857D01*
X103185714Y-78780952D01*
X103490476Y-78780952D01*
X102766666Y-78361904D02*
X102233333Y-78361904D01*
X102576190Y-79161904D01*
X113014285Y-98561904D02*
X113280952Y-98180952D01*
X113471428Y-98561904D02*
X113471428Y-97761904D01*
X113166666Y-97761904D01*
X113090476Y-97800000D01*
X113052380Y-97838095D01*
X113014285Y-97914285D01*
X113014285Y-98028571D01*
X113052380Y-98104761D01*
X113090476Y-98142857D01*
X113166666Y-98180952D01*
X113471428Y-98180952D01*
X112252380Y-98561904D02*
X112709523Y-98561904D01*
X112480952Y-98561904D02*
X112480952Y-97761904D01*
X112557142Y-97876190D01*
X112633333Y-97952380D01*
X112709523Y-97990476D01*
X111528571Y-97761904D02*
X111909523Y-97761904D01*
X111947619Y-98142857D01*
X111909523Y-98104761D01*
X111833333Y-98066666D01*
X111642857Y-98066666D01*
X111566666Y-98104761D01*
X111528571Y-98142857D01*
X111490476Y-98219047D01*
X111490476Y-98409523D01*
X111528571Y-98485714D01*
X111566666Y-98523809D01*
X111642857Y-98561904D01*
X111833333Y-98561904D01*
X111909523Y-98523809D01*
X111947619Y-98485714D01*
X117314285Y-78785714D02*
X117352380Y-78823809D01*
X117466666Y-78861904D01*
X117542857Y-78861904D01*
X117657142Y-78823809D01*
X117733333Y-78747619D01*
X117771428Y-78671428D01*
X117809523Y-78519047D01*
X117809523Y-78404761D01*
X117771428Y-78252380D01*
X117733333Y-78176190D01*
X117657142Y-78100000D01*
X117542857Y-78061904D01*
X117466666Y-78061904D01*
X117352380Y-78100000D01*
X117314285Y-78138095D01*
X116552380Y-78861904D02*
X117009523Y-78861904D01*
X116780952Y-78861904D02*
X116780952Y-78061904D01*
X116857142Y-78176190D01*
X116933333Y-78252380D01*
X117009523Y-78290476D01*
X116247619Y-78138095D02*
X116209523Y-78100000D01*
X116133333Y-78061904D01*
X115942857Y-78061904D01*
X115866666Y-78100000D01*
X115828571Y-78138095D01*
X115790476Y-78214285D01*
X115790476Y-78290476D01*
X115828571Y-78404761D01*
X116285714Y-78861904D01*
X115790476Y-78861904D01*
X108133333Y-79835714D02*
X108171428Y-79873809D01*
X108285714Y-79911904D01*
X108361904Y-79911904D01*
X108476190Y-79873809D01*
X108552380Y-79797619D01*
X108590476Y-79721428D01*
X108628571Y-79569047D01*
X108628571Y-79454761D01*
X108590476Y-79302380D01*
X108552380Y-79226190D01*
X108476190Y-79150000D01*
X108361904Y-79111904D01*
X108285714Y-79111904D01*
X108171428Y-79150000D01*
X108133333Y-79188095D01*
X107752380Y-79911904D02*
X107600000Y-79911904D01*
X107523809Y-79873809D01*
X107485714Y-79835714D01*
X107409523Y-79721428D01*
X107371428Y-79569047D01*
X107371428Y-79264285D01*
X107409523Y-79188095D01*
X107447619Y-79150000D01*
X107523809Y-79111904D01*
X107676190Y-79111904D01*
X107752380Y-79150000D01*
X107790476Y-79188095D01*
X107828571Y-79264285D01*
X107828571Y-79454761D01*
X107790476Y-79530952D01*
X107752380Y-79569047D01*
X107676190Y-79607142D01*
X107523809Y-79607142D01*
X107447619Y-79569047D01*
X107409523Y-79530952D01*
X107371428Y-79454761D01*
X110276190Y-91838095D02*
X110352380Y-91800000D01*
X110428571Y-91723809D01*
X110542857Y-91609523D01*
X110619047Y-91571428D01*
X110695238Y-91571428D01*
X110657142Y-91761904D02*
X110733333Y-91723809D01*
X110809523Y-91647619D01*
X110847619Y-91495238D01*
X110847619Y-91228571D01*
X110809523Y-91076190D01*
X110733333Y-91000000D01*
X110657142Y-90961904D01*
X110504761Y-90961904D01*
X110428571Y-91000000D01*
X110352380Y-91076190D01*
X110314285Y-91228571D01*
X110314285Y-91495238D01*
X110352380Y-91647619D01*
X110428571Y-91723809D01*
X110504761Y-91761904D01*
X110657142Y-91761904D01*
X110047619Y-90961904D02*
X109552380Y-90961904D01*
X109819047Y-91266666D01*
X109704761Y-91266666D01*
X109628571Y-91304761D01*
X109590476Y-91342857D01*
X109552380Y-91419047D01*
X109552380Y-91609523D01*
X109590476Y-91685714D01*
X109628571Y-91723809D01*
X109704761Y-91761904D01*
X109933333Y-91761904D01*
X110009523Y-91723809D01*
X110047619Y-91685714D01*
X99566666Y-76061904D02*
X99566666Y-76633333D01*
X99604761Y-76747619D01*
X99680952Y-76823809D01*
X99795238Y-76861904D01*
X99871428Y-76861904D01*
X99185714Y-76861904D02*
X99185714Y-76061904D01*
X98880952Y-76061904D01*
X98804761Y-76100000D01*
X98766666Y-76138095D01*
X98728571Y-76214285D01*
X98728571Y-76328571D01*
X98766666Y-76404761D01*
X98804761Y-76442857D01*
X98880952Y-76480952D01*
X99185714Y-76480952D01*
X97966666Y-76861904D02*
X98423809Y-76861904D01*
X98195238Y-76861904D02*
X98195238Y-76061904D01*
X98271428Y-76176190D01*
X98347619Y-76252380D01*
X98423809Y-76290476D01*
X92966666Y-94761904D02*
X92966666Y-95333333D01*
X93004761Y-95447619D01*
X93080952Y-95523809D01*
X93195238Y-95561904D01*
X93271428Y-95561904D01*
X92585714Y-95561904D02*
X92585714Y-94761904D01*
X92280952Y-94761904D01*
X92204761Y-94800000D01*
X92166666Y-94838095D01*
X92128571Y-94914285D01*
X92128571Y-95028571D01*
X92166666Y-95104761D01*
X92204761Y-95142857D01*
X92280952Y-95180952D01*
X92585714Y-95180952D01*
X91823809Y-94838095D02*
X91785714Y-94800000D01*
X91709523Y-94761904D01*
X91519047Y-94761904D01*
X91442857Y-94800000D01*
X91404761Y-94838095D01*
X91366666Y-94914285D01*
X91366666Y-94990476D01*
X91404761Y-95104761D01*
X91861904Y-95561904D01*
X91366666Y-95561904D01*
M02*
