G04 #@! TF.GenerationSoftware,KiCad,Pcbnew,(2017-06-16 revision 2018d4894)-master*
G04 #@! TF.CreationDate,2017-12-30T03:33:19+01:00*
G04 #@! TF.ProjectId,main,6D61696E2E6B696361645F7063620000,rev?*
G04 #@! TF.SameCoordinates,Original
G04 #@! TF.FileFunction,Copper,L2,Bot,Signal*
G04 #@! TF.FilePolarity,Positive*
%FSLAX46Y46*%
G04 Gerber Fmt 4.6, Leading zero omitted, Abs format (unit mm)*
G04 Created by KiCad (PCBNEW (2017-06-16 revision 2018d4894)-master) date Sat Dec 30 03:33:19 2017*
%MOMM*%
%LPD*%
G01*
G04 APERTURE LIST*
%ADD10C,0.100000*%
%ADD11R,0.800000X0.750000*%
%ADD12O,1.400000X1.800000*%
%ADD13C,0.700000*%
%ADD14R,0.900000X0.500000*%
%ADD15R,0.500000X0.900000*%
%ADD16O,1.700000X1.700000*%
%ADD17R,1.700000X1.700000*%
%ADD18O,1.200000X1.700000*%
%ADD19R,1.200000X1.700000*%
%ADD20C,2.100000*%
%ADD21C,1.750000*%
%ADD22O,2.200000X3.500000*%
%ADD23O,1.500000X2.500000*%
%ADD24R,1.500000X2.500000*%
%ADD25C,0.600000*%
%ADD26C,0.250000*%
%ADD27C,0.150000*%
G04 APERTURE END LIST*
D10*
D11*
X98875000Y-91300000D03*
X100375000Y-91300000D03*
D12*
X98925000Y-72225000D03*
X91675000Y-72225000D03*
D13*
X97725000Y-74875000D03*
X92875000Y-74875000D03*
D14*
X97100000Y-85350000D03*
X97100000Y-86850000D03*
X99000000Y-85350000D03*
X99000000Y-83850000D03*
D15*
X99025000Y-92750000D03*
X100525000Y-92750000D03*
X99050000Y-95200000D03*
X97550000Y-95200000D03*
D16*
X120080000Y-96560000D03*
X120080000Y-99100000D03*
X117540000Y-96560000D03*
X117540000Y-99100000D03*
X115000000Y-96560000D03*
D17*
X115000000Y-99100000D03*
D18*
X110200000Y-97600000D03*
D19*
X108200000Y-97600000D03*
X93350000Y-97650000D03*
D18*
X95350000Y-97650000D03*
X102800000Y-97600000D03*
D19*
X100800000Y-97600000D03*
D20*
X101650000Y-75290000D03*
D21*
X102900000Y-72800000D03*
X107400000Y-72800000D03*
D20*
X108660000Y-75290000D03*
D22*
X111800000Y-74200000D03*
X120000000Y-74200000D03*
D23*
X113900000Y-74200000D03*
X115900000Y-74200000D03*
D24*
X117900000Y-74200000D03*
D11*
X116100000Y-77000000D03*
X117600000Y-77000000D03*
D25*
X95600000Y-85500000D03*
X111000000Y-88000000D03*
X116800000Y-79900000D03*
X92600000Y-77200000D03*
X93700000Y-73700000D03*
X92600000Y-73700000D03*
X91600000Y-74500000D03*
X91600000Y-75400000D03*
X91600000Y-76300000D03*
X93700000Y-76300000D03*
X92600000Y-76300000D03*
X91600000Y-77200000D03*
X98900000Y-82800000D03*
X93200000Y-79700000D03*
X110900000Y-81300000D03*
X110900000Y-80400000D03*
X111400000Y-79600000D03*
X113400000Y-81700000D03*
X113500000Y-79600000D03*
X111000000Y-84400000D03*
X111000000Y-82700000D03*
X120000000Y-86700000D03*
X112500000Y-92800000D03*
X104600000Y-87800000D03*
X103600000Y-87800000D03*
X103000000Y-92600000D03*
X98500000Y-94000000D03*
X100000000Y-93900000D03*
X101500000Y-93900000D03*
X94100000Y-92300000D03*
X92800000Y-91400000D03*
X92800000Y-88200000D03*
X91200000Y-88000000D03*
X100937500Y-88725000D03*
X100937500Y-87875000D03*
X100112500Y-88725000D03*
X100112500Y-87875000D03*
X99287500Y-87875000D03*
X99287500Y-88725000D03*
X98462500Y-87875000D03*
X98462500Y-88725000D03*
X96800000Y-90200000D03*
X109400000Y-79800000D03*
X95300000Y-77100000D03*
X95300000Y-78400000D03*
X97900000Y-90300000D03*
X101300000Y-90600000D03*
X91100000Y-92300000D03*
X91100000Y-81800000D03*
X91100000Y-83400000D03*
X98800000Y-100400000D03*
X99800000Y-99900000D03*
X97800000Y-86800000D03*
X98100000Y-86000000D03*
X99800000Y-86000000D03*
X98900000Y-86000000D03*
D26*
X117900000Y-76200000D02*
X117900000Y-74200000D01*
X117600000Y-76500000D02*
X117900000Y-76200000D01*
X117600000Y-77000000D02*
X117600000Y-76500000D01*
X95300000Y-78400000D02*
X95300000Y-77100000D01*
D27*
X99025000Y-93925000D02*
X99050000Y-93950000D01*
X99050000Y-93950000D02*
X99050000Y-95200000D01*
X99025000Y-92750000D02*
X99025000Y-93925000D01*
X98875000Y-91875000D02*
X99025000Y-92025000D01*
X99025000Y-92025000D02*
X99025000Y-92750000D01*
X98875000Y-91300000D02*
X98875000Y-91875000D01*
X97900000Y-90300000D02*
X98875000Y-91275000D01*
X98875000Y-91275000D02*
X98875000Y-91300000D01*
X100525000Y-92225000D02*
X100375000Y-92075000D01*
X100375000Y-92075000D02*
X100375000Y-91300000D01*
X100525000Y-92750000D02*
X100525000Y-92225000D01*
X100375000Y-91300000D02*
X100600000Y-91300000D01*
X100600000Y-91300000D02*
X101300000Y-90600000D01*
X117540000Y-96560000D02*
X117560000Y-96560000D01*
X117560000Y-96560000D02*
X118800000Y-97800000D01*
X118800000Y-97800000D02*
X118800000Y-100100000D01*
X118800000Y-100100000D02*
X117300000Y-101600000D01*
X90400000Y-93000000D02*
X91100000Y-92300000D01*
X117300000Y-101600000D02*
X90900000Y-101600000D01*
X90900000Y-101600000D02*
X90400000Y-101100000D01*
X90400000Y-101100000D02*
X90400000Y-93000000D01*
X91100000Y-83400000D02*
X91100000Y-81800000D01*
X98800000Y-100400000D02*
X94600000Y-100400000D01*
X94600000Y-100400000D02*
X93350000Y-99150000D01*
X93350000Y-99150000D02*
X93350000Y-97650000D01*
D26*
X116100000Y-76400000D02*
X115900000Y-76200000D01*
X116100000Y-77000000D02*
X116100000Y-76400000D01*
X115900000Y-76200000D02*
X115900000Y-74200000D01*
D27*
X100700000Y-101100000D02*
X99800000Y-100200000D01*
X99800000Y-100200000D02*
X99800000Y-99900000D01*
X117540000Y-99100000D02*
X117540000Y-100360000D01*
X117540000Y-100360000D02*
X116800000Y-101100000D01*
X116800000Y-101100000D02*
X100700000Y-101100000D01*
D26*
X97800000Y-86800000D02*
X97750000Y-86850000D01*
X97750000Y-86850000D02*
X97100000Y-86850000D01*
D27*
X99200000Y-86600000D02*
X98700000Y-86600000D01*
X98700000Y-86600000D02*
X98100000Y-86000000D01*
X99800000Y-86000000D02*
X99200000Y-86600000D01*
X98900000Y-86000000D02*
X98900000Y-85450000D01*
X98900000Y-85450000D02*
X99000000Y-85350000D01*
G36*
X121700000Y-101700000D02*
X117624264Y-101700000D01*
X119012132Y-100312132D01*
X119077164Y-100214805D01*
X119100000Y-100100000D01*
X119100000Y-99552155D01*
X119319860Y-99881200D01*
X119668615Y-100114230D01*
X120080000Y-100196060D01*
X120491385Y-100114230D01*
X120840140Y-99881200D01*
X121073170Y-99532445D01*
X121155000Y-99121060D01*
X121155000Y-99078940D01*
X121073170Y-98667555D01*
X120840140Y-98318800D01*
X120491385Y-98085770D01*
X120080000Y-98003940D01*
X119668615Y-98085770D01*
X119319860Y-98318800D01*
X119100000Y-98647845D01*
X119100000Y-97800000D01*
X119077164Y-97685195D01*
X119012132Y-97587868D01*
X118486522Y-97062258D01*
X118533170Y-96992445D01*
X118572836Y-96793029D01*
X118928335Y-96793029D01*
X119105177Y-97216014D01*
X119430427Y-97539127D01*
X119846972Y-97711661D01*
X120030000Y-97652607D01*
X120030000Y-96610000D01*
X120130000Y-96610000D01*
X120130000Y-97652607D01*
X120313028Y-97711661D01*
X120729573Y-97539127D01*
X121054823Y-97216014D01*
X121231665Y-96793029D01*
X121172690Y-96610000D01*
X120130000Y-96610000D01*
X120030000Y-96610000D01*
X118987310Y-96610000D01*
X118928335Y-96793029D01*
X118572836Y-96793029D01*
X118615000Y-96581060D01*
X118615000Y-96538940D01*
X118572837Y-96326971D01*
X118928335Y-96326971D01*
X118987310Y-96510000D01*
X120030000Y-96510000D01*
X120030000Y-95467393D01*
X120130000Y-95467393D01*
X120130000Y-96510000D01*
X121172690Y-96510000D01*
X121231665Y-96326971D01*
X121054823Y-95903986D01*
X120729573Y-95580873D01*
X120313028Y-95408339D01*
X120130000Y-95467393D01*
X120030000Y-95467393D01*
X119846972Y-95408339D01*
X119430427Y-95580873D01*
X119105177Y-95903986D01*
X118928335Y-96326971D01*
X118572837Y-96326971D01*
X118533170Y-96127555D01*
X118300140Y-95778800D01*
X117951385Y-95545770D01*
X117540000Y-95463940D01*
X117128615Y-95545770D01*
X116779860Y-95778800D01*
X116546830Y-96127555D01*
X116465000Y-96538940D01*
X116465000Y-96581060D01*
X116546830Y-96992445D01*
X116779860Y-97341200D01*
X117128615Y-97574230D01*
X117540000Y-97656060D01*
X117951385Y-97574230D01*
X118070426Y-97494690D01*
X118500000Y-97924264D01*
X118500000Y-98617912D01*
X118300140Y-98318800D01*
X117951385Y-98085770D01*
X117540000Y-98003940D01*
X117128615Y-98085770D01*
X116779860Y-98318800D01*
X116546830Y-98667555D01*
X116465000Y-99078940D01*
X116465000Y-99121060D01*
X116546830Y-99532445D01*
X116779860Y-99881200D01*
X117128615Y-100114230D01*
X117240000Y-100136386D01*
X117240000Y-100235736D01*
X116675736Y-100800000D01*
X100824264Y-100800000D01*
X100233418Y-100209154D01*
X100244814Y-100197777D01*
X100324908Y-100004887D01*
X100325091Y-99796029D01*
X100245333Y-99603000D01*
X100097777Y-99455186D01*
X99904887Y-99375092D01*
X99696029Y-99374909D01*
X99503000Y-99454667D01*
X99355186Y-99602223D01*
X99275092Y-99795113D01*
X99274909Y-100003971D01*
X99354667Y-100197000D01*
X99502223Y-100344814D01*
X99558502Y-100368183D01*
X99587868Y-100412132D01*
X100475736Y-101300000D01*
X91024264Y-101300000D01*
X90700000Y-100975736D01*
X90700000Y-96800000D01*
X92520592Y-96800000D01*
X92520592Y-98500000D01*
X92538055Y-98587791D01*
X92587784Y-98662216D01*
X92662209Y-98711945D01*
X92750000Y-98729408D01*
X93050000Y-98729408D01*
X93050000Y-99150000D01*
X93072836Y-99264805D01*
X93137868Y-99362132D01*
X94387868Y-100612132D01*
X94485195Y-100677164D01*
X94600000Y-100700000D01*
X98357662Y-100700000D01*
X98502223Y-100844814D01*
X98695113Y-100924908D01*
X98903971Y-100925091D01*
X99097000Y-100845333D01*
X99244814Y-100697777D01*
X99324908Y-100504887D01*
X99325091Y-100296029D01*
X99245333Y-100103000D01*
X99097777Y-99955186D01*
X98904887Y-99875092D01*
X98696029Y-99874909D01*
X98503000Y-99954667D01*
X98357413Y-100100000D01*
X94724264Y-100100000D01*
X93650000Y-99025736D01*
X93650000Y-98729408D01*
X93950000Y-98729408D01*
X94037791Y-98711945D01*
X94112216Y-98662216D01*
X94161945Y-98587791D01*
X94179408Y-98500000D01*
X94179408Y-97700000D01*
X94425000Y-97700000D01*
X94425000Y-97950000D01*
X94514546Y-98300176D01*
X94731282Y-98589429D01*
X95042212Y-98773722D01*
X95156125Y-98804455D01*
X95300000Y-98742267D01*
X95300000Y-97700000D01*
X95400000Y-97700000D01*
X95400000Y-98742267D01*
X95543875Y-98804455D01*
X95657788Y-98773722D01*
X95968718Y-98589429D01*
X96185454Y-98300176D01*
X96275000Y-97950000D01*
X96275000Y-97700000D01*
X95400000Y-97700000D01*
X95300000Y-97700000D01*
X94425000Y-97700000D01*
X94179408Y-97700000D01*
X94179408Y-97350000D01*
X94425000Y-97350000D01*
X94425000Y-97600000D01*
X95300000Y-97600000D01*
X95300000Y-96557733D01*
X95400000Y-96557733D01*
X95400000Y-97600000D01*
X96275000Y-97600000D01*
X96275000Y-97350000D01*
X96185454Y-96999824D01*
X95998262Y-96750000D01*
X99970592Y-96750000D01*
X99970592Y-98450000D01*
X99988055Y-98537791D01*
X100037784Y-98612216D01*
X100112209Y-98661945D01*
X100200000Y-98679408D01*
X101400000Y-98679408D01*
X101487791Y-98661945D01*
X101562216Y-98612216D01*
X101611945Y-98537791D01*
X101629408Y-98450000D01*
X101629408Y-97650000D01*
X101875000Y-97650000D01*
X101875000Y-97900000D01*
X101964546Y-98250176D01*
X102181282Y-98539429D01*
X102492212Y-98723722D01*
X102606125Y-98754455D01*
X102750000Y-98692267D01*
X102750000Y-97650000D01*
X102850000Y-97650000D01*
X102850000Y-98692267D01*
X102993875Y-98754455D01*
X103107788Y-98723722D01*
X103418718Y-98539429D01*
X103635454Y-98250176D01*
X103725000Y-97900000D01*
X103725000Y-97650000D01*
X102850000Y-97650000D01*
X102750000Y-97650000D01*
X101875000Y-97650000D01*
X101629408Y-97650000D01*
X101629408Y-97300000D01*
X101875000Y-97300000D01*
X101875000Y-97550000D01*
X102750000Y-97550000D01*
X102750000Y-96507733D01*
X102850000Y-96507733D01*
X102850000Y-97550000D01*
X103725000Y-97550000D01*
X103725000Y-97300000D01*
X103635454Y-96949824D01*
X103485727Y-96750000D01*
X107370592Y-96750000D01*
X107370592Y-98450000D01*
X107388055Y-98537791D01*
X107437784Y-98612216D01*
X107512209Y-98661945D01*
X107600000Y-98679408D01*
X108800000Y-98679408D01*
X108887791Y-98661945D01*
X108962216Y-98612216D01*
X109011945Y-98537791D01*
X109029408Y-98450000D01*
X109029408Y-97650000D01*
X109275000Y-97650000D01*
X109275000Y-97900000D01*
X109364546Y-98250176D01*
X109581282Y-98539429D01*
X109892212Y-98723722D01*
X110006125Y-98754455D01*
X110150000Y-98692267D01*
X110150000Y-97650000D01*
X110250000Y-97650000D01*
X110250000Y-98692267D01*
X110393875Y-98754455D01*
X110507788Y-98723722D01*
X110818718Y-98539429D01*
X111035454Y-98250176D01*
X111035499Y-98250000D01*
X113920592Y-98250000D01*
X113920592Y-99950000D01*
X113938055Y-100037791D01*
X113987784Y-100112216D01*
X114062209Y-100161945D01*
X114150000Y-100179408D01*
X115850000Y-100179408D01*
X115937791Y-100161945D01*
X116012216Y-100112216D01*
X116061945Y-100037791D01*
X116079408Y-99950000D01*
X116079408Y-98250000D01*
X116061945Y-98162209D01*
X116012216Y-98087784D01*
X115937791Y-98038055D01*
X115850000Y-98020592D01*
X114150000Y-98020592D01*
X114062209Y-98038055D01*
X113987784Y-98087784D01*
X113938055Y-98162209D01*
X113920592Y-98250000D01*
X111035499Y-98250000D01*
X111125000Y-97900000D01*
X111125000Y-97650000D01*
X110250000Y-97650000D01*
X110150000Y-97650000D01*
X109275000Y-97650000D01*
X109029408Y-97650000D01*
X109029408Y-97300000D01*
X109275000Y-97300000D01*
X109275000Y-97550000D01*
X110150000Y-97550000D01*
X110150000Y-96507733D01*
X110250000Y-96507733D01*
X110250000Y-97550000D01*
X111125000Y-97550000D01*
X111125000Y-97300000D01*
X111035454Y-96949824D01*
X110818718Y-96660571D01*
X110613509Y-96538940D01*
X113925000Y-96538940D01*
X113925000Y-96581060D01*
X114006830Y-96992445D01*
X114239860Y-97341200D01*
X114588615Y-97574230D01*
X115000000Y-97656060D01*
X115411385Y-97574230D01*
X115760140Y-97341200D01*
X115993170Y-96992445D01*
X116075000Y-96581060D01*
X116075000Y-96538940D01*
X115993170Y-96127555D01*
X115760140Y-95778800D01*
X115411385Y-95545770D01*
X115000000Y-95463940D01*
X114588615Y-95545770D01*
X114239860Y-95778800D01*
X114006830Y-96127555D01*
X113925000Y-96538940D01*
X110613509Y-96538940D01*
X110507788Y-96476278D01*
X110393875Y-96445545D01*
X110250000Y-96507733D01*
X110150000Y-96507733D01*
X110006125Y-96445545D01*
X109892212Y-96476278D01*
X109581282Y-96660571D01*
X109364546Y-96949824D01*
X109275000Y-97300000D01*
X109029408Y-97300000D01*
X109029408Y-96750000D01*
X109011945Y-96662209D01*
X108962216Y-96587784D01*
X108887791Y-96538055D01*
X108800000Y-96520592D01*
X107600000Y-96520592D01*
X107512209Y-96538055D01*
X107437784Y-96587784D01*
X107388055Y-96662209D01*
X107370592Y-96750000D01*
X103485727Y-96750000D01*
X103418718Y-96660571D01*
X103107788Y-96476278D01*
X102993875Y-96445545D01*
X102850000Y-96507733D01*
X102750000Y-96507733D01*
X102606125Y-96445545D01*
X102492212Y-96476278D01*
X102181282Y-96660571D01*
X101964546Y-96949824D01*
X101875000Y-97300000D01*
X101629408Y-97300000D01*
X101629408Y-96750000D01*
X101611945Y-96662209D01*
X101562216Y-96587784D01*
X101487791Y-96538055D01*
X101400000Y-96520592D01*
X100200000Y-96520592D01*
X100112209Y-96538055D01*
X100037784Y-96587784D01*
X99988055Y-96662209D01*
X99970592Y-96750000D01*
X95998262Y-96750000D01*
X95968718Y-96710571D01*
X95657788Y-96526278D01*
X95543875Y-96495545D01*
X95400000Y-96557733D01*
X95300000Y-96557733D01*
X95156125Y-96495545D01*
X95042212Y-96526278D01*
X94731282Y-96710571D01*
X94514546Y-96999824D01*
X94425000Y-97350000D01*
X94179408Y-97350000D01*
X94179408Y-96800000D01*
X94161945Y-96712209D01*
X94112216Y-96637784D01*
X94037791Y-96588055D01*
X93950000Y-96570592D01*
X92750000Y-96570592D01*
X92662209Y-96588055D01*
X92587784Y-96637784D01*
X92538055Y-96712209D01*
X92520592Y-96800000D01*
X90700000Y-96800000D01*
X90700000Y-95331250D01*
X96975000Y-95331250D01*
X96975000Y-95714647D01*
X97024479Y-95834098D01*
X97115903Y-95925522D01*
X97235354Y-95975000D01*
X97418750Y-95975000D01*
X97500000Y-95893750D01*
X97500000Y-95250000D01*
X97600000Y-95250000D01*
X97600000Y-95893750D01*
X97681250Y-95975000D01*
X97864646Y-95975000D01*
X97984097Y-95925522D01*
X98075521Y-95834098D01*
X98125000Y-95714647D01*
X98125000Y-95331250D01*
X98043750Y-95250000D01*
X97600000Y-95250000D01*
X97500000Y-95250000D01*
X97056250Y-95250000D01*
X96975000Y-95331250D01*
X90700000Y-95331250D01*
X90700000Y-94685353D01*
X96975000Y-94685353D01*
X96975000Y-95068750D01*
X97056250Y-95150000D01*
X97500000Y-95150000D01*
X97500000Y-94506250D01*
X97600000Y-94506250D01*
X97600000Y-95150000D01*
X98043750Y-95150000D01*
X98125000Y-95068750D01*
X98125000Y-94685353D01*
X98075521Y-94565902D01*
X97984097Y-94474478D01*
X97864646Y-94425000D01*
X97681250Y-94425000D01*
X97600000Y-94506250D01*
X97500000Y-94506250D01*
X97418750Y-94425000D01*
X97235354Y-94425000D01*
X97115903Y-94474478D01*
X97024479Y-94565902D01*
X96975000Y-94685353D01*
X90700000Y-94685353D01*
X90700000Y-93124264D01*
X90999352Y-92824912D01*
X91203971Y-92825091D01*
X91397000Y-92745333D01*
X91544814Y-92597777D01*
X91624908Y-92404887D01*
X91625091Y-92196029D01*
X91545333Y-92003000D01*
X91397777Y-91855186D01*
X91204887Y-91775092D01*
X90996029Y-91774909D01*
X90803000Y-91854667D01*
X90655186Y-92002223D01*
X90575092Y-92195113D01*
X90574912Y-92400824D01*
X90300000Y-92675736D01*
X90300000Y-90403971D01*
X97374909Y-90403971D01*
X97454667Y-90597000D01*
X97602223Y-90744814D01*
X97795113Y-90824908D01*
X98000824Y-90825088D01*
X98245592Y-91069856D01*
X98245592Y-91675000D01*
X98263055Y-91762791D01*
X98312784Y-91837216D01*
X98387209Y-91886945D01*
X98475000Y-91904408D01*
X98580850Y-91904408D01*
X98597836Y-91989805D01*
X98662868Y-92087132D01*
X98673171Y-92097435D01*
X98612784Y-92137784D01*
X98563055Y-92212209D01*
X98545592Y-92300000D01*
X98545592Y-93200000D01*
X98563055Y-93287791D01*
X98612784Y-93362216D01*
X98687209Y-93411945D01*
X98725000Y-93419462D01*
X98725000Y-93925000D01*
X98747836Y-94039805D01*
X98750000Y-94043044D01*
X98750000Y-94530538D01*
X98712209Y-94538055D01*
X98637784Y-94587784D01*
X98588055Y-94662209D01*
X98570592Y-94750000D01*
X98570592Y-95650000D01*
X98588055Y-95737791D01*
X98637784Y-95812216D01*
X98712209Y-95861945D01*
X98800000Y-95879408D01*
X99300000Y-95879408D01*
X99387791Y-95861945D01*
X99462216Y-95812216D01*
X99511945Y-95737791D01*
X99529408Y-95650000D01*
X99529408Y-94750000D01*
X99511945Y-94662209D01*
X99462216Y-94587784D01*
X99387791Y-94538055D01*
X99350000Y-94530538D01*
X99350000Y-93950000D01*
X99327164Y-93835195D01*
X99325000Y-93831956D01*
X99325000Y-93419462D01*
X99362791Y-93411945D01*
X99437216Y-93362216D01*
X99486945Y-93287791D01*
X99504408Y-93200000D01*
X99504408Y-92300000D01*
X99486945Y-92212209D01*
X99437216Y-92137784D01*
X99362791Y-92088055D01*
X99325000Y-92080538D01*
X99325000Y-92025000D01*
X99302164Y-91910195D01*
X99295564Y-91900317D01*
X99362791Y-91886945D01*
X99437216Y-91837216D01*
X99486945Y-91762791D01*
X99504408Y-91675000D01*
X99504408Y-90925000D01*
X99745592Y-90925000D01*
X99745592Y-91675000D01*
X99763055Y-91762791D01*
X99812784Y-91837216D01*
X99887209Y-91886945D01*
X99975000Y-91904408D01*
X100075000Y-91904408D01*
X100075000Y-92075000D01*
X100093291Y-92166957D01*
X100063055Y-92212209D01*
X100045592Y-92300000D01*
X100045592Y-93200000D01*
X100063055Y-93287791D01*
X100112784Y-93362216D01*
X100187209Y-93411945D01*
X100275000Y-93429408D01*
X100775000Y-93429408D01*
X100862791Y-93411945D01*
X100937216Y-93362216D01*
X100986945Y-93287791D01*
X101004408Y-93200000D01*
X101004408Y-92300000D01*
X100986945Y-92212209D01*
X100937216Y-92137784D01*
X100862791Y-92088055D01*
X100775810Y-92070753D01*
X100737132Y-92012868D01*
X100675000Y-91950736D01*
X100675000Y-91904408D01*
X100775000Y-91904408D01*
X100862791Y-91886945D01*
X100937216Y-91837216D01*
X100986945Y-91762791D01*
X101004408Y-91675000D01*
X101004408Y-91319856D01*
X101199352Y-91124912D01*
X101403971Y-91125091D01*
X101597000Y-91045333D01*
X101744814Y-90897777D01*
X101824908Y-90704887D01*
X101825091Y-90496029D01*
X101745333Y-90303000D01*
X101597777Y-90155186D01*
X101404887Y-90075092D01*
X101196029Y-90074909D01*
X101003000Y-90154667D01*
X100855186Y-90302223D01*
X100775092Y-90495113D01*
X100774916Y-90695592D01*
X99975000Y-90695592D01*
X99887209Y-90713055D01*
X99812784Y-90762784D01*
X99763055Y-90837209D01*
X99745592Y-90925000D01*
X99504408Y-90925000D01*
X99486945Y-90837209D01*
X99437216Y-90762784D01*
X99362791Y-90713055D01*
X99275000Y-90695592D01*
X98719856Y-90695592D01*
X98424912Y-90400648D01*
X98425091Y-90196029D01*
X98345333Y-90003000D01*
X98197777Y-89855186D01*
X98004887Y-89775092D01*
X97796029Y-89774909D01*
X97603000Y-89854667D01*
X97455186Y-90002223D01*
X97375092Y-90195113D01*
X97374909Y-90403971D01*
X90300000Y-90403971D01*
X90300000Y-86600000D01*
X96420592Y-86600000D01*
X96420592Y-87100000D01*
X96438055Y-87187791D01*
X96487784Y-87262216D01*
X96562209Y-87311945D01*
X96650000Y-87329408D01*
X97550000Y-87329408D01*
X97637791Y-87311945D01*
X97647795Y-87305260D01*
X97695113Y-87324908D01*
X97903971Y-87325091D01*
X98097000Y-87245333D01*
X98244814Y-87097777D01*
X98324908Y-86904887D01*
X98325091Y-86696029D01*
X98292226Y-86616490D01*
X98487868Y-86812132D01*
X98585195Y-86877164D01*
X98700000Y-86900000D01*
X99200000Y-86900000D01*
X99314805Y-86877164D01*
X99412132Y-86812132D01*
X99699352Y-86524912D01*
X99903971Y-86525091D01*
X100097000Y-86445333D01*
X100244814Y-86297777D01*
X100324908Y-86104887D01*
X100325091Y-85896029D01*
X100245333Y-85703000D01*
X100097777Y-85555186D01*
X99904887Y-85475092D01*
X99696029Y-85474909D01*
X99679408Y-85481777D01*
X99679408Y-85100000D01*
X99661945Y-85012209D01*
X99612216Y-84937784D01*
X99537791Y-84888055D01*
X99450000Y-84870592D01*
X98550000Y-84870592D01*
X98462209Y-84888055D01*
X98387784Y-84937784D01*
X98338055Y-85012209D01*
X98320592Y-85100000D01*
X98320592Y-85523136D01*
X98204887Y-85475092D01*
X97996029Y-85474909D01*
X97875000Y-85524917D01*
X97875000Y-85481250D01*
X97793750Y-85400000D01*
X97150000Y-85400000D01*
X97150000Y-85843750D01*
X97231250Y-85925000D01*
X97575066Y-85925000D01*
X97574909Y-86103971D01*
X97652902Y-86292729D01*
X97503000Y-86354667D01*
X97487047Y-86370592D01*
X96650000Y-86370592D01*
X96562209Y-86388055D01*
X96487784Y-86437784D01*
X96438055Y-86512209D01*
X96420592Y-86600000D01*
X90300000Y-86600000D01*
X90300000Y-85481250D01*
X96325000Y-85481250D01*
X96325000Y-85664646D01*
X96374478Y-85784097D01*
X96465902Y-85875521D01*
X96585353Y-85925000D01*
X96968750Y-85925000D01*
X97050000Y-85843750D01*
X97050000Y-85400000D01*
X96406250Y-85400000D01*
X96325000Y-85481250D01*
X90300000Y-85481250D01*
X90300000Y-85035354D01*
X96325000Y-85035354D01*
X96325000Y-85218750D01*
X96406250Y-85300000D01*
X97050000Y-85300000D01*
X97050000Y-84856250D01*
X97150000Y-84856250D01*
X97150000Y-85300000D01*
X97793750Y-85300000D01*
X97875000Y-85218750D01*
X97875000Y-85035354D01*
X97825522Y-84915903D01*
X97734098Y-84824479D01*
X97614647Y-84775000D01*
X97231250Y-84775000D01*
X97150000Y-84856250D01*
X97050000Y-84856250D01*
X96968750Y-84775000D01*
X96585353Y-84775000D01*
X96465902Y-84824479D01*
X96374478Y-84915903D01*
X96325000Y-85035354D01*
X90300000Y-85035354D01*
X90300000Y-83981250D01*
X98225000Y-83981250D01*
X98225000Y-84164646D01*
X98274478Y-84284097D01*
X98365902Y-84375521D01*
X98485353Y-84425000D01*
X98868750Y-84425000D01*
X98950000Y-84343750D01*
X98950000Y-83900000D01*
X99050000Y-83900000D01*
X99050000Y-84343750D01*
X99131250Y-84425000D01*
X99514647Y-84425000D01*
X99634098Y-84375521D01*
X99725522Y-84284097D01*
X99775000Y-84164646D01*
X99775000Y-83981250D01*
X99693750Y-83900000D01*
X99050000Y-83900000D01*
X98950000Y-83900000D01*
X98306250Y-83900000D01*
X98225000Y-83981250D01*
X90300000Y-83981250D01*
X90300000Y-81903971D01*
X90574909Y-81903971D01*
X90654667Y-82097000D01*
X90800000Y-82242587D01*
X90800000Y-82957662D01*
X90655186Y-83102223D01*
X90575092Y-83295113D01*
X90574909Y-83503971D01*
X90654667Y-83697000D01*
X90802223Y-83844814D01*
X90995113Y-83924908D01*
X91203971Y-83925091D01*
X91397000Y-83845333D01*
X91544814Y-83697777D01*
X91612257Y-83535354D01*
X98225000Y-83535354D01*
X98225000Y-83718750D01*
X98306250Y-83800000D01*
X98950000Y-83800000D01*
X98950000Y-83356250D01*
X99050000Y-83356250D01*
X99050000Y-83800000D01*
X99693750Y-83800000D01*
X99775000Y-83718750D01*
X99775000Y-83535354D01*
X99725522Y-83415903D01*
X99634098Y-83324479D01*
X99514647Y-83275000D01*
X99131250Y-83275000D01*
X99050000Y-83356250D01*
X98950000Y-83356250D01*
X98868750Y-83275000D01*
X98485353Y-83275000D01*
X98365902Y-83324479D01*
X98274478Y-83415903D01*
X98225000Y-83535354D01*
X91612257Y-83535354D01*
X91624908Y-83504887D01*
X91625091Y-83296029D01*
X91545333Y-83103000D01*
X91400000Y-82957413D01*
X91400000Y-82242338D01*
X91544814Y-82097777D01*
X91624908Y-81904887D01*
X91625091Y-81696029D01*
X91545333Y-81503000D01*
X91397777Y-81355186D01*
X91204887Y-81275092D01*
X90996029Y-81274909D01*
X90803000Y-81354667D01*
X90655186Y-81502223D01*
X90575092Y-81695113D01*
X90574909Y-81903971D01*
X90300000Y-81903971D01*
X90300000Y-77203971D01*
X94774909Y-77203971D01*
X94854667Y-77397000D01*
X94950000Y-77492500D01*
X94950000Y-78007574D01*
X94855186Y-78102223D01*
X94775092Y-78295113D01*
X94774909Y-78503971D01*
X94854667Y-78697000D01*
X95002223Y-78844814D01*
X95195113Y-78924908D01*
X95403971Y-78925091D01*
X95597000Y-78845333D01*
X95744814Y-78697777D01*
X95824908Y-78504887D01*
X95825091Y-78296029D01*
X95745333Y-78103000D01*
X95650000Y-78007500D01*
X95650000Y-77492426D01*
X95744814Y-77397777D01*
X95824908Y-77204887D01*
X95825091Y-76996029D01*
X95745333Y-76803000D01*
X95597777Y-76655186D01*
X95404887Y-76575092D01*
X95196029Y-76574909D01*
X95003000Y-76654667D01*
X94855186Y-76802223D01*
X94775092Y-76995113D01*
X94774909Y-77203971D01*
X90300000Y-77203971D01*
X90300000Y-75542501D01*
X100374779Y-75542501D01*
X100568477Y-76011286D01*
X100926827Y-76370262D01*
X101395274Y-76564778D01*
X101902501Y-76565221D01*
X102371286Y-76371523D01*
X102730262Y-76013173D01*
X102924778Y-75544726D01*
X102924779Y-75542501D01*
X107384779Y-75542501D01*
X107578477Y-76011286D01*
X107936827Y-76370262D01*
X108405274Y-76564778D01*
X108912501Y-76565221D01*
X109381286Y-76371523D01*
X109740262Y-76013173D01*
X109934778Y-75544726D01*
X109935221Y-75037499D01*
X109741523Y-74568714D01*
X109383173Y-74209738D01*
X108914726Y-74015222D01*
X108407499Y-74014779D01*
X107938714Y-74208477D01*
X107579738Y-74566827D01*
X107385222Y-75035274D01*
X107384779Y-75542501D01*
X102924779Y-75542501D01*
X102925221Y-75037499D01*
X102731523Y-74568714D01*
X102373173Y-74209738D01*
X101904726Y-74015222D01*
X101397499Y-74014779D01*
X100928714Y-74208477D01*
X100569738Y-74566827D01*
X100375222Y-75035274D01*
X100374779Y-75542501D01*
X90300000Y-75542501D01*
X90300000Y-74988873D01*
X92299900Y-74988873D01*
X92387254Y-75200286D01*
X92548863Y-75362177D01*
X92760124Y-75449900D01*
X92988873Y-75450100D01*
X93200286Y-75362746D01*
X93362177Y-75201137D01*
X93449900Y-74989876D01*
X93449900Y-74988873D01*
X97149900Y-74988873D01*
X97237254Y-75200286D01*
X97398863Y-75362177D01*
X97610124Y-75449900D01*
X97838873Y-75450100D01*
X98050286Y-75362746D01*
X98212177Y-75201137D01*
X98299900Y-74989876D01*
X98300100Y-74761127D01*
X98212746Y-74549714D01*
X98051137Y-74387823D01*
X97839876Y-74300100D01*
X97611127Y-74299900D01*
X97399714Y-74387254D01*
X97237823Y-74548863D01*
X97150100Y-74760124D01*
X97149900Y-74988873D01*
X93449900Y-74988873D01*
X93450100Y-74761127D01*
X93362746Y-74549714D01*
X93201137Y-74387823D01*
X92989876Y-74300100D01*
X92761127Y-74299900D01*
X92549714Y-74387254D01*
X92387823Y-74548863D01*
X92300100Y-74760124D01*
X92299900Y-74988873D01*
X90300000Y-74988873D01*
X90300000Y-73642280D01*
X102128431Y-73642280D01*
X102221892Y-73818402D01*
X102663235Y-74000382D01*
X103140624Y-73999614D01*
X103578108Y-73818402D01*
X103671569Y-73642280D01*
X102900000Y-72870711D01*
X102128431Y-73642280D01*
X90300000Y-73642280D01*
X90300000Y-72275000D01*
X90650000Y-72275000D01*
X90650000Y-72475000D01*
X90747158Y-72863444D01*
X90985571Y-73185139D01*
X91328943Y-73391110D01*
X91465461Y-73428354D01*
X91625000Y-73367425D01*
X91625000Y-72275000D01*
X91725000Y-72275000D01*
X91725000Y-73367425D01*
X91884539Y-73428354D01*
X92021057Y-73391110D01*
X92364429Y-73185139D01*
X92602842Y-72863444D01*
X92700000Y-72475000D01*
X92700000Y-72275000D01*
X97900000Y-72275000D01*
X97900000Y-72475000D01*
X97997158Y-72863444D01*
X98235571Y-73185139D01*
X98578943Y-73391110D01*
X98715461Y-73428354D01*
X98875000Y-73367425D01*
X98875000Y-72275000D01*
X98975000Y-72275000D01*
X98975000Y-73367425D01*
X99134539Y-73428354D01*
X99271057Y-73391110D01*
X99614429Y-73185139D01*
X99852842Y-72863444D01*
X99927930Y-72563235D01*
X101699618Y-72563235D01*
X101700386Y-73040624D01*
X101881598Y-73478108D01*
X102057720Y-73571569D01*
X102829289Y-72800000D01*
X102970711Y-72800000D01*
X103742280Y-73571569D01*
X103918402Y-73478108D01*
X104100382Y-73036765D01*
X104100352Y-73017844D01*
X106299810Y-73017844D01*
X106466922Y-73422286D01*
X106776087Y-73731991D01*
X107180237Y-73899808D01*
X107617844Y-73900190D01*
X108022286Y-73733078D01*
X108244444Y-73511307D01*
X110475000Y-73511307D01*
X110475000Y-74888693D01*
X110575860Y-75395749D01*
X110863084Y-75825609D01*
X111292944Y-76112833D01*
X111800000Y-76213693D01*
X112307056Y-76112833D01*
X112736916Y-75825609D01*
X113024140Y-75395749D01*
X113063447Y-75198140D01*
X113210571Y-75418326D01*
X113526884Y-75629680D01*
X113900000Y-75703897D01*
X114273116Y-75629680D01*
X114589429Y-75418326D01*
X114800783Y-75102013D01*
X114875000Y-74728897D01*
X114875000Y-73671103D01*
X114925000Y-73671103D01*
X114925000Y-74728897D01*
X114999217Y-75102013D01*
X115210571Y-75418326D01*
X115526884Y-75629680D01*
X115550000Y-75634278D01*
X115550000Y-76200000D01*
X115569891Y-76300000D01*
X115576642Y-76333939D01*
X115627477Y-76410018D01*
X115612209Y-76413055D01*
X115537784Y-76462784D01*
X115488055Y-76537209D01*
X115470592Y-76625000D01*
X115470592Y-77375000D01*
X115488055Y-77462791D01*
X115537784Y-77537216D01*
X115612209Y-77586945D01*
X115700000Y-77604408D01*
X116500000Y-77604408D01*
X116587791Y-77586945D01*
X116662216Y-77537216D01*
X116711945Y-77462791D01*
X116729408Y-77375000D01*
X116729408Y-77131250D01*
X116875000Y-77131250D01*
X116875000Y-77439647D01*
X116924479Y-77559098D01*
X117015903Y-77650522D01*
X117135354Y-77700000D01*
X117468750Y-77700000D01*
X117550000Y-77618750D01*
X117550000Y-77050000D01*
X117650000Y-77050000D01*
X117650000Y-77618750D01*
X117731250Y-77700000D01*
X118064646Y-77700000D01*
X118184097Y-77650522D01*
X118275521Y-77559098D01*
X118325000Y-77439647D01*
X118325000Y-77131250D01*
X118243750Y-77050000D01*
X117650000Y-77050000D01*
X117550000Y-77050000D01*
X116956250Y-77050000D01*
X116875000Y-77131250D01*
X116729408Y-77131250D01*
X116729408Y-76625000D01*
X116716549Y-76560353D01*
X116875000Y-76560353D01*
X116875000Y-76868750D01*
X116956250Y-76950000D01*
X117550000Y-76950000D01*
X117550000Y-76381250D01*
X117650000Y-76381250D01*
X117650000Y-76950000D01*
X118243750Y-76950000D01*
X118325000Y-76868750D01*
X118325000Y-76560353D01*
X118275521Y-76440902D01*
X118184097Y-76349478D01*
X118064646Y-76300000D01*
X117731250Y-76300000D01*
X117650000Y-76381250D01*
X117550000Y-76381250D01*
X117468750Y-76300000D01*
X117135354Y-76300000D01*
X117015903Y-76349478D01*
X116924479Y-76440902D01*
X116875000Y-76560353D01*
X116716549Y-76560353D01*
X116711945Y-76537209D01*
X116662216Y-76462784D01*
X116587791Y-76413055D01*
X116500000Y-76395592D01*
X116449123Y-76395592D01*
X116423358Y-76266061D01*
X116388367Y-76213693D01*
X116347488Y-76152513D01*
X116250000Y-76055025D01*
X116250000Y-75634278D01*
X116273116Y-75629680D01*
X116589429Y-75418326D01*
X116800783Y-75102013D01*
X116825000Y-74980265D01*
X116825000Y-75514647D01*
X116874479Y-75634098D01*
X116965903Y-75725522D01*
X117085354Y-75775000D01*
X117768750Y-75775000D01*
X117850000Y-75693750D01*
X117850000Y-74250000D01*
X117830000Y-74250000D01*
X117830000Y-74150000D01*
X117850000Y-74150000D01*
X117850000Y-72706250D01*
X117950000Y-72706250D01*
X117950000Y-74150000D01*
X117970000Y-74150000D01*
X117970000Y-74250000D01*
X117950000Y-74250000D01*
X117950000Y-75693750D01*
X118031250Y-75775000D01*
X118714646Y-75775000D01*
X118834097Y-75725522D01*
X118925521Y-75634098D01*
X118929194Y-75625230D01*
X119063084Y-75825609D01*
X119492944Y-76112833D01*
X120000000Y-76213693D01*
X120507056Y-76112833D01*
X120936916Y-75825609D01*
X121224140Y-75395749D01*
X121325000Y-74888693D01*
X121325000Y-73511307D01*
X121224140Y-73004251D01*
X120936916Y-72574391D01*
X120507056Y-72287167D01*
X120000000Y-72186307D01*
X119492944Y-72287167D01*
X119063084Y-72574391D01*
X118929194Y-72774770D01*
X118925521Y-72765902D01*
X118834097Y-72674478D01*
X118714646Y-72625000D01*
X118031250Y-72625000D01*
X117950000Y-72706250D01*
X117850000Y-72706250D01*
X117768750Y-72625000D01*
X117085354Y-72625000D01*
X116965903Y-72674478D01*
X116874479Y-72765902D01*
X116825000Y-72885353D01*
X116825000Y-73419735D01*
X116800783Y-73297987D01*
X116589429Y-72981674D01*
X116273116Y-72770320D01*
X115900000Y-72696103D01*
X115526884Y-72770320D01*
X115210571Y-72981674D01*
X114999217Y-73297987D01*
X114925000Y-73671103D01*
X114875000Y-73671103D01*
X114800783Y-73297987D01*
X114589429Y-72981674D01*
X114273116Y-72770320D01*
X113900000Y-72696103D01*
X113526884Y-72770320D01*
X113210571Y-72981674D01*
X113063447Y-73201860D01*
X113024140Y-73004251D01*
X112736916Y-72574391D01*
X112307056Y-72287167D01*
X111800000Y-72186307D01*
X111292944Y-72287167D01*
X110863084Y-72574391D01*
X110575860Y-73004251D01*
X110475000Y-73511307D01*
X108244444Y-73511307D01*
X108331991Y-73423913D01*
X108499808Y-73019763D01*
X108500190Y-72582156D01*
X108333078Y-72177714D01*
X108023913Y-71868009D01*
X107619763Y-71700192D01*
X107182156Y-71699810D01*
X106777714Y-71866922D01*
X106468009Y-72176087D01*
X106300192Y-72580237D01*
X106299810Y-73017844D01*
X104100352Y-73017844D01*
X104099614Y-72559376D01*
X103918402Y-72121892D01*
X103742280Y-72028431D01*
X102970711Y-72800000D01*
X102829289Y-72800000D01*
X102057720Y-72028431D01*
X101881598Y-72121892D01*
X101699618Y-72563235D01*
X99927930Y-72563235D01*
X99950000Y-72475000D01*
X99950000Y-72275000D01*
X98975000Y-72275000D01*
X98875000Y-72275000D01*
X97900000Y-72275000D01*
X92700000Y-72275000D01*
X91725000Y-72275000D01*
X91625000Y-72275000D01*
X90650000Y-72275000D01*
X90300000Y-72275000D01*
X90300000Y-71975000D01*
X90650000Y-71975000D01*
X90650000Y-72175000D01*
X91625000Y-72175000D01*
X91625000Y-71082575D01*
X91725000Y-71082575D01*
X91725000Y-72175000D01*
X92700000Y-72175000D01*
X92700000Y-71975000D01*
X97900000Y-71975000D01*
X97900000Y-72175000D01*
X98875000Y-72175000D01*
X98875000Y-71082575D01*
X98975000Y-71082575D01*
X98975000Y-72175000D01*
X99950000Y-72175000D01*
X99950000Y-71975000D01*
X99945678Y-71957720D01*
X102128431Y-71957720D01*
X102900000Y-72729289D01*
X103671569Y-71957720D01*
X103578108Y-71781598D01*
X103136765Y-71599618D01*
X102659376Y-71600386D01*
X102221892Y-71781598D01*
X102128431Y-71957720D01*
X99945678Y-71957720D01*
X99852842Y-71586556D01*
X99614429Y-71264861D01*
X99271057Y-71058890D01*
X99134539Y-71021646D01*
X98975000Y-71082575D01*
X98875000Y-71082575D01*
X98715461Y-71021646D01*
X98578943Y-71058890D01*
X98235571Y-71264861D01*
X97997158Y-71586556D01*
X97900000Y-71975000D01*
X92700000Y-71975000D01*
X92602842Y-71586556D01*
X92364429Y-71264861D01*
X92021057Y-71058890D01*
X91884539Y-71021646D01*
X91725000Y-71082575D01*
X91625000Y-71082575D01*
X91465461Y-71021646D01*
X91328943Y-71058890D01*
X90985571Y-71264861D01*
X90747158Y-71586556D01*
X90650000Y-71975000D01*
X90300000Y-71975000D01*
X90300000Y-70300000D01*
X121700000Y-70300000D01*
X121700000Y-101700000D01*
X121700000Y-101700000D01*
G37*
X121700000Y-101700000D02*
X117624264Y-101700000D01*
X119012132Y-100312132D01*
X119077164Y-100214805D01*
X119100000Y-100100000D01*
X119100000Y-99552155D01*
X119319860Y-99881200D01*
X119668615Y-100114230D01*
X120080000Y-100196060D01*
X120491385Y-100114230D01*
X120840140Y-99881200D01*
X121073170Y-99532445D01*
X121155000Y-99121060D01*
X121155000Y-99078940D01*
X121073170Y-98667555D01*
X120840140Y-98318800D01*
X120491385Y-98085770D01*
X120080000Y-98003940D01*
X119668615Y-98085770D01*
X119319860Y-98318800D01*
X119100000Y-98647845D01*
X119100000Y-97800000D01*
X119077164Y-97685195D01*
X119012132Y-97587868D01*
X118486522Y-97062258D01*
X118533170Y-96992445D01*
X118572836Y-96793029D01*
X118928335Y-96793029D01*
X119105177Y-97216014D01*
X119430427Y-97539127D01*
X119846972Y-97711661D01*
X120030000Y-97652607D01*
X120030000Y-96610000D01*
X120130000Y-96610000D01*
X120130000Y-97652607D01*
X120313028Y-97711661D01*
X120729573Y-97539127D01*
X121054823Y-97216014D01*
X121231665Y-96793029D01*
X121172690Y-96610000D01*
X120130000Y-96610000D01*
X120030000Y-96610000D01*
X118987310Y-96610000D01*
X118928335Y-96793029D01*
X118572836Y-96793029D01*
X118615000Y-96581060D01*
X118615000Y-96538940D01*
X118572837Y-96326971D01*
X118928335Y-96326971D01*
X118987310Y-96510000D01*
X120030000Y-96510000D01*
X120030000Y-95467393D01*
X120130000Y-95467393D01*
X120130000Y-96510000D01*
X121172690Y-96510000D01*
X121231665Y-96326971D01*
X121054823Y-95903986D01*
X120729573Y-95580873D01*
X120313028Y-95408339D01*
X120130000Y-95467393D01*
X120030000Y-95467393D01*
X119846972Y-95408339D01*
X119430427Y-95580873D01*
X119105177Y-95903986D01*
X118928335Y-96326971D01*
X118572837Y-96326971D01*
X118533170Y-96127555D01*
X118300140Y-95778800D01*
X117951385Y-95545770D01*
X117540000Y-95463940D01*
X117128615Y-95545770D01*
X116779860Y-95778800D01*
X116546830Y-96127555D01*
X116465000Y-96538940D01*
X116465000Y-96581060D01*
X116546830Y-96992445D01*
X116779860Y-97341200D01*
X117128615Y-97574230D01*
X117540000Y-97656060D01*
X117951385Y-97574230D01*
X118070426Y-97494690D01*
X118500000Y-97924264D01*
X118500000Y-98617912D01*
X118300140Y-98318800D01*
X117951385Y-98085770D01*
X117540000Y-98003940D01*
X117128615Y-98085770D01*
X116779860Y-98318800D01*
X116546830Y-98667555D01*
X116465000Y-99078940D01*
X116465000Y-99121060D01*
X116546830Y-99532445D01*
X116779860Y-99881200D01*
X117128615Y-100114230D01*
X117240000Y-100136386D01*
X117240000Y-100235736D01*
X116675736Y-100800000D01*
X100824264Y-100800000D01*
X100233418Y-100209154D01*
X100244814Y-100197777D01*
X100324908Y-100004887D01*
X100325091Y-99796029D01*
X100245333Y-99603000D01*
X100097777Y-99455186D01*
X99904887Y-99375092D01*
X99696029Y-99374909D01*
X99503000Y-99454667D01*
X99355186Y-99602223D01*
X99275092Y-99795113D01*
X99274909Y-100003971D01*
X99354667Y-100197000D01*
X99502223Y-100344814D01*
X99558502Y-100368183D01*
X99587868Y-100412132D01*
X100475736Y-101300000D01*
X91024264Y-101300000D01*
X90700000Y-100975736D01*
X90700000Y-96800000D01*
X92520592Y-96800000D01*
X92520592Y-98500000D01*
X92538055Y-98587791D01*
X92587784Y-98662216D01*
X92662209Y-98711945D01*
X92750000Y-98729408D01*
X93050000Y-98729408D01*
X93050000Y-99150000D01*
X93072836Y-99264805D01*
X93137868Y-99362132D01*
X94387868Y-100612132D01*
X94485195Y-100677164D01*
X94600000Y-100700000D01*
X98357662Y-100700000D01*
X98502223Y-100844814D01*
X98695113Y-100924908D01*
X98903971Y-100925091D01*
X99097000Y-100845333D01*
X99244814Y-100697777D01*
X99324908Y-100504887D01*
X99325091Y-100296029D01*
X99245333Y-100103000D01*
X99097777Y-99955186D01*
X98904887Y-99875092D01*
X98696029Y-99874909D01*
X98503000Y-99954667D01*
X98357413Y-100100000D01*
X94724264Y-100100000D01*
X93650000Y-99025736D01*
X93650000Y-98729408D01*
X93950000Y-98729408D01*
X94037791Y-98711945D01*
X94112216Y-98662216D01*
X94161945Y-98587791D01*
X94179408Y-98500000D01*
X94179408Y-97700000D01*
X94425000Y-97700000D01*
X94425000Y-97950000D01*
X94514546Y-98300176D01*
X94731282Y-98589429D01*
X95042212Y-98773722D01*
X95156125Y-98804455D01*
X95300000Y-98742267D01*
X95300000Y-97700000D01*
X95400000Y-97700000D01*
X95400000Y-98742267D01*
X95543875Y-98804455D01*
X95657788Y-98773722D01*
X95968718Y-98589429D01*
X96185454Y-98300176D01*
X96275000Y-97950000D01*
X96275000Y-97700000D01*
X95400000Y-97700000D01*
X95300000Y-97700000D01*
X94425000Y-97700000D01*
X94179408Y-97700000D01*
X94179408Y-97350000D01*
X94425000Y-97350000D01*
X94425000Y-97600000D01*
X95300000Y-97600000D01*
X95300000Y-96557733D01*
X95400000Y-96557733D01*
X95400000Y-97600000D01*
X96275000Y-97600000D01*
X96275000Y-97350000D01*
X96185454Y-96999824D01*
X95998262Y-96750000D01*
X99970592Y-96750000D01*
X99970592Y-98450000D01*
X99988055Y-98537791D01*
X100037784Y-98612216D01*
X100112209Y-98661945D01*
X100200000Y-98679408D01*
X101400000Y-98679408D01*
X101487791Y-98661945D01*
X101562216Y-98612216D01*
X101611945Y-98537791D01*
X101629408Y-98450000D01*
X101629408Y-97650000D01*
X101875000Y-97650000D01*
X101875000Y-97900000D01*
X101964546Y-98250176D01*
X102181282Y-98539429D01*
X102492212Y-98723722D01*
X102606125Y-98754455D01*
X102750000Y-98692267D01*
X102750000Y-97650000D01*
X102850000Y-97650000D01*
X102850000Y-98692267D01*
X102993875Y-98754455D01*
X103107788Y-98723722D01*
X103418718Y-98539429D01*
X103635454Y-98250176D01*
X103725000Y-97900000D01*
X103725000Y-97650000D01*
X102850000Y-97650000D01*
X102750000Y-97650000D01*
X101875000Y-97650000D01*
X101629408Y-97650000D01*
X101629408Y-97300000D01*
X101875000Y-97300000D01*
X101875000Y-97550000D01*
X102750000Y-97550000D01*
X102750000Y-96507733D01*
X102850000Y-96507733D01*
X102850000Y-97550000D01*
X103725000Y-97550000D01*
X103725000Y-97300000D01*
X103635454Y-96949824D01*
X103485727Y-96750000D01*
X107370592Y-96750000D01*
X107370592Y-98450000D01*
X107388055Y-98537791D01*
X107437784Y-98612216D01*
X107512209Y-98661945D01*
X107600000Y-98679408D01*
X108800000Y-98679408D01*
X108887791Y-98661945D01*
X108962216Y-98612216D01*
X109011945Y-98537791D01*
X109029408Y-98450000D01*
X109029408Y-97650000D01*
X109275000Y-97650000D01*
X109275000Y-97900000D01*
X109364546Y-98250176D01*
X109581282Y-98539429D01*
X109892212Y-98723722D01*
X110006125Y-98754455D01*
X110150000Y-98692267D01*
X110150000Y-97650000D01*
X110250000Y-97650000D01*
X110250000Y-98692267D01*
X110393875Y-98754455D01*
X110507788Y-98723722D01*
X110818718Y-98539429D01*
X111035454Y-98250176D01*
X111035499Y-98250000D01*
X113920592Y-98250000D01*
X113920592Y-99950000D01*
X113938055Y-100037791D01*
X113987784Y-100112216D01*
X114062209Y-100161945D01*
X114150000Y-100179408D01*
X115850000Y-100179408D01*
X115937791Y-100161945D01*
X116012216Y-100112216D01*
X116061945Y-100037791D01*
X116079408Y-99950000D01*
X116079408Y-98250000D01*
X116061945Y-98162209D01*
X116012216Y-98087784D01*
X115937791Y-98038055D01*
X115850000Y-98020592D01*
X114150000Y-98020592D01*
X114062209Y-98038055D01*
X113987784Y-98087784D01*
X113938055Y-98162209D01*
X113920592Y-98250000D01*
X111035499Y-98250000D01*
X111125000Y-97900000D01*
X111125000Y-97650000D01*
X110250000Y-97650000D01*
X110150000Y-97650000D01*
X109275000Y-97650000D01*
X109029408Y-97650000D01*
X109029408Y-97300000D01*
X109275000Y-97300000D01*
X109275000Y-97550000D01*
X110150000Y-97550000D01*
X110150000Y-96507733D01*
X110250000Y-96507733D01*
X110250000Y-97550000D01*
X111125000Y-97550000D01*
X111125000Y-97300000D01*
X111035454Y-96949824D01*
X110818718Y-96660571D01*
X110613509Y-96538940D01*
X113925000Y-96538940D01*
X113925000Y-96581060D01*
X114006830Y-96992445D01*
X114239860Y-97341200D01*
X114588615Y-97574230D01*
X115000000Y-97656060D01*
X115411385Y-97574230D01*
X115760140Y-97341200D01*
X115993170Y-96992445D01*
X116075000Y-96581060D01*
X116075000Y-96538940D01*
X115993170Y-96127555D01*
X115760140Y-95778800D01*
X115411385Y-95545770D01*
X115000000Y-95463940D01*
X114588615Y-95545770D01*
X114239860Y-95778800D01*
X114006830Y-96127555D01*
X113925000Y-96538940D01*
X110613509Y-96538940D01*
X110507788Y-96476278D01*
X110393875Y-96445545D01*
X110250000Y-96507733D01*
X110150000Y-96507733D01*
X110006125Y-96445545D01*
X109892212Y-96476278D01*
X109581282Y-96660571D01*
X109364546Y-96949824D01*
X109275000Y-97300000D01*
X109029408Y-97300000D01*
X109029408Y-96750000D01*
X109011945Y-96662209D01*
X108962216Y-96587784D01*
X108887791Y-96538055D01*
X108800000Y-96520592D01*
X107600000Y-96520592D01*
X107512209Y-96538055D01*
X107437784Y-96587784D01*
X107388055Y-96662209D01*
X107370592Y-96750000D01*
X103485727Y-96750000D01*
X103418718Y-96660571D01*
X103107788Y-96476278D01*
X102993875Y-96445545D01*
X102850000Y-96507733D01*
X102750000Y-96507733D01*
X102606125Y-96445545D01*
X102492212Y-96476278D01*
X102181282Y-96660571D01*
X101964546Y-96949824D01*
X101875000Y-97300000D01*
X101629408Y-97300000D01*
X101629408Y-96750000D01*
X101611945Y-96662209D01*
X101562216Y-96587784D01*
X101487791Y-96538055D01*
X101400000Y-96520592D01*
X100200000Y-96520592D01*
X100112209Y-96538055D01*
X100037784Y-96587784D01*
X99988055Y-96662209D01*
X99970592Y-96750000D01*
X95998262Y-96750000D01*
X95968718Y-96710571D01*
X95657788Y-96526278D01*
X95543875Y-96495545D01*
X95400000Y-96557733D01*
X95300000Y-96557733D01*
X95156125Y-96495545D01*
X95042212Y-96526278D01*
X94731282Y-96710571D01*
X94514546Y-96999824D01*
X94425000Y-97350000D01*
X94179408Y-97350000D01*
X94179408Y-96800000D01*
X94161945Y-96712209D01*
X94112216Y-96637784D01*
X94037791Y-96588055D01*
X93950000Y-96570592D01*
X92750000Y-96570592D01*
X92662209Y-96588055D01*
X92587784Y-96637784D01*
X92538055Y-96712209D01*
X92520592Y-96800000D01*
X90700000Y-96800000D01*
X90700000Y-95331250D01*
X96975000Y-95331250D01*
X96975000Y-95714647D01*
X97024479Y-95834098D01*
X97115903Y-95925522D01*
X97235354Y-95975000D01*
X97418750Y-95975000D01*
X97500000Y-95893750D01*
X97500000Y-95250000D01*
X97600000Y-95250000D01*
X97600000Y-95893750D01*
X97681250Y-95975000D01*
X97864646Y-95975000D01*
X97984097Y-95925522D01*
X98075521Y-95834098D01*
X98125000Y-95714647D01*
X98125000Y-95331250D01*
X98043750Y-95250000D01*
X97600000Y-95250000D01*
X97500000Y-95250000D01*
X97056250Y-95250000D01*
X96975000Y-95331250D01*
X90700000Y-95331250D01*
X90700000Y-94685353D01*
X96975000Y-94685353D01*
X96975000Y-95068750D01*
X97056250Y-95150000D01*
X97500000Y-95150000D01*
X97500000Y-94506250D01*
X97600000Y-94506250D01*
X97600000Y-95150000D01*
X98043750Y-95150000D01*
X98125000Y-95068750D01*
X98125000Y-94685353D01*
X98075521Y-94565902D01*
X97984097Y-94474478D01*
X97864646Y-94425000D01*
X97681250Y-94425000D01*
X97600000Y-94506250D01*
X97500000Y-94506250D01*
X97418750Y-94425000D01*
X97235354Y-94425000D01*
X97115903Y-94474478D01*
X97024479Y-94565902D01*
X96975000Y-94685353D01*
X90700000Y-94685353D01*
X90700000Y-93124264D01*
X90999352Y-92824912D01*
X91203971Y-92825091D01*
X91397000Y-92745333D01*
X91544814Y-92597777D01*
X91624908Y-92404887D01*
X91625091Y-92196029D01*
X91545333Y-92003000D01*
X91397777Y-91855186D01*
X91204887Y-91775092D01*
X90996029Y-91774909D01*
X90803000Y-91854667D01*
X90655186Y-92002223D01*
X90575092Y-92195113D01*
X90574912Y-92400824D01*
X90300000Y-92675736D01*
X90300000Y-90403971D01*
X97374909Y-90403971D01*
X97454667Y-90597000D01*
X97602223Y-90744814D01*
X97795113Y-90824908D01*
X98000824Y-90825088D01*
X98245592Y-91069856D01*
X98245592Y-91675000D01*
X98263055Y-91762791D01*
X98312784Y-91837216D01*
X98387209Y-91886945D01*
X98475000Y-91904408D01*
X98580850Y-91904408D01*
X98597836Y-91989805D01*
X98662868Y-92087132D01*
X98673171Y-92097435D01*
X98612784Y-92137784D01*
X98563055Y-92212209D01*
X98545592Y-92300000D01*
X98545592Y-93200000D01*
X98563055Y-93287791D01*
X98612784Y-93362216D01*
X98687209Y-93411945D01*
X98725000Y-93419462D01*
X98725000Y-93925000D01*
X98747836Y-94039805D01*
X98750000Y-94043044D01*
X98750000Y-94530538D01*
X98712209Y-94538055D01*
X98637784Y-94587784D01*
X98588055Y-94662209D01*
X98570592Y-94750000D01*
X98570592Y-95650000D01*
X98588055Y-95737791D01*
X98637784Y-95812216D01*
X98712209Y-95861945D01*
X98800000Y-95879408D01*
X99300000Y-95879408D01*
X99387791Y-95861945D01*
X99462216Y-95812216D01*
X99511945Y-95737791D01*
X99529408Y-95650000D01*
X99529408Y-94750000D01*
X99511945Y-94662209D01*
X99462216Y-94587784D01*
X99387791Y-94538055D01*
X99350000Y-94530538D01*
X99350000Y-93950000D01*
X99327164Y-93835195D01*
X99325000Y-93831956D01*
X99325000Y-93419462D01*
X99362791Y-93411945D01*
X99437216Y-93362216D01*
X99486945Y-93287791D01*
X99504408Y-93200000D01*
X99504408Y-92300000D01*
X99486945Y-92212209D01*
X99437216Y-92137784D01*
X99362791Y-92088055D01*
X99325000Y-92080538D01*
X99325000Y-92025000D01*
X99302164Y-91910195D01*
X99295564Y-91900317D01*
X99362791Y-91886945D01*
X99437216Y-91837216D01*
X99486945Y-91762791D01*
X99504408Y-91675000D01*
X99504408Y-90925000D01*
X99745592Y-90925000D01*
X99745592Y-91675000D01*
X99763055Y-91762791D01*
X99812784Y-91837216D01*
X99887209Y-91886945D01*
X99975000Y-91904408D01*
X100075000Y-91904408D01*
X100075000Y-92075000D01*
X100093291Y-92166957D01*
X100063055Y-92212209D01*
X100045592Y-92300000D01*
X100045592Y-93200000D01*
X100063055Y-93287791D01*
X100112784Y-93362216D01*
X100187209Y-93411945D01*
X100275000Y-93429408D01*
X100775000Y-93429408D01*
X100862791Y-93411945D01*
X100937216Y-93362216D01*
X100986945Y-93287791D01*
X101004408Y-93200000D01*
X101004408Y-92300000D01*
X100986945Y-92212209D01*
X100937216Y-92137784D01*
X100862791Y-92088055D01*
X100775810Y-92070753D01*
X100737132Y-92012868D01*
X100675000Y-91950736D01*
X100675000Y-91904408D01*
X100775000Y-91904408D01*
X100862791Y-91886945D01*
X100937216Y-91837216D01*
X100986945Y-91762791D01*
X101004408Y-91675000D01*
X101004408Y-91319856D01*
X101199352Y-91124912D01*
X101403971Y-91125091D01*
X101597000Y-91045333D01*
X101744814Y-90897777D01*
X101824908Y-90704887D01*
X101825091Y-90496029D01*
X101745333Y-90303000D01*
X101597777Y-90155186D01*
X101404887Y-90075092D01*
X101196029Y-90074909D01*
X101003000Y-90154667D01*
X100855186Y-90302223D01*
X100775092Y-90495113D01*
X100774916Y-90695592D01*
X99975000Y-90695592D01*
X99887209Y-90713055D01*
X99812784Y-90762784D01*
X99763055Y-90837209D01*
X99745592Y-90925000D01*
X99504408Y-90925000D01*
X99486945Y-90837209D01*
X99437216Y-90762784D01*
X99362791Y-90713055D01*
X99275000Y-90695592D01*
X98719856Y-90695592D01*
X98424912Y-90400648D01*
X98425091Y-90196029D01*
X98345333Y-90003000D01*
X98197777Y-89855186D01*
X98004887Y-89775092D01*
X97796029Y-89774909D01*
X97603000Y-89854667D01*
X97455186Y-90002223D01*
X97375092Y-90195113D01*
X97374909Y-90403971D01*
X90300000Y-90403971D01*
X90300000Y-86600000D01*
X96420592Y-86600000D01*
X96420592Y-87100000D01*
X96438055Y-87187791D01*
X96487784Y-87262216D01*
X96562209Y-87311945D01*
X96650000Y-87329408D01*
X97550000Y-87329408D01*
X97637791Y-87311945D01*
X97647795Y-87305260D01*
X97695113Y-87324908D01*
X97903971Y-87325091D01*
X98097000Y-87245333D01*
X98244814Y-87097777D01*
X98324908Y-86904887D01*
X98325091Y-86696029D01*
X98292226Y-86616490D01*
X98487868Y-86812132D01*
X98585195Y-86877164D01*
X98700000Y-86900000D01*
X99200000Y-86900000D01*
X99314805Y-86877164D01*
X99412132Y-86812132D01*
X99699352Y-86524912D01*
X99903971Y-86525091D01*
X100097000Y-86445333D01*
X100244814Y-86297777D01*
X100324908Y-86104887D01*
X100325091Y-85896029D01*
X100245333Y-85703000D01*
X100097777Y-85555186D01*
X99904887Y-85475092D01*
X99696029Y-85474909D01*
X99679408Y-85481777D01*
X99679408Y-85100000D01*
X99661945Y-85012209D01*
X99612216Y-84937784D01*
X99537791Y-84888055D01*
X99450000Y-84870592D01*
X98550000Y-84870592D01*
X98462209Y-84888055D01*
X98387784Y-84937784D01*
X98338055Y-85012209D01*
X98320592Y-85100000D01*
X98320592Y-85523136D01*
X98204887Y-85475092D01*
X97996029Y-85474909D01*
X97875000Y-85524917D01*
X97875000Y-85481250D01*
X97793750Y-85400000D01*
X97150000Y-85400000D01*
X97150000Y-85843750D01*
X97231250Y-85925000D01*
X97575066Y-85925000D01*
X97574909Y-86103971D01*
X97652902Y-86292729D01*
X97503000Y-86354667D01*
X97487047Y-86370592D01*
X96650000Y-86370592D01*
X96562209Y-86388055D01*
X96487784Y-86437784D01*
X96438055Y-86512209D01*
X96420592Y-86600000D01*
X90300000Y-86600000D01*
X90300000Y-85481250D01*
X96325000Y-85481250D01*
X96325000Y-85664646D01*
X96374478Y-85784097D01*
X96465902Y-85875521D01*
X96585353Y-85925000D01*
X96968750Y-85925000D01*
X97050000Y-85843750D01*
X97050000Y-85400000D01*
X96406250Y-85400000D01*
X96325000Y-85481250D01*
X90300000Y-85481250D01*
X90300000Y-85035354D01*
X96325000Y-85035354D01*
X96325000Y-85218750D01*
X96406250Y-85300000D01*
X97050000Y-85300000D01*
X97050000Y-84856250D01*
X97150000Y-84856250D01*
X97150000Y-85300000D01*
X97793750Y-85300000D01*
X97875000Y-85218750D01*
X97875000Y-85035354D01*
X97825522Y-84915903D01*
X97734098Y-84824479D01*
X97614647Y-84775000D01*
X97231250Y-84775000D01*
X97150000Y-84856250D01*
X97050000Y-84856250D01*
X96968750Y-84775000D01*
X96585353Y-84775000D01*
X96465902Y-84824479D01*
X96374478Y-84915903D01*
X96325000Y-85035354D01*
X90300000Y-85035354D01*
X90300000Y-83981250D01*
X98225000Y-83981250D01*
X98225000Y-84164646D01*
X98274478Y-84284097D01*
X98365902Y-84375521D01*
X98485353Y-84425000D01*
X98868750Y-84425000D01*
X98950000Y-84343750D01*
X98950000Y-83900000D01*
X99050000Y-83900000D01*
X99050000Y-84343750D01*
X99131250Y-84425000D01*
X99514647Y-84425000D01*
X99634098Y-84375521D01*
X99725522Y-84284097D01*
X99775000Y-84164646D01*
X99775000Y-83981250D01*
X99693750Y-83900000D01*
X99050000Y-83900000D01*
X98950000Y-83900000D01*
X98306250Y-83900000D01*
X98225000Y-83981250D01*
X90300000Y-83981250D01*
X90300000Y-81903971D01*
X90574909Y-81903971D01*
X90654667Y-82097000D01*
X90800000Y-82242587D01*
X90800000Y-82957662D01*
X90655186Y-83102223D01*
X90575092Y-83295113D01*
X90574909Y-83503971D01*
X90654667Y-83697000D01*
X90802223Y-83844814D01*
X90995113Y-83924908D01*
X91203971Y-83925091D01*
X91397000Y-83845333D01*
X91544814Y-83697777D01*
X91612257Y-83535354D01*
X98225000Y-83535354D01*
X98225000Y-83718750D01*
X98306250Y-83800000D01*
X98950000Y-83800000D01*
X98950000Y-83356250D01*
X99050000Y-83356250D01*
X99050000Y-83800000D01*
X99693750Y-83800000D01*
X99775000Y-83718750D01*
X99775000Y-83535354D01*
X99725522Y-83415903D01*
X99634098Y-83324479D01*
X99514647Y-83275000D01*
X99131250Y-83275000D01*
X99050000Y-83356250D01*
X98950000Y-83356250D01*
X98868750Y-83275000D01*
X98485353Y-83275000D01*
X98365902Y-83324479D01*
X98274478Y-83415903D01*
X98225000Y-83535354D01*
X91612257Y-83535354D01*
X91624908Y-83504887D01*
X91625091Y-83296029D01*
X91545333Y-83103000D01*
X91400000Y-82957413D01*
X91400000Y-82242338D01*
X91544814Y-82097777D01*
X91624908Y-81904887D01*
X91625091Y-81696029D01*
X91545333Y-81503000D01*
X91397777Y-81355186D01*
X91204887Y-81275092D01*
X90996029Y-81274909D01*
X90803000Y-81354667D01*
X90655186Y-81502223D01*
X90575092Y-81695113D01*
X90574909Y-81903971D01*
X90300000Y-81903971D01*
X90300000Y-77203971D01*
X94774909Y-77203971D01*
X94854667Y-77397000D01*
X94950000Y-77492500D01*
X94950000Y-78007574D01*
X94855186Y-78102223D01*
X94775092Y-78295113D01*
X94774909Y-78503971D01*
X94854667Y-78697000D01*
X95002223Y-78844814D01*
X95195113Y-78924908D01*
X95403971Y-78925091D01*
X95597000Y-78845333D01*
X95744814Y-78697777D01*
X95824908Y-78504887D01*
X95825091Y-78296029D01*
X95745333Y-78103000D01*
X95650000Y-78007500D01*
X95650000Y-77492426D01*
X95744814Y-77397777D01*
X95824908Y-77204887D01*
X95825091Y-76996029D01*
X95745333Y-76803000D01*
X95597777Y-76655186D01*
X95404887Y-76575092D01*
X95196029Y-76574909D01*
X95003000Y-76654667D01*
X94855186Y-76802223D01*
X94775092Y-76995113D01*
X94774909Y-77203971D01*
X90300000Y-77203971D01*
X90300000Y-75542501D01*
X100374779Y-75542501D01*
X100568477Y-76011286D01*
X100926827Y-76370262D01*
X101395274Y-76564778D01*
X101902501Y-76565221D01*
X102371286Y-76371523D01*
X102730262Y-76013173D01*
X102924778Y-75544726D01*
X102924779Y-75542501D01*
X107384779Y-75542501D01*
X107578477Y-76011286D01*
X107936827Y-76370262D01*
X108405274Y-76564778D01*
X108912501Y-76565221D01*
X109381286Y-76371523D01*
X109740262Y-76013173D01*
X109934778Y-75544726D01*
X109935221Y-75037499D01*
X109741523Y-74568714D01*
X109383173Y-74209738D01*
X108914726Y-74015222D01*
X108407499Y-74014779D01*
X107938714Y-74208477D01*
X107579738Y-74566827D01*
X107385222Y-75035274D01*
X107384779Y-75542501D01*
X102924779Y-75542501D01*
X102925221Y-75037499D01*
X102731523Y-74568714D01*
X102373173Y-74209738D01*
X101904726Y-74015222D01*
X101397499Y-74014779D01*
X100928714Y-74208477D01*
X100569738Y-74566827D01*
X100375222Y-75035274D01*
X100374779Y-75542501D01*
X90300000Y-75542501D01*
X90300000Y-74988873D01*
X92299900Y-74988873D01*
X92387254Y-75200286D01*
X92548863Y-75362177D01*
X92760124Y-75449900D01*
X92988873Y-75450100D01*
X93200286Y-75362746D01*
X93362177Y-75201137D01*
X93449900Y-74989876D01*
X93449900Y-74988873D01*
X97149900Y-74988873D01*
X97237254Y-75200286D01*
X97398863Y-75362177D01*
X97610124Y-75449900D01*
X97838873Y-75450100D01*
X98050286Y-75362746D01*
X98212177Y-75201137D01*
X98299900Y-74989876D01*
X98300100Y-74761127D01*
X98212746Y-74549714D01*
X98051137Y-74387823D01*
X97839876Y-74300100D01*
X97611127Y-74299900D01*
X97399714Y-74387254D01*
X97237823Y-74548863D01*
X97150100Y-74760124D01*
X97149900Y-74988873D01*
X93449900Y-74988873D01*
X93450100Y-74761127D01*
X93362746Y-74549714D01*
X93201137Y-74387823D01*
X92989876Y-74300100D01*
X92761127Y-74299900D01*
X92549714Y-74387254D01*
X92387823Y-74548863D01*
X92300100Y-74760124D01*
X92299900Y-74988873D01*
X90300000Y-74988873D01*
X90300000Y-73642280D01*
X102128431Y-73642280D01*
X102221892Y-73818402D01*
X102663235Y-74000382D01*
X103140624Y-73999614D01*
X103578108Y-73818402D01*
X103671569Y-73642280D01*
X102900000Y-72870711D01*
X102128431Y-73642280D01*
X90300000Y-73642280D01*
X90300000Y-72275000D01*
X90650000Y-72275000D01*
X90650000Y-72475000D01*
X90747158Y-72863444D01*
X90985571Y-73185139D01*
X91328943Y-73391110D01*
X91465461Y-73428354D01*
X91625000Y-73367425D01*
X91625000Y-72275000D01*
X91725000Y-72275000D01*
X91725000Y-73367425D01*
X91884539Y-73428354D01*
X92021057Y-73391110D01*
X92364429Y-73185139D01*
X92602842Y-72863444D01*
X92700000Y-72475000D01*
X92700000Y-72275000D01*
X97900000Y-72275000D01*
X97900000Y-72475000D01*
X97997158Y-72863444D01*
X98235571Y-73185139D01*
X98578943Y-73391110D01*
X98715461Y-73428354D01*
X98875000Y-73367425D01*
X98875000Y-72275000D01*
X98975000Y-72275000D01*
X98975000Y-73367425D01*
X99134539Y-73428354D01*
X99271057Y-73391110D01*
X99614429Y-73185139D01*
X99852842Y-72863444D01*
X99927930Y-72563235D01*
X101699618Y-72563235D01*
X101700386Y-73040624D01*
X101881598Y-73478108D01*
X102057720Y-73571569D01*
X102829289Y-72800000D01*
X102970711Y-72800000D01*
X103742280Y-73571569D01*
X103918402Y-73478108D01*
X104100382Y-73036765D01*
X104100352Y-73017844D01*
X106299810Y-73017844D01*
X106466922Y-73422286D01*
X106776087Y-73731991D01*
X107180237Y-73899808D01*
X107617844Y-73900190D01*
X108022286Y-73733078D01*
X108244444Y-73511307D01*
X110475000Y-73511307D01*
X110475000Y-74888693D01*
X110575860Y-75395749D01*
X110863084Y-75825609D01*
X111292944Y-76112833D01*
X111800000Y-76213693D01*
X112307056Y-76112833D01*
X112736916Y-75825609D01*
X113024140Y-75395749D01*
X113063447Y-75198140D01*
X113210571Y-75418326D01*
X113526884Y-75629680D01*
X113900000Y-75703897D01*
X114273116Y-75629680D01*
X114589429Y-75418326D01*
X114800783Y-75102013D01*
X114875000Y-74728897D01*
X114875000Y-73671103D01*
X114925000Y-73671103D01*
X114925000Y-74728897D01*
X114999217Y-75102013D01*
X115210571Y-75418326D01*
X115526884Y-75629680D01*
X115550000Y-75634278D01*
X115550000Y-76200000D01*
X115569891Y-76300000D01*
X115576642Y-76333939D01*
X115627477Y-76410018D01*
X115612209Y-76413055D01*
X115537784Y-76462784D01*
X115488055Y-76537209D01*
X115470592Y-76625000D01*
X115470592Y-77375000D01*
X115488055Y-77462791D01*
X115537784Y-77537216D01*
X115612209Y-77586945D01*
X115700000Y-77604408D01*
X116500000Y-77604408D01*
X116587791Y-77586945D01*
X116662216Y-77537216D01*
X116711945Y-77462791D01*
X116729408Y-77375000D01*
X116729408Y-77131250D01*
X116875000Y-77131250D01*
X116875000Y-77439647D01*
X116924479Y-77559098D01*
X117015903Y-77650522D01*
X117135354Y-77700000D01*
X117468750Y-77700000D01*
X117550000Y-77618750D01*
X117550000Y-77050000D01*
X117650000Y-77050000D01*
X117650000Y-77618750D01*
X117731250Y-77700000D01*
X118064646Y-77700000D01*
X118184097Y-77650522D01*
X118275521Y-77559098D01*
X118325000Y-77439647D01*
X118325000Y-77131250D01*
X118243750Y-77050000D01*
X117650000Y-77050000D01*
X117550000Y-77050000D01*
X116956250Y-77050000D01*
X116875000Y-77131250D01*
X116729408Y-77131250D01*
X116729408Y-76625000D01*
X116716549Y-76560353D01*
X116875000Y-76560353D01*
X116875000Y-76868750D01*
X116956250Y-76950000D01*
X117550000Y-76950000D01*
X117550000Y-76381250D01*
X117650000Y-76381250D01*
X117650000Y-76950000D01*
X118243750Y-76950000D01*
X118325000Y-76868750D01*
X118325000Y-76560353D01*
X118275521Y-76440902D01*
X118184097Y-76349478D01*
X118064646Y-76300000D01*
X117731250Y-76300000D01*
X117650000Y-76381250D01*
X117550000Y-76381250D01*
X117468750Y-76300000D01*
X117135354Y-76300000D01*
X117015903Y-76349478D01*
X116924479Y-76440902D01*
X116875000Y-76560353D01*
X116716549Y-76560353D01*
X116711945Y-76537209D01*
X116662216Y-76462784D01*
X116587791Y-76413055D01*
X116500000Y-76395592D01*
X116449123Y-76395592D01*
X116423358Y-76266061D01*
X116388367Y-76213693D01*
X116347488Y-76152513D01*
X116250000Y-76055025D01*
X116250000Y-75634278D01*
X116273116Y-75629680D01*
X116589429Y-75418326D01*
X116800783Y-75102013D01*
X116825000Y-74980265D01*
X116825000Y-75514647D01*
X116874479Y-75634098D01*
X116965903Y-75725522D01*
X117085354Y-75775000D01*
X117768750Y-75775000D01*
X117850000Y-75693750D01*
X117850000Y-74250000D01*
X117830000Y-74250000D01*
X117830000Y-74150000D01*
X117850000Y-74150000D01*
X117850000Y-72706250D01*
X117950000Y-72706250D01*
X117950000Y-74150000D01*
X117970000Y-74150000D01*
X117970000Y-74250000D01*
X117950000Y-74250000D01*
X117950000Y-75693750D01*
X118031250Y-75775000D01*
X118714646Y-75775000D01*
X118834097Y-75725522D01*
X118925521Y-75634098D01*
X118929194Y-75625230D01*
X119063084Y-75825609D01*
X119492944Y-76112833D01*
X120000000Y-76213693D01*
X120507056Y-76112833D01*
X120936916Y-75825609D01*
X121224140Y-75395749D01*
X121325000Y-74888693D01*
X121325000Y-73511307D01*
X121224140Y-73004251D01*
X120936916Y-72574391D01*
X120507056Y-72287167D01*
X120000000Y-72186307D01*
X119492944Y-72287167D01*
X119063084Y-72574391D01*
X118929194Y-72774770D01*
X118925521Y-72765902D01*
X118834097Y-72674478D01*
X118714646Y-72625000D01*
X118031250Y-72625000D01*
X117950000Y-72706250D01*
X117850000Y-72706250D01*
X117768750Y-72625000D01*
X117085354Y-72625000D01*
X116965903Y-72674478D01*
X116874479Y-72765902D01*
X116825000Y-72885353D01*
X116825000Y-73419735D01*
X116800783Y-73297987D01*
X116589429Y-72981674D01*
X116273116Y-72770320D01*
X115900000Y-72696103D01*
X115526884Y-72770320D01*
X115210571Y-72981674D01*
X114999217Y-73297987D01*
X114925000Y-73671103D01*
X114875000Y-73671103D01*
X114800783Y-73297987D01*
X114589429Y-72981674D01*
X114273116Y-72770320D01*
X113900000Y-72696103D01*
X113526884Y-72770320D01*
X113210571Y-72981674D01*
X113063447Y-73201860D01*
X113024140Y-73004251D01*
X112736916Y-72574391D01*
X112307056Y-72287167D01*
X111800000Y-72186307D01*
X111292944Y-72287167D01*
X110863084Y-72574391D01*
X110575860Y-73004251D01*
X110475000Y-73511307D01*
X108244444Y-73511307D01*
X108331991Y-73423913D01*
X108499808Y-73019763D01*
X108500190Y-72582156D01*
X108333078Y-72177714D01*
X108023913Y-71868009D01*
X107619763Y-71700192D01*
X107182156Y-71699810D01*
X106777714Y-71866922D01*
X106468009Y-72176087D01*
X106300192Y-72580237D01*
X106299810Y-73017844D01*
X104100352Y-73017844D01*
X104099614Y-72559376D01*
X103918402Y-72121892D01*
X103742280Y-72028431D01*
X102970711Y-72800000D01*
X102829289Y-72800000D01*
X102057720Y-72028431D01*
X101881598Y-72121892D01*
X101699618Y-72563235D01*
X99927930Y-72563235D01*
X99950000Y-72475000D01*
X99950000Y-72275000D01*
X98975000Y-72275000D01*
X98875000Y-72275000D01*
X97900000Y-72275000D01*
X92700000Y-72275000D01*
X91725000Y-72275000D01*
X91625000Y-72275000D01*
X90650000Y-72275000D01*
X90300000Y-72275000D01*
X90300000Y-71975000D01*
X90650000Y-71975000D01*
X90650000Y-72175000D01*
X91625000Y-72175000D01*
X91625000Y-71082575D01*
X91725000Y-71082575D01*
X91725000Y-72175000D01*
X92700000Y-72175000D01*
X92700000Y-71975000D01*
X97900000Y-71975000D01*
X97900000Y-72175000D01*
X98875000Y-72175000D01*
X98875000Y-71082575D01*
X98975000Y-71082575D01*
X98975000Y-72175000D01*
X99950000Y-72175000D01*
X99950000Y-71975000D01*
X99945678Y-71957720D01*
X102128431Y-71957720D01*
X102900000Y-72729289D01*
X103671569Y-71957720D01*
X103578108Y-71781598D01*
X103136765Y-71599618D01*
X102659376Y-71600386D01*
X102221892Y-71781598D01*
X102128431Y-71957720D01*
X99945678Y-71957720D01*
X99852842Y-71586556D01*
X99614429Y-71264861D01*
X99271057Y-71058890D01*
X99134539Y-71021646D01*
X98975000Y-71082575D01*
X98875000Y-71082575D01*
X98715461Y-71021646D01*
X98578943Y-71058890D01*
X98235571Y-71264861D01*
X97997158Y-71586556D01*
X97900000Y-71975000D01*
X92700000Y-71975000D01*
X92602842Y-71586556D01*
X92364429Y-71264861D01*
X92021057Y-71058890D01*
X91884539Y-71021646D01*
X91725000Y-71082575D01*
X91625000Y-71082575D01*
X91465461Y-71021646D01*
X91328943Y-71058890D01*
X90985571Y-71264861D01*
X90747158Y-71586556D01*
X90650000Y-71975000D01*
X90300000Y-71975000D01*
X90300000Y-70300000D01*
X121700000Y-70300000D01*
X121700000Y-101700000D01*
M02*
